<svg xmlns="http://www.w3.org/2000/svg" width="174" height="360" fill="none"><path fill="url(#a)" d="M0 12.273C0 5.495 5.495 0 12.273 0H161.59c6.778 0 12.273 5.495 12.273 12.273v335.454c0 6.778-5.495 12.273-12.273 12.273H12.273C5.495 360 0 354.505 0 347.727z"/><path stroke="#4986E8" d="M0 12.273C0 5.495 5.495 0 12.273 0H161.59c6.778 0 12.273 5.495 12.273 12.273v335.454c0 6.778-5.495 12.273-12.273 12.273H12.273C5.495 360 0 354.505 0 347.727z"/><defs><radialGradient id="a" cx="0" cy="0" r="1" gradientTransform="matrix(-173.864 0 0 -180 173.864 180)" gradientUnits="userSpaceOnUse"><stop stop-color="#E0F5FF"/><stop offset=".935" stop-color="#fff"/></radialGradient></defs></svg>