<svg xmlns="http://www.w3.org/2000/svg" width="174" height="360" viewBox="0 0 174 360" fill="none">
  <path d="M0 12.2727C0 5.4947 5.49469 0 12.2727 0H161.591C168.369 0 173.864 5.49469 173.864 12.2727V347.727C173.864 354.505 168.369 360 161.591 360H12.2727C5.49467 360 0 354.505 0 347.727V12.2727Z" fill="url(#paint0_radial_4_15)"/>
  <path d="M0 12.2727C0 5.4947 5.49469 0 12.2727 0H161.591C168.369 0 173.864 5.49469 173.864 12.2727V347.727C173.864 354.505 168.369 360 161.591 360H12.2727C5.49467 360 0 354.505 0 347.727V12.2727Z" stroke="#4986E8"/>
  <defs>
    <radialGradient id="paint0_radial_4_15" cx="0" cy="0" r="1" gradientUnits="userSpaceOnUse" gradientTransform="translate(173.864 180) rotate(-180) scale(173.864 180)">
      <stop stop-color="#E0F5FF"/>
      <stop offset="0.935" stop-color="white"/>
    </radialGradient>
  </defs>
</svg>