<svg width="28" height="37" viewBox="0 0 28 37" fill="none" xmlns="http://www.w3.org/2000/svg">
<path d="M27.7299 14.6111C27.7299 6.54171 21.5223 0 13.865 0C6.20765 0 0 6.54171 0 14.6111C0 18.463 1.41542 21.9665 3.7273 24.5765L12.9586 36.0069C13.4343 36.5956 14.2965 36.5956 14.7722 36.0069L24.0035 24.5765C26.3154 21.9665 27.7308 18.463 27.7308 14.6111H27.7299ZM13.865 7.17119C17.3445 7.17119 20.1663 10.1439 20.1663 13.8116C20.1663 17.4794 17.3454 20.4521 13.865 20.4521C10.3845 20.4521 7.56361 17.4794 7.56361 13.8116C7.56361 10.1439 10.3845 7.17119 13.865 7.17119Z" fill="#FEE101"/>
</svg>
