<svg width="173" height="181" viewBox="0 0 173 181" fill="none" xmlns="http://www.w3.org/2000/svg">
<path opacity="0.2" fill-rule="evenodd" clip-rule="evenodd" d="M60.0973 5.00361C54.3062 7.72027 45.6196 10.4659 40.7937 11.1083C24.1685 13.3202 21.98 14.2837 19.0748 20.6613C14.8135 30.0259 19.4681 41.6073 31.2481 50.943C40.5766 58.3396 40.9433 59.1389 39.5752 69.129C37.7944 82.1351 41.1533 82.7896 44.9295 70.1722C48.4524 58.4096 47.41 55.833 35.8062 47.5985C18.141 35.0632 18.8818 16.7927 37.0561 16.7927C41.6648 16.7927 51.886 14.0761 59.7691 10.7557C85.6794 -0.159264 108.349 5.34409 118.498 25.0103C123.02 33.7737 123.143 35.6355 120.233 51.5733C118.512 60.9983 117.231 71.2733 117.385 74.4053C117.562 77.9237 124.511 87.3801 135.584 99.1572C154.323 119.094 168.352 142.923 168.352 154.823C168.352 158.595 169.585 161.681 171.093 161.681C175.685 161.681 171.443 140.646 164.141 127.188C160.486 120.453 149.456 106.385 139.63 95.9261L121.767 76.9119L124.89 56.8231C128.263 35.1187 127.587 29.4101 120.238 17.493C109.879 0.700412 81.7366 -5.14344 60.0973 5.00361ZM59.1659 18.174C58.1694 19.1858 57.3562 22.5472 57.3562 25.6478C57.3562 31.8805 63.6781 33.2352 71.9931 28.7823C77.0796 26.0559 78.5467 20.3328 73.6436 22.3396C71.9859 23.0181 68.8129 24.3052 66.5978 25.1987C63.666 26.3795 62.3486 25.3919 61.7719 21.5789C61.3327 18.6932 60.1624 17.1622 59.1659 18.174ZM89.0406 27.0557C78.9617 54.7294 78.1244 58.2164 80.6098 62.1864C84.3836 68.2137 100.316 68.6508 109.485 62.9784C116.746 58.4869 121.946 45.896 118.708 40.6535C116.249 36.6715 112.854 41.0857 112.854 48.265C112.854 56.1421 103.576 62.6742 92.3874 62.6742C83.3943 62.6742 82.8924 58.2164 89.8127 39.8131C96.8706 21.0525 96.7548 21.6223 93.4901 21.6223C92.1316 21.6223 90.1288 24.0661 89.0406 27.0557ZM29.6918 91.9031C25.001 96.0251 21.162 101.415 21.162 103.878C21.162 107.013 18.2713 109.229 11.5561 111.241C-6.29974 116.597 -2.62724 133.641 16.8211 135.674C28.4033 136.884 29.5808 136.567 27.2933 132.866C26.4198 131.448 22.0041 130.289 17.4847 130.289C11.7129 130.289 8.49162 128.84 6.66261 125.418C4.33894 121.074 5.21243 120.055 14.7918 115.945C23.1044 112.378 25.8745 109.739 27.0858 104.226C29.0282 95.3659 43.4287 86.407 48.1436 91.1255C49.7602 92.7434 53.8816 94.0667 57.3007 94.0667C66.0307 94.0667 74.2468 100.502 74.2468 107.343C74.2468 110.509 75.3326 113.772 76.6598 114.593C79.5191 116.36 79.9365 127.874 77.1424 127.874C76.0807 127.874 74.0103 126.672 72.5409 125.201C70.5864 123.245 69.1362 123.895 67.1455 127.616C65.6495 130.415 62.7684 132.704 60.744 132.704C57.7278 132.704 57.3586 130.622 58.6978 121.233C60.0177 111.97 59.7402 110.326 57.25 112.687C55.5537 114.296 54.0698 120.272 53.9515 125.969C53.7561 135.377 54.3086 136.394 59.9767 137.053C63.4585 137.456 67.5943 136.116 69.3341 134.015C72.1089 130.67 73.0886 130.939 78.1775 136.432C81.406 139.922 83.8986 145.601 83.8986 149.475C83.8986 153.575 85.4743 156.939 87.8124 157.837C90.7417 158.962 91.3546 161.203 90.2471 166.743C89.1854 172.048 89.6149 173.864 91.7624 173.159C96.3132 171.664 96.8248 158.158 92.467 154.538C90.4087 152.829 88.7245 149.054 88.7245 146.152C88.7245 143.247 87.2116 138.801 85.3608 136.268C83.153 133.245 82.6777 129.878 83.9782 126.457C86.6928 119.309 80.4312 101.471 72.8208 94.6704C69.4764 91.6833 63.6057 89.2371 59.7764 89.2371C55.947 89.2371 52.1442 88.1504 51.3238 86.8223C48.4066 82.0989 38.0936 84.5186 29.6918 91.9031ZM25.9879 115.8C25.9879 121.832 36.7834 122.591 39.0371 116.715C40.1905 113.706 39.4135 113.098 35.6759 114.076C33.0023 114.776 30.8138 114.363 30.8138 113.158C30.8138 111.956 29.728 110.97 28.4008 110.97C27.0737 110.97 25.9879 113.144 25.9879 115.8ZM22.9717 145.913C20.6505 149.108 18.7491 153.254 18.7491 155.123C18.7491 156.994 17.019 161.993 14.9076 166.233C10.9383 174.193 11.6936 181 16.5412 181C18.1555 181 18.7659 178.911 18.0035 175.994C17.1831 172.855 18.3509 169.568 21.1306 167.185C23.5677 165.096 25.0203 161.966 24.3543 160.23C23.6884 158.496 24.8707 154.611 26.9796 151.597C34.3922 141.003 30.5242 135.517 22.9717 145.913Z" fill="#7C514D"/>
</svg>
