<svg width="129" height="119" viewBox="0 0 129 119" fill="none" xmlns="http://www.w3.org/2000/svg">
<g id="paw print (Traced)">
<path id="Layer 5" fill-rule="evenodd" clip-rule="evenodd" d="M82.72 1.58214C82.4597 2.04881 82.2701 2.13027 82.0145 1.88497C81.4779 1.36985 80.9087 1.48554 80.6872 2.1551C80.5304 2.62995 80.3644 2.69748 79.9186 2.46854C79.2599 2.13027 78.952 2.33347 78.952 3.10691C78.952 3.54359 78.7753 3.62051 78.0793 3.48696C76.893 3.25923 75.6017 4.27464 75.1215 5.81243C74.8517 6.67732 74.5318 7.06585 73.9819 7.1985C72.8754 7.46499 71.5724 9.37254 70.7635 11.9094C70.376 13.1237 69.7176 15.0449 69.2999 16.1787C68.4922 18.3712 68.3256 19.9033 68.8755 20.0792C69.1122 20.1549 69.1122 20.4357 68.8755 21.0328C68.3143 22.4501 68.4537 25.0875 69.1241 25.731C69.6517 26.2373 69.6592 26.3209 69.203 26.6007C68.7588 26.873 68.7913 26.9832 69.4769 27.5199C70.1612 28.0559 70.2016 28.1915 69.8126 28.6418C69.4321 29.0819 69.4333 29.1915 69.8227 29.4226C70.1019 29.5879 70.2789 30.1984 70.2842 31.0124C70.3016 33.6746 73.1786 37.8898 74.9786 37.8898C75.5127 37.8898 75.6831 38.0591 75.6641 38.5712C75.6452 39.0896 75.809 39.2468 76.3491 39.2286C76.84 39.212 77.059 39.3782 77.059 39.768C77.059 40.4863 77.8723 40.7955 78.4828 40.3091C78.8661 40.0039 78.952 40.0281 78.952 40.4424C78.952 41.2403 80.9866 41.9132 82.5414 41.6295C83.257 41.499 84.2489 41.4323 84.7461 41.482C86.1072 41.6174 87.09 41.2891 87.3092 40.6256C87.466 40.152 87.6941 40.0678 88.4346 40.2098C89.2369 40.3639 89.3634 40.2976 89.3634 39.7243C89.3634 39.198 89.4944 39.1002 89.9944 39.2525C90.5037 39.4076 90.6255 39.307 90.6255 38.7298C90.6255 38.1847 90.8687 37.9461 91.6508 37.7253C92.4572 37.4973 92.85 37.0936 93.4892 35.8351C93.9363 34.955 94.6108 34.0274 94.9879 33.774C95.3797 33.5105 95.6734 32.9896 95.6734 32.5587C95.6734 32.1335 96.0347 31.483 96.5007 31.0682C97.303 30.3544 97.3409 30.0376 96.7796 28.7291C96.6177 28.3511 96.7007 28.1991 97.0692 28.1991C97.7296 28.1991 98.1015 27.3051 97.5721 26.9911C97.074 26.6958 97.4289 26.0793 98.0968 26.0793C98.4846 26.0793 98.5114 25.9881 98.223 25.6544C97.9431 25.3307 97.9447 25.2011 98.2296 25.1099C98.5136 25.0191 98.507 24.8177 98.2028 24.2717C97.8589 23.6551 97.8813 23.4973 98.3621 23.16C98.8076 22.8474 98.8448 22.6778 98.5445 22.3302C98.2874 22.0328 98.2722 21.8308 98.4975 21.6973C98.9449 21.432 98.919 19.3221 98.4631 18.8845C98.1867 18.6193 98.2028 18.4127 98.5303 18.0342C98.9001 17.6063 98.8862 17.4809 98.4331 17.1629C98.0239 16.8758 97.9892 16.7096 98.2795 16.431C98.5697 16.1524 98.5685 15.9377 98.2735 15.4846C98.0637 15.1621 97.9779 14.6839 98.0826 14.4217C98.371 13.7006 97.5478 11.2344 96.8865 10.8379C96.5452 10.6332 96.3044 10.1372 96.3044 9.63843C96.3044 8.37652 95.486 7.07645 93.3378 4.92694C91.0943 2.68143 90.0468 2.11604 86.8795 1.44041C83.8173 0.786899 83.1506 0.809611 82.72 1.58214ZM42.5259 1.80927C42.3912 2.21718 42.1256 2.33226 41.5583 2.22839C40.8803 2.10392 40.7765 2.19477 40.7765 2.91431C40.7765 3.61416 40.7033 3.68532 40.3073 3.37007C39.6265 2.8277 38.7929 3.22168 39.04 3.96908C39.1857 4.40909 39.1204 4.53023 38.8008 4.41242C37.5152 3.93879 35.7285 5.70341 35.7285 7.44652C35.7285 7.9898 35.4821 8.33291 34.9132 8.58154C33.7528 9.08909 32.6243 11.4418 32.223 14.19C32.0343 15.4825 31.6813 17.4515 31.4386 18.566C31.1263 19.9993 31.0891 20.8242 31.3121 21.3869C31.4853 21.8242 31.627 22.9973 31.627 23.9943C31.627 25.9079 32.2034 27.3924 33.0707 27.7118C33.5045 27.8717 33.5232 27.982 33.1815 28.3772C32.7701 28.8532 32.9742 29.1403 33.9932 29.5173C34.1911 29.5906 34.1617 29.8732 33.9144 30.2753C33.3878 31.1311 33.4118 31.2274 34.151 31.2274C34.6631 31.2274 34.782 31.4294 34.782 32.2995C34.782 34.8845 38.1793 38.7983 40.4234 38.7983C40.8311 38.7983 41.0832 39.0351 41.1488 39.4797C41.2198 39.9587 41.4633 40.161 41.9694 40.161C42.3653 40.161 42.8121 40.3509 42.9626 40.5829C43.121 40.8273 43.5103 40.936 43.8876 40.8415C44.246 40.7516 44.6963 40.8594 44.8881 41.0814C45.4456 41.7261 46.9237 41.8945 48.4009 41.4814C49.153 41.2712 50.2153 41.0783 50.7614 41.0529C52.1944 40.986 52.7459 40.7189 53.0431 39.9475C53.2138 39.5045 53.57 39.264 54.0609 39.2595C54.6345 39.2541 54.8105 39.0917 54.7926 38.5842C54.7749 38.0836 54.9333 37.9316 55.4236 37.9785C55.9145 38.0255 56.0722 37.8734 56.0546 37.371C56.0375 36.8956 56.2928 36.613 56.9329 36.3989C57.8857 36.0801 58.76 34.5765 58.76 33.2567C58.76 32.8013 59.0499 32.3921 59.5572 32.1317C60.5444 31.6245 60.7612 30.8419 60.5974 28.376C60.4889 26.7355 60.5583 26.3954 61.0644 26.092C61.6291 25.7534 61.6316 25.7068 61.113 25.1568C60.6375 24.6523 60.6287 24.5551 61.0455 24.4016C61.5424 24.2184 61.5906 23.0464 61.1417 22.0628C60.9937 21.7388 61.0666 21.333 61.3275 21.0295C61.626 20.6822 61.649 20.4947 61.4029 20.4154C61.1818 20.3436 61.106 19.8149 61.201 19.0051C61.3149 18.0351 61.2149 17.5766 60.8025 17.1811C60.3914 16.7865 60.3428 16.5651 60.6101 16.3086C61.1262 15.8132 61.0543 15.547 60.3463 15.3314C59.8144 15.1694 59.78 15.0543 60.1097 14.5371C60.4305 14.0338 60.405 13.8829 59.9564 13.6383C59.6598 13.4765 59.4954 13.1489 59.5907 12.9102C59.8475 12.2676 58.2552 9.12058 57.6731 9.12058C57.3437 9.12058 57.1825 8.83622 57.1825 8.25478C57.1825 7.14096 55.2664 5.02506 52.6106 3.20594C50.3869 1.68298 48.6962 1.2469 45.014 1.2469C43.0481 1.2469 42.6849 1.32897 42.5259 1.80927ZM10.9618 24.7192C7.8686 25.3258 7.33352 25.6014 7.33352 26.5877C7.33352 27.2285 7.24928 27.3309 6.95492 27.0483C6.29678 26.4166 5.75602 26.6392 5.75602 27.5417C5.75602 28.2354 5.62098 28.3941 5.04614 28.3744C4.50601 28.3563 4.34226 28.5134 4.36119 29.0319C4.37571 29.4198 4.19966 29.7133 3.95262 29.7133C3.7141 29.7133 3.16009 30.0576 2.72154 30.4785C2.04322 31.1296 1.93721 31.4773 2.0104 32.8052C2.07414 33.9569 1.97665 34.4039 1.63906 34.508C1.38729 34.5859 1.08063 34.7982 0.957897 34.9799C0.479599 35.6873 0.368859 38.5254 0.659434 42.6185C0.921299 46.3071 1.07495 47.0956 1.78198 48.37C2.23252 49.1822 2.60102 50.1682 2.60102 50.5607C2.60102 51.772 3.59358 53.3822 4.58772 53.7834C5.15373 54.0117 5.38057 54.2425 5.16477 54.3706C4.59025 54.7116 4.75557 55.1019 5.51939 55.2061C6.0772 55.2824 6.21665 55.4817 6.16995 56.1358C6.12168 56.8117 6.24252 56.9683 6.81263 56.9683C7.29282 56.9683 7.53007 57.1633 7.5632 57.5849C7.73767 59.8071 12.6178 63.4138 14.7544 62.899C15.3125 62.7645 15.5428 62.8693 15.6939 63.3272C15.9138 63.9919 16.6316 64.1349 16.9859 63.5849C17.1408 63.3439 17.344 63.4117 17.6431 63.8045C18.0072 64.2821 18.1754 64.3132 18.6994 63.9992C19.1736 63.7148 19.4613 63.7088 19.9033 63.9738C20.718 64.4622 22.5826 64.0643 23.6969 63.1643C24.2042 62.7546 24.9248 62.4193 25.2981 62.4193C26.1414 62.4193 27.6419 61.0272 27.4135 60.4564C27.3059 60.1874 27.4958 60 27.9372 59.9394C28.4764 59.8655 28.6165 59.6605 28.5704 59.0121C28.5209 58.319 28.638 58.1796 29.2702 58.1796C29.9242 58.1796 29.993 58.0858 29.7671 57.5001C29.5513 56.9401 29.6646 56.7273 30.4082 56.293C31.072 55.9057 31.3285 55.5038 31.3755 54.7773C31.4106 54.2334 31.4642 53.3797 31.4948 52.8801C31.5251 52.3804 31.6554 51.7278 31.7847 51.4301C31.9138 51.1321 31.9308 50.3568 31.8226 49.707C31.7097 49.0298 31.7605 48.4454 31.9419 48.3379C32.435 48.0453 32.3164 47.2982 31.6289 46.3719C31.0954 45.6526 31.0714 45.4976 31.4711 45.3504C32.182 45.0888 32.0368 44.3453 31.2326 44.1285C30.5751 43.951 30.5644 43.9132 31.0888 43.6164C31.7248 43.2563 31.5787 42.3514 30.736 41.4311C30.3265 40.9841 30.306 40.7755 30.6228 40.2885C30.937 39.8055 30.9266 39.6623 30.5672 39.5299C30.3234 39.44 30.0356 38.8374 29.928 38.1905C29.8157 37.5161 29.4601 36.8317 29.0951 36.5861C28.6824 36.3087 28.5304 35.9762 28.6635 35.6431C28.8074 35.2836 28.6777 35.0801 28.2341 34.9687C27.7858 34.8563 27.6467 34.6331 27.7615 34.2119C27.8792 33.7803 27.734 33.5665 27.2387 33.4424C26.8617 33.3476 26.6105 33.1171 26.6806 32.9303C26.9677 32.1635 25.1428 29.8874 24.0588 29.6603C23.8007 29.6061 23.4246 29.2048 23.2237 28.7681C22.7088 27.651 21.0802 26.5447 18.353 25.4597C15.4911 24.3207 13.8375 24.1551 10.9618 24.7192ZM113.655 27.2945C113.374 27.7979 113.202 27.846 112.668 27.5716C111.703 27.0756 110.566 27.4835 109.187 28.8205C108.416 29.5676 107.662 30.0161 107.178 30.0161C106.081 30.0161 104.121 31.8243 101.931 34.8575C100.907 36.2754 99.7128 37.9073 99.2774 38.4842C98.8417 39.0608 98.5183 39.8104 98.5584 40.1498C98.5984 40.489 98.27 41.4481 97.8286 42.2809C96.7241 44.3641 96.5654 45.1917 97.0853 46.1538C97.469 46.8637 97.4677 46.9748 97.0746 46.9748C96.5152 46.9748 96.4818 47.6277 97.0143 48.1459C97.3305 48.4535 97.2989 48.6077 96.8566 48.9214C96.2499 49.3514 96.1319 49.8959 96.6111 50.0537C96.7941 50.1137 96.7222 50.6991 96.4329 51.5037C96.1006 52.4273 96.0126 53.3343 96.154 54.3806C96.4174 56.3318 97.6305 58.9376 98.4779 59.3731C98.8878 59.5836 99.1061 59.9618 99.06 60.3822C99.007 60.8631 99.1749 61.0808 99.6494 61.1465C100.167 61.2183 100.28 61.4012 100.165 61.9802C100.038 62.6147 100.137 62.7222 100.842 62.7222C101.434 62.7222 101.668 62.8802 101.668 63.2809C101.668 63.5883 101.917 64.048 102.22 64.3026C102.971 64.9316 105.043 65.5424 105.79 65.3547C106.126 65.2705 106.4 65.3144 106.4 65.4525C106.4 65.5906 106.903 65.8625 107.517 66.0573C108.451 66.3531 108.763 66.3292 109.431 65.9089C110.044 65.5234 110.33 65.4879 110.667 65.7562C111.177 66.1629 111.764 65.9074 111.764 65.2784C111.764 65.0382 111.906 64.842 112.079 64.842C112.253 64.842 112.395 64.9783 112.395 65.1448C112.395 65.7087 113.298 65.4519 113.503 64.8293C113.647 64.3941 113.883 64.2642 114.298 64.3908C115.123 64.6421 116.66 63.8063 117.513 62.6431C117.908 62.1038 118.409 61.6486 118.626 61.632C118.843 61.6153 119.165 61.5814 119.341 61.5562C119.517 61.5311 119.929 61.0869 120.258 60.5687C120.586 60.0503 121.187 59.4658 121.594 59.2692C122.159 58.9961 122.333 58.6605 122.333 57.8447C122.333 56.8823 122.407 56.7915 123.088 56.9165C123.756 57.0395 123.826 56.9644 123.687 56.27C123.563 55.6434 123.665 55.4663 124.194 55.3936C124.559 55.3436 124.857 55.1437 124.857 54.9493C124.857 54.7552 124.961 54.4963 125.088 54.3745C125.215 54.2525 125.24 53.8509 125.144 53.4821C125.01 52.9718 125.132 52.7701 125.651 52.6396C126.172 52.5088 126.284 52.3204 126.126 51.8413C126.012 51.4955 126.059 51.2145 126.231 51.2145C126.642 51.2145 127.33 49.1918 127.108 48.6358C127.012 48.3972 127.159 48.0814 127.434 47.9333C127.817 47.7282 127.858 47.5323 127.609 47.1053C127.36 46.6792 127.405 46.4603 127.793 46.1874C128.203 45.8997 128.228 45.7411 127.918 45.3822C127.609 45.0249 127.627 44.8592 128.008 44.5552C128.648 44.0458 128.67 40.8361 128.037 40.3324C127.652 40.0254 127.661 39.854 128.107 39.1096C128.595 38.292 128.587 38.1711 127.959 36.9313C127.593 36.2094 127.057 34.9129 126.768 34.0505C125.753 31.0282 122.755 28.1285 119.606 27.1247C118.045 26.6271 117.951 26.628 117.557 27.1446C117.18 27.6395 117.127 27.6431 116.945 27.1855C116.686 26.539 115.979 26.5432 115.6 27.194C115.322 27.6707 115.27 27.6707 114.773 27.194C114.105 26.5526 114.066 26.5562 113.655 27.2945ZM57.4084 51.6548C52.6027 52.6072 52.585 52.6133 51.2157 53.8007C50.2847 54.608 49.7383 54.8294 48.4898 54.9051C47.0275 54.9938 46.8912 55.0738 46.3346 56.1679C45.7737 57.2699 45.6762 57.326 44.5994 57.1615C43.1841 56.9456 42.866 57.1328 42.2556 58.5403C41.8511 59.4724 41.5441 59.7144 40.4061 59.997C39.6555 60.1832 38.7989 60.4028 38.503 60.4851C37.6019 60.7356 33.8267 64.8777 32.8805 66.6538C32.2362 67.8631 31.6346 68.5157 30.7026 69.0159C29.5251 69.6483 29.1768 70.1679 26.644 75.0726C24.1941 79.8168 21.6641 86.1273 20.6063 90.1319C20.4296 90.8 19.9999 93.4807 19.6509 96.0887C19.1569 99.7829 19.0884 101.154 19.3411 102.293C19.708 103.946 19.708 103.941 19.4433 105.513C19.2133 106.88 19.7939 108.512 21.6604 111.744C24.0856 115.943 26.7929 118.018 28.862 117.263C29.5791 117.001 29.7296 117.045 29.9018 117.566C30.2609 118.652 32.8647 119.144 34.1554 118.371C34.6542 118.072 34.9098 118.072 35.4086 118.371C36.3264 118.921 37.7417 118.83 38.6238 118.163C39.347 117.617 39.4874 117.61 40.8421 118.038C42.1404 118.448 42.4941 118.446 44.293 118.016C45.3957 117.752 47.7547 116.849 49.5357 116.008C52.2149 114.743 53.2283 114.05 55.4103 111.994C58.4088 109.169 60.0147 106.748 60.0191 105.043C60.0217 103.99 60.0892 103.908 60.9461 103.908C61.9484 103.908 62.8615 103.232 62.8615 102.491C62.8615 102.164 63.0249 102.093 63.4136 102.252C64.591 102.736 65.5842 102.742 65.9941 102.268C66.4992 101.684 66.963 101.645 66.963 102.188C66.963 102.408 67.6258 103.252 68.436 104.063C69.2462 104.875 70.3505 106.296 70.89 107.222C71.4295 108.147 72.1864 109.039 72.5719 109.203C73.0146 109.392 73.273 109.769 73.273 110.227C73.273 111.511 78.3901 115.415 80.0723 115.415C80.6023 115.415 81.1516 115.708 81.5621 116.209C82.1458 116.921 82.3647 116.984 83.705 116.832C84.9351 116.692 85.2979 116.768 85.7658 117.265C86.211 117.737 86.6211 117.838 87.6661 117.733C88.399 117.66 89.1631 117.502 89.3644 117.383C89.571 117.26 90.1402 117.543 90.6728 118.032L91.6152 118.898L96.0893 118.888L100.564 118.879L103.439 117.468C107.165 115.639 108.296 114.392 110.593 109.584C112.528 105.534 112.819 103.938 111.925 102.293C111.514 101.536 111.514 101.333 111.927 100.567C112.543 99.4235 112.518 98.9713 111.789 98.1116C111.316 97.5523 111.221 97.0941 111.354 96.0063C111.461 95.1329 111.37 94.345 111.108 93.8865C110.879 93.4852 110.73 92.8502 110.777 92.4753C110.824 92.1007 110.569 91.0392 110.209 90.1171C109.849 89.195 109.555 87.9851 109.555 87.4288C109.555 86.8725 109.355 86.2578 109.111 86.0628C108.866 85.868 108.423 84.6588 108.127 83.376C107.244 79.5567 105.988 77.561 104.467 77.561C104.034 77.561 103.966 77.3478 104.099 76.3933C104.306 74.9145 103.817 74.0291 102.658 73.7847C101.832 73.6105 101.753 73.4821 101.783 72.3671C101.809 71.4223 101.647 71.0089 101.076 70.5655C100.669 70.2491 100.068 69.9902 99.7399 69.9902C99.3503 69.9902 99.1439 69.7761 99.1439 69.3724C99.1439 67.5502 94.8036 62.7833 91.93 61.4499C90.8223 60.936 90.2999 60.4639 89.9326 59.646C88.6545 56.7993 81.2548 53.4221 72.7716 51.8138C67.4198 50.799 62.0096 50.743 57.4084 51.6548Z" fill="#F4B616"/>
<path id="Layer 8" fill-rule="evenodd" clip-rule="evenodd" d="M92.5181 4.08682C92.5181 4.14951 92.7667 4.38814 93.0702 4.61678C93.5706 4.9932 93.5816 4.9826 93.1894 4.50231C92.7771 3.99779 92.5181 3.83759 92.5181 4.08682Z" fill="black"/>
</g>
</svg>
