<svg width="27" height="25" viewBox="0 0 27 25" fill="none" xmlns="http://www.w3.org/2000/svg">
<path fill-rule="evenodd" clip-rule="evenodd" d="M19.847 6.179C19.7795 6.22148 19.7462 6.21874 19.7233 6.16878C19.6752 6.06386 19.5834 6.03886 19.5091 6.11051C19.4565 6.16134 19.4276 6.15846 19.3754 6.09723C19.2982 6.00676 19.2399 6.01156 19.1922 6.11234C19.1652 6.16925 19.1342 6.16683 19.0389 6.10041C18.8763 5.9872 18.6215 6.02858 18.4553 6.19515C18.3618 6.28886 18.2902 6.31696 18.2002 6.29552C18.0191 6.25233 17.7075 6.40915 17.4307 6.68276C17.2982 6.81372 17.0817 7.0177 16.9497 7.13603C16.6943 7.36486 16.575 7.55277 16.646 7.61443C16.6766 7.64096 16.6592 7.67754 16.5872 7.73869C16.4163 7.88385 16.2744 8.23735 16.3345 8.36842C16.3818 8.47155 16.3778 8.48298 16.2926 8.48731C16.2097 8.49151 16.2078 8.50816 16.2767 8.62637C16.3455 8.74441 16.3432 8.76493 16.2575 8.79622C16.1738 8.82676 16.1672 8.84114 16.2109 8.89866C16.2422 8.93987 16.2309 9.03189 16.1815 9.13835C16.02 9.48648 16.1883 10.2384 16.4562 10.3651C16.5357 10.4027 16.5506 10.4368 16.5162 10.5022C16.4814 10.5684 16.4961 10.6004 16.5776 10.6361C16.6517 10.6685 16.674 10.7056 16.65 10.7564C16.6057 10.85 16.7077 10.9475 16.8285 10.9272C16.9044 10.9144 16.9157 10.9236 16.8902 10.9776C16.841 11.0815 17.1023 11.3125 17.3512 11.385C17.4657 11.4184 17.6175 11.4796 17.6884 11.5211C17.8826 11.6346 18.0491 11.661 18.1227 11.59C18.1752 11.5393 18.2144 11.5444 18.3158 11.615C18.4257 11.6916 18.4486 11.6919 18.484 11.6172C18.5164 11.5486 18.542 11.5451 18.607 11.6001C18.6732 11.6562 18.6975 11.6517 18.7331 11.5765C18.7667 11.5054 18.8177 11.4915 18.9477 11.5178C19.0818 11.5448 19.1651 11.5199 19.3378 11.4009C19.4586 11.3177 19.6162 11.2443 19.688 11.2379C19.7625 11.2311 19.8384 11.1839 19.8649 11.1278C19.8912 11.0724 19.985 11.013 20.08 10.9918C20.2434 10.9553 20.2686 10.9167 20.2657 10.7066C20.2649 10.646 20.2866 10.632 20.3415 10.658C20.4398 10.7045 20.5502 10.6142 20.4908 10.536C20.4349 10.4624 20.5257 10.4071 20.6251 10.4541C20.6828 10.4814 20.6924 10.4714 20.6701 10.4076C20.6484 10.3457 20.6566 10.3289 20.7047 10.3371C20.7525 10.3453 20.764 10.3186 20.7524 10.226C20.7392 10.1214 20.7522 10.1025 20.8446 10.0924C20.9302 10.083 20.9462 10.0635 20.9229 9.99708C20.903 9.94022 20.9132 9.91283 20.9549 9.91129C21.0379 9.90822 21.1641 9.63147 21.1232 9.54234C21.0985 9.48831 21.1136 9.46253 21.1857 9.43626C21.2671 9.40654 21.2728 9.38922 21.2249 9.31588C21.1817 9.24966 21.1868 9.22555 21.2472 9.20968C21.3076 9.19382 21.3206 9.16575 21.3047 9.08594C21.2933 9.02914 21.31 8.96078 21.3418 8.93398C21.4292 8.86033 21.4587 8.48098 21.3847 8.38276C21.3466 8.33204 21.3413 8.25045 21.3721 8.18545C21.4499 8.02101 21.4082 7.79397 21.221 7.36258C21.0256 6.91197 20.9045 6.76454 20.4748 6.45345C20.0593 6.15264 19.9587 6.10865 19.847 6.179ZM13.8508 3.37808C13.8056 3.42175 13.759 3.41804 13.681 3.36455C13.5877 3.30059 13.5667 3.30512 13.5223 3.39888C13.4792 3.49008 13.4639 3.4942 13.4244 3.42523C13.3565 3.30661 13.2081 3.29925 13.1988 3.41404C13.1934 3.48165 13.1762 3.49283 13.1359 3.45497C12.9738 3.30272 12.599 3.40685 12.4916 3.63399C12.4581 3.70479 12.4002 3.73215 12.3002 3.72449C12.0962 3.70891 11.7832 3.93602 11.554 4.26588C11.4463 4.42102 11.2723 4.65275 11.1675 4.78088C11.0326 4.94566 10.9762 5.05054 10.9747 5.13957C10.9735 5.20875 10.9223 5.3716 10.8608 5.50151C10.7428 5.75088 10.7371 5.98491 10.8465 6.08762C10.9012 6.13901 10.8972 6.15468 10.8219 6.18212C10.7314 6.21518 10.744 6.26697 10.8725 6.38786C10.8974 6.41134 10.8756 6.4461 10.814 6.48108C10.6828 6.55552 10.6805 6.56976 10.7905 6.62182C10.8667 6.65788 10.872 6.69258 10.8183 6.80595C10.6589 7.1428 10.9232 7.89206 11.2572 8.0501C11.3179 8.0788 11.3408 8.12741 11.3232 8.18996C11.3042 8.25739 11.328 8.30091 11.4033 8.33654C11.4622 8.36443 11.517 8.42063 11.5251 8.46146C11.5336 8.50446 11.5849 8.54604 11.6468 8.5603C11.7057 8.57382 11.7661 8.61957 11.781 8.66201C11.8242 8.78528 12.0338 8.91132 12.2791 8.96151C12.404 8.98709 12.574 9.03676 12.6569 9.07191C12.8743 9.1641 12.9728 9.16813 13.0646 9.08855C13.1173 9.04284 13.1852 9.03658 13.2585 9.07056C13.3442 9.11025 13.3804 9.10149 13.409 9.03409C13.4373 8.96761 13.4702 8.95895 13.5403 8.9996C13.6105 9.04028 13.6433 9.03158 13.6717 8.96487C13.6984 8.90171 13.7538 8.88287 13.8623 8.90005C14.0238 8.92559 14.2466 8.79123 14.328 8.61925C14.3561 8.5599 14.4244 8.527 14.516 8.52879C14.6942 8.53221 14.7747 8.4455 14.9024 8.11263C14.9874 7.89122 15.0187 7.85179 15.1127 7.84789C15.2176 7.84354 15.2209 7.83764 15.1776 7.72945C15.138 7.63022 15.1426 7.61693 15.2141 7.62627C15.2994 7.63739 15.3788 7.48807 15.3727 7.32828C15.3706 7.27563 15.4065 7.22789 15.464 7.20672C15.5299 7.18247 15.5448 7.15967 15.5131 7.132C15.4846 7.10707 15.506 7.03284 15.57 6.934C15.6468 6.81563 15.6602 6.74884 15.6232 6.66826C15.5863 6.58789 15.5927 6.55562 15.6483 6.54101C15.7557 6.5128 15.7614 6.47305 15.6693 6.39509C15.6001 6.33652 15.6021 6.31911 15.6831 6.27492C15.7619 6.23193 15.7674 6.21048 15.7157 6.147C15.6815 6.10504 15.6772 6.05077 15.7061 6.02638C15.784 5.96073 15.741 5.4385 15.6544 5.39751C15.6054 5.37431 15.5989 5.3259 15.6348 5.25013C15.7034 5.10499 15.5487 4.69434 15.2656 4.27025C15.0286 3.91521 14.8038 3.73931 14.2558 3.48001C13.9632 3.34157 13.9041 3.32669 13.8508 3.37808ZM7.74048 4.14071C7.24271 4.00193 7.14608 4.00016 7.08527 4.12869C7.04576 4.2122 7.02691 4.2196 7.00052 4.16205C6.94152 4.03339 6.84731 4.02431 6.79167 4.14191C6.74889 4.23232 6.71901 4.24349 6.63467 4.20044C6.5554 4.16004 6.52134 4.16899 6.49219 4.23788C6.47043 4.28945 6.42614 4.3153 6.38937 4.2979C6.35387 4.2811 6.25018 4.28696 6.15896 4.31093C6.01786 4.348 5.98065 4.38584 5.90966 4.56404C5.84814 4.7186 5.80607 4.76998 5.7494 4.75979C5.70713 4.7522 5.6484 4.75827 5.61893 4.7733C5.50413 4.8318 5.31265 5.19385 5.10353 5.74769C4.91508 6.24678 4.88932 6.36036 4.91598 6.57621C4.93296 6.71378 4.927 6.86822 4.90281 6.91936C4.82812 7.07721 4.87656 7.35693 4.99978 7.47923C5.06994 7.54884 5.08948 7.59488 5.04946 7.59638C4.94293 7.60036 4.94347 7.66287 5.05072 7.73023C5.12904 7.77946 5.13751 7.81524 5.09023 7.89719C5.04137 7.98187 5.0497 8.01079 5.13455 8.05093C5.20601 8.08475 5.2293 8.12687 5.20824 8.18414C5.09719 8.486 5.60113 9.29966 5.95086 9.38304C6.04222 9.40482 6.07004 9.43469 6.0643 9.505C6.05604 9.60711 6.15405 9.67628 6.24069 9.62957C6.27861 9.60906 6.30467 9.63221 6.32497 9.70446C6.34971 9.79233 6.37281 9.80824 6.47017 9.80422C6.55828 9.80055 6.60148 9.82003 6.65093 9.88569C6.74205 10.0067 7.0441 10.0862 7.26544 10.0474C7.36621 10.0297 7.49413 10.0367 7.54968 10.063C7.67519 10.1224 7.98436 10.0467 7.98556 9.9562C7.98612 9.91358 8.02595 9.90253 8.09538 9.92572C8.18018 9.95406 8.21367 9.93721 8.24679 9.84948C8.28216 9.75566 8.30817 9.74575 8.40227 9.79027C8.49961 9.83633 8.51564 9.82894 8.51813 9.73671C8.52053 9.64855 8.55052 9.62878 8.68797 9.62456C8.81065 9.62084 8.8736 9.58653 8.92539 9.49517C8.96414 9.42676 9.02476 9.3193 9.06012 9.25634C9.09544 9.19336 9.15507 9.11749 9.19268 9.08781C9.23026 9.05807 9.28059 8.95824 9.30456 8.86593C9.3295 8.76974 9.37309 8.69716 9.40672 8.69592C9.49815 8.69253 9.52656 8.58682 9.48136 8.41769C9.4463 8.2864 9.45229 8.2645 9.52086 8.27348C9.64279 8.28944 9.66703 8.18234 9.5607 8.09745C9.47379 8.02802 9.47453 8.02233 9.57087 8.02058C9.68773 8.01846 9.72178 7.89025 9.65311 7.71098C9.61972 7.6239 9.62953 7.59526 9.7067 7.55412C9.78325 7.5133 9.79053 7.4939 9.74521 7.45135C9.71446 7.42246 9.70879 7.32366 9.73266 7.23179C9.75753 7.136 9.74681 7.02178 9.70762 6.96407C9.6633 6.89886 9.66117 6.84482 9.70153 6.81079C9.7451 6.77408 9.73835 6.73843 9.6792 6.69266C9.61941 6.64645 9.61246 6.60757 9.65552 6.56077C9.69965 6.51282 9.69123 6.47474 9.62516 6.42368C9.57489 6.38477 9.55173 6.33706 9.57367 6.31764C9.66368 6.23794 9.53242 5.81283 9.38508 5.70689C9.35001 5.68166 9.31878 5.60288 9.3158 5.53183C9.30804 5.34999 9.13386 5.09114 8.79487 4.7577C8.43916 4.40774 8.20327 4.26971 7.74048 4.14071ZM22.8657 11.7081C22.7929 11.7539 22.7644 11.7481 22.7017 11.6747C22.5887 11.5421 22.3943 11.5152 22.1067 11.5923C21.9459 11.6354 21.8061 11.6407 21.7339 11.6066C21.5706 11.5293 21.1674 11.6269 20.6545 11.868C20.4146 11.9806 20.1363 12.1092 20.036 12.1537C19.9356 12.1982 19.8412 12.2731 19.8263 12.3201C19.8113 12.3672 19.7033 12.469 19.5863 12.5465C19.2934 12.7401 19.2188 12.8368 19.2368 12.9988C19.2502 13.1183 19.2431 13.1327 19.1846 13.105C19.1014 13.0656 19.0561 13.1484 19.1034 13.2534C19.1315 13.3157 19.1173 13.3336 19.0321 13.3433C18.9153 13.3567 18.8642 13.4193 18.9258 13.4736C18.9493 13.4943 18.9025 13.5655 18.8099 13.65C18.7035 13.747 18.6344 13.859 18.591 14.0053C18.5099 14.2781 18.5297 14.7031 18.629 14.8195C18.677 14.8758 18.6862 14.9404 18.6534 14.992C18.6159 15.0509 18.6275 15.0911 18.694 15.1331C18.7666 15.1789 18.7722 15.2107 18.7193 15.278C18.6614 15.3518 18.6694 15.3727 18.7744 15.4224C18.8626 15.4641 18.8876 15.5011 18.8629 15.5534C18.8439 15.5934 18.8526 15.6708 18.882 15.7254C18.955 15.8602 19.2257 16.0857 19.3485 16.1139C19.4037 16.1266 19.4418 16.1516 19.4333 16.1696C19.4248 16.1876 19.4828 16.2584 19.5621 16.327C19.683 16.4314 19.7308 16.4502 19.8562 16.4425C19.9712 16.4354 20.016 16.451 20.0496 16.5096C20.1005 16.5986 20.2035 16.6066 20.2423 16.5246C20.2571 16.4933 20.2903 16.4778 20.3162 16.49C20.342 16.5022 20.3547 16.53 20.3445 16.5517C20.3097 16.6251 20.4599 16.6552 20.5289 16.5886C20.5772 16.542 20.6201 16.5417 20.6741 16.5874C20.7814 16.6782 21.0618 16.6776 21.2604 16.5861C21.3525 16.5436 21.4552 16.5196 21.4884 16.5327C21.5218 16.5458 21.5717 16.564 21.5995 16.5732C21.6272 16.5823 21.716 16.5534 21.7969 16.5091C21.8777 16.4646 22.0032 16.4308 22.0758 16.4338C22.1768 16.438 22.2234 16.4065 22.2737 16.3002C22.333 16.1748 22.3497 16.1682 22.4433 16.2325C22.5351 16.2955 22.5501 16.2906 22.5723 16.1904C22.5924 16.1 22.6186 16.0841 22.7018 16.1119C22.7591 16.131 22.8159 16.126 22.8279 16.1007C22.8398 16.0754 22.8712 16.049 22.8977 16.042C22.9241 16.0351 22.9525 15.9845 22.961 15.9297C22.9726 15.8538 23.0031 15.836 23.0884 15.8556C23.1741 15.8753 23.2024 15.8586 23.2084 15.785C23.2127 15.7319 23.237 15.6986 23.2626 15.7107C23.3238 15.7397 23.5509 15.5245 23.5521 15.4364C23.5526 15.3986 23.594 15.3678 23.644 15.3679C23.7136 15.3681 23.7318 15.3455 23.721 15.2723C23.7103 15.1993 23.7304 15.1739 23.8051 15.1657C23.8839 15.1571 23.8973 15.1381 23.8732 15.0695C23.8493 15.0012 23.8622 14.9809 23.9377 14.9681C24.0643 14.9468 24.2655 14.53 24.2024 14.4199C24.1639 14.3527 24.176 14.3311 24.2881 14.2654C24.4113 14.1933 24.4175 14.177 24.4005 13.9712C24.3906 13.8514 24.3907 13.6447 24.4008 13.5119C24.4361 13.0466 24.1687 12.4576 23.7619 12.105C23.5603 11.9303 23.5462 11.9238 23.4558 11.9634C23.3692 12.0013 23.3611 11.998 23.3621 11.9255C23.3635 11.8231 23.258 11.7739 23.1614 11.832C23.0907 11.8745 23.0829 11.8708 23.0384 11.7737C22.9785 11.6431 22.9725 11.6409 22.8657 11.7081ZM12.9924 10.9215C12.2185 10.7072 12.2155 10.7068 11.9385 10.7651C11.7501 10.8047 11.6551 10.7951 11.4647 10.717C11.2416 10.6256 11.2163 10.6264 11.066 10.7298C10.9146 10.8339 10.8966 10.8344 10.7465 10.7371C10.5492 10.6093 10.4903 10.6113 10.3127 10.7517C10.195 10.8447 10.1344 10.8546 9.9476 10.8113C9.82441 10.7827 9.68338 10.751 9.63426 10.7409C9.48471 10.7101 8.66743 10.984 8.41709 11.1488C8.24665 11.261 8.11687 11.3037 7.94731 11.3032C7.73308 11.3027 7.6492 11.3459 6.96982 11.8067C6.31269 12.2524 5.54706 12.8965 5.14269 13.3439C5.07521 13.4185 4.84597 13.7376 4.63323 14.0528C4.33192 14.4994 4.2372 14.6733 4.20455 14.8396C4.15726 15.0808 4.15756 15.0801 4.02122 15.2664C3.9027 15.4283 3.8885 15.6818 3.96701 16.2344C4.06907 16.9524 4.34409 17.4134 4.6986 17.4607C4.82146 17.4771 4.84115 17.4934 4.83465 17.5734C4.82115 17.7402 5.1783 17.9878 5.41811 17.9778C5.51078 17.974 5.54881 17.992 5.60462 18.0661C5.70729 18.2024 5.92356 18.2902 6.09593 18.2655C6.23722 18.2453 6.2586 18.2541 6.43383 18.4054C6.60177 18.5502 6.65454 18.5748 6.9488 18.6455C7.12918 18.6888 7.53597 18.7372 7.85289 18.753C8.32964 18.7768 8.52315 18.758 8.97466 18.6437C9.59513 18.4868 9.98346 18.2843 10.0892 18.0625C10.1545 17.9254 10.1696 17.9194 10.2972 17.9798C10.4464 18.0504 10.6239 18.0267 10.6696 17.9301C10.6898 17.8874 10.7185 17.8897 10.7665 17.9378C10.9119 18.0838 11.0594 18.1545 11.1496 18.1216C11.2608 18.081 11.3322 18.1087 11.2987 18.1794C11.2852 18.2081 11.3318 18.3647 11.4023 18.5275C11.4729 18.6904 11.5496 18.9533 11.5728 19.1119C11.596 19.2705 11.6537 19.44 11.701 19.4886C11.7552 19.5443 11.7704 19.6117 11.7422 19.6714C11.663 19.8387 12.1839 20.7078 12.4342 20.8262C12.5131 20.8636 12.5768 20.9404 12.6071 21.0345C12.65 21.1684 12.6787 21.1922 12.8875 21.2667C13.0792 21.3351 13.1286 21.3706 13.1676 21.4682C13.2047 21.5611 13.2595 21.6031 13.4215 21.6631C13.5351 21.7052 13.6586 21.7384 13.6959 21.737C13.7342 21.7356 13.8015 21.8125 13.8506 21.9137L13.9375 22.0929L14.6039 22.4068L15.2705 22.7206L15.7854 22.7392C16.4527 22.7633 16.698 22.6805 17.3363 22.2156C17.8739 21.8242 18.0157 21.6368 17.9841 21.3594C17.9695 21.2318 17.9821 21.2054 18.0908 21.1346C18.2529 21.029 18.277 20.9683 18.2217 20.805C18.1857 20.6987 18.1999 20.6323 18.2867 20.5C18.3565 20.3937 18.3914 20.2845 18.3808 20.2064C18.3714 20.138 18.3884 20.0447 18.4185 19.9992C18.4486 19.9537 18.476 19.7974 18.4794 19.6519C18.4827 19.5064 18.5136 19.328 18.5479 19.2555C18.5822 19.1831 18.5902 19.0888 18.5659 19.0462C18.5414 19.0036 18.5501 18.8148 18.5851 18.6268C18.6892 18.067 18.6253 17.7184 18.399 17.6114C18.3345 17.5808 18.3376 17.5483 18.4163 17.4333C18.5382 17.2551 18.52 17.1053 18.3626 16.9918C18.2504 16.911 18.2465 16.8887 18.3198 16.7455C18.3819 16.6242 18.3832 16.5589 18.3257 16.461C18.2845 16.391 18.211 16.315 18.1622 16.2919C18.1042 16.2644 18.0867 16.222 18.1116 16.1694C18.224 15.932 17.8719 15.0051 17.5264 14.629C17.3933 14.484 17.3446 14.3857 17.3404 14.2533C17.3257 13.7923 16.4326 12.8311 15.2692 12.0242C14.5352 11.515 13.7335 11.1267 12.9924 10.9215Z" fill="#FF544C"/>
<path fill-rule="evenodd" clip-rule="evenodd" d="M21.1511 7.19543C21.1472 7.2036 21.1695 7.25221 21.2006 7.30338C21.2518 7.38767 21.2541 7.38706 21.2254 7.29686C21.1951 7.20207 21.1664 7.16296 21.1511 7.19543Z" fill="black"/>
</svg>
