<svg width="101" height="99" viewBox="0 0 101 99" fill="none" xmlns="http://www.w3.org/2000/svg">
<rect x="48.7148" y="31.2119" width="5.74517" height="9.78806" rx="2.87258" fill="#C09525"/>
<path d="M33.5684 0H69.316V25.3161L51.4422 37.8566L33.5684 25.3161V0Z" fill="#FF544C"/>
<mask id="mask0_1207_7275" style="mask-type:alpha" maskUnits="userSpaceOnUse" x="33" y="0" width="37" height="38">
<path d="M33.5684 0H69.2995V25.3202L51.4339 37.8566L33.5684 25.3202V0Z" fill="#FF544C"/>
</mask>
<g mask="url(#mask0_1207_7275)">
<rect x="44.5918" y="-15.0269" width="13.6843" height="52.8834" fill="#7C514D"/>
</g>
<circle cx="51.5" cy="68.5" r="29.5" fill="#E7C12B" stroke="#926E2A" stroke-width="2"/>
<circle cx="51.5004" cy="68.4999" r="21.9476" fill="#F3C914" stroke="#926E2A" stroke-width="2"/>
<path fill-rule="evenodd" clip-rule="evenodd" d="M44.5056 53.3387C43.9753 53.606 43.5359 54.1081 43.096 54.949C42.5174 56.0547 42.4657 56.3318 42.5505 57.8632C42.6654 59.936 43.3426 61.257 44.6736 62.0052C46.2427 62.8872 48.4104 62.5691 49.2166 61.3387C50.1306 59.944 50.1386 56.4717 49.2315 54.8855C48.4515 53.5211 45.8399 52.6665 44.5056 53.3387ZM47.6404 54.2867C48.6646 54.7533 49.164 55.9887 49.164 58.056C49.164 60.2023 48.7774 61.2221 47.8117 61.622C46.8672 62.0132 45.255 61.7737 44.5665 61.1399C42.7896 59.5039 42.6987 55.8919 44.3916 54.199C44.7971 53.7935 46.6688 53.8439 47.6404 54.2867ZM57.3781 54.2179C55.7881 55.3169 55.1594 56.8536 55.1258 59.722C55.1061 61.4294 55.302 61.9757 56.2882 62.9619C56.8512 63.5248 58.7156 63.5486 59.6371 63.0043C61.2174 62.0708 62.0732 58.2273 61.296 55.5542C61.0808 54.8137 60.754 54.1992 60.5045 54.0657C59.8264 53.7029 57.994 53.7922 57.3781 54.2179ZM60.4945 55.2987C60.7224 55.7435 60.8268 56.6155 60.8248 58.0593C60.8226 59.8104 60.738 60.3283 60.3281 61.0995C59.6913 62.2971 59.0599 62.7248 57.9289 62.7248C56.8589 62.7248 56.1538 62.1156 55.8188 60.9019C55.4704 59.6405 56.0907 56.6317 56.9038 55.6382C57.4959 54.9148 57.524 54.5752 58.5 54.5C58.9227 54.4674 59 54.5 59.5 54.5C60 54.5 60.1623 54.6506 60.4945 55.2987ZM34.9109 60.3681C33.234 61.6484 32.8443 63.2127 33.5046 66.0129C33.9536 67.9173 34.3582 68.6224 35.3955 69.3089C36.0924 69.7702 36.4576 69.8686 37.1352 69.7777C39.1687 69.5049 40.3013 68.3634 40.6064 66.2795C40.7183 65.5141 40.6133 64.8367 40.1587 63.3913C39.48 61.2325 39.3031 60.9821 38.0024 60.337C36.3272 59.5061 36.036 59.509 34.9109 60.3681ZM37.3479 60.7298C38.6637 61.4156 39.0968 62.0186 39.6048 63.8716C40.009 65.3462 40.0365 65.7178 39.8106 66.6487C39.4771 68.0219 38.9281 68.6187 37.718 68.9235C36.6063 69.2034 35.9513 69.0237 35.2508 68.247C34.5301 67.4481 34.3191 66.922 34.0547 65.2671C33.6946 63.013 33.9109 61.9453 34.9109 60.9453C35.5 60.5 35.5 60.5 35.9727 60.3681C35.9727 60.3681 36.3394 60.2041 37.3479 60.7298ZM66.3808 61.1759C65.2055 61.6198 64.0707 63.8057 63.8856 65.9827C63.7399 67.6967 63.9116 68.3947 64.6459 69.0754C65.4492 69.8199 66.4021 69.7688 67.6958 68.9119C70.228 67.2346 70.6963 64.5259 68.8308 62.3467C67.9779 61.3503 67.069 60.9159 66.3808 61.1759ZM68.3332 62.7957C69.9879 64.6865 69.4995 67.048 67.1595 68.4709C66.187 69.0623 65.816 69.0648 65.0789 68.4849C64.5648 68.0808 64.4935 67.8651 64.4935 66.716C64.4935 65.2922 65.1062 63.3578 65.8611 62.398C66.2435 61.9119 66.4405 61.8357 67.0184 61.9506C67.4014 62.0268 67.9932 62.4071 68.3332 62.7957ZM46.7693 64.4993C45.4025 65.124 44.3892 65.9551 43.4728 67.2035C42.6965 68.261 42.6758 68.3392 42.8191 69.6777C42.9571 70.9652 42.9133 71.1658 42.1798 72.613C41.4373 74.078 40.049 75.7189 38.2032 77.3134C37.4174 77.9921 37.3892 78.0676 37.3892 79.5013C37.3892 80.8616 37.4447 81.0382 38.0488 81.6025C39.2951 82.7669 45.1921 84.1932 46.4291 83.6296C46.8339 83.4452 47.0805 83.4356 47.2427 83.5978C47.6035 83.9586 52.7986 83.8959 53.6984 83.52C54.1072 83.3492 54.5073 83.1032 54.5875 82.9737C54.8103 82.6129 54.2994 81.9515 53.3427 81.3628C52.8677 81.0706 52.4349 80.6314 52.3805 80.387C52.3263 80.1427 52.1304 79.2618 51.9448 78.4293C51.4667 76.2827 51.5154 75.7977 52.3299 74.5896L53.0519 73.5185L54.2787 73.5785C55.7432 73.6501 56.3904 73.433 57.2497 72.5819C58.533 71.3109 59.0284 70.0025 58.5265 69.211C58.4254 69.0514 57.6521 68.7784 56.8081 68.6042C54.0314 68.031 53.5236 67.748 52.8668 66.4066C52.3881 65.429 52.0899 65.1191 51.2259 64.7008C49.8049 64.0129 48.011 63.9318 46.7693 64.4993ZM50.8511 65.3053C51.4154 65.5841 51.8878 66.0678 52.2641 66.7522C52.5751 67.3177 52.9564 67.93 53.1112 68.1126C53.4034 68.4574 55.2358 69.0239 56.8998 69.2841C57.4472 69.3696 57.9156 69.5802 57.99 69.7742C58.1717 70.248 57.4459 71.5113 56.529 72.3162C55.8083 72.9489 55.6684 72.986 54.3214 72.9003L52.8828 72.8087L52.0222 73.8978C50.7554 75.5003 50.7394 75.6571 51.4525 79.487C51.7229 80.9396 51.7984 81.0722 52.7291 81.7274C53.8317 82.5038 53.8817 82.7471 52.9921 83.0106C51.8804 83.3396 43.7809 82.9682 41.9987 82.5063C39.8428 81.9475 38.7277 81.4528 38.584 80.9909C38.5187 80.7809 38.3369 80.3593 38.1803 80.0538C37.7235 79.1629 38.0881 78.4766 40.1198 76.4034C41.2791 75.2203 42.2622 73.9767 42.647 73.206C42.9933 72.5124 43.295 71.9096 43.3175 71.867C43.3399 71.8241 43.7411 72.0967 44.2092 72.4728C45.7429 73.7054 47.073 73.5761 48.3391 72.0716C49.2411 70.9996 49.4122 68.7233 48.591 68.7233C48.3431 68.7233 48.3011 68.9179 48.4069 69.5784C48.6417 71.0467 47.5622 72.5001 46.237 72.5001C44.8655 72.5001 44.3161 71.887 43.6114 69.57C43.3017 68.552 43.6003 67.9004 44.9806 66.5832C46.9361 64.7165 48.8267 64.3049 50.8511 65.3053ZM58.4137 73.6532C58.0904 74.0575 57.6265 74.5921 57.3828 74.8407C57.1391 75.0895 56.9398 75.5194 56.9398 75.7964C56.9398 76.157 56.7492 76.3665 56.2686 76.534C55.5877 76.7715 55.1625 77.3043 55.1625 77.9199C55.1625 78.4624 56.0778 79.1651 56.7843 79.1651C57.4132 79.1651 57.4288 79.1911 57.2826 79.9982C57.1995 80.4566 56.95 80.9813 56.7283 81.1646C56.5068 81.3479 56.2038 81.7345 56.0554 82.0237C55.833 82.457 55.8468 82.6107 56.1338 82.8977C57.2502 84.0139 64.0294 82.844 65.882 81.2155C66.377 80.7803 66.3877 79.697 65.8996 79.4237C65.6023 79.2573 65.539 78.9263 65.5812 77.7597C65.6336 76.3107 65.3772 75.4438 64.7943 75.0995C64.6288 75.0017 64.4935 74.7442 64.4935 74.5274C64.4935 74.3103 64.2489 73.9031 63.95 73.6223C63.4773 73.178 63.12 73.0991 61.2038 73.0147L59.0013 72.9178L58.4137 73.6532ZM63.5493 74.1071C63.7021 74.2308 63.827 74.4801 63.827 74.6614C63.827 74.8427 64.0769 75.2879 64.3824 75.6509C64.8196 76.1708 64.9378 76.5578 64.9378 77.4715C64.9378 78.1098 64.8178 78.7519 64.6712 78.8985C63.9787 79.591 62.7161 78.8683 62.7161 77.7792C62.7161 76.8939 62.182 77.0941 62.0912 78.0136C62.0381 78.5515 62.1685 78.8523 62.6466 79.2962C63.1687 79.7807 63.4244 79.8589 64.2004 79.7719C65.1369 79.6666 65.6043 79.8903 65.6043 80.4432C65.6043 80.6083 64.9633 81.0435 64.18 81.4101C61.8712 82.4905 56.7176 83.0848 56.7176 82.2706C56.7176 82.1566 56.9676 81.8998 57.2731 81.6996C57.5908 81.4914 57.8285 81.1235 57.8285 80.84C57.8285 80.5672 57.9851 80.0302 58.1766 79.6463C58.6209 78.7557 58.4499 78.4986 57.4135 78.4986C56.4802 78.4986 55.6766 78.0363 55.9214 77.6404C56.0094 77.4978 56.4246 77.2376 56.8438 77.0625C57.4232 76.8206 57.6063 76.6109 57.6063 76.1903C57.6063 75.8857 57.7103 75.5725 57.8376 75.4938C57.9647 75.4152 58.3221 74.9495 58.6318 74.4588L59.1952 73.5665L61.2334 73.7245C62.3544 73.8111 63.3966 73.9835 63.5493 74.1071Z" fill="#926E2A" stroke="#926E2A"/>
</svg>
