<svg width="124" height="32" viewBox="0 0 124 32" fill="none" xmlns="http://www.w3.org/2000/svg">
<path d="M101.596 18.4068C101.596 13.5439 105.559 9.57764 110.418 9.57764C115.277 9.57764 119.239 13.5439 119.239 18.4068C119.239 23.2697 115.277 27.236 110.418 27.236C105.559 27.236 101.596 23.2697 101.596 18.4068ZM106.007 18.4068C106.007 20.8555 107.971 22.8214 110.418 22.8214C112.864 22.8214 114.829 20.8555 114.829 18.4068C114.829 15.9581 112.864 13.9922 110.418 13.9922C107.971 13.9922 106.007 15.9581 106.007 18.4068Z" fill="#FF544C"/>
<path fill-rule="evenodd" clip-rule="evenodd" d="M96.834 18.4062C96.834 10.9116 102.929 4.81201 110.417 4.81201C117.905 4.81201 124 10.9116 124 18.4062C124 25.9008 117.905 32.0004 110.417 32.0004C102.929 32.0004 96.834 25.9008 96.834 18.4062ZM110.661 18.1624C110.593 18.0946 110.496 18.0558 110.417 18.0558C110.338 18.0558 110.241 18.0946 110.173 18.1624C110.106 18.2301 110.067 18.3273 110.067 18.4062C110.067 18.4851 110.106 18.5823 110.173 18.65C110.241 18.7178 110.338 18.7566 110.417 18.7566C110.496 18.7566 110.593 18.7178 110.661 18.65C110.728 18.5823 110.767 18.4851 110.767 18.4062C110.767 18.3273 110.728 18.2301 110.661 18.1624ZM110.417 9.57703C105.558 9.57703 101.595 13.5433 101.595 18.4062C101.595 23.2691 105.558 27.2354 110.417 27.2354C115.276 27.2354 119.239 23.2691 119.239 18.4062C119.239 13.5433 115.276 9.57703 110.417 9.57703ZM110.417 22.8208C107.97 22.8208 106.006 20.8549 106.006 18.4062C106.006 15.9575 107.97 13.9916 110.417 13.9916C112.864 13.9916 114.828 15.9575 114.828 18.4062C114.828 20.8549 112.864 22.8208 110.417 22.8208Z" fill="#FF544C"/>
<path d="M83.2437 18.4068C83.2437 13.5439 87.2066 9.57764 92.0655 9.57764C96.9245 9.57764 100.887 13.5439 100.887 18.4068C100.887 23.2697 96.9245 27.236 92.0655 27.236C87.2066 27.236 83.2437 23.2697 83.2437 18.4068ZM87.6546 18.4068C87.6546 20.8555 89.6188 22.8214 92.0655 22.8214C94.5122 22.8214 96.4765 20.8555 96.4765 18.4068C96.4765 15.9581 94.5122 13.9922 92.0655 13.9922C89.6188 13.9922 87.6546 15.9581 87.6546 18.4068Z" fill="#FF544C"/>
<path fill-rule="evenodd" clip-rule="evenodd" d="M78.4819 18.4062C78.4819 10.9116 84.5765 4.81201 92.0649 4.81201C99.5533 4.81201 105.648 10.9116 105.648 18.4062C105.648 25.9008 99.5533 32.0004 92.0649 32.0004C84.5765 32.0004 78.4819 25.9008 78.4819 18.4062ZM92.3085 18.1624C92.2408 18.0946 92.1437 18.0558 92.0649 18.0558C91.9861 18.0558 91.889 18.0946 91.8213 18.1624C91.7536 18.2301 91.7148 18.3273 91.7148 18.4062C91.7148 18.4851 91.7536 18.5823 91.8213 18.65C91.889 18.7178 91.9861 18.7566 92.0649 18.7566C92.1437 18.7566 92.2408 18.7178 92.3085 18.65C92.3762 18.5823 92.4151 18.4851 92.4151 18.4062C92.4151 18.3273 92.3762 18.2301 92.3085 18.1624ZM92.0649 9.57703C87.206 9.57703 83.243 13.5433 83.243 18.4062C83.243 23.2691 87.206 27.2354 92.0649 27.2354C96.9238 27.2354 100.887 23.2691 100.887 18.4062C100.887 13.5433 96.9238 9.57703 92.0649 9.57703ZM92.0649 22.8208C89.6182 22.8208 87.654 20.8549 87.654 18.4062C87.654 15.9575 89.6182 13.9916 92.0649 13.9916C94.5116 13.9916 96.4758 15.9575 96.4758 18.4062C96.4758 20.8549 94.5116 22.8208 92.0649 22.8208Z" fill="#FF544C"/>
<path d="M66.8279 18.0089V24.6308C66.8279 25.8379 65.8286 26.838 64.6225 26.838C63.4163 26.838 62.417 25.8379 62.417 24.6308V6.97243C62.417 5.76532 63.4163 4.76514 64.6225 4.76514C65.8286 4.76514 66.8279 5.76532 66.8279 6.97243V13.5943H77.8553V6.97243C77.8553 5.76532 78.8546 4.76514 80.0607 4.76514C81.2669 4.76514 82.2662 5.76532 82.2662 6.97243V24.6308C82.2662 25.8379 81.2669 26.838 80.0607 26.838C78.8546 26.838 77.8553 25.8379 77.8553 24.6308V18.0089H66.8279Z" fill="#FF544C"/>
<path fill-rule="evenodd" clip-rule="evenodd" d="M62.4164 24.6302C62.4164 25.8373 63.4157 26.8374 64.6218 26.8374C65.8279 26.8374 66.8273 25.8373 66.8273 24.6302V18.0083H77.8546V24.6302C77.8546 25.8373 78.854 26.8374 80.0601 26.8374C81.2662 26.8374 82.2656 25.8373 82.2656 24.6302V6.97182C82.2656 5.76471 81.2662 4.76453 80.0601 4.76453C78.854 4.76453 77.8546 5.76471 77.8546 6.97182V13.5937H66.8273V6.97182C66.8273 5.76471 65.8279 4.76453 64.6218 4.76453C63.4157 4.76453 62.4164 5.76471 62.4164 6.97182V24.6302ZM71.5884 8.82868V6.97182C71.5884 3.13307 68.4574 -0.000488281 64.6218 -0.000488281C60.7862 -0.000488281 57.6553 3.13306 57.6553 6.97182V24.6302C57.6553 28.4689 60.7862 31.6025 64.6218 31.6025C68.4574 31.6025 71.5884 28.4689 71.5884 24.6302V22.7733H73.0936V24.6302C73.0936 28.4689 76.2245 31.6025 80.0601 31.6025C83.8957 31.6025 87.0267 28.4689 87.0267 24.6302V6.97182C87.0267 3.13306 83.8957 -0.000488281 80.0601 -0.000488281C76.2245 -0.000488281 73.0936 3.13307 73.0936 6.97182V8.82868H71.5884Z" fill="#FF544C"/>
<path d="M41.0908 18.4068C41.0908 13.5439 45.0538 9.57764 49.9127 9.57764C54.7716 9.57764 58.7346 13.5439 58.7346 18.4068C58.7346 23.2697 54.7716 27.236 49.9127 27.236C45.0538 27.236 41.0908 23.2697 41.0908 18.4068ZM45.5018 18.4068C45.5018 20.8555 47.466 22.8214 49.9127 22.8214C52.3594 22.8214 54.3236 20.8555 54.3236 18.4068C54.3236 15.9581 52.3594 13.9922 49.9127 13.9922C47.466 13.9922 45.5018 15.9581 45.5018 18.4068Z" fill="#FF544C"/>
<path fill-rule="evenodd" clip-rule="evenodd" d="M36.3296 18.4062C36.3296 10.9116 42.4242 4.81201 49.9126 4.81201C57.401 4.81201 63.4955 10.9116 63.4955 18.4062C63.4955 25.9008 57.401 32.0004 49.9126 32.0004C42.4242 32.0004 36.3296 25.9008 36.3296 18.4062ZM50.1562 18.1624C50.0885 18.0946 49.9914 18.0558 49.9126 18.0558C49.8338 18.0558 49.7366 18.0946 49.6689 18.1624C49.6012 18.2301 49.5624 18.3273 49.5624 18.4062C49.5624 18.4851 49.6012 18.5823 49.6689 18.65C49.7366 18.7178 49.8338 18.7566 49.9126 18.7566C49.9914 18.7566 50.0885 18.7178 50.1562 18.65C50.2239 18.5822 50.2627 18.4851 50.2627 18.4062C50.2627 18.3273 50.2239 18.2301 50.1562 18.1624ZM49.9126 9.57703C45.0536 9.57703 41.0907 13.5433 41.0907 18.4062C41.0907 23.2691 45.0536 27.2354 49.9126 27.2354C54.7715 27.2354 58.7344 23.2691 58.7344 18.4062C58.7344 13.5433 54.7715 9.57703 49.9126 9.57703ZM49.9126 22.8208C47.4659 22.8208 45.5016 20.8549 45.5016 18.4062C45.5016 15.9575 47.4659 13.9916 49.9126 13.9916C52.3592 13.9916 54.3235 15.9575 54.3235 18.4062C54.3235 20.8549 52.3592 22.8208 49.9126 22.8208Z" fill="#FF544C"/>
<path d="M22.7471 18.4068C22.7471 13.5439 26.71 9.57764 31.5689 9.57764C36.4279 9.57764 40.3908 13.5439 40.3908 18.4068C40.3908 23.2697 36.4279 27.236 31.5689 27.236C26.71 27.236 22.7471 23.2697 22.7471 18.4068ZM27.158 18.4068C27.158 20.8555 29.1223 22.8214 31.5689 22.8214C34.0156 22.8214 35.9799 20.8555 35.9799 18.4068C35.9799 15.9581 34.0156 13.9922 31.5689 13.9922C29.1223 13.9922 27.158 15.9581 27.158 18.4068Z" fill="#FF544C"/>
<path fill-rule="evenodd" clip-rule="evenodd" d="M17.9854 18.4062C17.9854 10.9116 24.0799 4.81201 31.5683 4.81201C39.0567 4.81201 45.1513 10.9116 45.1513 18.4062C45.1513 25.9008 39.0567 32.0004 31.5683 32.0004C24.0799 32.0004 17.9854 25.9008 17.9854 18.4062ZM31.8119 18.1624C31.7442 18.0946 31.6471 18.0558 31.5683 18.0558C31.4895 18.0558 31.3924 18.0946 31.3247 18.1624C31.257 18.2301 31.2182 18.3273 31.2182 18.4062C31.2182 18.4851 31.257 18.5823 31.3247 18.65C31.3924 18.7178 31.4895 18.7566 31.5683 18.7566C31.6471 18.7566 31.7442 18.7178 31.8119 18.65C31.8796 18.5823 31.9185 18.4851 31.9185 18.4062C31.9185 18.3273 31.8796 18.2301 31.8119 18.1624ZM31.5683 9.57703C26.7094 9.57703 22.7464 13.5433 22.7464 18.4062C22.7464 23.2691 26.7094 27.2354 31.5683 27.2354C36.4272 27.2354 40.3902 23.2691 40.3902 18.4062C40.3902 13.5433 36.4272 9.57703 31.5683 9.57703ZM31.5683 22.8208C29.1216 22.8208 27.1574 20.8549 27.1574 18.4062C27.1574 15.9575 29.1216 13.9916 31.5683 13.9916C34.015 13.9916 35.9793 15.9575 35.9793 18.4062C35.9793 20.8549 34.015 22.8208 31.5683 22.8208Z" fill="#FF544C"/>
<path d="M15.7891 26.838C14.5829 26.838 13.5836 25.8379 13.5836 24.6308V16.6983L5.41647 8.52443C4.96848 8.07607 4.76172 7.55874 4.76172 6.97243C4.76172 5.76532 5.76107 4.76514 6.96719 4.76514C7.55302 4.76514 8.06992 4.97207 8.51791 5.42043L15.7891 12.6976L23.0602 5.42043C23.5082 4.97207 24.0251 4.76514 24.6109 4.76514C25.8171 4.76514 26.8164 5.76532 26.8164 6.97243C26.8164 7.55874 26.6096 8.07607 26.1617 8.52443L17.9945 16.6983V24.6308C17.9945 25.8379 16.9952 26.838 15.7891 26.838Z" fill="#FF544C"/>
<path fill-rule="evenodd" clip-rule="evenodd" d="M17.9939 16.6977L26.161 8.52383C26.609 8.07547 26.8158 7.55814 26.8158 6.97182C26.8158 5.76471 25.8164 4.76453 24.6103 4.76453C24.0245 4.76453 23.5076 4.97147 23.0596 5.41982L15.7884 12.697L8.51728 5.41982C8.06929 4.97147 7.55238 4.76453 6.96656 4.76453C5.76044 4.76453 4.76109 5.76471 4.76109 6.97182C4.76109 7.55814 4.96785 8.07547 5.41584 8.52383L13.583 16.6977V24.6302C13.583 25.8373 14.5823 26.8374 15.7884 26.8374C16.9945 26.8374 17.9939 25.8373 17.9939 24.6302V16.6977ZM22.755 18.6714V24.6302C22.755 28.4689 19.624 31.6025 15.7884 31.6025C11.9528 31.6025 8.82188 28.4689 8.82188 24.6302V18.6714L2.04924 11.8932C0.718568 10.5614 0 8.83625 0 6.97182C0 3.13307 3.13096 -0.000488281 6.96656 -0.000488281C8.82945 -0.000488281 10.5532 0.718679 11.8839 2.05044L15.7884 5.95823L19.693 2.05044C21.0237 0.718686 22.7474 -0.000488281 24.6103 -0.000488281C28.4459 -0.000488281 31.5769 3.13307 31.5769 6.97182C31.5769 8.83624 30.8583 10.5614 29.5276 11.8932L22.755 18.6714Z" fill="#FF544C"/>
<path d="M66.8279 18.0089V24.6308C66.8279 25.8379 65.8286 26.838 64.6225 26.838C63.4163 26.838 62.417 25.8379 62.417 24.6308V6.97243C62.417 5.76532 63.4163 4.76514 64.6225 4.76514C65.8286 4.76514 66.8279 5.76532 66.8279 6.97243V13.5943H77.8553V6.97243C77.8553 5.76532 78.8546 4.76514 80.0607 4.76514C81.2669 4.76514 82.2662 5.76532 82.2662 6.97243V24.6308C82.2662 25.8379 81.2669 26.838 80.0607 26.838C78.8546 26.838 77.8553 25.8379 77.8553 24.6308V18.0089H66.8279Z" fill="#FF544C"/>
<path fill-rule="evenodd" clip-rule="evenodd" d="M62.4164 24.6302C62.4164 25.8373 63.4157 26.8374 64.6218 26.8374C65.8279 26.8374 66.8273 25.8373 66.8273 24.6302V18.0083H77.8546V24.6302C77.8546 25.8373 78.854 26.8374 80.0601 26.8374C81.2662 26.8374 82.2656 25.8373 82.2656 24.6302V6.97182C82.2656 5.76471 81.2662 4.76453 80.0601 4.76453C78.854 4.76453 77.8546 5.76471 77.8546 6.97182V13.5937H66.8273V6.97182C66.8273 5.76471 65.8279 4.76453 64.6218 4.76453C63.4157 4.76453 62.4164 5.76471 62.4164 6.97182V24.6302ZM71.5884 8.82868V6.97182C71.5884 3.13307 68.4574 -0.000488281 64.6218 -0.000488281C60.7862 -0.000488281 57.6553 3.13306 57.6553 6.97182V24.6302C57.6553 28.4689 60.7862 31.6025 64.6218 31.6025C68.4574 31.6025 71.5884 28.4689 71.5884 24.6302V22.7733H73.0936V24.6302C73.0936 28.4689 76.2245 31.6025 80.0601 31.6025C83.8957 31.6025 87.0267 28.4689 87.0267 24.6302V6.97182C87.0267 3.13306 83.8957 -0.000488281 80.0601 -0.000488281C76.2245 -0.000488281 73.0936 3.13307 73.0936 6.97182V8.82868H71.5884Z" fill="#FF544C"/>
<path d="M15.7891 26.838C14.5829 26.838 13.5836 25.8379 13.5836 24.6308V16.6983L5.41647 8.52443C4.96848 8.07607 4.76172 7.55874 4.76172 6.97243C4.76172 5.76532 5.76107 4.76514 6.96719 4.76514C7.55302 4.76514 8.06992 4.97207 8.51791 5.42043L15.7891 12.6976L23.0602 5.42043C23.5082 4.97207 24.0251 4.76514 24.6109 4.76514C25.8171 4.76514 26.8164 5.76532 26.8164 6.97243C26.8164 7.55874 26.6096 8.07607 26.1617 8.52443L17.9945 16.6983V24.6308C17.9945 25.8379 16.9952 26.838 15.7891 26.838Z" fill="#FF544C"/>
<path fill-rule="evenodd" clip-rule="evenodd" d="M17.9939 16.6977L26.161 8.52383C26.609 8.07547 26.8158 7.55814 26.8158 6.97182C26.8158 5.76471 25.8164 4.76453 24.6103 4.76453C24.0245 4.76453 23.5076 4.97147 23.0596 5.41982L15.7884 12.697L8.51728 5.41982C8.06929 4.97147 7.55238 4.76453 6.96656 4.76453C5.76044 4.76453 4.76109 5.76471 4.76109 6.97182C4.76109 7.55814 4.96785 8.07547 5.41584 8.52383L13.583 16.6977V24.6302C13.583 25.8373 14.5823 26.8374 15.7884 26.8374C16.9945 26.8374 17.9939 25.8373 17.9939 24.6302V16.6977ZM22.755 18.6714V24.6302C22.755 28.4689 19.624 31.6025 15.7884 31.6025C11.9528 31.6025 8.82188 28.4689 8.82188 24.6302V18.6714L2.04924 11.8932C0.718568 10.5614 0 8.83625 0 6.97182C0 3.13307 3.13096 -0.000488281 6.96656 -0.000488281C8.82945 -0.000488281 10.5532 0.718679 11.8839 2.05044L15.7884 5.95823L19.693 2.05044C21.0237 0.718686 22.7474 -0.000488281 24.6103 -0.000488281C28.4459 -0.000488281 31.5769 3.13307 31.5769 6.97182C31.5769 8.83624 30.8583 10.5614 29.5276 11.8932L22.755 18.6714Z" fill="#FF544C"/>
<path d="M101.596 18.4068C101.596 13.5439 105.559 9.57764 110.418 9.57764C115.277 9.57764 119.239 13.5439 119.239 18.4068C119.239 23.2697 115.277 27.236 110.418 27.236C105.559 27.236 101.596 23.2697 101.596 18.4068ZM106.007 18.4068C106.007 20.8555 107.971 22.8214 110.418 22.8214C112.864 22.8214 114.829 20.8555 114.829 18.4068C114.829 15.9581 112.864 13.9922 110.418 13.9922C107.971 13.9922 106.007 15.9581 106.007 18.4068Z" fill="black"/>
<path fill-rule="evenodd" clip-rule="evenodd" d="M98.4185 18.4038C98.4185 11.7864 103.802 6.39795 110.414 6.39795C117.026 6.39795 122.41 11.7864 122.41 18.4038C122.41 25.0212 117.026 30.4096 110.414 30.4096C103.802 30.4096 98.4185 25.0212 98.4185 18.4038ZM109.178 18.4038C109.178 19.0981 109.721 19.6417 110.414 19.6417C111.108 19.6417 111.651 19.0981 111.651 18.4038C111.651 17.7095 111.108 17.1659 110.414 17.1659C109.721 17.1659 109.178 17.7095 109.178 18.4038ZM110.414 9.57463C105.555 9.57463 101.593 13.5409 101.593 18.4038C101.593 23.2667 105.555 27.233 110.414 27.233C115.273 27.233 119.236 23.2667 119.236 18.4038C119.236 13.5409 115.273 9.57463 110.414 9.57463ZM110.414 22.8184C107.968 22.8184 106.003 20.8525 106.003 18.4038C106.003 15.9551 107.968 13.9892 110.414 13.9892C112.861 13.9892 114.825 15.9551 114.825 18.4038C114.825 20.8525 112.861 22.8184 110.414 22.8184Z" fill="white"/>
<path d="M83.2437 18.4068C83.2437 13.5439 87.2066 9.57764 92.0655 9.57764C96.9245 9.57764 100.887 13.5439 100.887 18.4068C100.887 23.2697 96.9245 27.236 92.0655 27.236C87.2066 27.236 83.2437 23.2697 83.2437 18.4068ZM87.6546 18.4068C87.6546 20.8555 89.6188 22.8214 92.0655 22.8214C94.5122 22.8214 96.4765 20.8555 96.4765 18.4068C96.4765 15.9581 94.5122 13.9922 92.0655 13.9922C89.6188 13.9922 87.6546 15.9581 87.6546 18.4068Z" fill="black"/>
<path fill-rule="evenodd" clip-rule="evenodd" d="M80.0747 18.4038C80.0747 11.7864 85.4587 6.39795 92.0706 6.39795C98.6826 6.39795 104.067 11.7864 104.067 18.4038C104.067 25.0212 98.6826 30.4096 92.0706 30.4096C85.4587 30.4096 80.0747 25.0212 80.0747 18.4038ZM90.8338 18.4038C90.8338 19.0981 91.3769 19.6417 92.0706 19.6417C92.7644 19.6417 93.3075 19.0981 93.3075 18.4038C93.3075 17.7095 92.7644 17.1659 92.0706 17.1659C91.3769 17.1659 90.8338 17.7095 90.8338 18.4038ZM92.0706 9.57463C87.2117 9.57463 83.2488 13.5409 83.2488 18.4038C83.2488 23.2667 87.2117 27.233 92.0706 27.233C96.9296 27.233 100.893 23.2667 100.893 18.4038C100.893 13.5409 96.9296 9.57463 92.0706 9.57463ZM92.0706 22.8184C89.624 22.8184 87.6597 20.8525 87.6597 18.4038C87.6597 15.9551 89.624 13.9892 92.0706 13.9892C94.5173 13.9892 96.4816 15.9551 96.4816 18.4038C96.4816 20.8525 94.5173 22.8184 92.0706 22.8184Z" fill="white"/>
<path d="M66.8279 18.0089V24.6308C66.8279 25.8379 65.8286 26.838 64.6225 26.838C63.4163 26.838 62.417 25.8379 62.417 24.6308V6.97243C62.417 5.76532 63.4163 4.76514 64.6225 4.76514C65.8286 4.76514 66.8279 5.76532 66.8279 6.97243V13.5943H77.8553V6.97243C77.8553 5.76532 78.8546 4.76514 80.0607 4.76514C81.2669 4.76514 82.2662 5.76532 82.2662 6.97243V24.6308C82.2662 25.8379 81.2669 26.838 80.0607 26.838C78.8546 26.838 77.8553 25.8379 77.8553 24.6308V18.0089H66.8279Z" fill="black"/>
<path fill-rule="evenodd" clip-rule="evenodd" d="M69.9993 21.1826V24.6278C69.9993 27.5893 67.5789 30.0117 64.6198 30.0117C61.6607 30.0117 59.2402 27.5893 59.2402 24.6278V6.96942C59.2402 4.00788 61.6607 1.58545 64.6198 1.58545C67.5789 1.58545 69.9993 4.00788 69.9993 6.96942V10.4146H74.6785V6.96942C74.6785 4.00788 77.0989 1.58545 80.058 1.58545C83.0171 1.58545 85.4376 4.00788 85.4376 6.96942V24.6278C85.4376 27.5893 83.0171 30.0117 80.058 30.0117C77.0989 30.0117 74.6785 27.5893 74.6785 24.6278V21.1826H69.9993ZM66.8252 24.6278C66.8252 25.8349 65.8259 26.835 64.6198 26.835C63.4136 26.835 62.4143 25.8349 62.4143 24.6278V6.96942C62.4143 5.76231 63.4136 4.76213 64.6198 4.76213C65.8259 4.76213 66.8252 5.76231 66.8252 6.96942V13.5913H77.8526V6.96942C77.8526 5.76231 78.8519 4.76213 80.058 4.76213C81.2642 4.76213 82.2635 5.76231 82.2635 6.96942V24.6278C82.2635 25.8349 81.2642 26.835 80.058 26.835C78.8519 26.835 77.8526 25.8349 77.8526 24.6278V18.0059H66.8252V24.6278Z" fill="white"/>
<path d="M41.0908 18.4068C41.0908 13.5439 45.0538 9.57764 49.9127 9.57764C54.7716 9.57764 58.7346 13.5439 58.7346 18.4068C58.7346 23.2697 54.7716 27.236 49.9127 27.236C45.0538 27.236 41.0908 23.2697 41.0908 18.4068ZM45.5018 18.4068C45.5018 20.8555 47.466 22.8214 49.9127 22.8214C52.3594 22.8214 54.3236 20.8555 54.3236 18.4068C54.3236 15.9581 52.3594 13.9922 49.9127 13.9922C47.466 13.9922 45.5018 15.9581 45.5018 18.4068Z" fill="black"/>
<path fill-rule="evenodd" clip-rule="evenodd" d="M37.9219 18.4038C37.9219 11.7864 43.3059 6.39795 49.9178 6.39795C56.5297 6.39795 61.9137 11.7864 61.9137 18.4038C61.9137 25.0212 56.5297 30.4096 49.9178 30.4096C43.3059 30.4096 37.9219 25.0212 37.9219 18.4038ZM48.6809 18.4038C48.6809 19.0981 49.2241 19.6417 49.9178 19.6417C50.6115 19.6417 51.1547 19.0981 51.1547 18.4038C51.1547 17.7095 50.6115 17.1659 49.9178 17.1659C49.2241 17.1659 48.6809 17.7095 48.6809 18.4038ZM49.9178 9.57463C45.0589 9.57463 41.0959 13.5409 41.0959 18.4038C41.0959 23.2667 45.0589 27.233 49.9178 27.233C54.7767 27.233 58.7397 23.2667 58.7397 18.4038C58.7397 13.5409 54.7767 9.57463 49.9178 9.57463ZM49.9178 22.8184C47.4711 22.8184 45.5069 20.8525 45.5069 18.4038C45.5069 15.9551 47.4711 13.9892 49.9178 13.9892C52.3645 13.9892 54.3287 15.9551 54.3287 18.4038C54.3287 20.8525 52.3645 22.8184 49.9178 22.8184Z" fill="white"/>
<path d="M22.7471 18.4068C22.7471 13.5439 26.71 9.57764 31.5689 9.57764C36.4279 9.57764 40.3908 13.5439 40.3908 18.4068C40.3908 23.2697 36.4279 27.236 31.5689 27.236C26.71 27.236 22.7471 23.2697 22.7471 18.4068ZM27.158 18.4068C27.158 20.8555 29.1223 22.8214 31.5689 22.8214C34.0156 22.8214 35.9799 20.8555 35.9799 18.4068C35.9799 15.9581 34.0156 13.9922 31.5689 13.9922C29.1223 13.9922 27.158 15.9581 27.158 18.4068Z" fill="black"/>
<path fill-rule="evenodd" clip-rule="evenodd" d="M19.5698 18.4038C19.5698 11.7864 24.9538 6.39795 31.5658 6.39795C38.1777 6.39795 43.5617 11.7864 43.5617 18.4038C43.5617 25.0212 38.1777 30.4096 31.5658 30.4096C24.9538 30.4096 19.5698 25.0212 19.5698 18.4038ZM30.3289 18.4038C30.3289 19.0981 30.8721 19.6417 31.5658 19.6417C32.2595 19.6417 32.8026 19.0981 32.8026 18.4038C32.8026 17.7095 32.2595 17.1659 31.5658 17.1659C30.872 17.1659 30.3289 17.7095 30.3289 18.4038ZM31.5658 9.57463C26.7068 9.57463 22.7439 13.5409 22.7439 18.4038C22.7439 23.2667 26.7068 27.233 31.5658 27.233C36.4247 27.233 40.3876 23.2667 40.3876 18.4038C40.3876 13.5409 36.4247 9.57463 31.5658 9.57463ZM31.5658 22.8184C29.1191 22.8184 27.1548 20.8525 27.1548 18.4038C27.1548 15.9551 29.1191 13.9892 31.5658 13.9892C34.0125 13.9892 35.9767 15.9551 35.9767 18.4038C35.9767 20.8525 34.0125 22.8184 31.5658 22.8184Z" fill="white"/>
<path d="M15.7891 26.838C14.5829 26.838 13.5836 25.8379 13.5836 24.6308V16.6983L5.41647 8.52443C4.96848 8.07607 4.76172 7.55874 4.76172 6.97243C4.76172 5.76532 5.76107 4.76514 6.96719 4.76514C7.55302 4.76514 8.06992 4.97207 8.51791 5.42043L15.7891 12.6976L23.0602 5.42043C23.5082 4.97207 24.0251 4.76514 24.6109 4.76514C25.8171 4.76514 26.8164 5.76532 26.8164 6.97243C26.8164 7.55874 26.6096 8.07607 26.1617 8.52443L17.9945 16.6983V24.6308C17.9945 25.8379 16.9952 26.838 15.7891 26.838Z" fill="black"/>
<path fill-rule="evenodd" clip-rule="evenodd" d="M10.7591 3.17117L15.7859 8.20208L20.8126 3.17117L23.057 5.41742L15.7859 12.6946L8.51472 5.41742C8.06673 4.96907 7.54983 4.76213 6.964 4.76213C5.75788 4.76213 4.75853 5.76231 4.75853 6.96942C4.75853 7.55573 4.96529 8.07307 5.41328 8.52142L3.16888 10.7677C2.13244 9.73038 1.58447 8.40781 1.58447 6.96942C1.58447 4.00788 4.0049 1.58545 6.964 1.58545C8.4012 1.58545 9.72268 2.13388 10.7591 3.17117ZM21.1654 18.0111L28.4029 10.7677C29.4393 9.73037 29.9873 8.4078 29.9873 6.96942C29.9873 4.00788 27.5669 1.58545 24.6078 1.58545C23.1705 1.58545 21.8491 2.13388 20.8126 3.17117L23.057 5.41742C23.505 4.96907 24.0219 4.76213 24.6078 4.76213C25.8139 4.76213 26.8132 5.76231 26.8132 6.96942C26.8132 7.55573 26.6065 8.07307 26.1585 8.52142L17.9913 16.6953V24.6278C17.9913 25.8349 16.992 26.835 15.7859 26.835C14.5798 26.835 13.5804 25.8349 13.5804 24.6278V16.6953L5.41328 8.52142L3.16888 10.7677L10.4063 18.0111V24.6278C10.4063 27.5893 12.8268 30.0117 15.7859 30.0117C18.745 30.0117 21.1654 27.5893 21.1654 24.6278V18.0111Z" fill="white"/>
<path fill-rule="evenodd" clip-rule="evenodd" d="M98.4185 18.4038C98.4185 11.7864 103.802 6.39795 110.414 6.39795C117.026 6.39795 122.41 11.7864 122.41 18.4038C122.41 25.0212 117.026 30.4096 110.414 30.4096C103.802 30.4096 98.4185 25.0212 98.4185 18.4038ZM111.651 18.4038C111.651 14.5355 111.651 22.5182 111.651 18.4038V18.4038ZM110.414 9.57463C105.555 9.57463 101.593 13.5409 101.593 18.4038C101.593 23.2667 105.555 27.233 110.414 27.233C115.273 27.233 119.236 23.2667 119.236 18.4038C119.236 13.5409 115.273 9.57463 110.414 9.57463ZM110.414 22.8184C107.968 22.8184 106.003 20.8525 106.003 18.4038C106.003 15.9551 107.968 13.9892 110.414 13.9892C112.861 13.9892 114.825 15.9551 114.825 18.4038C114.825 20.8525 112.861 22.8184 110.414 22.8184Z" fill="white"/>
<path fill-rule="evenodd" clip-rule="evenodd" d="M80.0747 18.4038C80.0747 11.7864 85.4587 6.39795 92.0706 6.39795C98.6826 6.39795 104.067 11.7864 104.067 18.4038C104.067 25.0212 98.6826 30.4096 92.0706 30.4096C85.4587 30.4096 80.0747 25.0212 80.0747 18.4038ZM92.0706 17.1659C88.2056 17.1659 96.1817 17.1659 92.0706 17.1659V17.1659ZM92.0706 9.57463C87.2117 9.57463 83.2488 13.5409 83.2488 18.4038C83.2488 23.2667 87.2117 27.233 92.0706 27.233C96.9296 27.233 100.893 23.2667 100.893 18.4038C100.893 13.5409 96.9296 9.57463 92.0706 9.57463ZM92.0706 22.8184C89.624 22.8184 87.6597 20.8525 87.6597 18.4038C87.6597 15.9551 89.624 13.9892 92.0706 13.9892C94.5173 13.9892 96.4816 15.9551 96.4816 18.4038C96.4816 20.8525 94.5173 22.8184 92.0706 22.8184Z" fill="white"/>
<path d="M66.8279 18.0089V24.6308C66.8279 25.8379 65.8286 26.838 64.6225 26.838C63.4163 26.838 62.417 25.8379 62.417 24.6308V6.97243C62.417 5.76532 63.4163 4.76514 64.6225 4.76514C65.8286 4.76514 66.8279 5.76532 66.8279 6.97243V13.5943H77.8553V6.97243C77.8553 5.76532 78.8546 4.76514 80.0607 4.76514C81.2669 4.76514 82.2662 5.76532 82.2662 6.97243V24.6308C82.2662 25.8379 81.2669 26.838 80.0607 26.838C78.8546 26.838 77.8553 25.8379 77.8553 24.6308V18.0089H66.8279Z" fill="#FF544C"/>
<path fill-rule="evenodd" clip-rule="evenodd" d="M69.9993 21.1826V24.6278C69.9993 27.5893 67.5789 30.0117 64.6198 30.0117C61.6607 30.0117 59.2402 27.5893 59.2402 24.6278V6.96942C59.2402 4.00788 61.6607 1.58545 64.6198 1.58545C67.5789 1.58545 69.9993 4.00788 69.9993 6.96942V10.4146H74.6785V6.96942C74.6785 4.00788 77.0989 1.58545 80.058 1.58545C83.0171 1.58545 85.4376 4.00788 85.4376 6.96942V24.6278C85.4376 27.5893 83.0171 30.0117 80.058 30.0117C77.0989 30.0117 74.6785 27.5893 74.6785 24.6278V21.1826H69.9993ZM66.8252 24.6278C66.8252 25.8349 65.8259 26.835 64.6198 26.835C63.4136 26.835 62.4143 25.8349 62.4143 24.6278V6.96942C62.4143 5.76231 63.4136 4.76213 64.6198 4.76213C65.8259 4.76213 66.8252 5.76231 66.8252 6.96942V13.5913H77.8526V6.96942C77.8526 5.76231 78.8519 4.76213 80.058 4.76213C81.2642 4.76213 82.2635 5.76231 82.2635 6.96942V24.6278C82.2635 25.8349 81.2642 26.835 80.058 26.835C78.8519 26.835 77.8526 25.8349 77.8526 24.6278V18.0059H66.8252V24.6278Z" fill="white"/>
<path fill-rule="evenodd" clip-rule="evenodd" d="M37.9219 18.4038C37.9219 11.7864 43.3059 6.39795 49.9178 6.39795C56.5297 6.39795 61.9137 11.7864 61.9137 18.4038C61.9137 25.0212 56.5297 30.4096 49.9178 30.4096C43.3059 30.4096 37.9219 25.0212 37.9219 18.4038ZM51.1547 18.4038C51.1547 14.5355 51.1547 22.5182 51.1547 18.4038V18.4038ZM49.9178 9.57463C45.0589 9.57463 41.0959 13.5409 41.0959 18.4038C41.0959 23.2667 45.0589 27.233 49.9178 27.233C54.7767 27.233 58.7397 23.2667 58.7397 18.4038C58.7397 13.5409 54.7767 9.57463 49.9178 9.57463ZM49.9178 22.8184C47.4711 22.8184 45.5069 20.8525 45.5069 18.4038C45.5069 15.9551 47.4711 13.9892 49.9178 13.9892C52.3645 13.9892 54.3287 15.9551 54.3287 18.4038C54.3287 20.8525 52.3645 22.8184 49.9178 22.8184Z" fill="white"/>
<path fill-rule="evenodd" clip-rule="evenodd" d="M19.5698 18.4038C19.5698 11.7864 24.9539 6.39795 31.5658 6.39795C38.1777 6.39795 43.5617 11.7864 43.5617 18.4038C43.5617 25.0212 38.1777 30.4096 31.5658 30.4096C24.9539 30.4096 19.5698 25.0212 19.5698 18.4038ZM32.8026 18.4038C32.8026 14.2685 32.8026 22.3811 32.8026 18.4038V18.4038ZM31.5658 9.57463C26.7068 9.57463 22.7439 13.5409 22.7439 18.4038C22.7439 23.2667 26.7068 27.233 31.5658 27.233C36.4247 27.233 40.3876 23.2667 40.3876 18.4038C40.3876 13.5409 36.4247 9.57463 31.5658 9.57463ZM31.5658 22.8184C29.1191 22.8184 27.1548 20.8525 27.1548 18.4038C27.1548 15.9551 29.1191 13.9892 31.5658 13.9892C34.0125 13.9892 35.9767 15.9551 35.9767 18.4038C35.9767 20.8525 34.0125 22.8184 31.5658 22.8184Z" fill="white"/>
<path d="M15.7891 26.838C14.5829 26.838 13.5836 25.8379 13.5836 24.6308V16.6983L5.41647 8.52443C4.96848 8.07607 4.76172 7.55874 4.76172 6.97243C4.76172 5.76532 5.76107 4.76514 6.96719 4.76514C7.55302 4.76514 8.06992 4.97207 8.51791 5.42043L15.7891 12.6976L23.0602 5.42043C23.5082 4.97207 24.0251 4.76514 24.6109 4.76514C25.8171 4.76514 26.8164 5.76532 26.8164 6.97243C26.8164 7.55874 26.6096 8.07607 26.1617 8.52443L17.9945 16.6983V24.6308C17.9945 25.8379 16.9952 26.838 15.7891 26.838Z" fill="#FF544C"/>
<path fill-rule="evenodd" clip-rule="evenodd" d="M10.7591 3.17117L15.7859 8.20208L20.8126 3.17117L23.057 5.41742L15.7859 12.6946L8.51472 5.41742C8.06673 4.96907 7.54983 4.76213 6.964 4.76213C5.75788 4.76213 4.75853 5.76231 4.75853 6.96942C4.75853 7.55573 4.96529 8.07307 5.41328 8.52142L3.16888 10.7677C2.13244 9.73038 1.58447 8.40781 1.58447 6.96942C1.58447 4.00788 4.0049 1.58545 6.964 1.58545C8.4012 1.58545 9.72268 2.13388 10.7591 3.17117ZM21.1654 18.0111L28.4029 10.7677C29.4393 9.73037 29.9873 8.4078 29.9873 6.96942C29.9873 4.00788 27.5669 1.58545 24.6078 1.58545C23.1705 1.58545 21.8491 2.13388 20.8126 3.17117L23.057 5.41742C23.505 4.96907 24.0219 4.76213 24.6078 4.76213C25.8139 4.76213 26.8132 5.76231 26.8132 6.96942C26.8132 7.55573 26.6065 8.07307 26.1585 8.52142L17.9913 16.6953V24.6278C17.9913 25.8349 16.992 26.835 15.7859 26.835C14.5798 26.835 13.5804 25.8349 13.5804 24.6278V16.6953L5.41328 8.52142L3.16888 10.7677L10.4063 18.0111V24.6278C10.4063 27.5893 12.8268 30.0117 15.7859 30.0117C18.745 30.0117 21.1654 27.5893 21.1654 24.6278V18.0111Z" fill="white"/>
<path d="M22.7471 18.4068C22.7471 13.5439 26.71 9.57764 31.5689 9.57764C36.4279 9.57764 40.3908 13.5439 40.3908 18.4068C40.3908 23.2697 36.4279 27.236 31.5689 27.236C26.71 27.236 22.7471 23.2697 22.7471 18.4068ZM27.158 18.4068C27.158 20.8555 29.1223 22.8214 31.5689 22.8214C34.0156 22.8214 35.9799 20.8555 35.9799 18.4068C35.9799 15.9581 34.0156 13.9922 31.5689 13.9922C29.1223 13.9922 27.158 15.9581 27.158 18.4068Z" fill="#F4B616"/>
<path d="M41.0908 18.4068C41.0908 13.5439 45.0538 9.57764 49.9127 9.57764C54.7716 9.57764 58.7346 13.5439 58.7346 18.4068C58.7346 23.2697 54.7716 27.236 49.9127 27.236C45.0538 27.236 41.0908 23.2697 41.0908 18.4068ZM45.5018 18.4068C45.5018 20.8555 47.466 22.8214 49.9127 22.8214C52.3594 22.8214 54.3236 20.8555 54.3236 18.4068C54.3236 15.9581 52.3594 13.9922 49.9127 13.9922C47.466 13.9922 45.5018 15.9581 45.5018 18.4068Z" fill="#F4B616"/>
<path d="M83.2437 18.4068C83.2437 13.5439 87.2066 9.57764 92.0655 9.57764C96.9245 9.57764 100.887 13.5439 100.887 18.4068C100.887 23.2697 96.9245 27.236 92.0655 27.236C87.2066 27.236 83.2437 23.2697 83.2437 18.4068ZM92.0655 22.8214C94.5122 22.8214 96.4765 20.8555 96.4765 18.4068C96.4765 15.9581 94.5122 13.9922 92.0655 13.9922C86.3731 13.9922 86.3731 22.8214 92.0655 22.8214Z" fill="#F4B616"/>
<path d="M101.596 18.4068C101.596 13.5439 105.559 9.57764 110.418 9.57764C115.277 9.57764 119.239 13.5439 119.239 18.4068C119.239 23.2697 115.277 27.236 110.418 27.236C105.559 27.236 101.596 23.2697 101.596 18.4068ZM106.007 18.4068C106.007 20.8555 107.971 22.8214 110.418 22.8214C112.864 22.8214 114.829 20.8555 114.829 18.4068C114.829 15.9581 112.864 13.9922 110.418 13.9922C107.971 13.9922 106.007 15.9581 106.007 18.4068Z" fill="#F4B616"/>
</svg>
