<svg viewBox="0 0 12 13" fill="none" xmlns="http://www.w3.org/2000/svg">
<path d="M1.26316 6.41936V8.92627C1.26316 9.44604 1.68674 9.86636 2.21053 9.86636C2.73432 9.86636 3.15789 9.44604 3.15789 8.92627V6.41936C3.15789 5.89876 2.73432 5.47927 2.21053 5.47927C1.68674 5.47927 1.26316 5.89876 1.26316 6.41936ZM5.05263 6.41936V8.92627C5.05263 9.44604 5.47621 9.86636 6 9.86636C6.52379 9.86636 6.94737 9.44604 6.94737 8.92627V6.41936C6.94737 5.89876 6.52379 5.47927 6 5.47927C5.47621 5.47927 5.05263 5.89876 5.05263 6.41936ZM0.947368 13H11.0526C11.5764 13 12 12.5797 12 12.0599C12 11.5393 11.5764 11.1198 11.0526 11.1198H0.947368C0.423579 11.1198 0 11.5393 0 12.0599C0 12.5797 0.423579 13 0.947368 13ZM8.84211 6.41936V8.92627C8.84211 9.44604 9.26568 9.86636 9.78947 9.86636C10.3133 9.86636 10.7368 9.44604 10.7368 8.92627V6.41936C10.7368 5.89876 10.3133 5.47927 9.78947 5.47927C9.26568 5.47927 8.84211 5.89876 8.84211 6.41936ZM5.41221 0.145401L0.423578 2.75258C0.164209 2.88461 0 3.1537 0 3.44199C0 3.87485 0.353687 4.22581 0.789898 4.22581H11.2168C11.6463 4.22581 12 3.87485 12 3.44199C12 3.1537 11.8358 2.88461 11.5764 2.75258L6.58779 0.145401C6.22147 -0.0484669 5.77853 -0.0484669 5.41221 0.145401Z" fill="currentColor"/>
</svg>
