<svg viewBox="0 0 13 16" fill="none" xmlns="http://www.w3.org/2000/svg">
<path fill-rule="evenodd" clip-rule="evenodd" d="M0.928566 2.00004C0.928566 1.47004 1.12357 0.961239 1.47294 0.58624C1.82116 0.211242 2.29357 0 2.78572 0H10.2143C10.7064 0 11.1788 0.211242 11.5271 0.58624C11.8753 0.961239 12.0714 1.47004 12.0714 2.00004V14C12.3175 14 12.5543 14.105 12.7284 14.2925C12.9025 14.48 13 14.7349 13 14.9999C13 15.2649 12.9025 15.52 12.7284 15.7075C12.5543 15.895 12.3175 16 12.0714 16H9.28572C9.03965 16 8.80286 15.895 8.62875 15.7075C8.45464 15.52 8.35714 15.2649 8.35714 14.9999V13C8.35714 12.735 8.25964 12.48 8.08553 12.2925C7.91143 12.105 7.67465 12 7.42858 12H5.57142C5.32535 12 5.08857 12.105 4.91447 12.2925C4.74036 12.48 4.64286 12.735 4.64286 13V14.9999C4.64286 15.2649 4.54536 15.52 4.37125 15.7075C4.19714 15.895 3.96035 16 3.71428 16H0.928566C0.682495 16 0.445716 15.895 0.271609 15.7075C0.0975014 15.52 0 15.2649 0 14.9999C0 14.7349 0.0975014 14.48 0.271609 14.2925C0.445716 14.105 0.682495 14 0.928566 14V2.00004ZM3.71428 3.00002H5.57142V4.99998H3.71428V3.00002ZM5.57142 7.00002H3.71428V8.99998H5.57142V7.00002ZM7.42858 3.00002H9.28572V4.99998H7.42858V3.00002ZM9.28572 7.00002H7.42858V8.99998H9.28572V7.00002Z" fill="currentColor"/>
</svg>
