<svg viewBox="0 0 20 18" fill="none" xmlns="http://www.w3.org/2000/svg">
<path opacity="0.977974" d="M4 0C1.791 0 0 1.791 0 3.99999V14C0 16.209 1.791 18 4 18H14C16.209 18 18 16.209 18 14V9.99998C18 9.44798 17.552 8.99998 17 8.99998C16.448 8.99998 16 9.44798 16 9.99998V14C16 15.105 15.105 16 14 16H4C2.895 16 2 15.105 2 14V3.99999C2 2.895 2.895 2 4 2H12C12.552 2 13 1.552 13 0.999998C13 0.447999 12.552 0 12 0H4ZM18 0.999998C17.744 0.999998 17.476 1.09 17.281 1.281L8.562 9.84398C8.305 10.097 8.046 10.079 7.844 9.78099L6.844 8.312C6.538 7.861 5.89601 7.72999 5.43801 8.03099C4.97901 8.33199 4.85001 8.95499 5.15601 9.40599L6.15601 10.875C7.05701 12.204 8.82 12.38 9.969 11.25L18.719 2.656C19.109 2.273 19.109 1.665 18.719 1.281C18.524 1.089 18.256 0.999998 18 0.999998Z" fill="currentColor"/>
</svg>
