<svg viewBox="0 0 7 11" fill="none" xmlns="http://www.w3.org/2000/svg">
<path d="M0.310703 9.31466L4.43496 5.49524L0.310703 1.67476C0.212757 1.58424 0.13375 1.4754 0.0810908 1.35694C0.0273784 1.23752 0 1.11044 0 0.981393C0 0.852344 0.0273784 0.724244 0.0810908 0.605788C0.13375 0.48637 0.212757 0.378514 0.310703 0.287023C0.408649 0.195533 0.525541 0.123296 0.654029 0.0741806C0.783571 0.0250648 0.920503 0 1.06058 0C1.1996 0 1.33754 0.0250648 1.46603 0.0741806C1.59452 0.123296 1.71144 0.195533 1.80939 0.287023L6.68878 4.80569C7.10374 5.18995 7.10374 5.81013 6.68878 6.19343L1.80939 10.7121C1.71144 10.8036 1.59452 10.8758 1.46603 10.9259C1.33754 10.975 1.1996 11 1.06058 11C0.920503 11 0.782518 10.975 0.654029 10.9259C0.525541 10.8758 0.408649 10.8036 0.310703 10.7121C-0.0937192 10.3288 -0.104251 9.69891 0.310703 9.31466Z" fill="currentColor"/>
</svg>
