<svg viewBox="0 0 10 11" fill="none" xmlns="http://www.w3.org/2000/svg">
<circle cx="5" cy="5" r="5" fill="currentColor"/>
<path d="M4.39062 6.36719C4.39583 6.02865 4.43099 5.75521 4.49609 5.54688C4.5612 5.33854 4.65365 5.17057 4.77344 5.04297C4.89323 4.91536 5.05469 4.79167 5.25781 4.67188C5.42969 4.56771 5.56771 4.4349 5.67188 4.27344C5.77604 4.11198 5.82812 3.92969 5.82812 3.72656C5.82812 3.55469 5.78776 3.40234 5.70703 3.26953C5.6263 3.13672 5.51432 3.03516 5.37109 2.96484C5.22786 2.89453 5.07031 2.85938 4.89844 2.85938C4.74219 2.85938 4.59635 2.89062 4.46094 2.95312C4.32552 3.01562 4.21224 3.11589 4.12109 3.25391C4.02995 3.39193 3.97656 3.5625 3.96094 3.76562H3.25C3.26562 3.45833 3.34766 3.19141 3.49609 2.96484C3.64453 2.73828 3.84115 2.5651 4.08594 2.44531C4.33073 2.32552 4.60156 2.26562 4.89844 2.26562C5.22135 2.26562 5.50521 2.32943 5.75 2.45703C5.99479 2.58464 6.18359 2.76172 6.31641 2.98828C6.44922 3.21484 6.51562 3.47135 6.51562 3.75781C6.51562 4.05469 6.44922 4.3125 6.31641 4.53125C6.18359 4.75 5.99219 4.9375 5.74219 5.09375C5.57552 5.19271 5.44531 5.29688 5.35156 5.40625C5.25781 5.51562 5.1875 5.64583 5.14062 5.79688C5.09375 5.94792 5.06771 6.13802 5.0625 6.36719V6.40625H4.39062V6.36719ZM4.75 8.04688C4.66146 8.04688 4.57812 8.02344 4.5 7.97656C4.42188 7.92969 4.36068 7.86719 4.31641 7.78906C4.27214 7.71094 4.25 7.6276 4.25 7.53906C4.25 7.45052 4.27214 7.36719 4.31641 7.28906C4.36068 7.21094 4.42188 7.14974 4.5 7.10547C4.57812 7.0612 4.66146 7.03906 4.75 7.03906C4.83854 7.03906 4.92188 7.0612 5 7.10547C5.07812 7.14974 5.13932 7.21094 5.18359 7.28906C5.22786 7.36719 5.25 7.45052 5.25 7.53906C5.25 7.6276 5.22786 7.71094 5.18359 7.78906C5.13932 7.86719 5.07812 7.92969 5 7.97656C4.92188 8.02344 4.83854 8.04688 4.75 8.04688Z" fill="white"/>
</svg>
