<svg viewBox="0 0.5 20 17" fill="none" xmlns="http://www.w3.org/2000/svg">
<path d="M16 13.2465V8.15426V8.15359C16 7.66359 16 7.41846 15.9391 7.19035C15.8851 6.98811 15.7963 6.79631 15.6763 6.62336C15.541 6.4282 15.3527 6.26676 14.9757 5.9438L10.4757 2.08879C9.77576 1.48917 9.42579 1.1894 9.03192 1.07536C8.68487 0.974879 8.31513 0.974879 7.96808 1.07536C7.57443 1.18934 7.22481 1.48885 6.52562 2.08781L6.52448 2.08879L2.02448 5.9438L2.02358 5.94457C1.64718 6.26702 1.45885 6.42836 1.32364 6.62336C1.20372 6.79632 1.11489 6.98811 1.06091 7.19035C1 7.41857 1 7.66381 1 8.15426V13.2465C1 14.1018 1 14.5294 1.14273 14.8668C1.33303 15.3166 1.69826 15.6739 2.15768 15.8603C2.50226 16 2.93908 16 3.81272 16C4.68636 16 5.12296 16 5.46753 15.8603C5.92696 15.6739 6.29188 15.3166 6.48218 14.8668C6.6249 14.5294 6.625 14.1017 6.625 13.2464V12.3285C6.625 11.3147 7.46447 10.4928 8.5 10.4928C9.53553 10.4928 10.375 11.3147 10.375 12.3285V13.2464C10.375 14.1017 10.375 14.5294 10.5177 14.8668C10.708 15.3166 11.0733 15.6739 11.5327 15.8603C11.8773 16 12.3141 16 13.1877 16C14.0614 16 14.498 16 14.8425 15.8603C15.302 15.6739 15.6669 15.3166 15.8572 14.8668C15.9999 14.5294 16 14.1018 16 13.2465Z" stroke="currentColor" stroke-width="1.9" stroke-linecap="round" stroke-linejoin="round"/>
</svg>
