<svg viewBox="0 0 18 16" fill="none" xmlns="http://www.w3.org/2000/svg">
<path d="M4.38631 1.46075C6.03666 0.391887 8.0621 -0.118036 10.0979 0.0230508C12.1338 0.164233 14.0466 0.947 15.4906 2.23055C16.9346 3.5141 17.8152 5.21439 17.9741 7.02411C18.1328 8.8337 17.5591 10.6341 16.3567 12.1011C15.1541 13.5681 13.4016 14.6054 11.4149 15.0255C9.54867 15.4202 7.59143 15.2455 5.85478 14.5361L1.13225 15.9597C0.823402 16.0528 0.481755 15.9817 0.251163 15.7767C0.0205864 15.5718 -0.0593639 15.2681 0.0453259 14.9936L1.646 10.795C0.848395 9.25154 0.652371 7.51196 1.09627 5.85343C1.56891 4.08749 2.73584 2.52972 4.38631 1.46075ZM9.96483 1.54182C8.33619 1.42891 6.71573 1.83659 5.39541 2.69168C4.07504 3.54686 3.14116 4.79322 2.76304 6.20597C2.38497 7.61866 2.58725 9.10504 3.33286 10.3971C3.43864 10.5804 3.45657 10.794 3.38223 10.9891L2.22586 14.0207L5.63723 12.9936L5.72007 12.9727C5.91604 12.9327 6.12273 12.9551 6.30327 13.0375C7.75683 13.7002 9.42899 13.88 11.0183 13.544C12.6076 13.2079 14.0098 12.3777 14.9719 11.2041C15.9338 10.0305 16.3925 8.59006 16.2654 7.14237C16.1384 5.69459 15.4342 4.33436 14.279 3.30752C13.1238 2.28068 11.5936 1.65476 9.96483 1.54182Z" fill="currentColor"/>
</svg>
