<svg viewBox="0 0 19 19" fill="none" xmlns="http://www.w3.org/2000/svg">
<path d="M17.8125 8.3125H1.1875C0.531666 8.3125 0 8.84417 0 9.5C0 10.1558 0.531666 10.6875 1.1875 10.6875H17.8125C18.4683 10.6875 19 10.1558 19 9.5C19 8.84417 18.4683 8.3125 17.8125 8.3125Z" fill="currentColor"/>
<path d="M1.1875 5.146H17.8125C18.4683 5.146 19 4.61433 19 3.9585C19 3.30266 18.4683 2.771 17.8125 2.771H1.1875C0.531666 2.771 0 3.30266 0 3.9585C0 4.61433 0.531666 5.146 1.1875 5.146Z" fill="currentColor"/>
<path d="M17.8125 13.8545H1.1875C0.531666 13.8545 0 14.3862 0 15.042C0 15.6978 0.531666 16.2295 1.1875 16.2295H17.8125C18.4683 16.2295 19 15.6978 19 15.042C19 14.3862 18.4683 13.8545 17.8125 13.8545Z" fill="currentColor"/>
</svg>
