<svg xmlns="http://www.w3.org/2000/svg" viewBox="0 0 30 30" width="25px" height="25px">
  <path d="M 15 3 C 13.9 3 13 3.9 13 5 L 13 5.265625 C 9.5610846 6.1606069 7 9.2910435 7 13 L 7 15.400391 C 7 17.000391 6.6996094 18.5 6.0996094 20 L 23.900391 20 C 23.300391 18.5 23 17.000391 23 15.400391 L 23 13 C 23 9.2910435 20.438915 6.1606069 17 5.265625 L 17 5 C 17 3.9 16.1 3 15 3 z M 5 22 A 1.0001 1.0001 0 1 0 5 24 L 12.173828 24 C 12.068319 24.312339 12 24.644428 12 25 C 12 26.7 13.3 28 15 28 C 16.7 28 18 26.7 18 25 C 18 24.644428 17.931681 24.312339 17.826172 24 L 25 24 A 1.0001 1.0001 0 1 0 25 22 L 5 22 z" fill="currentColor"/>
</svg>