<svg viewBox="0 0 24 24" fill="none" xmlns="http://www.w3.org/2000/svg">
<path d="M19.5557 13.4387C18.7553 13.4336 18.1024 12.8065 18.0967 12.0383C18.0911 11.2701 18.7352 10.6517 19.5352 10.6565C19.536 10.6565 19.5377 10.6565 19.5386 10.6565C19.7338 10.6582 19.8928 10.5067 19.8918 10.3115L19.8778 8.42108C19.8732 7.80025 19.366 7.2935 18.7452 7.28952L5.1836 7.20331C4.56277 7.19932 4.06296 7.69961 4.06754 8.32043L4.08148 10.2109C4.08292 10.4057 4.24454 10.5596 4.43977 10.5604C4.44061 10.5604 4.44231 10.5604 4.44315 10.5604C5.24354 10.5656 5.89648 11.1927 5.90215 11.9609C5.90781 12.7291 5.26363 13.3474 4.46367 13.3427C4.46282 13.3427 4.46113 13.3427 4.46028 13.3427C4.26505 13.341 4.1061 13.4924 4.10712 13.6876L4.12106 15.5781C4.12564 16.1989 4.63287 16.7056 5.25369 16.7096L18.8161 16.7967C19.437 16.8007 19.9368 16.3004 19.9322 15.6796L19.9182 13.7891C19.9168 13.5943 19.7552 13.4404 19.56 13.4396C19.5591 13.4396 19.5574 13.4396 19.5566 13.4396L19.5557 13.4387Z" stroke="currentColor" stroke-width="1.5" stroke-miterlimit="10"/>
<path d="M14.3375 17.0756C14.243 16.9811 14.2816 17.2276 14.2798 17.0846L14.2642 14.9725C14.2621 14.6865 14.4929 14.4556 14.7789 14.4574C15.0649 14.4592 15.2991 14.6932 15.3012 14.9792L15.3168 17.0913C15.3189 17.3773 15.0891 17.0858 14.8031 17.0839C14.6593 17.083 14.4321 17.17 14.3375 17.0756ZM14.4054 13.4379C14.3109 13.3434 14.252 13.2132 14.2502 13.0702L14.2346 10.9582C14.2325 10.6721 14.4633 10.4412 14.7493 10.443C15.0353 10.4448 15.2695 10.6788 15.2716 10.9648L15.2872 13.0769C15.2893 13.3629 15.0585 13.5939 14.7725 13.592C14.6288 13.5911 14.5 13.5324 14.4054 13.4379ZM14.3758 9.42349C14.2813 9.32902 14.2224 9.19884 14.2206 9.05583L14.205 6.94377C14.2029 6.65776 14.437 6.95435 14.723 6.95619C15.009 6.95802 15.2399 6.66442 15.242 6.95043L15.2575 9.06249C15.2597 9.3485 15.0289 9.57948 14.7429 9.57765C14.5992 9.57672 14.4704 9.51796 14.3758 9.42349Z" fill="currentColor"/>
</svg>
