<svg viewBox="0 0 15 16" fill="none" xmlns="http://www.w3.org/2000/svg">
<path d="M13.4822 4.77814C13.485 4.77553 13.4878 4.7747 13.4906 4.77208L14.05 4.24994C14.3763 3.94451 14.3754 3.44677 14.0462 3.13959C13.7171 2.83242 13.1839 2.83157 12.8566 3.13614L12.3196 3.63735C11.144 2.7167 9.66157 2.12671 8.03562 2.01968V0.999827H9.10685C9.40146 0.999827 9.64292 0.77444 9.64292 0.499462C9.64292 0.224485 9.40146 0 9.10685 0H5.89315C5.59854 0 5.35708 0.224485 5.35708 0.499462C5.35708 0.77444 5.59854 0.999827 5.89315 0.999827H6.96438V2.01968C5.36267 2.12497 3.89987 2.69758 2.73261 3.59561L2.24035 3.13614C1.91404 2.83157 1.37983 2.83242 1.05166 3.13959C0.722549 3.44677 0.72068 3.94451 1.04699 4.24994L1.55976 4.72859C0.5827 5.91029 0 7.39131 0 8.9994C0 12.8656 3.3582 16 7.49954 16C11.6418 16 15 12.8656 15 8.9994C15 7.41393 14.4341 5.95201 13.4822 4.77814ZM7.49954 15.0002C3.94929 15.0002 1.07123 12.3131 1.07123 8.9994C1.07123 5.68575 3.94929 2.99954 7.49954 2.99954C11.0507 2.99954 13.9288 5.68575 13.9288 8.9994C13.9288 12.3131 11.0507 15.0002 7.49954 15.0002Z" fill="currentColor"/>
<path d="M7.5003 15.0006C11.0506 15.0006 13.9286 12.3144 13.9286 9.00077C13.9286 5.68625 11.0506 3 7.5003 3C3.95004 3 1.07104 5.68625 1.07104 9.00077C1.07104 12.3144 3.95004 15.0006 7.5003 15.0006Z" fill="none"/>
<path d="M11.7854 9.24932C11.6372 9.24932 11.5169 9.13705 11.5169 8.99869C11.5169 8.8612 11.6372 8.74896 11.7854 8.74896H12.8427C12.7075 6.18715 10.511 4.13877 7.76717 4.01172V4.99933C7.76717 5.13682 7.64783 5.24911 7.49959 5.24911C7.35135 5.24911 7.23201 5.13682 7.23201 4.99933V4.01172C4.48821 4.13877 2.29168 6.18715 2.15649 8.74896H3.21374C3.36198 8.74896 3.48224 8.8612 3.48224 8.99869C3.48224 9.13705 3.36198 9.24932 3.21374 9.24932H2.15649C2.29168 11.8111 4.48821 13.8595 7.23201 13.9866V12.9989C7.23201 12.8605 7.35135 12.7492 7.49959 12.7492C7.64783 12.7492 7.76717 12.8605 7.76717 12.9989V13.9866C10.511 13.8595 12.7075 11.8111 12.8427 9.24932H11.7854Z" fill="currentColor"/>
<path d="M11.0926 5.64619C10.8838 5.45127 10.5444 5.45127 10.3356 5.64619L7.54144 8.25412C7.52746 8.25325 7.51441 8.24977 7.50043 8.24977C7.05665 8.24977 6.69678 8.58565 6.69678 8.99986C6.69678 9.41493 7.05665 9.74995 7.50043 9.74995C7.94328 9.74995 8.30314 9.41493 8.30314 8.99986C8.30314 8.98681 8.30035 8.97377 8.29941 8.96071L11.0926 6.35363C11.3024 6.15784 11.3024 5.84198 11.0926 5.64619Z" fill="none"/>
</svg>
