<svg width="73" height="46" viewBox="0 0 73 46" fill="none" xmlns="http://www.w3.org/2000/svg">
<g clip-path="url(#clip0_295_6713)">
<path d="M36.3159 14.8696L36.3857 14.9852L36.4532 14.8696C36.4075 14.8743 36.3617 14.8719 36.3159 14.8696ZM36.3159 14.8696L36.3857 14.9852L36.4532 14.8696C36.4075 14.8743 36.3617 14.8719 36.3159 14.8696Z" fill="#FCFAFA"/>
<path d="M52.0016 4.80463C51.6012 4.76301 51.2007 4.73527 50.7911 4.72024C50.5691 4.71214 50.346 4.70752 50.1217 4.70752C49.9192 4.70752 49.7178 4.70752 49.5164 4.71792C45.5953 4.84464 41.8208 6.25445 38.761 8.73526C38.563 8.89596 38.3674 9.06012 38.1763 9.23006C37.5386 9.79045 36.9402 10.395 36.3856 11.0393C34.3407 8.65411 31.721 6.84268 28.7801 5.78035C27.3402 5.25978 25.8408 4.92571 24.3177 4.78613C23.8814 4.74451 23.4439 4.71947 23.0053 4.71099C22.8909 4.71099 22.7685 4.71099 22.6495 4.71099C22.3543 4.71099 22.0602 4.71831 21.7673 4.73295C12.1469 5.19538 4.4624 13.2486 4.4624 23.0832C4.4624 33.2162 12.6206 41.4647 22.6552 41.4647C25.26 41.4655 27.8344 40.8998 30.2036 39.806C32.5727 38.7123 34.6812 37.1161 36.3856 35.126C38.0912 37.1158 40.2008 38.7113 42.571 39.8041C44.9412 40.8969 47.5164 41.4613 50.1217 41.459C60.1506 41.459 68.3145 33.2162 68.3145 23.0775C68.3088 13.5919 61.1507 5.75839 52.0016 4.80463ZM36.3856 14.9896L36.3158 14.874C36.3616 14.874 36.4073 14.874 36.4531 14.874L36.3856 14.9896Z" fill="url(#paint0_linear_295_6713)"/>
<path d="M66.1346 23.0059C66.1308 26.5344 64.9777 29.9635 62.8533 32.7641C60.7288 35.5646 57.7511 37.5807 54.3798 38.5014C51.0085 39.422 47.431 39.1959 44.1995 37.8579C40.968 36.52 38.2622 34.1446 36.4998 31.0984C34.7395 34.1495 32.0334 36.5298 28.7999 37.8712C25.5663 39.2125 21.9855 39.4402 18.6111 38.519C15.2366 37.5979 12.2565 35.5792 10.1315 32.775C8.00651 29.9709 6.85498 26.5376 6.85498 23.0059C6.85498 19.4742 8.00651 16.0409 10.1315 13.2367C12.2565 10.4326 15.2366 8.41392 18.6111 7.49276C21.9855 6.5716 25.5663 6.79929 28.7999 8.14063C32.0334 9.48197 34.7395 11.8622 36.4998 14.9134C38.2622 11.8672 40.968 9.49182 44.1995 8.15387C47.431 6.81592 51.0085 6.58981 54.3798 7.51042C57.7511 8.43104 60.7288 10.4472 62.8533 13.2477C64.9777 16.0482 66.1308 19.4774 66.1346 23.0059Z" fill="#FCFAFA"/>
<path d="M50.2361 6.93663C53.0253 6.93587 55.7656 7.67623 58.1822 9.08345C60.5988 10.4907 62.6065 12.5152 64.0041 14.954C65.4017 17.3928 66.14 20.1601 66.1448 22.9782C66.1496 25.7963 65.4208 28.5662 64.0316 31.0098C62.6423 33.4535 60.6415 35.4851 58.2298 36.9007C55.818 38.3164 53.0803 39.0663 50.2911 39.0753C47.5019 39.0843 44.7595 38.352 42.3389 36.9519C39.9183 35.5518 37.9046 33.5332 36.5 31.0985C34.7397 34.1496 32.0336 36.5299 28.8001 37.8713C25.5665 39.2126 21.9857 39.4403 18.6113 38.5191C15.2368 37.598 12.2567 35.5793 10.1317 32.7751C8.00672 29.971 6.85519 26.5377 6.85519 23.006C6.85519 19.4743 8.00672 16.041 10.1317 13.2368C12.2567 10.4327 15.2368 8.41402 18.6113 7.49286C21.9857 6.5717 25.5665 6.79939 28.8001 8.14073C32.0336 9.48207 34.7397 11.8623 36.5 14.9135C37.8989 12.486 39.9036 10.4718 42.314 9.07207C44.7243 7.67232 47.456 6.93599 50.2361 6.93663ZM50.2361 0.000212273C45.2766 -0.00469781 40.452 1.63169 36.5 4.65917C33.121 2.07157 29.0943 0.488224 24.873 0.0873342C20.6518 -0.313556 16.4036 0.483926 12.6066 2.39002C8.80953 4.29612 5.61442 7.23517 3.38084 10.8764C1.14725 14.5176 -0.0361328 18.7164 -0.0361328 23.0002C-0.0361328 27.284 1.14725 31.4829 3.38084 35.1241C5.61442 38.7653 8.80953 41.7043 12.6066 43.6104C16.4036 45.5165 20.6518 46.314 24.873 45.9131C29.0943 45.5122 33.121 43.9289 36.5 41.3413C39.3798 43.5464 42.7377 45.0274 46.2962 45.6618C49.8546 46.2962 53.5114 46.0658 56.9643 44.9897C60.4171 43.9136 63.5669 42.0226 66.1534 39.4731C68.7398 36.9236 70.6885 33.7888 71.8385 30.3277C72.9885 26.8666 73.3067 23.1787 72.7668 19.5688C72.227 15.9589 70.8445 12.5306 68.7338 9.56739C66.6231 6.60413 63.8446 4.19098 60.6282 2.52739C57.4117 0.863797 53.8495 -0.00246205 50.2361 0.000212273Z" fill="url(#paint1_linear_295_6713)"/>
<path d="M66.0203 23.0059C66.0166 26.5344 64.8635 29.9635 62.739 32.7641C60.6145 35.5646 57.6369 37.5807 54.2655 38.5014C50.8942 39.422 47.3167 39.1959 44.0853 37.8579C40.8538 36.52 38.148 34.1446 36.3855 31.0984C34.6252 34.1495 31.9191 36.5298 28.6856 37.8712C25.4521 39.2125 21.8713 39.4402 18.4968 38.519C15.1224 37.5979 12.1423 35.5792 10.0173 32.775C7.89225 29.9709 6.74072 26.5376 6.74072 23.0059C6.74072 19.4742 7.89225 16.0409 10.0173 13.2367C12.1423 10.4326 15.1224 8.41392 18.4968 7.49276C21.8713 6.5716 25.4521 6.79929 28.6856 8.14063C31.9191 9.48197 34.6252 11.8622 36.3855 14.9134C38.148 11.8672 40.8538 9.49182 44.0853 8.15387C47.3167 6.81592 50.8942 6.58981 54.2655 7.51042C57.6369 8.43104 60.6145 10.4472 62.739 13.2477C64.8635 16.0482 66.0166 19.4774 66.0203 23.0059Z" fill="url(#paint2_linear_295_6713)"/>
<path d="M50.1217 41.376C47.5175 41.3772 44.9436 40.8124 42.5745 39.7199C40.2054 38.6274 38.0966 37.0327 36.3913 35.0442C34.6854 37.0335 32.5757 38.6286 30.2055 39.7211C27.8354 40.8136 25.2603 41.378 22.6552 41.376C12.6206 41.376 4.4624 33.1332 4.4624 23.006C4.4624 12.8789 12.6206 4.62452 22.6552 4.62452C25.2594 4.62328 27.8333 5.18807 30.2024 6.28058C32.5715 7.37309 34.6803 8.96774 36.3856 10.9563C38.0916 8.967 40.2012 7.37192 42.5714 6.27938C44.9415 5.18685 47.5166 4.62245 50.1217 4.62452C60.1506 4.62452 68.3145 12.8673 68.3145 23.006C68.3145 33.1447 60.1506 41.376 50.1217 41.376ZM36.3856 26.5112L38.3616 29.9274C39.8685 32.5398 42.1852 34.5778 44.9535 35.7263C47.7217 36.8749 50.7874 37.0699 53.6764 36.2814C56.5655 35.4929 59.1169 33.7647 60.9363 31.364C62.7556 28.9633 63.7415 26.0239 63.7415 23.0002C63.7415 19.9766 62.7556 17.0372 60.9363 14.6365C59.1169 12.2358 56.5655 10.5076 53.6764 9.71907C50.7874 8.93054 47.7217 9.12563 44.9535 10.2742C42.1852 11.4227 39.8685 13.4607 38.3616 16.0731L36.3856 19.4893L34.4096 16.0696C32.9027 13.4573 30.586 11.4192 27.8177 10.2707C25.0495 9.12216 21.9838 8.92707 19.0947 9.7156C16.2057 10.5041 13.6543 12.2324 11.8349 14.633C10.0156 17.0337 9.02966 19.9731 9.02966 22.9968C9.02966 26.0204 10.0156 28.9598 11.8349 31.3605C13.6543 33.7612 16.2057 35.4894 19.0947 36.2779C21.9838 37.0665 25.0495 36.8714 27.8177 35.7228C30.586 34.5743 32.9027 32.5363 34.4096 29.9239L36.3856 26.5112Z" fill="#FCFAFA"/>
<path d="M22.6496 39.0637C31.4302 39.0637 38.5483 31.8718 38.5483 23.0001C38.5483 14.1284 31.4302 6.93652 22.6496 6.93652C13.8691 6.93652 6.75098 14.1284 6.75098 23.0001C6.75098 31.8718 13.8691 39.0637 22.6496 39.0637Z" fill="url(#paint3_linear_295_6713)"/>
<path d="M50.1218 39.0637C58.9024 39.0637 66.0205 31.8718 66.0205 23.0001C66.0205 14.1284 58.9024 6.93652 50.1218 6.93652C41.3412 6.93652 34.2231 14.1284 34.2231 23.0001C34.2231 31.8718 41.3412 39.0637 50.1218 39.0637Z" fill="url(#paint4_linear_295_6713)"/>
<path d="M41.2177 25.9539C41.2864 24.7262 42.4535 24.3412 43.2773 24.4129C46.8701 24.7747 54.8795 24.8753 58.5409 24.4129C59.4563 24.2973 60.509 24.7019 60.6234 26.0314C60.7378 27.3608 59.7996 27.8614 58.9986 28.0059C57.8773 28.1493 55.4974 28.2707 52.8428 28.2938V31.6163C52.8428 32.5065 51.7673 33.0603 50.8977 33.0603C50.051 33.0603 48.9983 32.5065 48.9983 31.6163V28.3123C46.4353 28.288 44.0782 28.1967 42.8425 28.0001C41.9729 27.8614 41.1262 27.4221 41.2177 25.9539ZM44.2808 17.4475C43.4569 17.4475 42.8848 16.5227 42.8848 15.7366C42.8848 14.9736 43.4798 14.0256 44.2808 14.0256H48.9949V13.725C48.9949 13.0314 49.8874 12.3608 50.8256 12.3608C51.7181 12.3608 52.8394 12.9158 52.8394 13.725V14.0256H57.4848C58.2858 14.0256 58.9723 14.8117 58.9723 15.7134C58.9723 16.4996 58.3773 17.4475 57.4848 17.4475H44.2808ZM50.9171 24.0603C47.9422 24.0603 43.3883 23.8013 43.3883 20.9504C43.3883 18.303 47.5074 17.8036 50.8942 17.8036C54.1438 17.8036 58.446 18.1366 58.446 20.9319C58.4494 23.6903 53.987 24.0603 50.9171 24.0603ZM50.94 20.199C47.9651 20.199 47.2099 20.3146 47.2099 20.8464C47.2099 21.4475 48.2855 21.4938 50.9171 21.4938C53.9149 21.4938 54.6243 21.3088 54.6243 20.8464C54.6278 20.3146 53.6632 20.199 50.9435 20.199H50.94Z" fill="white"/>
<path d="M12.5013 26.0486C12.6386 24.8694 13.737 24.3376 14.5609 24.4532C18.1079 24.8 26.3232 24.8694 29.8245 24.4532C30.7399 24.3376 31.7925 24.8463 31.9069 26.1179C32.0214 27.3896 31.0831 27.9908 30.2822 28.1295C29.733 28.1989 28.8405 28.2682 27.7878 28.3145V32.6613C27.7878 33.5168 26.7123 34.0486 25.8427 34.0486C24.996 34.0486 23.9433 33.5168 23.9433 32.6613V28.4069C22.8678 28.4301 21.7693 28.4301 20.6938 28.4301V32.6613C20.6938 33.5168 19.6182 34.0486 18.7486 34.0486C17.9019 34.0486 16.8493 33.5168 16.8493 32.6613V28.3376C15.7051 28.2913 14.7668 28.222 14.1261 28.1295C13.2565 27.9908 12.3411 27.3434 12.5013 26.0486ZM22.1126 23.9445C17.7417 23.9445 14.6524 22.0254 14.6524 18.511C14.6524 14.7422 17.9706 13.1006 22.1355 13.1006C26.5978 13.1006 29.5728 15.1121 29.5728 18.511C29.5728 22.0486 26.4834 23.9445 22.1126 23.9445ZM22.0897 16.7306C19.7098 16.7306 18.4511 17.3549 18.4511 18.511C18.4511 19.7827 19.8242 20.3145 22.0897 20.3145C24.4925 20.3145 25.774 19.7133 25.774 18.511C25.774 17.3549 24.6069 16.7306 22.0897 16.7306Z" fill="white"/>
<path d="M35.9759 45.0312L35.9473 45.0648L35.9747 45.0312H35.9759Z" fill="url(#paint5_linear_295_6713)"/>
<path d="M45.7885 39.6847L45.7256 39.6928L45.7885 39.6836V39.6847Z" fill="url(#paint6_linear_295_6713)"/>
<path d="M45.7873 39.6846L45.7243 39.6938L45.7873 39.6857V39.6846ZM35.9746 45.0314L35.9472 45.0649L35.9758 45.0314H35.9746Z" fill="#FCFAFA"/>
</g>
<defs>
<linearGradient id="paint0_linear_295_6713" x1="36.3885" y1="4.70752" x2="36.3885" y2="41.4647" gradientUnits="userSpaceOnUse">
<stop offset="0.506855" stop-color="#FF544C"/>
<stop offset="1" stop-color="#FF544C"/>
</linearGradient>
<linearGradient id="paint1_linear_295_6713" x1="36.4931" y1="-0.0136719" x2="36.4931" y2="46.0141" gradientUnits="userSpaceOnUse">
<stop offset="0.506855" stop-color="#FF544C"/>
<stop offset="1" stop-color="#FF544C"/>
</linearGradient>
<linearGradient id="paint2_linear_295_6713" x1="36.3805" y1="6.93652" x2="36.3805" y2="39.0753" gradientUnits="userSpaceOnUse">
<stop offset="0.506855" stop-color="#FF544C"/>
<stop offset="1" stop-color="#FF544C"/>
</linearGradient>
<linearGradient id="paint3_linear_295_6713" x1="22.6496" y1="6.93652" x2="22.6496" y2="39.0637" gradientUnits="userSpaceOnUse">
<stop offset="0.506855" stop-color="#FF544C"/>
<stop offset="1" stop-color="#FF544C"/>
</linearGradient>
<linearGradient id="paint4_linear_295_6713" x1="50.1218" y1="6.93652" x2="50.1218" y2="39.0637" gradientUnits="userSpaceOnUse">
<stop offset="0.506855" stop-color="#FF544C"/>
<stop offset="1" stop-color="#FF544C"/>
</linearGradient>
<linearGradient id="paint5_linear_295_6713" x1="35.9616" y1="45.0312" x2="35.9616" y2="45.0648" gradientUnits="userSpaceOnUse">
<stop offset="0.506855" stop-color="#FF544C"/>
<stop offset="1" stop-color="#FF544C"/>
</linearGradient>
<linearGradient id="paint6_linear_295_6713" x1="45.7571" y1="39.6836" x2="45.7571" y2="39.6928" gradientUnits="userSpaceOnUse">
<stop offset="0.506855" stop-color="#FF544C"/>
<stop offset="1" stop-color="#FF544C"/>
</linearGradient>
<clipPath id="clip0_295_6713">
<rect width="73" height="46" fill="white"/>
</clipPath>
</defs>
</svg>
