<svg width="size" height="size" viewBox="0 0 24 24" fill="none" xmlns="http://www.w3.org/2000/svg">
<path d="M9.25 23C8.16833 23 7.25625 22.6287 6.51375 21.8862C5.77125 21.1438 5.4 20.2317 5.4 19.15C5.4 18.985 5.42292 18.8567 5.46875 18.765C5.51458 18.6733 5.51 18.6 5.455 18.545C5.4 18.49 5.32667 18.4854 5.235 18.5312C5.14333 18.5771 5.015 18.6 4.85 18.6C3.76833 18.6 2.85625 18.2287 2.11375 17.4862C1.37125 16.7437 1 15.8317 1 14.75C1 13.6683 1.37125 12.7562 2.11375 12.0138C2.85625 11.2712 3.76833 10.9 4.85 10.9C5.27167 10.9 5.65667 10.955 6.005 11.065C6.35333 11.175 6.68333 11.34 6.995 11.56L11.56 6.995C11.34 6.68333 11.175 6.35333 11.065 6.005C10.955 5.65667 10.9 5.27167 10.9 4.85C10.9 3.76833 11.2712 2.85625 12.0138 2.11375C12.7562 1.37125 13.6683 1 14.75 1C15.8317 1 16.7437 1.37125 17.4862 2.11375C18.2287 2.85625 18.6 3.76833 18.6 4.85C18.6 5.015 18.5771 5.14333 18.5312 5.235C18.4854 5.32667 18.49 5.4 18.545 5.455C18.6 5.51 18.6733 5.51458 18.765 5.46875C18.8567 5.42292 18.985 5.4 19.15 5.4C20.2317 5.4 21.1438 5.77125 21.8862 6.51375C22.6287 7.25625 23 8.16833 23 9.25C23 10.3317 22.6287 11.2437 21.8862 11.9862C21.1438 12.7288 20.2317 13.1 19.15 13.1C18.7283 13.1 18.3433 13.045 17.995 12.935C17.6467 12.825 17.3167 12.66 17.005 12.44L12.44 17.005C12.66 17.3167 12.825 17.6467 12.935 17.995C13.045 18.3433 13.1 18.7283 13.1 19.15C13.1 20.2317 12.7288 21.1438 11.9862 21.8862C11.2437 22.6287 10.3317 23 9.25 23ZM9.25 20.8C9.72667 20.8 10.1208 20.6442 10.4325 20.3325C10.7442 20.0208 10.9 19.6267 10.9 19.15C10.9 18.985 10.8771 18.8246 10.8312 18.6688C10.7854 18.5129 10.7167 18.3617 10.625 18.215C10.3133 17.775 10.185 17.3029 10.24 16.7987C10.295 16.2946 10.515 15.85 10.9 15.465L15.465 10.9C15.85 10.515 16.2946 10.295 16.7987 10.24C17.3029 10.185 17.775 10.3133 18.215 10.625C18.3617 10.7167 18.5129 10.7854 18.6688 10.8312C18.8246 10.8771 18.985 10.9 19.15 10.9C19.6267 10.9 20.0208 10.7442 20.3325 10.4325C20.6442 10.1208 20.8 9.72667 20.8 9.25C20.8 8.77333 20.6442 8.37917 20.3325 8.0675C20.0208 7.75583 19.6267 7.6 19.15 7.6C18.5083 7.6 18.0592 7.56792 17.8025 7.50375C17.5458 7.43958 17.28 7.27 17.005 6.995C16.73 6.72 16.5604 6.45417 16.4962 6.1975C16.4321 5.94083 16.4 5.49167 16.4 4.85C16.4 4.37333 16.2442 3.97917 15.9325 3.6675C15.6208 3.35583 15.2267 3.2 14.75 3.2C14.2733 3.2 13.8792 3.35583 13.5675 3.6675C13.2558 3.97917 13.1 4.37333 13.1 4.85C13.1 5.05167 13.1183 5.22125 13.155 5.35875C13.1917 5.49625 13.265 5.63833 13.375 5.785C13.6867 6.225 13.815 6.69708 13.76 7.20125C13.705 7.70542 13.485 8.15 13.1 8.535L8.535 13.1C8.15 13.485 7.70542 13.705 7.20125 13.76C6.69708 13.815 6.225 13.6867 5.785 13.375C5.63833 13.2833 5.48708 13.2146 5.33125 13.1687C5.17542 13.1229 5.015 13.1 4.85 13.1C4.37333 13.1 3.97917 13.2558 3.6675 13.5675C3.35583 13.8792 3.2 14.2733 3.2 14.75C3.2 15.2267 3.35583 15.6208 3.6675 15.9325C3.97917 16.2442 4.37333 16.4 4.85 16.4C5.49167 16.4 5.94083 16.4321 6.1975 16.4962C6.45417 16.5604 6.72 16.73 6.995 17.005C7.27 17.28 7.43958 17.5458 7.50375 17.8025C7.56792 18.0592 7.6 18.5083 7.6 19.15C7.6 19.6267 7.75583 20.0208 8.0675 20.3325C8.37917 20.6442 8.77333 20.8 9.25 20.8Z" fill="currentColor"/>
</svg>
