<svg width="size" height="size" viewBox="0 0 24 24" fill="none" xmlns="http://www.w3.org/2000/svg">
<path d="M12.25 8.91121V8.99996H5.75C5.70435 8.99996 5.64939 8.98179 5.59614 8.92498C5.54194 8.86717 5.5 8.77775 5.5 8.66663C5.5 7.43987 4.55234 6.33329 3.25 6.33329C1.94766 6.33329 1 7.43987 1 8.66663C1 10.5482 2.00066 12.2021 3.5 13.0522V21.3333C3.5 22.1922 4.16759 23 5.125 23H7.625C8.58241 23 9.25 22.1922 9.25 21.3333V17.6667H13.5V21.3333C13.5 22.1922 14.1676 23 15.125 23H17.625C18.5824 23 19.25 22.1922 19.25 21.3333V12.2668V12.2312V11.5421V10.8158V10.3333H19.5C21.493 10.3333 23 8.63005 23 6.66662V5.33328C23 4.47444 22.3324 3.66662 21.375 3.66662H19.5105L19.5008 3.64596C19.5007 3.64587 19.5007 3.64578 19.5007 3.64569C19.3214 3.26339 19.0416 2.93276 18.6849 2.69757C18.3274 2.46184 17.9091 2.33331 17.4774 2.33328H17.4773H15.816L15.0467 1.51267L15.0464 1.51231C14.539 0.971619 13.8105 0.881679 13.2317 1.13735C12.6614 1.3893 12.25 1.96478 12.25 2.66786V8.91121Z" stroke="currentColor" stroke-width="2"/>
</svg>
