<svg width="size" height="size" viewBox="0 0 24 24" fill="none" xmlns="http://www.w3.org/2000/svg">
<path fill-rule="evenodd" clip-rule="evenodd" d="M16.3064 4.45728C14.7876 4.45728 13.5564 5.68849 13.5564 7.20728V9.90492C13.1816 9.71353 12.7571 9.60559 12.3074 9.60559H11.6929C10.1741 9.60559 8.94288 10.8368 8.94288 12.3556V13.411C8.56805 13.2195 8.14351 13.1116 7.69374 13.1116H7.07922C5.56044 13.1116 4.32922 14.3428 4.32922 15.8616V18.7928C4.32922 19.207 4.66501 19.5428 5.07922 19.5428H9.69374L9.70698 19.5427H14.3074C14.3115 19.5427 14.3156 19.5426 14.3197 19.5426H18.9209C19.3351 19.5426 19.6709 19.2068 19.6709 18.7926V7.20728C19.6709 5.68849 18.4397 4.45728 16.9209 4.45728H16.3064ZM13.5564 12.3046V18.0427H10.4437V15.8616C10.4437 15.8383 10.4435 15.815 10.4429 15.7919V12.3556C10.4429 11.6652 11.0025 11.1056 11.6929 11.1056H12.3074C12.9807 11.1056 13.5296 11.6379 13.5564 12.3046ZM15.0574 18.0426H18.1709V7.20728C18.1709 6.51692 17.6113 5.95728 16.9209 5.95728H16.3064C15.616 5.95728 15.0564 6.51692 15.0564 7.20728V12.2799C15.0571 12.3051 15.0574 12.3303 15.0574 12.3556V18.0426ZM8.94288 18.0428V15.8146C8.91818 15.146 8.36837 14.6116 7.69374 14.6116H7.07922C6.38887 14.6116 5.82922 15.1712 5.82922 15.8616V18.0428H8.94288Z" fill="black"/>
</svg>
