<svg width="20" height="17" viewBox="0 0 20 17" fill="none" xmlns="http://www.w3.org/2000/svg">
<path d="M1 7.25H18.5M8.5 12.25L6 12.25M5 16H14.5C15.9001 16 16.6002 16 17.135 15.7275C17.6054 15.4878 17.9878 15.1054 18.2275 14.635C18.5 14.1002 18.5 13.4001 18.5 12V5C18.5 3.59987 18.5 2.8998 18.2275 2.36502C17.9878 1.89462 17.6054 1.51217 17.135 1.27248C16.6002 1 15.9001 1 14.5 1H5C3.59987 1 2.8998 1 2.36502 1.27248C1.89462 1.51217 1.51217 1.89462 1.27248 2.36502C1 2.8998 1 3.59987 1 5V12C1 13.4001 1 14.1002 1.27248 14.635C1.51217 15.1054 1.89462 15.4878 2.36502 15.7275C2.8998 16 3.59987 16 5 16Z" stroke="black" stroke-width="2" stroke-linecap="round"/>
</svg>
