<svg width="size" height="size" viewBox="0 0 24 24" fill="none" xmlns="http://www.w3.org/2000/svg">
<path fill-rule="evenodd" clip-rule="evenodd" d="M20 11.6012V18.0006C20 19.1052 19.1046 20.0006 18 20.0006H15.4649C15.8052 19.4123 16 18.7292 16 18.0007V16.4807C16 15.2968 15.4755 14.1737 14.5678 13.4137C13.0819 12.1697 10.9181 12.1697 9.43224 13.4137C8.52446 14.1737 8 15.2968 8 16.4807V18.0007C8 18.7293 8.19476 19.4123 8.53506 20.0006H6C4.89543 20.0006 4 19.1052 4 18.0006V11.6012C4 11.0469 4.23 10.5175 4.63513 10.1393L10.6351 4.5375C11.4036 3.82002 12.5964 3.82002 13.3649 4.5375L19.3649 10.1393C19.77 10.5175 20 11.0469 20 11.6012ZM11.978 20.0006C10.8836 19.9888 10 19.098 10 18.0007V16.4807C10 15.8888 10.2622 15.3272 10.7161 14.9472C11.459 14.3252 12.541 14.3252 13.2839 14.9472C13.7378 15.3272 14 15.8888 14 16.4807V18.0007C14 19.098 13.1164 19.9888 12.022 20.0006H11.978ZM11.9689 22.0006H6C3.79086 22.0006 2 20.2097 2 18.0006V11.6012C2 10.4927 2.46 9.43389 3.27026 8.67741L9.27026 3.07561C10.8072 1.64065 13.1928 1.64065 14.7297 3.07561L20.7297 8.67741C21.54 9.43389 22 10.4927 22 11.6012V18.0006C22 20.2097 20.2091 22.0006 18 22.0006H12.0311C12.0207 22.0007 12.0104 22.0007 12 22.0007C11.9896 22.0007 11.9793 22.0007 11.9689 22.0006Z" fill="currentColor"/>
</svg>
