<svg width="size" height="size" viewBox="0 0 24 24" fill="none" xmlns="http://www.w3.org/2000/svg">
<mask id="path-1-inside-1_279_5824" fill="white">
<path fill-rule="evenodd" clip-rule="evenodd" d="M2.08868 3.91132C-0.24791 6.24791 -0.247907 10.0363 2.08868 12.3729L11.2373 21.5215C11.6278 21.912 12.261 21.912 12.6515 21.5215L12.6722 21.5008C12.7926 21.452 12.9054 21.3788 13.0031 21.2811L21.8379 12.4463C24.2151 10.0691 24.2151 6.215 21.8379 3.83785C19.4608 1.4607 15.6066 1.4607 13.2295 3.83785L11.8531 5.21422L10.5502 3.91132C8.21363 1.57473 4.42527 1.57473 2.08868 3.91132Z"/>
</mask>
<path d="M12.6515 21.5215L14.0657 22.9357L12.6515 21.5215ZM12.6722 21.5008L11.9207 19.6474L11.5448 19.7998L11.258 20.0866L12.6722 21.5008ZM13.0031 21.2811L11.5889 19.8669L11.5889 19.8669L13.0031 21.2811ZM21.8379 12.4463L23.2521 13.8605L23.2521 13.8605L21.8379 12.4463ZM11.8531 5.21422L10.4389 6.62843L11.8531 8.04264L13.2673 6.62843L11.8531 5.21422ZM3.5029 10.9586C1.94735 9.40311 1.94735 6.88107 3.50289 5.32553L0.674468 2.49711C-2.44317 5.61475 -2.44317 10.6694 0.67447 13.7871L3.5029 10.9586ZM12.6515 20.1073L3.5029 10.9586L0.67447 13.7871L9.8231 22.9357L12.6515 20.1073ZM11.2373 20.1073C11.6278 19.7168 12.261 19.7168 12.6515 20.1073L9.8231 22.9357C10.9947 24.1073 12.8942 24.1073 14.0657 22.9357L11.2373 20.1073ZM11.258 20.0866L11.2373 20.1073L14.0657 22.9357L14.0864 22.915L11.258 20.0866ZM11.5889 19.8669C11.6839 19.7719 11.7975 19.6973 11.9207 19.6474L13.4237 23.3542C13.7877 23.2067 14.127 22.9856 14.4173 22.6953L11.5889 19.8669ZM20.4237 11.0321L11.5889 19.8669L14.4173 22.6953L23.2521 13.8605L20.4237 11.0321ZM20.4237 5.25206C22.0198 6.84816 22.0198 9.43596 20.4237 11.0321L23.2521 13.8605C26.4103 10.7023 26.4103 5.58183 23.2521 2.42364L20.4237 5.25206ZM14.6437 5.25206C16.2398 3.65596 18.8276 3.65596 20.4237 5.25206L23.2521 2.42364C20.0939 -0.73456 14.9735 -0.734564 11.8153 2.42364L14.6437 5.25206ZM13.2673 6.62843L14.6437 5.25206L11.8153 2.42364L10.4389 3.8L13.2673 6.62843ZM9.13601 5.32553L10.4389 6.62843L13.2673 3.8L11.9644 2.49711L9.13601 5.32553ZM3.50289 5.32553C5.05844 3.76999 7.58047 3.76999 9.13601 5.32553L11.9644 2.49711C8.8468 -0.620532 3.79211 -0.620535 0.674468 2.49711L3.50289 5.32553Z" fill="currentColor" mask="url(#path-1-inside-1_279_5824)"/>
</svg>
