<svg width="size" height="size" viewBox="0 0 24 24" fill="none" xmlns="http://www.w3.org/2000/svg">
<path d="M9.15833 13.2583L14.85 16.575M14.8417 7.42496L9.15833 10.7416M19.5 6.16663C19.5 7.54734 18.3807 8.66663 17 8.66663C15.6193 8.66663 14.5 7.54734 14.5 6.16663C14.5 4.78591 15.6193 3.66663 17 3.66663C18.3807 3.66663 19.5 4.78591 19.5 6.16663ZM9.5 12C9.5 13.3807 8.38071 14.5 7 14.5C5.61929 14.5 4.5 13.3807 4.5 12C4.5 10.6192 5.61929 9.49996 7 9.49996C8.38071 9.49996 9.5 10.6192 9.5 12ZM19.5 17.8333C19.5 19.214 18.3807 20.3333 17 20.3333C15.6193 20.3333 14.5 19.214 14.5 17.8333C14.5 16.4526 15.6193 15.3333 17 15.3333C18.3807 15.3333 19.5 16.4526 19.5 17.8333Z" stroke="currentColor" stroke-width="2" stroke-linecap="round" stroke-linejoin="round"/>
</svg>
