<svg width="18" height="18" viewBox="0 0 18 18" fill="currentColor" xmlns="http://www.w3.org/2000/svg">
<path fill-rule="evenodd" clip-rule="evenodd" d="M13.3064 1.45728C11.7876 1.45728 10.5564 2.68849 10.5564 4.20728V6.90492C10.1816 6.71353 9.7571 6.60559 9.30739 6.60559H8.69288C7.17409 6.60559 5.94288 7.83681 5.94288 9.35559V10.411C5.56805 10.2195 5.14351 10.1116 4.69374 10.1116H4.07922C2.56044 10.1116 1.32922 11.3428 1.32922 12.8616V15.7928C1.32922 16.207 1.66501 16.5428 2.07922 16.5428H6.69374L6.70698 16.5427H11.3074C11.3115 16.5427 11.3156 16.5426 11.3197 16.5426H15.9209C16.3351 16.5426 16.6709 16.2068 16.6709 15.7926V4.20728C16.6709 2.68849 15.4397 1.45728 13.9209 1.45728H13.3064ZM10.5564 9.30462V15.0427H7.44374V12.8616C7.44374 12.8383 7.44345 12.815 7.44288 12.7919V9.35559C7.44288 8.66524 8.00252 8.10559 8.69288 8.10559H9.30739C9.98068 8.10559 10.5296 8.6379 10.5564 9.30462ZM12.0574 15.0426H15.1709V4.20728C15.1709 3.51692 14.6113 2.95728 13.9209 2.95728H13.3064C12.616 2.95728 12.0564 3.51692 12.0564 4.20728V9.27994C12.0571 9.30507 12.0574 9.33029 12.0574 9.35559V15.0426ZM5.94288 15.0428V12.8146C5.91818 12.146 5.36837 11.6116 4.69374 11.6116H4.07922C3.38887 11.6116 2.82922 12.1712 2.82922 12.8616V15.0428H5.94288Z"/>
</svg>
