<svg width="size" height="size" viewBox="0 0 24 24" fill="none" xmlns="http://www.w3.org/2000/svg">
<g clip-path="url(#clip0_409_7156)">
<path d="M3.11616 22V12.0252H5.08586V20.4329H14.6061V15.5027L17.9519 12.8307C18.612 12.3057 19.1234 11.7114 19.486 11.0476C19.8489 10.3841 20.0303 9.68194 20.0303 8.94125C20.0303 8.21135 19.8477 7.51619 19.4824 6.85577C19.1171 6.19552 18.6112 5.60291 17.9647 5.07795L16.9041 4.20797L12.596 7.63537H7.67175L5.93185 9.0196L4.52778 7.92867L6.86614 6.06832H11.7904L16.9041 2L19.3688 3.95072C20.2105 4.62054 20.8574 5.38169 21.3093 6.23417C21.7614 7.08664 21.9917 7.989 22 8.94125C21.9917 9.89349 21.7614 10.7959 21.3093 11.6483C20.8574 12.5008 20.2105 13.262 19.3688 13.9318L16.5758 16.1437V22H3.11616ZM9.24258 17.2565L2.65394 12.0252C2.43859 11.8537 2.27576 11.6541 2.16545 11.4263C2.05515 11.1988 2 10.9624 2 10.7172C2 10.4721 2.05515 10.2401 2.16545 10.0212C2.27576 9.80217 2.43859 9.6069 2.65394 9.43539L5.18435 7.40632L9.02789 10.4279C9.6153 10.8954 10.066 11.4302 10.3801 12.0323C10.6941 12.6342 10.8512 13.2667 10.8512 13.9297C10.8512 14.5457 10.7165 15.1381 10.4471 15.7067C10.1776 16.2752 9.77615 16.7918 9.24258 17.2565Z" fill="currentColor"/>
</g>
<defs>
<clipPath id="clip0_409_7156">
<rect width="20" height="20" fill="white" transform="translate(2 2)"/>
</clipPath>
</defs>
</svg>
