<svg width="24" height="26" viewBox="0 0 24 26" fill="none" xmlns="http://www.w3.org/2000/svg">
<mask id="path-1-inside-1_279_5824" fill="white">
<path fill-rule="evenodd" clip-rule="evenodd" d="M2.08868 7.76923C-0.24791 10.1058 -0.247907 13.8942 2.08868 16.2308L11.2373 25.3794C11.6278 25.7699 12.261 25.7699 12.6515 25.3794L12.6722 25.3587C12.7926 25.3099 12.9054 25.2367 13.0031 25.139L21.8379 16.3042C24.2151 13.927 24.2151 10.0729 21.8379 7.69576C19.4608 5.31861 15.6066 5.31861 13.2295 7.69576L11.8531 9.07213L10.5502 7.76923C8.21363 5.43264 4.42527 5.43264 2.08868 7.76923Z"/>
</mask>
<path d="M12.6515 25.3794L14.0657 26.7936L12.6515 25.3794ZM12.6722 25.3587L11.9207 23.5053L11.5448 23.6577L11.258 23.9445L12.6722 25.3587ZM13.0031 25.139L11.5889 23.7248L11.5889 23.7248L13.0031 25.139ZM21.8379 16.3042L23.2521 17.7184L23.2521 17.7184L21.8379 16.3042ZM11.8531 9.07213L10.4389 10.4863L11.8531 11.9006L13.2673 10.4863L11.8531 9.07213ZM3.5029 14.8166C1.94735 13.261 1.94735 10.739 3.50289 9.18344L0.674468 6.35502C-2.44317 9.47266 -2.44317 14.5273 0.67447 17.645L3.5029 14.8166ZM12.6515 23.9652L3.5029 14.8166L0.67447 17.645L9.8231 26.7936L12.6515 23.9652ZM11.2373 23.9652C11.6278 23.5747 12.261 23.5747 12.6515 23.9652L9.8231 26.7936C10.9947 27.9652 12.8942 27.9652 14.0657 26.7936L11.2373 23.9652ZM11.258 23.9445L11.2373 23.9652L14.0657 26.7936L14.0864 26.7729L11.258 23.9445ZM11.5889 23.7248C11.6839 23.6298 11.7975 23.5552 11.9207 23.5053L13.4237 27.2121C13.7877 27.0646 14.127 26.8436 14.4173 26.5532L11.5889 23.7248ZM20.4237 14.89L11.5889 23.7248L14.4173 26.5532L23.2521 17.7184L20.4237 14.89ZM20.4237 9.10997C22.0198 10.7061 22.0198 13.2939 20.4237 14.89L23.2521 17.7184C26.4103 14.5602 26.4103 9.43974 23.2521 6.28155L20.4237 9.10997ZM14.6437 9.10997C16.2398 7.51387 18.8276 7.51387 20.4237 9.10997L23.2521 6.28155C20.0939 3.12335 14.9735 3.12335 11.8153 6.28155L14.6437 9.10997ZM13.2673 10.4863L14.6437 9.10997L11.8153 6.28155L10.4389 7.65791L13.2673 10.4863ZM9.13601 9.18344L10.4389 10.4863L13.2673 7.65791L11.9644 6.35502L9.13601 9.18344ZM3.50289 9.18344C5.05844 7.6279 7.58047 7.6279 9.13601 9.18344L11.9644 6.35502C8.8468 3.23738 3.79211 3.23737 0.674468 6.35502L3.50289 9.18344Z" fill="currentColor" mask="url(#path-1-inside-1_279_5824)"/>
</svg>
