<svg width="size" height="size" viewBox="0 0 20 20" fill="none" xmlns="http://www.w3.org/2000/svg">
<path d="M8.22952 4.38991C8.22952 3.24314 6.92085 2.33314 5.32505 2.59797C2.98239 2.98573 1.91188 7.55303 2.00566 8.3731C2.07205 8.95309 3.43715 9.79378 5.03958 9.19812C6.08602 8.80871 6.66608 8.00184 6.98475 7.13558M11.7705 4.38991C11.7705 3.24314 13.0792 2.33314 14.6749 2.59797C17.0176 2.98573 18.0881 7.55303 17.9943 8.3731C17.928 8.95309 16.5629 9.79378 14.9604 9.19812C13.914 8.80871 13.421 8.00184 13.1024 7.13558M6.56982 11.6732V12.0857M13.2086 11.6732V12.0857M9.26683 13.5295H10.5116L9.88922 14.1482L9.26683 13.5295Z" stroke="black" stroke-width="1.5" stroke-linecap="round" stroke-linejoin="round"/>
<path d="M3.59891 9.40201C3.36666 10.2936 3.24954 11.211 3.25037 12.132C3.25037 15.574 6.22289 17.4484 9.88916 17.4484C13.5554 17.4484 16.5279 15.574 16.5279 12.132C16.5279 11.2566 16.3935 10.317 16.1188 9.40201M8.44854 4.38425C8.92303 4.29157 9.4056 4.24597 9.88916 4.24812C10.5364 4.24812 11.1339 4.33722 11.6825 4.50058" stroke="black" stroke-width="1.5" stroke-linecap="round" stroke-linejoin="round"/>
</svg>
