<svg width="20" height="20" viewBox="0 0 20 20" fill="none" xmlns="http://www.w3.org/2000/svg">
<path d="M2.5 8.58C2.5 8.058 2.745 7.56599 3.162 7.25099L8.995 2.84299C9.28441 2.6243 9.63726 2.50598 10 2.50598C10.3627 2.50598 10.7156 2.6243 11.005 2.84299L16.838 7.25099C17.255 7.56599 17.5 8.058 17.5 8.581V15.833C17.5 16.753 16.754 17.5 15.833 17.5H12.617C12.3961 17.5 12.1842 17.4122 12.028 17.256C11.8718 17.0998 11.784 16.8879 11.784 16.667V13.57C11.7837 13.4596 11.7397 13.3538 11.6615 13.2758C11.5833 13.1978 11.4774 13.154 11.367 13.154H8.672C8.56158 13.154 8.45566 13.1978 8.37749 13.2758C8.29931 13.3538 8.25526 13.4596 8.255 13.57V16.667C8.255 17.127 7.882 17.5 7.422 17.5H4.167C3.247 17.5 2.5 16.754 2.5 15.833V8.581V8.58Z" fill="#FF544C"/>
</svg>
