<?xml version="1.0" encoding="UTF-8"?><svg xmlns="http://www.w3.org/2000/svg" viewBox="0 0 778.25 509.09"><defs><style>.cls-1{fill:#d9c0f9;}.cls-2{fill:#b1aff9;}.cls-3{fill:#f7f6e2;}.cls-4{fill:#5a4a66;}</style></defs><g id="stage"><path class="cls-3" d="M283.36,331.78c23-1.02,177.6.08,201.04.26,1.65.01,2.97,1.35,2.98,3v21.17c0,1.66-1.34,3-3,3h-200.87c-1.66,0-3-1.34-3-3v-21.43c0-1.6,1.25-2.93,2.85-3Z"/><rect class="cls-3" x="186.68" y="44.35" width="402.28" height="38.91" rx="3" ry="3"/><rect class="cls-3" x="223.25" y="19.45" width="331.58" height="44.72" rx="3" ry="3"/><rect class="cls-3" x="244.26" width="289.88" height="33.49" rx="3" ry="3"/><rect class="cls-3" x="290.99" y="68.45" width="196.07" height="22.59" rx="3" ry="3"/><path class="cls-3" d="M520.19,217.59h-262.59c-1.66,0-3-1.34-3-3v-17.46c0-1.66,1.34-3,3-3h91.95c.75,0,1.47-.28,2.03-.79l20.13-18.43c.55-.51,1.27-.79,2.02-.79l30.78-.04c.8,0,1.57.32,2.14.89l18.03,18.26c.56.57,1.33.89,2.13.89h93.38c1.66,0,3,1.34,3,3v17.46c0,1.66-1.34,3-3,3Z"/><rect class="cls-3" x="372.21" y="68.45" width="33.53" height="128.4"/><path class="cls-4" d="M346.99,37.99c-.27-.41-.66-.72-1.17-.92s-1.15-.31-1.92-.31c-.7,0-1.29.09-1.77.26s-.83.42-1.07.73-.36.67-.36,1.06c-.02.64.25,1.16.81,1.55s1.46.73,2.69,1.02l2.13.42c2.71.59,4.7,1.53,5.97,2.82s1.92,2.94,1.94,4.95c0,1.65-.41,3.06-1.24,4.21s-2,2.04-3.53,2.65-3.37.92-5.51.92-4.14-.33-5.77-1-2.88-1.68-3.76-3.03-1.34-3.05-1.37-5.09h6.4c.05.77.25,1.43.62,1.98s.87.96,1.51,1.23,1.41.41,2.29.41c.75,0,1.39-.1,1.92-.3s.93-.47,1.2-.81.41-.73.41-1.18c0-.42-.13-.79-.39-1.09s-.67-.58-1.25-.82-1.33-.46-2.27-.66l-2.57-.58c-2.33-.49-4.12-1.32-5.35-2.49s-1.85-2.72-1.85-4.65c0-1.58.43-2.98,1.3-4.19s2.07-2.16,3.61-2.83,3.3-1.01,5.28-1.01,3.77.34,5.26,1.01,2.65,1.63,3.47,2.87,1.23,2.68,1.23,4.32h-6.42c-.05-.57-.21-1.07-.47-1.48Z"/><path class="cls-4" d="M356.22,31.61h21.96v5.4h-7.68v20.06h-6.57v-20.06h-7.7v-5.4Z"/><path class="cls-4" d="M376.73,57.06l8.46-25.45h9.09l8.46,25.45h-7.22l-5.66-18.62h-.21l-5.68,18.62h-7.22ZM396.67,47.01v5.04h-13.97v-5.04h13.97Z"/><path class="cls-4" d="M419.81,38.41c-.38-.43-.86-.76-1.42-.98s-1.23-.33-2-.33c-1.17,0-2.18.28-3.01.84s-1.48,1.39-1.93,2.47-.68,2.38-.68,3.89.21,2.84.64,3.93,1.06,1.91,1.89,2.49,1.85.86,3.04.86c1.05,0,1.95-.16,2.69-.48s1.29-.78,1.65-1.38.54-1.3.54-2.11l1.2.14h-5.94v-4.83h11.2v3.5c0,2.26-.48,4.22-1.45,5.88s-2.31,2.93-4.03,3.81-3.68,1.32-5.9,1.32c-2.45,0-4.61-.53-6.49-1.58s-3.33-2.57-4.37-4.54-1.56-4.28-1.56-6.93.54-5.07,1.63-7.05,2.57-3.49,4.44-4.52,3.96-1.55,6.27-1.55c1.98,0,3.79.37,5.41,1.12s2.95,1.78,3.96,3.1,1.61,2.83,1.79,4.52h-6.79c-.15-.62-.42-1.15-.8-1.58Z"/><path class="cls-4" d="M431,31.61h18.18v5.4h-11.5v4.62h10.56v5.4h-10.56v4.64h11.44v5.4h-18.12v-25.45Z"/><path class="cls-4" d="M341.31,342.43c-.22-.35-.52-.62-.91-.8-.39-.19-.84-.28-1.35-.28-.68,0-1.26.17-1.74.5-.48.34-.85.82-1.1,1.45-.26.63-.38,1.39-.38,2.27s.13,1.7.38,2.32c.26.62.62,1.1,1.1,1.42.48.33,1.05.49,1.7.49.51,0,.94-.09,1.32-.26.37-.17.67-.42.9-.74.23-.32.38-.7.46-1.13l3.97.04c-.08.9-.38,1.76-.92,2.6s-1.3,1.53-2.29,2.08c-.99.54-2.16.82-3.5.82s-2.59-.3-3.67-.89c-1.08-.59-1.93-1.47-2.54-2.62-.61-1.15-.92-2.52-.92-4.12s.31-2.98.94-4.13c.63-1.15,1.48-2.02,2.55-2.61,1.07-.59,2.29-.89,3.64-.89,1.24,0,2.34.22,3.31.67.97.45,1.75,1.1,2.35,1.96s.95,1.89,1.06,3.08h-3.97c-.03-.46-.16-.87-.37-1.22Z"/><path class="cls-4" d="M360.86,349.69c-.62,1.15-1.48,2.03-2.57,2.62-1.09.6-2.32.89-3.68.89s-2.58-.3-3.67-.89c-1.09-.59-1.94-1.47-2.57-2.62-.62-1.15-.94-2.53-.94-4.11s.31-2.98.94-4.13c.63-1.15,1.48-2.02,2.57-2.61,1.09-.59,2.31-.89,3.67-.89s2.59.3,3.68.89c1.09.59,1.95,1.46,2.57,2.61.63,1.15.94,2.53.94,4.13s-.31,2.96-.94,4.12ZM357.42,343.26c-.24-.63-.6-1.11-1.08-1.43-.48-.33-1.05-.49-1.74-.49s-1.26.16-1.73.49c-.47.32-.83.8-1.07,1.43-.24.63-.36,1.4-.36,2.31s.12,1.68.36,2.31c.24.63.6,1.11,1.07,1.43.47.33,1.05.49,1.73.49s1.26-.16,1.74-.49c.48-.32.83-.8,1.08-1.43.24-.63.36-1.4.36-2.31s-.12-1.68-.36-2.31Z"/><path class="cls-4" d="M376.49,353h-3.27l-5.51-8.01h-.1v8.01h-3.9v-14.85h3.33l5.42,7.99h.12v-7.99h3.9v14.85Z"/><path class="cls-4" d="M386.22,341.87c-.16-.24-.38-.42-.68-.54-.3-.12-.67-.18-1.12-.18-.41,0-.75.05-1.03.15-.28.1-.49.24-.62.43-.14.18-.21.39-.21.62-.01.38.14.68.47.9s.85.42,1.57.59l1.24.25c1.58.34,2.74.89,3.48,1.65.74.76,1.12,1.72,1.13,2.89,0,.96-.24,1.78-.72,2.46-.48.67-1.17,1.19-2.06,1.55-.89.36-1.96.54-3.21.54s-2.41-.19-3.36-.58-1.68-.98-2.19-1.77c-.51-.79-.78-1.78-.8-2.97h3.73c.03.45.15.84.36,1.15.21.32.51.56.88.72.38.16.82.24,1.33.24.44,0,.81-.06,1.12-.17s.54-.27.7-.47c.16-.2.24-.43.24-.69,0-.25-.08-.46-.23-.64s-.39-.34-.73-.48c-.33-.14-.78-.27-1.32-.38l-1.5-.34c-1.36-.29-2.4-.77-3.12-1.45-.72-.68-1.08-1.58-1.08-2.71,0-.92.25-1.74.76-2.45.51-.71,1.21-1.26,2.11-1.65.9-.39,1.93-.59,3.08-.59s2.2.2,3.07.59c.87.39,1.55.95,2.02,1.68.48.73.72,1.57.72,2.52h-3.74c-.03-.33-.12-.62-.28-.86Z"/><path class="cls-4" d="M405.38,349.69c-.62,1.15-1.48,2.03-2.57,2.62-1.09.6-2.32.89-3.68.89s-2.58-.3-3.67-.89c-1.09-.59-1.94-1.47-2.57-2.62-.62-1.15-.94-2.53-.94-4.11s.31-2.98.94-4.13c.63-1.15,1.48-2.02,2.57-2.61,1.09-.59,2.31-.89,3.67-.89s2.59.3,3.68.89c1.09.59,1.95,1.46,2.57,2.61.63,1.15.94,2.53.94,4.13s-.31,2.96-.94,4.12ZM401.95,343.26c-.24-.63-.6-1.11-1.08-1.43-.48-.33-1.05-.49-1.74-.49s-1.26.16-1.73.49c-.47.32-.83.8-1.07,1.43-.24.63-.36,1.4-.36,2.31s.12,1.68.36,2.31c.24.63.6,1.11,1.07,1.43.47.33,1.05.49,1.73.49s1.26-.16,1.74-.49c.48-.32.83-.8,1.08-1.43.24-.63.36-1.4.36-2.31s-.12-1.68-.36-2.31Z"/><path class="cls-4" d="M408.24,338.15h3.9v11.7h6.06v3.15h-9.96v-14.85Z"/><path class="cls-4" d="M419.88,338.15h10.6v3.15h-6.71v2.7h6.16v3.15h-6.16v2.71h6.68v3.15h-10.57v-14.85Z"/></g><g id="sectionA"><rect class="cls-1" x="167.36" y="110.69" width="78.2" height="116.7" rx="7" ry="7"/><path class="cls-4" d="M197.8,176.01l5.64-16.97h6.06l5.64,16.97h-4.82l-3.77-12.41h-.14l-3.79,12.41h-4.82ZM211.09,169.31v3.36h-9.32v-3.36h9.32Z"/></g><g id="sectionB"><path class="cls-1" d="M259.03,110.69h96.12c2.76,0,5,2.24,5,5v45.15c0,1.27-.48,2.49-1.35,3.42l-14.45,15.4c-.95,1.01-2.26,1.58-3.65,1.58h-81.66c-2.76,0-5-2.24-5-5v-60.55c0-2.76,2.24-5,5-5Z"/><path class="cls-4" d="M300.47,131.29h7.28c1.26,0,2.33.17,3.22.52s1.55.84,2,1.47.67,1.39.67,2.26c0,.62-.14,1.18-.41,1.69s-.65.94-1.14,1.29-1.06.59-1.71.72v.16c.73.03,1.39.22,1.99.56s1.07.82,1.41,1.42.52,1.29.52,2.07c0,.92-.24,1.74-.72,2.47s-1.17,1.29-2.06,1.71-1.95.62-3.16.62h-7.89v-16.97ZM308.03,137.98c.32-.14.58-.34.76-.59s.27-.56.27-.91-.09-.66-.26-.91-.42-.44-.73-.57-.67-.19-1.07-.19h-2.07v3.39h2c.41,0,.78-.07,1.11-.21ZM308.51,144.47c.36-.14.62-.34.8-.61s.26-.59.26-.97-.09-.74-.28-1.04-.45-.51-.8-.66-.76-.22-1.25-.22h-2.33v3.71h2.26c.53,0,.97-.07,1.33-.21Z"/></g><g id="sectionC"><path class="cls-1" d="M422.15,111.4h95.98c2.76,0,5,2.24,5,5v59.67c0,2.76-2.24,5-5,5h-84.18c-1.4,0-2.75-.59-3.69-1.63l-11.8-12.92c-.84-.92-1.31-2.12-1.31-3.37v-46.74c0-2.76,2.24-5,5-5Z"/><path class="cls-4" d="M473.11,136.19c-.25-.4-.59-.71-1.04-.92s-.96-.32-1.55-.32c-.78,0-1.45.19-1.99.57s-.97.94-1.26,1.66-.44,1.59-.44,2.6.15,1.94.44,2.65.71,1.25,1.26,1.62,1.2.56,1.95.56c.58,0,1.08-.1,1.51-.3s.77-.48,1.03-.84.44-.79.52-1.29l4.54.05c-.09,1.02-.44,2.02-1.05,2.98s-1.49,1.75-2.62,2.37-2.46.93-4,.93-2.96-.34-4.2-1.02-2.2-1.68-2.9-2.99-1.05-2.88-1.05-4.71.36-3.41,1.07-4.72,1.69-2.31,2.91-2.98,2.61-1.01,4.16-1.01c1.41,0,2.68.26,3.79.77s2,1.26,2.68,2.24,1.08,2.16,1.21,3.52h-4.54c-.04-.53-.18-1-.43-1.39Z"/></g><g id="sectionD"><rect class="cls-1" x="531.62" y="109.9" width="77.66" height="116.86" rx="5" ry="5"/><path class="cls-4" d="M568.72,175.62h-4.45v-16.97h4.45v16.97ZM566.09,175.62v-3.8h4.45c.91,0,1.67-.15,2.27-.45s1.05-.79,1.37-1.48.47-1.61.47-2.77-.16-2.1-.47-2.79-.78-1.18-1.39-1.46-1.4-.43-2.34-.43h-4.42v-3.8h4.63c1.74,0,3.25.34,4.53,1.02s2.26,1.66,2.94,2.93,1.03,2.79,1.03,4.54-.34,3.26-1.03,4.54-1.66,2.25-2.93,2.93-2.76,1.02-4.48,1.02h-4.62Z"/></g><g id="sectionE"><path class="cls-1" d="M245,235.2c.77,0,1.18.98,1.18,1.56v73.46c0,.47-.33,1.11-.81,1.11l-6.25.05c-2.69.02-5.25-1.15-7-3.19-12-14.03-24.11-28.27-36.14-42.15-3.78-4.36-13.02-15.44-16.03-19.06-.62-.75-.96-1.69-.95-2.67,0,0,.1-7.1.1-7.59,0-.72.94-1.53,1.44-1.53"/><path class="cls-4" d="M213.17,253.65h12.12v3.6h-7.66v3.08h7.04v3.6h-7.04v3.09h7.63v3.6h-12.08v-16.97Z"/></g><g id="sectionF"><rect class="cls-1" x="254.03" y="238.77" width="81.78" height="74.92" rx="5" ry="5"/><path class="cls-4" d="M292.39,265.65h11.82v3.6h-7.37v3.08h6.64v3.6h-6.64v6.69h-4.45v-16.97Z"/></g><g id="sectionG"><rect class="cls-1" x="344.53" y="242.19" width="89.24" height="68.09" rx="5" ry="5"/><path class="cls-4" d="M389.8,271.17c-.25-.29-.57-.51-.95-.66s-.82-.22-1.33-.22c-.78,0-1.45.19-2.01.56s-.99.92-1.29,1.65-.45,1.59-.45,2.6.14,1.9.43,2.62.71,1.28,1.26,1.66,1.23.57,2.03.57c.7,0,1.3-.11,1.79-.32s.86-.52,1.1-.92.36-.87.36-1.41l.8.09h-3.96v-3.22h7.46v2.33c0,1.51-.32,2.81-.97,3.92s-1.54,1.95-2.68,2.54-2.46.88-3.93.88c-1.63,0-3.07-.35-4.32-1.05s-2.22-1.71-2.91-3.02-1.04-2.85-1.04-4.62.36-3.38,1.09-4.7,1.71-2.32,2.96-3.01,2.64-1.03,4.18-1.03c1.32,0,2.52.25,3.61.74s1.96,1.19,2.64,2.07,1.07,1.89,1.2,3.01h-4.52c-.1-.41-.28-.77-.53-1.05Z"/></g><g id="sectionH"><rect class="cls-1" x="442.31" y="238.77" width="82.16" height="74.92" rx="5" ry="5"/><path class="cls-4" d="M476.89,266.63h4.45v6.68h6.28v-6.68h4.45v16.97h-4.45v-6.69h-6.28v6.69h-4.45v-16.97Z"/></g><g id="sectionI"><path class="cls-1" d="M536.62,235.7h55.88c2.76,0,5,2.24,5,5v5c0,1.22-.44,2.39-1.24,3.3l-53.39,60.72c-.95,1.08-2.32,1.7-3.76,1.7h-2.49c-2.76,0-5-2.24-5-5v-65.72c0-2.76,2.24-5,5-5Z"/><path class="cls-4" d="M560.35,271.6h-4.45v-16.97h4.45v16.97Z"/></g><g id="section44"><path class="cls-2" d="M61.4,131.78l3.06,49.35c.17,2.8,2.62,4.91,5.41,4.67l7.73-.65c2.75-.23,4.79-2.64,4.56-5.39l-4.02-49.18c-.22-2.73-2.61-4.78-5.34-4.58l-6.77.49c-2.73.2-4.8,2.56-4.63,5.3Z"/><path class="cls-4" d="M70.7,155.83l6.87-10.79h3.14v4.66h-1.79l-3.8,5.98v.14h10.09v3.49h-14.51v-3.48ZM78.95,158.25l.08-1.51v-11.7h4.18v16.97h-4.27v-3.76Z"/><path class="cls-4" d="M87,155.83l6.87-10.79h3.14v4.66h-1.79l-3.8,5.98v.14h10.09v3.49h-14.51v-3.48ZM95.25,158.25l.08-1.51v-11.7h4.18v16.97h-4.27v-3.76Z"/></g><g id="section43"><path class="cls-2" d="M97.38,249.56c.13.42-.14,1.13-.4,1.22-4.13,1.35-39.25,12.88-56.24,18.61-2.58.87-5.38-.48-6.3-3.04-2.37-6.6-6.41-18.87-8.88-26.58-.78-2.45-3.29-3.9-5.8-3.37-2.8.6-6.41,1.49-9.36,2.24-2.91.74-5.8-1.23-6.19-4.2L.04,202.45c-.37-2.87,1.76-5.46,4.66-5.64l76.56-4.51c1.72,0,3.68,1.33,4.15,3.37"/><path class="cls-4" d="M45.63,227.83l6.87-10.79h3.14v4.66h-1.79l-3.8,5.98v.14h10.09v3.49h-14.51v-3.48ZM53.88,230.24l.08-1.51v-11.7h4.18v16.97h-4.27v-3.76Z"/><path class="cls-4" d="M65.17,233.55c-1.04-.46-1.85-1.1-2.43-1.92s-.87-1.74-.88-2.77h4.5c0,.33.11.62.32.89s.48.47.84.63.76.23,1.2.23.84-.08,1.19-.23.62-.38.8-.66.28-.6.27-.96c0-.36-.1-.68-.31-.96s-.52-.49-.93-.65-.86-.23-1.37-.23h-1.72v-3.11h1.72c.46,0,.88-.08,1.25-.23s.66-.38.86-.66.29-.59.28-.94c.02-.34-.06-.64-.23-.91s-.41-.48-.73-.62-.67-.22-1.07-.22c-.42,0-.8.08-1.14.23s-.61.37-.8.64-.3.59-.32.94h-4.28c.02-1.02.31-1.93.87-2.72s1.33-1.41,2.31-1.86,2.1-.67,3.35-.67,2.33.21,3.29.63,1.71,1.01,2.25,1.75.8,1.59.79,2.54c.02.61-.12,1.16-.42,1.66s-.7.89-1.23,1.2-1.12.49-1.79.57v.14c.89.09,1.64.31,2.26.66s1.07.79,1.38,1.33.45,1.16.43,1.86c.02.98-.28,1.86-.87,2.63s-1.43,1.37-2.48,1.81-2.27.66-3.63.66-2.5-.23-3.54-.69Z"/></g><g id="section42"><path class="cls-2" d="M69.36,273.45l21.17,42.62c1.14,2.3.36,5.09-1.82,6.46l-18.9,11.86c-2.56,1.61-5.95.59-7.21-2.16l-21.68-47.46c-1.21-2.66.1-5.79,2.85-6.78l19.41-7.02c2.39-.86,5.05.2,6.18,2.48Z"/><path class="cls-4" d="M63.17,297.95l6.87-10.79h3.14v4.66h-1.79l-3.8,5.98v.14h10.09v3.49h-14.51v-3.48ZM71.42,300.36l.08-1.51v-11.7h4.18v16.97h-4.27v-3.76Z"/><path class="cls-4" d="M79.65,300.91l6.3-5.3c.5-.41.89-.77,1.18-1.08s.51-.62.67-.96.24-.69.24-1.08c0-.43-.1-.81-.29-1.14s-.46-.58-.8-.74-.72-.25-1.16-.25-.81.09-1.15.26-.6.44-.77.78-.26.75-.26,1.23h-4.25c0-1.16.27-2.17.8-3.04s1.29-1.54,2.26-1.99,2.1-.69,3.4-.69,2.47.21,3.46.64,1.75,1.04,2.3,1.82.81,1.7.81,2.74c0,.68-.13,1.34-.4,1.97s-.75,1.34-1.45,2.12-1.68,1.7-2.94,2.76l-1.72,1.48v.11h6.71v3.57h-12.93v-3.21Z"/></g><g id="section41"><path class="cls-2" d="M153.48,357.99l-57.86,54.71c-2.19,2.07-5.69,1.75-7.47-.68l-34.52-47.07c-1.67-2.27-1.13-5.47,1.19-7.07,11.68-8.04,44.89-30.56,65.74-41.38,2.18-1.13,4.86-.5,6.31,1.48,7.39,10.08,20.89,26.04,26.96,33.14,1.73,2.02,1.57,5.05-.37,6.88Z"/><path class="cls-4" d="M93.71,363.56l6.87-10.79h3.14v4.66h-1.79l-3.8,5.98v.14h10.09v3.49h-14.51v-3.48ZM101.96,365.97l.08-1.51v-11.7h4.18v16.97h-4.27v-3.76Z"/><path class="cls-4" d="M118.14,369.74h-4.48v-12.84h-.09l-3.73,2.26v-3.82l4.17-2.57h4.12v16.97Z"/></g><g id="section40"><path class="cls-2" d="M167.09,364.2l27.51,23.42c1.9,1.62,2.32,4.39.97,6.5l-42.2,66.12c-1.58,2.47-4.94,3.06-7.27,1.27l-43.16-33.25c-2.41-1.86-2.62-5.42-.44-7.54l57.85-56.29c1.85-1.8,4.76-1.9,6.73-.22Z"/><path class="cls-4" d="M136,412.92l6.87-10.79h3.14v4.66h-1.79l-3.8,5.98v.14h10.09v3.49h-14.51v-3.48ZM144.25,415.34l.08-1.51v-11.7h4.18v16.97h-4.27v-3.76Z"/><path class="cls-4" d="M155.82,418.31c-1.11-.68-1.96-1.68-2.55-2.99s-.89-2.88-.89-4.71.3-3.42.89-4.72,1.45-2.3,2.56-2.98,2.42-1.02,3.93-1.02,2.85.34,3.97,1.02,1.97,1.68,2.56,2.99.89,2.88.89,4.71-.3,3.42-.89,4.72-1.45,2.3-2.56,2.98-2.44,1.02-3.97,1.02-2.83-.34-3.94-1.02ZM161.24,415.19c.43-.36.75-.93.98-1.69s.34-1.73.32-2.88c0-1.14-.12-2.09-.35-2.86s-.55-1.33-.97-1.71-.91-.56-1.47-.56-1.03.19-1.44.56-.74.94-.97,1.71-.35,1.72-.35,2.86.12,2.12.35,2.88.55,1.33.97,1.69.89.54,1.44.54,1.06-.18,1.48-.54Z"/></g><g id="section39"><path class="cls-2" d="M251.37,428.58c-8.83,24.71-21.44,54.42-26.3,65.69-1.1,2.56-4.08,3.72-6.63,2.58l-52.3-23.32c-2.77-1.24-3.81-4.63-2.21-7.21l40.69-65.34c1.43-2.29,4.4-3.04,6.74-1.69,9.14,5.28,30.69,17.86,38.34,23.63,1.74,1.31,2.4,3.61,1.66,5.66Z"/><path class="cls-4" d="M201.37,456.47c-1.04-.46-1.85-1.1-2.43-1.92s-.87-1.74-.88-2.77h4.5c0,.33.11.62.32.89s.48.47.84.63.76.23,1.2.23.84-.08,1.19-.23.62-.38.8-.66.28-.6.27-.96c0-.36-.1-.68-.31-.96s-.52-.49-.93-.65-.86-.23-1.37-.23h-1.72v-3.11h1.72c.46,0,.88-.08,1.25-.23s.66-.38.86-.66.29-.59.28-.94c.02-.34-.06-.64-.23-.91s-.41-.48-.73-.62-.67-.22-1.07-.22c-.42,0-.8.08-1.14.23s-.61.37-.8.64-.3.59-.32.94h-4.28c.02-1.02.31-1.93.87-2.72s1.33-1.41,2.31-1.86,2.1-.67,3.35-.67,2.33.21,3.29.63,1.71,1.01,2.25,1.75.8,1.59.79,2.54c.02.61-.12,1.16-.42,1.66s-.7.89-1.23,1.2-1.12.49-1.79.57v.14c.89.09,1.64.31,2.26.66s1.07.79,1.38,1.33.45,1.16.43,1.86c.02.98-.28,1.86-.87,2.63s-1.43,1.37-2.48,1.81-2.27.66-3.63.66-2.5-.23-3.54-.69Z"/><path class="cls-4" d="M224.28,440.58c1.09.57,1.97,1.49,2.62,2.75s.98,2.87.98,4.82c.02,1.84-.28,3.43-.88,4.79s-1.46,2.4-2.57,3.12-2.4,1.09-3.88,1.09c-1.2,0-2.28-.24-3.23-.71s-1.71-1.11-2.27-1.92-.9-1.7-1-2.7h4.39c.08.34.21.62.41.85s.44.4.73.51.61.16.97.16c.64,0,1.18-.19,1.62-.57s.76-.93.97-1.64.32-1.55.32-2.53h-.09c-.23.5-.55.94-.98,1.31s-.94.66-1.52.86-1.2.3-1.85.3c-1,0-1.89-.23-2.67-.7s-1.38-1.1-1.82-1.92-.66-1.73-.67-2.75c0-1.18.28-2.22.85-3.13s1.36-1.62,2.38-2.12,2.2-.75,3.52-.75,2.6.29,3.69.86ZM219.36,443.42c-.37.22-.66.51-.87.88s-.32.79-.32,1.26c.02.47.13.89.34,1.26s.5.67.86.88.77.33,1.22.33.89-.11,1.26-.33.67-.52.89-.9.33-.8.31-1.24c0-.47-.11-.89-.33-1.27s-.51-.67-.88-.88-.79-.32-1.25-.32-.87.11-1.24.33Z"/></g><g id="section38"><path class="cls-2" d="M254.57,451.24l43.01,6.78c2.73.44,4.59,3.01,4.14,5.75l-6.59,40.22c-.44,2.66-2.91,4.5-5.59,4.15l-52.65-6.92c-3.14-.41-5.11-3.6-4.07-6.59l15.58-39.83c.79-2.29,3.77-3.94,6.16-3.56Z"/><path class="cls-4" d="M257.72,487.23c-1.04-.46-1.85-1.1-2.43-1.92s-.87-1.74-.88-2.77h4.5c0,.33.11.62.32.89s.48.47.84.63.76.23,1.2.23.84-.08,1.19-.23.62-.38.8-.66.28-.6.27-.96c0-.36-.1-.68-.31-.96s-.52-.49-.93-.65-.86-.23-1.37-.23h-1.72v-3.11h1.72c.46,0,.88-.08,1.25-.23s.66-.38.86-.66.29-.59.28-.94c.02-.34-.06-.64-.23-.91s-.41-.48-.73-.62-.67-.22-1.07-.22c-.42,0-.8.08-1.14.23s-.61.37-.8.64-.3.59-.32.94h-4.28c.02-1.02.31-1.93.87-2.72s1.33-1.41,2.31-1.86,2.1-.67,3.35-.67,2.33.21,3.29.63,1.71,1.01,2.25,1.75.8,1.59.79,2.54c.02.61-.12,1.16-.42,1.66s-.7.89-1.23,1.2-1.12.49-1.79.57v.14c.89.09,1.64.31,2.26.66s1.07.79,1.38,1.33.45,1.16.43,1.86c.02.98-.28,1.86-.87,2.63s-1.43,1.37-2.48,1.81-2.27.66-3.63.66-2.5-.23-3.54-.69Z"/><path class="cls-4" d="M273.61,487.28c-1.07-.42-1.92-1-2.53-1.74s-.92-1.56-.92-2.47c0-.7.18-1.34.53-1.92s.82-1.07,1.41-1.46,1.25-.63,1.97-.73v-.14c-.62-.11-1.18-.34-1.68-.7s-.9-.8-1.18-1.33-.43-1.1-.43-1.71c0-.87.28-1.65.83-2.36s1.32-1.25,2.31-1.65,2.09-.6,3.3-.6,2.33.2,3.31.6,1.75.95,2.3,1.65.83,1.49.83,2.36c0,.61-.14,1.18-.43,1.71s-.68.97-1.17,1.33-1.06.59-1.71.7v.14c.73.1,1.4.35,2,.73s1.07.87,1.42,1.46.52,1.23.52,1.92c0,.91-.31,1.73-.92,2.47s-1.46,1.32-2.53,1.74-2.28.63-3.62.63-2.54-.21-3.62-.63ZM278.43,484.39c.36-.18.63-.44.84-.76s.3-.68.3-1.07-.1-.76-.3-1.08-.48-.57-.84-.75-.76-.26-1.2-.26-.84.09-1.2.26-.64.43-.84.75-.3.69-.3,1.08.1.75.3,1.07.48.57.84.76.76.28,1.2.28.85-.09,1.2-.28ZM278.28,477.25c.32-.17.56-.4.74-.69s.27-.62.27-.97-.09-.68-.27-.97-.43-.51-.74-.67-.67-.24-1.06-.24-.74.08-1.06.24-.56.38-.74.67-.26.61-.26.97.09.67.26.97.42.52.74.69.67.25,1.06.25.74-.08,1.06-.25Z"/></g><g id="section37"><path class="cls-2" d="M382.53,440.65v22.27c0,2.76-2.24,5-5,5h-37.16c-2.48,0-4.58,1.81-4.95,4.26l-4.7,31.6c-.35,2.34-2.29,4.11-4.65,4.26l-16.99,1.01c-3.32.2-5.91-2.84-5.17-6.09l15.07-66.8c.54-2.4,2.74-4.04,5.19-3.89l53.68,3.39c2.63.17,4.68,2.35,4.68,4.99Z"/><path class="cls-4" d="M341.09,458.53c-1.04-.46-1.85-1.1-2.43-1.92s-.87-1.74-.88-2.77h4.5c0,.33.11.62.32.89s.48.47.84.63.76.23,1.2.23.84-.08,1.19-.23.62-.38.8-.66.28-.6.27-.96c0-.36-.1-.68-.31-.96s-.52-.49-.93-.65-.86-.23-1.37-.23h-1.72v-3.11h1.72c.46,0,.88-.08,1.25-.23s.66-.38.86-.66.29-.59.28-.94c.02-.34-.06-.64-.23-.91s-.41-.48-.73-.62-.67-.22-1.07-.22c-.42,0-.8.08-1.14.23s-.61.37-.8.64-.3.59-.32.94h-4.28c.02-1.02.31-1.93.87-2.72s1.33-1.41,2.31-1.86,2.1-.67,3.35-.67,2.33.21,3.29.63,1.71,1.01,2.25,1.75.8,1.59.79,2.54c.02.61-.12,1.16-.42,1.66s-.7.89-1.23,1.2-1.12.49-1.79.57v.14c.89.09,1.64.31,2.26.66s1.07.79,1.38,1.33.45,1.16.43,1.86c.02.98-.28,1.86-.87,2.63s-1.43,1.37-2.48,1.81-2.27.66-3.63.66-2.5-.23-3.54-.69Z"/><path class="cls-4" d="M361.21,445.68v-.09h-7.9v-3.57h12.53v3.59l-6.76,13.38h-4.59l6.73-13.3Z"/></g><g id="section36"><path class="cls-2" d="M393.97,440.56l-.46,22.26c-.06,2.8,2.2,5.1,5,5.1h38.23c2.54,0,4.68,1.9,4.97,4.43l3.62,31.27c.28,2.42,2.26,4.28,4.69,4.42l18.82,1.05c3.32.18,5.9-2.87,5.15-6.11l-15.36-66.83c-.55-2.38-2.74-4.02-5.18-3.87l-54.78,3.41c-2.6.16-4.64,2.29-4.69,4.89Z"/><path class="cls-4" d="M414.11,458.32c-1.04-.46-1.85-1.1-2.43-1.92s-.87-1.74-.88-2.77h4.5c0,.33.11.62.32.89s.48.47.84.63.76.23,1.2.23.84-.08,1.19-.23.62-.38.8-.66.28-.6.27-.96c0-.36-.1-.68-.31-.96s-.52-.49-.93-.65-.86-.23-1.37-.23h-1.72v-3.11h1.72c.46,0,.88-.08,1.25-.23s.66-.38.86-.66.29-.59.28-.94c.02-.34-.06-.64-.23-.91s-.41-.48-.73-.62-.67-.22-1.07-.22c-.42,0-.8.08-1.14.23s-.61.37-.8.64-.3.59-.32.94h-4.28c.02-1.02.31-1.93.87-2.72s1.33-1.41,2.31-1.86,2.1-.67,3.35-.67,2.33.21,3.29.63,1.71,1.01,2.25,1.75.8,1.59.79,2.54c.02.61-.12,1.16-.42,1.66s-.7.89-1.23,1.2-1.12.49-1.79.57v.14c.89.09,1.64.31,2.26.66s1.07.79,1.38,1.33.45,1.16.43,1.86c.02.98-.28,1.86-.87,2.63s-1.43,1.37-2.48,1.81-2.27.66-3.63.66-2.5-.23-3.54-.69Z"/><path class="cls-4" d="M430.08,458.13c-1.09-.58-1.97-1.51-2.62-2.78s-.98-2.89-.98-4.86c0-1.82.3-3.4.91-4.75s1.46-2.38,2.57-3.1,2.39-1.08,3.86-1.08c1.2,0,2.28.23,3.23.7s1.71,1.1,2.27,1.89.9,1.68,1,2.66h-4.42c-.06-.32-.19-.59-.39-.81s-.44-.38-.73-.49-.61-.15-.97-.15c-.65,0-1.19.19-1.61.57s-.74.92-.96,1.62-.32,1.52-.34,2.48h.09c.23-.51.56-.95,1-1.32s.95-.66,1.52-.86,1.18-.29,1.82-.29c1.02,0,1.92.23,2.7.69s1.39,1.1,1.83,1.92.65,1.75.65,2.79c0,1.2-.28,2.25-.85,3.16s-1.36,1.62-2.38,2.13-2.2.76-3.52.76-2.6-.29-3.69-.87ZM435,455.27c.37-.22.66-.52.87-.9s.32-.8.32-1.27-.11-.92-.32-1.29-.5-.67-.87-.88-.79-.32-1.26-.32-.86.11-1.23.32-.66.51-.87.89-.32.81-.34,1.29c.02.47.13.89.34,1.27s.5.68.87.9.78.33,1.23.33.89-.11,1.26-.33Z"/></g><g id="section35"><path class="cls-2" d="M528.26,454.41l16.58,39.63c1.28,3.07-.73,6.51-4.04,6.9l-51.95,6.03c-2.6.3-5-1.46-5.49-4.03l-7.43-38.86c-.53-2.75,1.3-5.39,4.05-5.87,13.61-2.35,34.39-5.53,42.91-6.82,2.27-.34,4.47.9,5.35,3.01Z"/><path class="cls-4" d="M496.06,488.82c-1.04-.46-1.85-1.1-2.43-1.92s-.87-1.74-.88-2.77h4.5c0,.33.11.62.32.89s.48.47.84.63.76.23,1.2.23.84-.08,1.19-.23.62-.38.8-.66.28-.6.27-.96c0-.36-.1-.68-.31-.96s-.52-.49-.93-.65-.86-.23-1.37-.23h-1.72v-3.11h1.72c.46,0,.88-.08,1.25-.23s.66-.38.86-.66.29-.59.28-.94c.02-.34-.06-.64-.23-.91s-.41-.48-.73-.62-.67-.22-1.07-.22c-.42,0-.8.08-1.14.23s-.61.37-.8.64-.3.59-.32.94h-4.28c.02-1.02.31-1.93.87-2.72s1.33-1.41,2.31-1.86,2.1-.67,3.35-.67,2.33.21,3.29.63,1.71,1.01,2.25,1.75.8,1.59.79,2.54c.02.61-.12,1.16-.42,1.66s-.7.89-1.23,1.2-1.12.49-1.79.57v.14c.89.09,1.64.31,2.26.66s1.07.79,1.38,1.33.45,1.16.43,1.86c.02.98-.28,1.86-.87,2.63s-1.43,1.37-2.48,1.81-2.27.66-3.63.66-2.5-.23-3.54-.69Z"/><path class="cls-4" d="M512,488.82c-1.01-.46-1.8-1.1-2.37-1.92s-.86-1.74-.87-2.77h4.34c.02.4.14.75.35,1.04s.48.53.83.69.73.24,1.14.24c.48,0,.91-.11,1.28-.32s.66-.51.87-.88.32-.81.32-1.31-.11-.96-.32-1.34-.5-.67-.87-.88-.8-.32-1.29-.32c-.57,0-1.04.11-1.42.34s-.67.56-.88,1.01h-3.98l.75-10.1h11.27v3.57h-7.61l-.35,3.82h.09c.29-.52.76-.94,1.41-1.27s1.39-.49,2.22-.49c1,0,1.9.23,2.71.7s1.44,1.12,1.89,1.96.68,1.79.67,2.85c0,1.16-.27,2.21-.84,3.12s-1.36,1.63-2.38,2.15-2.21.77-3.55.77c-1.27,0-2.4-.23-3.42-.69Z"/></g><g id="section34"><path class="cls-2" d="M528.5,430.75l24.95,61.13c1.41,3.46,5.38,5.1,8.82,3.64l47.93-20.26c3.84-1.62,5.28-6.31,3.02-9.81l-40.74-63.16c-1.89-2.93-5.72-3.93-8.8-2.28l-29.87,16c-5.28,2.83-7.58,9.19-5.31,14.74Z"/><path class="cls-4" d="M555.51,455.26c-1.04-.46-1.85-1.1-2.43-1.92s-.87-1.74-.88-2.77h4.5c0,.33.11.62.32.89s.48.47.84.63.76.23,1.2.23.84-.08,1.19-.23.62-.38.8-.66.28-.6.27-.96c0-.36-.1-.68-.31-.96s-.52-.49-.93-.65-.86-.23-1.37-.23h-1.72v-3.11h1.72c.46,0,.88-.08,1.25-.23s.66-.38.86-.66.29-.59.28-.94c.02-.34-.06-.64-.23-.91s-.41-.48-.73-.62-.67-.22-1.07-.22c-.42,0-.8.08-1.14.23s-.61.37-.8.64-.3.59-.32.94h-4.28c.02-1.02.31-1.93.87-2.72s1.33-1.41,2.31-1.86,2.1-.67,3.35-.67,2.33.21,3.29.63,1.71,1.01,2.25,1.75.8,1.59.79,2.54c.02.61-.12,1.16-.42,1.66s-.7.89-1.23,1.2-1.12.49-1.79.57v.14c.89.09,1.64.31,2.26.66s1.07.79,1.38,1.33.45,1.16.43,1.86c.02.98-.28,1.86-.87,2.63s-1.43,1.37-2.48,1.81-2.27.66-3.63.66-2.5-.23-3.54-.69Z"/><path class="cls-4" d="M567.96,449.54l6.87-10.79h3.14v4.66h-1.79l-3.8,5.98v.14h10.09v3.49h-14.51v-3.48ZM576.21,451.95l.08-1.51v-11.7h4.18v16.97h-4.27v-3.76Z"/></g><g id="section33"><path class="cls-2" d="M619.49,367.42l53.5,55.89c2.03,2.12,1.8,5.53-.49,7.37l-42.18,33.64c-2.35,1.88-5.82,1.26-7.38-1.3l-41.81-68.45c-1.38-2.26-.76-5.21,1.42-6.72l30.5-21.07c2.02-1.4,4.76-1.12,6.45.66Z"/><path class="cls-4" d="M613.43,419.07c-1.04-.46-1.85-1.1-2.43-1.92s-.87-1.74-.88-2.77h4.5c0,.33.11.62.32.89s.48.47.84.63.76.23,1.2.23.84-.08,1.19-.23.62-.38.8-.66.28-.6.27-.96c0-.36-.1-.68-.31-.96s-.52-.49-.93-.65-.86-.23-1.37-.23h-1.72v-3.11h1.72c.46,0,.88-.08,1.25-.23s.66-.38.86-.66.29-.59.28-.94c.02-.34-.06-.64-.23-.91s-.41-.48-.73-.62-.67-.22-1.07-.22c-.42,0-.8.08-1.14.23s-.61.37-.8.64-.3.59-.32.94h-4.28c.02-1.02.31-1.93.87-2.72s1.33-1.41,2.31-1.86,2.1-.67,3.35-.67,2.33.21,3.29.63,1.71,1.01,2.25,1.75.8,1.59.79,2.54c.02.61-.12,1.16-.42,1.66s-.7.89-1.23,1.2-1.12.49-1.79.57v.14c.89.09,1.64.31,2.26.66s1.07.79,1.38,1.33.45,1.16.43,1.86c.02.98-.28,1.86-.87,2.63s-1.43,1.37-2.48,1.81-2.27.66-3.63.66-2.5-.23-3.54-.69Z"/><path class="cls-4" d="M629.12,419.07c-1.04-.46-1.85-1.1-2.43-1.92s-.87-1.74-.88-2.77h4.5c0,.33.11.62.32.89s.48.47.84.63.76.23,1.2.23.84-.08,1.19-.23.62-.38.8-.66.28-.6.27-.96c0-.36-.1-.68-.31-.96s-.52-.49-.93-.65-.86-.23-1.37-.23h-1.72v-3.11h1.72c.46,0,.88-.08,1.25-.23s.66-.38.86-.66.29-.59.28-.94c.02-.34-.06-.64-.23-.91s-.41-.48-.73-.62-.67-.22-1.07-.22c-.42,0-.8.08-1.14.23s-.61.37-.8.64-.3.59-.32.94h-4.28c.02-1.02.31-1.93.87-2.72s1.33-1.41,2.31-1.86,2.1-.67,3.35-.67,2.33.21,3.29.63,1.71,1.01,2.25,1.75.8,1.59.79,2.54c.02.61-.12,1.16-.42,1.66s-.7.89-1.23,1.2-1.12.49-1.79.57v.14c.89.09,1.64.31,2.26.66s1.07.79,1.38,1.33.45,1.16.43,1.86c.02.98-.28,1.86-.87,2.63s-1.43,1.37-2.48,1.81-2.27.66-3.63.66-2.5-.23-3.54-.69Z"/></g><g id="section32"><path class="cls-2" d="M626.39,350.01l29.77-26.33c1.67-1.48,4.12-1.67,6.01-.47l59.56,38.09c2.51,1.61,3.07,5.04,1.2,7.35l-34.65,42.92c-1.87,2.31-5.32,2.5-7.43.39l-54.68-54.68c-2.04-2.04-1.94-5.37.22-7.28Z"/><path class="cls-4" d="M661.67,370.22c-1.04-.46-1.85-1.1-2.43-1.92s-.87-1.74-.88-2.77h4.5c0,.33.11.62.32.89s.48.47.84.63.76.23,1.2.23.84-.08,1.19-.23.62-.38.8-.66.28-.6.27-.96c0-.36-.1-.68-.31-.96s-.52-.49-.93-.65-.86-.23-1.37-.23h-1.72v-3.11h1.72c.46,0,.88-.08,1.25-.23s.66-.38.86-.66.29-.59.28-.94c.02-.34-.06-.64-.23-.91s-.41-.48-.73-.62-.67-.22-1.07-.22c-.42,0-.8.08-1.14.23s-.61.37-.8.64-.3.59-.32.94h-4.28c.02-1.02.31-1.93.87-2.72s1.33-1.41,2.31-1.86,2.1-.67,3.35-.67,2.33.21,3.29.63,1.71,1.01,2.25,1.75.8,1.59.79,2.54c.02.61-.12,1.16-.42,1.66s-.7.89-1.23,1.2-1.12.49-1.79.57v.14c.89.09,1.64.31,2.26.66s1.07.79,1.38,1.33.45,1.16.43,1.86c.02.98-.28,1.86-.87,2.63s-1.43,1.37-2.48,1.81-2.27.66-3.63.66-2.5-.23-3.54-.69Z"/><path class="cls-4" d="M674.31,367.46l6.3-5.3c.5-.41.89-.77,1.18-1.08s.51-.62.67-.96.24-.69.24-1.08c0-.43-.1-.81-.29-1.14s-.46-.58-.8-.74-.72-.25-1.16-.25-.81.09-1.15.26-.6.44-.77.78-.26.75-.26,1.23h-4.25c0-1.16.27-2.17.8-3.04s1.29-1.54,2.26-1.99,2.1-.69,3.4-.69,2.47.21,3.46.64,1.75,1.04,2.3,1.82.81,1.7.81,2.74c0,.68-.13,1.34-.4,1.97s-.75,1.34-1.45,2.12-1.68,1.7-2.94,2.76l-1.72,1.48v.11h6.71v3.57h-12.93v-3.21Z"/></g><g id="section31"><path class="cls-2" d="M688.93,323.48l17.48,11.42c2.58,1.68,6.05.66,7.3-2.15l21.42-47.98c1.23-2.76-.25-5.98-3.15-6.83l-20.18-5.95c-2.41-.71-4.98.48-5.99,2.78l-18.72,42.51c-.99,2.24-.21,4.86,1.84,6.2Z"/><path class="cls-4" d="M690.19,306.98c-1.04-.46-1.85-1.1-2.43-1.92s-.87-1.74-.88-2.77h4.5c0,.33.11.62.32.89s.48.47.84.63.76.23,1.2.23.84-.08,1.19-.23.62-.38.8-.66.28-.6.27-.96c0-.36-.1-.68-.31-.96s-.52-.49-.93-.65-.86-.23-1.37-.23h-1.72v-3.11h1.72c.46,0,.88-.08,1.25-.23s.66-.38.86-.66.29-.59.28-.94c.02-.34-.06-.64-.23-.91s-.41-.48-.73-.62-.67-.22-1.07-.22c-.42,0-.8.08-1.14.23s-.61.37-.8.64-.3.59-.32.94h-4.28c.02-1.02.31-1.93.87-2.72s1.33-1.41,2.31-1.86,2.1-.67,3.35-.67,2.33.21,3.29.63,1.71,1.01,2.25,1.75.8,1.59.79,2.54c.02.61-.12,1.16-.42,1.66s-.7.89-1.23,1.2-1.12.49-1.79.57v.14c.89.09,1.64.31,2.26.66s1.07.79,1.38,1.33.45,1.16.43,1.86c.02.98-.28,1.86-.87,2.63s-1.43,1.37-2.48,1.81-2.27.66-3.63.66-2.5-.23-3.54-.69Z"/><path class="cls-4" d="M711.02,307.43h-4.48v-12.84h-.09l-3.73,2.26v-3.82l4.17-2.57h4.12v16.97Z"/></g><g id="section30"><path class="cls-2" d="M692.6,198.12l-9.48,47.21c-.5,2.5.96,4.97,3.38,5.75l50.55,16.13c2.65.85,5.48-.63,6.3-3.29l8.09-26.29c.79-2.57,3.48-4.06,6.08-3.36l9.66,2.6c2.86.77,5.76-1.1,6.23-4.02l4.76-29.19c.48-2.94-1.71-5.65-4.69-5.8l-75.74-3.74c-2.47-.12-4.66,1.58-5.15,4.01Z"/><path class="cls-4" d="M707.72,234.1c-1.04-.46-1.85-1.1-2.43-1.92s-.87-1.74-.88-2.77h4.5c0,.33.11.62.32.89s.48.47.84.63.76.23,1.2.23.84-.08,1.19-.23.62-.38.8-.66.28-.6.27-.96c0-.36-.1-.68-.31-.96s-.52-.49-.93-.65-.86-.23-1.37-.23h-1.72v-3.11h1.72c.46,0,.88-.08,1.25-.23s.66-.38.86-.66.29-.59.28-.94c.02-.34-.06-.64-.23-.91s-.41-.48-.73-.62-.67-.22-1.07-.22c-.42,0-.8.08-1.14.23s-.61.37-.8.64-.3.59-.32.94h-4.28c.02-1.02.31-1.93.87-2.72s1.33-1.41,2.31-1.86,2.1-.67,3.35-.67,2.33.21,3.29.63,1.71,1.01,2.25,1.75.8,1.59.79,2.54c.02.61-.12,1.16-.42,1.66s-.7.89-1.23,1.2-1.12.49-1.79.57v.14c.89.09,1.64.31,2.26.66s1.07.79,1.38,1.33.45,1.16.43,1.86c.02.98-.28,1.86-.87,2.63s-1.43,1.37-2.48,1.81-2.27.66-3.63.66-2.5-.23-3.54-.69Z"/><path class="cls-4" d="M723.7,233.77c-1.11-.68-1.96-1.68-2.55-2.99s-.89-2.88-.89-4.71.3-3.42.89-4.72,1.45-2.3,2.56-2.98,2.42-1.02,3.93-1.02,2.85.34,3.97,1.02,1.97,1.68,2.56,2.99.89,2.88.89,4.71-.3,3.42-.89,4.72-1.45,2.3-2.56,2.98-2.44,1.02-3.97,1.02-2.83-.34-3.94-1.02ZM729.12,230.65c.43-.36.75-.93.98-1.69s.34-1.73.32-2.88c0-1.14-.12-2.09-.35-2.86s-.55-1.33-.97-1.71-.91-.56-1.47-.56-1.03.19-1.44.56-.74.94-.97,1.71-.35,1.72-.35,2.86.12,2.12.35,2.88.55,1.33.97,1.69.89.54,1.44.54,1.06-.18,1.48-.54Z"/></g><g id="section29"><path class="cls-2" d="M697.73,131.02l-2.23,48.71c-.12,2.72,1.96,5.05,4.68,5.22l7.62.48c2.8.18,5.2-1.98,5.31-4.78l2.02-48.86c.11-2.75-2.02-5.08-4.77-5.2l-7.4-.33c-2.76-.12-5.09,2.01-5.22,4.77Z"/><path class="cls-4" d="M677.58,160.09l6.3-5.3c.5-.41.89-.77,1.18-1.08s.51-.62.67-.96.24-.69.24-1.08c0-.43-.1-.81-.29-1.14s-.46-.58-.8-.74-.72-.25-1.16-.25-.81.09-1.15.26-.6.44-.77.78-.26.75-.26,1.23h-4.25c0-1.16.27-2.17.8-3.04s1.29-1.54,2.26-1.99,2.1-.69,3.4-.69,2.47.21,3.46.64,1.75,1.04,2.3,1.82.81,1.7.81,2.74c0,.68-.13,1.34-.4,1.97s-.75,1.34-1.45,2.12-1.68,1.7-2.94,2.76l-1.72,1.48v.11h6.71v3.57h-12.93v-3.21Z"/><path class="cls-4" d="M702.89,146.96c1.09.57,1.97,1.49,2.62,2.75s.98,2.87.98,4.82c.02,1.84-.28,3.43-.88,4.79s-1.46,2.4-2.57,3.12-2.4,1.09-3.88,1.09c-1.2,0-2.28-.24-3.23-.71s-1.71-1.11-2.27-1.92-.9-1.7-1-2.7h4.39c.08.34.21.62.41.85s.44.4.73.51.61.16.97.16c.64,0,1.18-.19,1.62-.57s.76-.93.97-1.64.32-1.55.32-2.53h-.09c-.23.5-.55.94-.98,1.31s-.94.66-1.52.86-1.2.3-1.85.3c-1,0-1.89-.23-2.67-.7s-1.38-1.1-1.82-1.92-.66-1.73-.67-2.75c0-1.18.28-2.22.85-3.13s1.36-1.62,2.38-2.12,2.2-.75,3.52-.75,2.6.29,3.69.86ZM697.98,149.8c-.37.22-.66.51-.87.88s-.32.79-.32,1.26c.02.47.13.89.34,1.26s.5.67.86.88.77.33,1.22.33.89-.11,1.26-.33.67-.52.89-.9.33-.8.31-1.24c0-.47-.11-.89-.33-1.27s-.51-.67-.88-.88-.79-.32-1.25-.32-.87.11-1.24.33Z"/></g><g id="sectionF3"><path class="cls-2" d="M11.06,247.27l1.94-.47c2.43-.59,4.92.71,5.84,3.04l35.3,90.34c.86,2.2.06,4.7-1.91,6l-2.73,1.8c-2.68,1.76-6.3.58-7.43-2.42L7.56,253.89c-1.06-2.81.58-5.91,3.5-6.62Z"/><path class="cls-4" d="M1.82,296.19h11.82v3.6h-7.37v3.08h6.64v3.6h-6.64v6.69H1.82v-16.97Z"/><path class="cls-4" d="M18.48,312.7c-1.04-.46-1.85-1.1-2.43-1.92s-.87-1.74-.88-2.77h4.5c0,.33.11.62.32.89s.48.47.84.63.76.23,1.2.23.84-.08,1.19-.23.62-.38.8-.66.28-.6.27-.96c0-.36-.1-.68-.31-.96s-.52-.49-.93-.65-.86-.23-1.37-.23h-1.72v-3.11h1.72c.46,0,.88-.08,1.25-.23s.66-.38.86-.66.29-.59.28-.94c.02-.34-.06-.64-.23-.91s-.41-.48-.73-.62-.67-.22-1.07-.22c-.42,0-.8.08-1.14.23s-.61.37-.8.64-.3.59-.32.94h-4.28c.02-1.02.31-1.93.87-2.72s1.33-1.41,2.31-1.86,2.1-.67,3.35-.67,2.33.21,3.29.63,1.71,1.01,2.25,1.75.8,1.59.79,2.54c.02.61-.12,1.16-.42,1.66s-.7.89-1.23,1.2-1.12.49-1.79.57v.14c.89.09,1.64.31,2.26.66s1.07.79,1.38,1.33.45,1.16.43,1.86c.02.98-.28,1.86-.87,2.63s-1.43,1.37-2.48,1.81-2.27.66-3.63.66-2.5-.23-3.54-.69Z"/></g><g id="sectionF2"><path class="cls-2" d="M757.05,249.62c.52-1.41,2.51-2.54,3.89-2.29l6.55,1.71c1.09.28,1.52,2.44,1.12,3.4l-33.92,92.31c-1.11,3.06-4.81,4.26-7.51,2.43l-3.64-2.47c-1.94-1.32-2.71-3.81-1.84-5.99l35.34-89.1Z"/><path class="cls-4" d="M747.22,295.5h11.82v3.6h-7.37v3.08h6.64v3.6h-6.64v6.69h-4.45v-16.97Z"/><path class="cls-4" d="M760.82,309.25l6.3-5.3c.5-.41.89-.77,1.18-1.08s.51-.62.67-.96.24-.69.24-1.08c0-.43-.1-.81-.29-1.14s-.46-.58-.8-.74-.72-.25-1.16-.25-.81.09-1.15.26-.6.44-.77.78-.26.75-.26,1.23h-4.25c0-1.16.27-2.17.8-3.04s1.29-1.54,2.26-1.99,2.1-.69,3.4-.69,2.47.21,3.46.64,1.75,1.04,2.3,1.82.81,1.7.81,2.74c0,.68-.13,1.34-.4,1.97s-.75,1.34-1.45,2.12-1.68,1.7-2.94,2.76l-1.72,1.48v.11h6.71v3.57h-12.93v-3.21Z"/></g></svg>