<?xml version="1.0" encoding="UTF-8"?><svg xmlns="http://www.w3.org/2000/svg" viewBox="0 0 783.05 641.08"><defs><style>.cls-1{fill:#16a516;}.cls-2{fill:#dce4ff;}.cls-3{fill:#d5fcb4;}.cls-4{fill:#b1fcb1;}.cls-5{fill:#e4ffa1;}</style></defs><g id="stage"><rect class="cls-2" x="377.58" y="150.33" width="103.17" height="85.35" rx="5" ry="5"/><rect class="cls-2" x="330.69" width="194.78" height="67.86" rx="5" ry="5"/><rect class="cls-2" x="420.08" y="59.15" width="14.79" height="97.7"/><path class="cls-1" d="M401.12,29.11c-.18-.27-.44-.48-.78-.62s-.77-.21-1.28-.21c-.47,0-.86.06-1.18.18s-.55.28-.71.49-.24.44-.24.71c-.02.43.16.77.54,1.03s.97.48,1.79.68l1.42.28c1.8.39,3.13,1.02,3.98,1.88s1.28,1.96,1.29,3.3c0,1.1-.28,2.04-.83,2.81s-1.34,1.36-2.36,1.77-2.24.62-3.67.62-2.76-.22-3.84-.67-1.92-1.12-2.51-2.02-.89-2.03-.91-3.39h4.27c.03.52.17.96.41,1.32s.58.64,1.01.82.94.28,1.52.28c.5,0,.93-.07,1.28-.2s.62-.31.8-.54.28-.49.28-.79c0-.28-.09-.52-.26-.73s-.45-.38-.83-.54-.89-.31-1.51-.44l-1.71-.39c-1.55-.33-2.74-.88-3.57-1.66s-1.24-1.81-1.24-3.1c0-1.05.29-1.99.87-2.79s1.38-1.44,2.41-1.89,2.2-.67,3.52-.67,2.51.22,3.51.67,1.77,1.09,2.31,1.92.82,1.79.82,2.88h-4.28c-.03-.38-.14-.71-.32-.98Z"/><path class="cls-1" d="M407.27,24.86h14.64v3.6h-5.12v13.37h-4.38v-13.37h-5.13v-3.6Z"/><path class="cls-1" d="M420.94,41.83l5.64-16.97h6.06l5.64,16.97h-4.82l-3.77-12.41h-.14l-3.79,12.41h-4.82ZM434.23,35.12v3.36h-9.32v-3.36h9.32Z"/><path class="cls-1" d="M449.66,29.39c-.25-.29-.57-.51-.95-.66s-.82-.22-1.33-.22c-.78,0-1.45.19-2.01.56s-.99.92-1.29,1.65-.45,1.59-.45,2.6.14,1.9.43,2.62.71,1.28,1.26,1.66,1.23.57,2.03.57c.7,0,1.3-.11,1.79-.32s.86-.52,1.1-.92.36-.87.36-1.41l.8.09h-3.96v-3.22h7.46v2.33c0,1.51-.32,2.81-.97,3.92s-1.54,1.95-2.68,2.54-2.46.88-3.93.88c-1.63,0-3.07-.35-4.32-1.05s-2.22-1.71-2.91-3.02-1.04-2.85-1.04-4.62.36-3.38,1.09-4.7,1.71-2.32,2.96-3.01,2.64-1.03,4.18-1.03c1.32,0,2.52.25,3.61.74s1.96,1.19,2.64,2.07,1.07,1.89,1.2,3.01h-4.52c-.1-.41-.28-.77-.53-1.05Z"/><path class="cls-1" d="M457.12,24.86h12.12v3.6h-7.66v3.08h7.04v3.6h-7.04v3.09h7.63v3.6h-12.08v-16.97Z"/></g><g id="section417"><rect class="cls-4" y="167.08" width="81.67" height="85.14" rx="5" ry="5"/><path class="cls-1" d="M24.42,212.32l6.28-9.78h2.09v3.38h-1.25l-4,6.23v.12h8.91v2.48h-12.03v-2.44ZM31.62,214.01l.04-1.08v-10.4h2.9v14.85h-2.94v-3.37Z"/><path class="cls-1" d="M44.65,217.38h-3.1v-11.92h-.08l-3.39,2.15v-2.75l3.67-2.34h2.9v14.85Z"/><path class="cls-1" d="M54.93,205.16v-.09h-7.28v-2.53h10.48v2.57l-6.27,12.27h-3.18l6.24-12.22Z"/></g><g id="section416"><path class="cls-4" d="M27.07,265.99v19.67c0,.11.34,2.64,1.72,2.64h48.52c2.19,0,3.71,2.35,3.71,4.71,0,12.31,0,56.32,0,56.32-.11,2.12-1.59,4.36-2.99,4.35H4.03c-1.71,0-4.03-2.03-4.03-4.45v-83.23c0-3.2,1.66-4.47,4.31-4.47l19.2-.09c2.92,0,3.55,3.35,3.55,4.54Z"/><path class="cls-1" d="M23.71,323.67l6.28-9.78h2.09v3.38h-1.25l-4,6.23v.12h8.91v2.48h-12.03v-2.44ZM30.92,325.36l.04-1.08v-10.4h2.9v14.85h-2.94v-3.37Z"/><path class="cls-1" d="M43.94,328.74h-3.1v-11.92h-.08l-3.39,2.15v-2.75l3.67-2.34h2.9v14.85Z"/><path class="cls-1" d="M50.15,328.21c-.9-.48-1.62-1.26-2.17-2.35s-.83-2.49-.83-4.21.25-3.07.75-4.27c.5-1.2,1.21-2.12,2.13-2.75.92-.63,1.99-.95,3.22-.95.98,0,1.85.19,2.62.56.77.38,1.39.89,1.86,1.55s.76,1.39.86,2.21h-3.05c-.08-.35-.23-.65-.44-.91-.21-.26-.47-.45-.78-.58s-.67-.19-1.08-.19c-.66,0-1.22.19-1.68.57-.45.38-.8.92-1.04,1.62s-.36,1.55-.37,2.53h.12c.23-.44.54-.81.93-1.12.39-.31.83-.55,1.32-.72s1.01-.25,1.55-.25c.88,0,1.68.21,2.39.62s1.27.98,1.67,1.71c.4.73.6,1.55.6,2.48,0,1-.23,1.89-.7,2.68-.47.79-1.13,1.4-1.98,1.84-.85.44-1.83.66-2.93.66-1.1,0-2.1-.25-2.99-.73ZM54.47,326.16c.4-.24.71-.56.94-.96.23-.41.34-.85.34-1.34s-.11-.95-.34-1.35-.54-.72-.93-.94-.84-.34-1.34-.34-.94.12-1.34.35-.72.55-.95.95-.36.85-.37,1.34c0,.47.12.91.35,1.31.23.4.54.73.94.97.4.24.85.36,1.35.36s.95-.12,1.35-.35Z"/></g><g id="section415"><path class="cls-4" d="M27.07,365.66v21.74c0,.74.72,1.76,1.76,1.76l47.12-.06c2.8,0,5.08,2.27,5.08,5.07v49.25c0,1.32-.76,2.51-1.96,3.06-17.19,7.89-73.84,29.03-74.78,29.34-2.47.82-4.29-.63-4.29-2.91v-107.19c0-1.58,1.56-2.91,3.59-2.91l20.83.09c1.52,0,2.65,1.24,2.65,2.76Z"/><path class="cls-1" d="M23.88,423.51l6.28-9.78h2.09v3.38h-1.25l-4,6.23v.12h8.91v2.48h-12.03v-2.44ZM31.09,425.2l.04-1.08v-10.4h2.9v14.85h-2.94v-3.37Z"/><path class="cls-1" d="M44.11,428.57h-3.1v-11.92h-.08l-3.39,2.15v-2.75l3.67-2.34h2.9v14.85Z"/><path class="cls-1" d="M50.27,428.21c-.82-.38-1.46-.9-1.93-1.57-.47-.67-.71-1.42-.73-2.26h2.98c.03.38.16.72.38,1.01s.51.53.87.69c.36.17.75.25,1.17.25.51,0,.96-.11,1.36-.34.4-.23.71-.54.94-.94.23-.4.34-.85.34-1.36s-.11-.99-.34-1.39c-.23-.4-.55-.71-.95-.94-.41-.23-.87-.34-1.39-.34-.55,0-1.02.09-1.4.3s-.69.52-.91.94h-2.8l.81-8.55h9.14v2.53h-6.59l-.41,3.74h.11c.29-.38.7-.68,1.23-.91s1.12-.35,1.75-.35c.9,0,1.71.21,2.44.62.73.41,1.3.99,1.7,1.74s.61,1.59.6,2.53c0,.98-.23,1.87-.7,2.65-.48.78-1.14,1.39-1.98,1.84-.85.44-1.82.66-2.92.66-1.01,0-1.93-.19-2.75-.56Z"/></g><g id="section414"><path class="cls-4" d="M118.6,460.58h0c0,.55-.29,1.06-.74,1.37l-33.68,22.48c-.87.58-1.08,1.77-.45,2.61,1.5,1.99,17.96,15.05,18.83,15.74.19.15,2.47.46,2.88.18l33.22-22.9c.78-.55,3.36-.39,3.97.17,1.26,1.17,44.1,39.1,45.57,40.43,1.09.99.91,4.3-.08,5.3l-22.9,23.91c-.66.45-.96,1.27-.73,2.04l.11.36c.1.32.28.6.54.81l18.85,15.49c.48.4,1.14.53,1.73.32,3.94-1.43,27.78-19.19,33.95-23.54.74-.52,1.71-.6,2.51-.16,2.46,1.36,6.92,4.94,9.3,7.08.82.73,1.01,1.93.48,2.9l-44.21,80.28c-.43.78-1.25,1.25-2.14,1.23h0S7.46,487.89,7.46,487.89c-1.39-1.16-1.01-3.39.69-4.03l94.27-35.54c.3-.11,1.05.06,1.29.23.92.68,13.36,10.06,13.94,10.5.52.4.96.88.96,1.53Z"/><path class="cls-1" d="M101.07,539.31l6.28-9.78h2.09v3.38h-1.25l-4,6.23v.12h8.91v2.48h-12.03v-2.44ZM108.28,541l.04-1.08v-10.4h2.9v14.85h-2.94v-3.37Z"/><path class="cls-1" d="M121.3,544.38h-3.1v-11.92h-.08l-3.39,2.15v-2.75l3.67-2.34h2.9v14.85Z"/><path class="cls-1" d="M124.51,539.31l6.28-9.78h2.09v3.38h-1.25l-4,6.23v.12h8.91v2.48h-12.03v-2.44ZM131.72,541l.04-1.08v-10.4h2.9v14.85h-2.94v-3.37Z"/></g><g id="section413"><path class="cls-4" d="M329.56,559.86c1.85,0,3.33,1.25,3.28,3.1-.63,23.21-.06,72.38-.11,74.08-.06,1.97-1.09,3.71-3.06,3.71l-125.82.32c-2.48,0-4.07-2.64-2.9-4.83h0c12.33-23.83,25.82-48,39.63-70.85.43-.72,3.03-5.71,4.33-5.72l84.65.18Z"/><path class="cls-1" d="M258.3,603.24l6.28-9.78h2.09v3.38h-1.25l-4,6.23v.12h8.91v2.48h-12.03v-2.44ZM265.51,604.94l.04-1.08v-10.4h2.9v14.85h-2.94v-3.37Z"/><path class="cls-1" d="M278.54,608.31h-3.1v-11.92h-.08l-3.39,2.15v-2.75l3.67-2.34h2.9v14.85Z"/><path class="cls-1" d="M284.59,607.96c-.85-.37-1.52-.89-2-1.56-.48-.67-.73-1.43-.75-2.28h3.11c.02.35.14.66.37.94s.53.5.91.66.81.24,1.27.24.92-.09,1.32-.26c.39-.17.7-.41.91-.72.21-.3.31-.65.31-1.04,0-.4-.1-.76-.33-1.08s-.55-.56-.98-.73c-.43-.17-.93-.26-1.5-.26h-1.38v-2.28h1.38c.49,0,.92-.08,1.3-.25.38-.17.68-.4.88-.7s.3-.64.3-1.03c0-.38-.08-.71-.26-1-.18-.29-.43-.51-.77-.67s-.72-.24-1.15-.24-.84.08-1.2.23c-.36.15-.66.37-.88.66-.22.28-.34.61-.36.99h-2.95c.03-.84.28-1.59.75-2.25s1.11-1.17,1.92-1.53c.81-.37,1.72-.55,2.72-.55s1.92.18,2.7.54,1.38.86,1.81,1.5.64,1.35.63,2.13c.01.54-.1,1.03-.33,1.48-.24.44-.57.81-.99,1.09-.43.28-.92.48-1.48.58v.11c.72.09,1.34.29,1.85.6.51.31.89.71,1.15,1.19s.38,1.04.37,1.66c.01.83-.23,1.57-.72,2.24-.49.67-1.18,1.19-2.05,1.56s-1.86.56-2.96.56-2.05-.18-2.9-.55Z"/></g><g id="section412"><path class="cls-4" d="M482.03,641.08l-136.11-.02c-1.55,0-2.95-1.73-2.95-3.15l.3-34.27c0-1.81,2.31-3.63,4.3-3.63,12.56,0,29.95-.03,30.7-.03,2.28.01,2.47-1.55,2.48-2.35v-33.44c0-2.11,2.31-4.26,4.32-4.26h95.61c2.42,0,4.29,2.85,4.3,4.34v74.68c-.02,1.17-1.77,2.12-2.95,2.12Z"/><rect class="cls-4" x="492.04" y="599.89" width="33.36" height="41.19" rx="5" ry="5"/><path class="cls-1" d="M415.55,603.15l6.28-9.78h2.09v3.38h-1.25l-4,6.23v.12h8.91v2.48h-12.03v-2.44ZM422.76,604.84l.04-1.08v-10.4h2.9v14.85h-2.94v-3.37Z"/><path class="cls-1" d="M435.78,608.22h-3.1v-11.92h-.08l-3.39,2.15v-2.75l3.67-2.34h2.9v14.85Z"/><path class="cls-1" d="M439.21,605.99l5.34-4.91c.53-.51.94-.92,1.23-1.26.29-.33.52-.67.67-1,.15-.34.23-.7.23-1.08,0-.42-.1-.8-.31-1.12-.21-.32-.49-.57-.84-.74s-.76-.26-1.21-.26-.86.09-1.21.28c-.35.18-.62.45-.81.8-.19.35-.28.76-.28,1.23h-2.93c0-.95.22-1.79.66-2.51.44-.72,1.06-1.28,1.86-1.67.8-.39,1.71-.58,2.75-.58s1.97.18,2.77.55,1.42.89,1.86,1.55c.44.66.66,1.42.66,2.28,0,.58-.11,1.14-.33,1.68-.22.54-.61,1.14-1.17,1.79-.56.66-1.35,1.45-2.37,2.38l-2.27,2.18v.1h6.36v2.53h-10.64v-2.22Z"/></g><g id="section318"><rect class="cls-3" x="110.13" y="77.68" width="78.09" height="87.27" rx="5" ry="5"/><path class="cls-1" d="M134.15,128.27c-.85-.37-1.52-.89-2-1.56-.48-.67-.73-1.43-.75-2.28h3.11c.02.35.14.66.37.94s.53.5.91.66.81.24,1.27.24.92-.09,1.32-.26c.39-.17.7-.41.91-.72s.31-.65.31-1.04c0-.4-.1-.76-.33-1.08s-.55-.56-.98-.73c-.43-.17-.93-.26-1.5-.26h-1.38v-2.28h1.38c.49,0,.92-.08,1.3-.25s.68-.4.88-.7.3-.64.3-1.03c0-.38-.08-.71-.26-1s-.43-.51-.77-.67-.72-.24-1.15-.24-.84.08-1.2.23c-.36.15-.65.37-.88.66-.22.28-.34.61-.36.99h-2.95c.03-.84.28-1.59.75-2.25s1.11-1.17,1.92-1.53c.81-.37,1.72-.55,2.72-.55s1.92.18,2.7.54,1.38.86,1.81,1.5.64,1.35.63,2.13c.01.54-.1,1.03-.33,1.48-.24.44-.57.81-.99,1.09-.43.28-.92.48-1.48.58v.11c.72.09,1.34.29,1.85.6.51.31.89.71,1.15,1.19s.38,1.04.37,1.66c.01.83-.23,1.57-.72,2.24-.49.67-1.18,1.19-2.05,1.56s-1.86.56-2.96.56-2.05-.18-2.9-.55Z"/><path class="cls-1" d="M151.35,128.62h-3.1v-11.92h-.08l-3.39,2.15v-2.75l3.67-2.34h2.9v14.85Z"/><path class="cls-1" d="M157.4,128.28c-.89-.36-1.58-.86-2.08-1.51s-.75-1.36-.75-2.15c0-.61.14-1.18.43-1.71s.68-.97,1.17-1.31c.5-.34,1.05-.56,1.66-.65v-.11c-.52-.1-.98-.31-1.39-.62s-.73-.7-.96-1.16-.35-.96-.35-1.5c0-.76.23-1.44.69-2.06s1.09-1.09,1.89-1.43,1.7-.51,2.69-.51,1.9.17,2.7.51c.8.34,1.43.82,1.89,1.43.45.61.68,1.3.68,2.06,0,.53-.12,1.03-.35,1.5-.24.46-.56.85-.96,1.16-.41.31-.87.52-1.4.62v.11c.61.09,1.16.3,1.66.65s.89.78,1.18,1.31.44,1.1.44,1.71c0,.79-.25,1.51-.75,2.15-.5.64-1.2,1.15-2.08,1.51s-1.88.54-3,.54-2.1-.18-2.99-.54ZM161.75,126.2c.4-.18.7-.44.92-.77s.33-.7.33-1.11c0-.43-.11-.82-.34-1.16s-.54-.61-.93-.8-.84-.29-1.34-.29-.94.1-1.33.29-.71.46-.93.8-.33.73-.33,1.16c0,.41.1.78.32,1.11s.53.58.92.77.85.28,1.35.28.97-.09,1.36-.28ZM161.55,119.63c.34-.17.61-.41.8-.72s.29-.65.29-1.03-.09-.73-.28-1.04-.45-.53-.8-.7-.74-.25-1.17-.25-.82.08-1.16.25-.61.4-.8.7-.28.65-.28,1.04.1.73.29,1.03c.19.3.46.54.8.72.34.17.72.26,1.15.26s.82-.09,1.16-.26Z"/></g><g id="section317"><rect class="cls-3" x="110.13" y="175.59" width="78.5" height="80.18" rx="5" ry="5"/><path class="cls-1" d="M135.11,223.38c-.85-.37-1.52-.89-2-1.56-.48-.67-.73-1.43-.75-2.28h3.11c.02.35.14.66.37.94s.53.5.91.66.81.24,1.27.24.92-.09,1.32-.26c.39-.17.7-.41.91-.72s.31-.65.31-1.04c0-.4-.1-.76-.33-1.08s-.55-.56-.98-.73c-.43-.17-.93-.26-1.5-.26h-1.38v-2.28h1.38c.49,0,.92-.08,1.3-.25s.68-.4.88-.7.3-.64.3-1.03c0-.38-.08-.71-.26-1s-.43-.51-.77-.67-.72-.24-1.15-.24-.84.08-1.2.23c-.36.15-.65.37-.88.66-.22.28-.34.61-.36.99h-2.95c.03-.84.28-1.59.75-2.25s1.11-1.17,1.92-1.53c.81-.37,1.72-.55,2.72-.55s1.92.18,2.7.54,1.38.86,1.81,1.5.64,1.35.63,2.13c.01.54-.1,1.03-.33,1.48-.24.44-.57.81-.99,1.09-.43.28-.92.48-1.48.58v.11c.72.09,1.34.29,1.85.6.51.31.89.71,1.15,1.19s.38,1.04.37,1.66c.01.83-.23,1.57-.72,2.24-.49.67-1.18,1.19-2.05,1.56s-1.86.56-2.96.56-2.05-.18-2.9-.55Z"/><path class="cls-1" d="M152.31,223.72h-3.1v-11.92h-.08l-3.39,2.15v-2.75l3.67-2.34h2.9v14.85Z"/><path class="cls-1" d="M162.6,211.5v-.09h-7.28v-2.53h10.48v2.57l-6.27,12.27h-3.18l6.24-12.22Z"/></g><g id="section316"><rect class="cls-3" x="110.54" y="266.41" width="78.09" height="87.27" rx="5" ry="5"/><path class="cls-1" d="M132.55,316.11c-.85-.37-1.52-.89-2-1.56-.48-.67-.73-1.43-.75-2.28h3.11c.02.35.14.66.37.94s.53.5.91.66.81.24,1.27.24.92-.09,1.32-.26c.39-.17.7-.41.91-.72s.31-.65.31-1.04c0-.4-.1-.76-.33-1.08s-.55-.56-.98-.73c-.43-.17-.93-.26-1.5-.26h-1.38v-2.28h1.38c.49,0,.92-.08,1.3-.25s.68-.4.88-.7.3-.64.3-1.03c0-.38-.08-.71-.26-1s-.43-.51-.77-.67-.72-.24-1.15-.24-.84.08-1.2.23c-.36.15-.65.37-.88.66-.22.28-.34.61-.36.99h-2.95c.03-.84.28-1.59.75-2.25s1.11-1.17,1.92-1.53c.81-.37,1.72-.55,2.72-.55s1.92.18,2.7.54,1.38.86,1.81,1.5.64,1.35.63,2.13c.01.54-.1,1.03-.33,1.48-.24.44-.57.81-.99,1.09-.43.28-.92.48-1.48.58v.11c.72.09,1.34.29,1.85.6.51.31.89.71,1.15,1.19s.38,1.04.37,1.66c.01.83-.23,1.57-.72,2.24-.49.67-1.18,1.19-2.05,1.56s-1.86.56-2.96.56-2.05-.18-2.9-.55Z"/><path class="cls-1" d="M149.75,316.45h-3.1v-11.92h-.08l-3.39,2.15v-2.75l3.67-2.34h2.9v14.85Z"/><path class="cls-1" d="M155.97,315.93c-.9-.48-1.62-1.26-2.17-2.35s-.83-2.49-.83-4.21.25-3.07.75-4.27c.5-1.2,1.21-2.12,2.13-2.75.92-.63,1.99-.95,3.22-.95.98,0,1.85.19,2.62.56.77.38,1.39.89,1.86,1.55s.76,1.39.86,2.21h-3.05c-.08-.35-.23-.65-.44-.91-.21-.26-.47-.45-.78-.58s-.67-.19-1.08-.19c-.66,0-1.22.19-1.68.57-.45.38-.8.92-1.04,1.62s-.36,1.55-.37,2.53h.12c.23-.44.54-.81.93-1.12.39-.31.83-.55,1.32-.72s1.01-.25,1.55-.25c.88,0,1.68.21,2.39.62s1.27.98,1.67,1.71c.4.73.6,1.55.6,2.48,0,1-.23,1.89-.7,2.68-.47.79-1.13,1.4-1.98,1.84-.85.44-1.83.66-2.93.66-1.1,0-2.1-.25-2.99-.73ZM160.29,313.87c.4-.24.71-.56.94-.96.23-.41.34-.85.34-1.34s-.11-.95-.34-1.35-.54-.72-.93-.94-.84-.34-1.34-.34-.94.12-1.34.35-.72.55-.95.95-.36.85-.37,1.34c0,.47.12.91.35,1.31.23.4.54.73.94.97.4.24.85.36,1.35.36s.95-.12,1.35-.35Z"/></g><g id="section315"><path class="cls-3" d="M188.63,367.91v37.38c0,.76-.47,1.44-1.18,1.7l-87.98,31.25c-3.25,1.16-6.67-1.26-6.67-4.71v-65.61c0-2.75,2.25-5,5-5h85.83c2.76,0,5,2.24,5,5Z"/><path class="cls-1" d="M123.48,401.06c-.85-.37-1.52-.89-2-1.56-.48-.67-.73-1.43-.75-2.28h3.11c.02.35.14.66.37.94s.53.5.91.66.81.24,1.27.24.92-.09,1.32-.26c.39-.17.7-.41.91-.72.21-.3.31-.65.31-1.04,0-.4-.1-.76-.33-1.08s-.55-.56-.98-.73c-.43-.17-.93-.26-1.5-.26h-1.38v-2.28h1.38c.49,0,.92-.08,1.3-.25.38-.17.68-.4.88-.7s.3-.64.3-1.03c0-.38-.08-.71-.26-1-.18-.29-.43-.51-.77-.67s-.72-.24-1.15-.24-.84.08-1.2.23c-.36.15-.65.37-.88.66-.22.28-.34.61-.36.99h-2.95c.03-.84.28-1.59.75-2.25s1.11-1.17,1.92-1.53c.81-.37,1.72-.55,2.72-.55s1.92.18,2.7.54,1.38.86,1.81,1.5.64,1.35.63,2.13c.01.54-.1,1.03-.33,1.48-.24.44-.57.81-.99,1.09-.43.28-.92.48-1.48.58v.11c.72.09,1.34.29,1.85.6.51.31.89.71,1.15,1.19s.38,1.04.37,1.66c.01.83-.23,1.57-.72,2.24-.49.67-1.18,1.19-2.05,1.56s-1.86.56-2.96.56-2.05-.18-2.9-.55Z"/><path class="cls-1" d="M140.69,401.41h-3.1v-11.92h-.08l-3.39,2.15v-2.75l3.67-2.34h2.9v14.85Z"/><path class="cls-1" d="M146.85,401.05c-.82-.38-1.46-.9-1.93-1.57-.47-.67-.71-1.42-.73-2.26h2.98c.03.38.16.72.38,1.02s.51.52.87.69c.36.17.75.25,1.17.25.51,0,.96-.11,1.36-.34.4-.23.71-.54.94-.94.23-.4.34-.85.34-1.36s-.11-.99-.34-1.39c-.23-.4-.55-.71-.95-.94-.41-.23-.87-.34-1.39-.34-.55,0-1.02.09-1.4.3s-.69.52-.91.94h-2.8l.81-8.55h9.14v2.53h-6.59l-.41,3.74h.11c.29-.38.7-.68,1.23-.91s1.12-.35,1.75-.35c.9,0,1.71.21,2.44.62.73.41,1.3.99,1.7,1.74s.61,1.59.6,2.53c0,.98-.23,1.87-.7,2.65-.48.78-1.14,1.39-1.98,1.84-.85.44-1.82.66-2.92.66-1.01,0-1.93-.19-2.75-.56Z"/></g><g id="section314"><path class="cls-3" d="M273.88,480.65c.62.58.62,2.75.19,3.48l-34.73,58.74c-.07.12-1.66.49-2.2.05l-118.91-96.12c-1.54-1.25-1.12-3.7.74-4.37.67-.24,1.28-.44,1.64-.58,22.1-8.78,63.71-23.81,65.46-24.39,1.3-.43,3.02-.34,3.88.29.98.72,81.27,60.39,83.93,62.9Z"/><path class="cls-1" d="M187.65,478.61c-.85-.37-1.52-.89-2-1.56-.48-.67-.73-1.43-.75-2.28h3.11c.02.35.14.66.37.94s.53.5.91.66.81.24,1.27.24.92-.09,1.32-.26c.39-.17.7-.41.91-.72.21-.3.31-.65.31-1.04,0-.4-.1-.76-.33-1.08s-.55-.56-.98-.73c-.43-.17-.93-.26-1.5-.26h-1.38v-2.28h1.38c.49,0,.92-.08,1.3-.25.38-.17.68-.4.88-.7s.3-.64.3-1.03c0-.38-.08-.71-.26-1-.18-.29-.43-.51-.77-.67s-.72-.24-1.15-.24-.84.08-1.2.23c-.36.15-.65.37-.88.66-.22.28-.34.61-.36.99h-2.95c.03-.84.28-1.59.75-2.25s1.11-1.17,1.92-1.53c.81-.37,1.72-.55,2.72-.55s1.92.18,2.7.54,1.38.86,1.81,1.5.64,1.35.63,2.13c.01.54-.1,1.03-.33,1.48-.24.44-.57.81-.99,1.09-.43.28-.92.48-1.48.58v.11c.72.09,1.34.29,1.85.6.51.31.89.71,1.15,1.19s.38,1.04.37,1.66c.01.83-.23,1.57-.72,2.24-.49.67-1.18,1.19-2.05,1.56s-1.86.56-2.96.56-2.05-.18-2.9-.55Z"/><path class="cls-1" d="M204.86,478.96h-3.1v-11.92h-.08l-3.39,2.15v-2.75l3.67-2.34h2.9v14.85Z"/><path class="cls-1" d="M208.06,473.9l6.28-9.78h2.09v3.38h-1.25l-4,6.23v.12h8.91v2.48h-12.03v-2.44ZM215.27,475.59l.04-1.08v-10.4h2.9v14.85h-2.94v-3.37Z"/></g><g id="section313"><path class="cls-3" d="M363.51,550.26l-105.03-.32c-3.82-.01-6.21-4.12-4.35-7.45l30.73-54.77c.89-1.59,2.59-2.57,4.42-2.55l74.3.84c2.74.03,4.94,2.26,4.94,5v54.25c0,2.77-2.25,5.01-5.02,5Z"/><path class="cls-1" d="M307.12,525.8c-.85-.37-1.52-.89-2-1.56-.48-.67-.73-1.43-.75-2.28h3.11c.02.35.14.66.37.94s.53.5.91.66.81.24,1.27.24.92-.09,1.32-.26c.39-.17.7-.41.91-.72.21-.3.31-.65.31-1.04,0-.4-.1-.76-.33-1.08s-.55-.56-.98-.73c-.43-.17-.93-.26-1.5-.26h-1.38v-2.28h1.38c.49,0,.92-.08,1.3-.25.38-.17.68-.4.88-.7s.3-.64.3-1.03c0-.38-.08-.71-.26-1-.18-.29-.43-.51-.77-.67s-.72-.24-1.15-.24-.84.08-1.2.23c-.36.15-.65.37-.88.66-.22.28-.34.61-.36.99h-2.95c.03-.84.28-1.59.75-2.25s1.11-1.17,1.92-1.53c.81-.37,1.72-.55,2.72-.55s1.92.18,2.7.54,1.38.86,1.82,1.5.64,1.35.62,2.13c.01.54-.1,1.03-.33,1.48-.24.44-.57.81-.99,1.09-.43.28-.92.48-1.48.58v.11c.72.09,1.34.29,1.85.6.51.31.89.71,1.15,1.19s.38,1.04.37,1.66c.01.83-.23,1.57-.72,2.24-.49.67-1.18,1.19-2.05,1.56s-1.86.56-2.96.56-2.05-.18-2.9-.55Z"/><path class="cls-1" d="M324.33,526.15h-3.1v-11.92h-.08l-3.39,2.15v-2.75l3.67-2.34h2.9v14.85Z"/><path class="cls-1" d="M330.39,525.8c-.85-.37-1.52-.89-2-1.56-.48-.67-.73-1.43-.75-2.28h3.11c.02.35.14.66.37.94s.53.5.91.66.81.24,1.27.24.92-.09,1.32-.26c.39-.17.7-.41.91-.72.21-.3.31-.65.31-1.04,0-.4-.1-.76-.33-1.08s-.55-.56-.98-.73c-.43-.17-.93-.26-1.5-.26h-1.38v-2.28h1.38c.49,0,.92-.08,1.3-.25.38-.17.68-.4.88-.7s.3-.64.3-1.03c0-.38-.08-.71-.26-1-.18-.29-.43-.51-.77-.67s-.72-.24-1.15-.24-.84.08-1.2.23c-.36.15-.66.37-.88.66-.22.28-.34.61-.36.99h-2.95c.03-.84.28-1.59.75-2.25s1.11-1.17,1.92-1.53c.81-.37,1.72-.55,2.72-.55s1.92.18,2.7.54,1.38.86,1.81,1.5.64,1.35.63,2.13c.01.54-.1,1.03-.33,1.48-.24.44-.57.81-.99,1.09-.43.28-.92.48-1.48.58v.11c.72.09,1.34.29,1.85.6.51.31.89.71,1.15,1.19s.38,1.04.37,1.66c.01.83-.23,1.57-.72,2.24-.49.67-1.18,1.19-2.05,1.56s-1.86.56-2.96.56-2.05-.18-2.9-.55Z"/></g><g id="section312"><rect class="cls-3" x="380.59" y="485.17" width="115" height="65.34" rx="5" ry="5"/><path class="cls-1" d="M425.95,525.14c-.85-.37-1.52-.89-2-1.56-.48-.67-.73-1.43-.75-2.28h3.11c.02.35.14.66.37.94s.53.5.91.66.81.24,1.27.24.92-.09,1.32-.26c.39-.17.7-.41.91-.72.21-.3.31-.65.31-1.04,0-.4-.1-.76-.33-1.08s-.55-.56-.98-.73c-.43-.17-.93-.26-1.5-.26h-1.38v-2.28h1.38c.49,0,.92-.08,1.3-.25.38-.17.68-.4.88-.7s.3-.64.3-1.03c0-.38-.08-.71-.26-1-.18-.29-.43-.51-.77-.67s-.72-.24-1.15-.24-.84.08-1.2.23c-.36.15-.65.37-.88.66-.22.28-.34.61-.36.99h-2.95c.03-.84.28-1.59.75-2.25s1.11-1.17,1.92-1.53c.81-.37,1.72-.55,2.72-.55s1.92.18,2.7.54,1.38.86,1.82,1.5.64,1.35.62,2.13c.01.54-.1,1.03-.33,1.48-.24.44-.57.81-.99,1.09-.43.28-.92.48-1.48.58v.11c.72.09,1.34.29,1.85.6.51.31.89.71,1.15,1.19s.38,1.04.37,1.66c.01.83-.23,1.57-.72,2.24-.49.67-1.18,1.19-2.05,1.56s-1.86.56-2.96.56-2.05-.18-2.9-.55Z"/><path class="cls-1" d="M443.16,525.49h-3.1v-11.92h-.08l-3.39,2.15v-2.75l3.67-2.34h2.9v14.85Z"/><path class="cls-1" d="M446.59,523.27l5.34-4.91c.53-.51.94-.92,1.23-1.26.29-.33.52-.67.67-1,.15-.34.23-.7.23-1.08,0-.42-.1-.8-.31-1.12-.21-.32-.49-.57-.84-.74s-.76-.26-1.21-.26-.86.09-1.22.28c-.35.18-.62.45-.81.8-.19.35-.28.76-.28,1.23h-2.93c0-.95.22-1.79.66-2.51.44-.72,1.06-1.28,1.86-1.67.8-.39,1.71-.58,2.75-.58s1.97.18,2.77.55,1.42.88,1.86,1.55c.44.66.66,1.42.66,2.28,0,.58-.11,1.14-.33,1.68-.22.54-.61,1.14-1.17,1.79-.56.66-1.35,1.45-2.37,2.38l-2.27,2.18v.1h6.36v2.53h-10.64v-2.23Z"/></g><g id="section311"><path class="cls-3" d="M512.51,485.17h68.23c2.05-.01,3.5.64,4.52,2.41.28.49,30.9,53.12,32.87,56.55,1.23,2.13,2.41,5.17-1.49,4.92h-103.97c-2.76,0-5-2.24-5-5v-54.24c0-2.75,2.09-4.64,4.84-4.65Z"/><path class="cls-1" d="M541.47,525.08c-.85-.37-1.52-.89-2-1.56-.48-.67-.73-1.43-.75-2.28h3.11c.02.35.14.66.37.94s.53.5.91.66.81.24,1.27.24.92-.09,1.32-.26c.39-.17.7-.41.91-.72.21-.3.31-.65.31-1.04,0-.4-.1-.76-.33-1.08s-.55-.56-.98-.73c-.43-.17-.93-.26-1.5-.26h-1.38v-2.28h1.38c.49,0,.92-.08,1.3-.25.38-.17.68-.4.88-.7s.3-.64.3-1.03c0-.38-.08-.71-.26-1-.18-.29-.43-.51-.77-.67s-.72-.24-1.15-.24-.84.08-1.2.23c-.36.15-.65.37-.88.66-.22.28-.34.61-.36.99h-2.95c.03-.84.28-1.59.75-2.25s1.11-1.17,1.92-1.53c.81-.37,1.72-.55,2.72-.55s1.92.18,2.7.54,1.38.86,1.82,1.5.64,1.35.62,2.13c.01.54-.1,1.03-.33,1.48-.24.44-.57.81-.99,1.09-.43.28-.92.48-1.48.58v.11c.72.09,1.34.29,1.85.6.51.31.89.71,1.15,1.19s.38,1.04.37,1.66c.01.83-.23,1.57-.72,2.24-.49.67-1.18,1.19-2.05,1.56s-1.86.56-2.96.56-2.05-.18-2.9-.55Z"/><path class="cls-1" d="M558.68,525.43h-3.1v-11.92h-.08l-3.39,2.15v-2.75l3.67-2.34h2.9v14.85Z"/><path class="cls-1" d="M568.52,525.43h-3.1v-11.92h-.08l-3.39,2.15v-2.75l3.67-2.34h2.9v14.85Z"/></g><g id="section310"><path class="cls-3" d="M655.79,524.44l-23.42,18.67c-.99.77-2.69.58-3.35-.9l-32.31-58.25c-.59-1.07-.33-2.41.61-3.18l78.59-64.24c1.83-1.62,5.26-2.82,8.3-1.78l66.48,24.64c1.55.6,2.18,3.17.59,4.56-.52.45-64.46,54.39-95.5,80.48Z"/><path class="cls-1" d="M653.64,477.14c-.85-.37-1.52-.89-2-1.56-.48-.67-.73-1.43-.75-2.28h3.11c.02.35.14.66.37.94s.53.5.91.66.81.24,1.27.24.92-.09,1.32-.26c.39-.17.7-.41.91-.72.21-.3.31-.65.31-1.04,0-.4-.1-.76-.33-1.08s-.55-.56-.98-.73c-.43-.17-.93-.26-1.5-.26h-1.38v-2.28h1.38c.49,0,.92-.08,1.3-.25.38-.17.68-.4.88-.7s.3-.64.3-1.03c0-.38-.08-.71-.26-1-.18-.29-.43-.51-.77-.67s-.72-.24-1.15-.24-.84.08-1.2.23c-.36.15-.65.37-.88.66-.22.28-.34.61-.36.99h-2.95c.03-.84.28-1.59.75-2.25s1.11-1.17,1.92-1.53c.81-.37,1.72-.55,2.72-.55s1.92.18,2.7.54,1.38.86,1.82,1.5.64,1.35.62,2.13c.01.54-.1,1.03-.33,1.48-.24.44-.57.81-.99,1.09-.43.28-.92.48-1.48.58v.11c.72.09,1.34.29,1.85.6.51.31.89.71,1.15,1.19s.38,1.04.37,1.66c.01.83-.23,1.57-.72,2.24-.49.67-1.18,1.19-2.05,1.56s-1.86.56-2.96.56-2.05-.18-2.9-.55Z"/><path class="cls-1" d="M670.85,477.49h-3.1v-11.92h-.08l-3.39,2.15v-2.75l3.67-2.34h2.9v14.85Z"/><path class="cls-1" d="M676.87,476.8c-.89-.59-1.58-1.46-2.05-2.61-.47-1.14-.71-2.52-.71-4.13s.24-2.98.71-4.12c.48-1.14,1.16-2.01,2.06-2.61.9-.6,1.96-.9,3.19-.9s2.29.3,3.19.9c.9.6,1.58,1.47,2.06,2.61.48,1.15.72,2.52.72,4.12s-.24,2.99-.71,4.13c-.47,1.14-1.16,2.01-2.06,2.6s-1.96.89-3.2.89-2.3-.3-3.19-.89ZM681.57,474.58c.43-.38.75-.95.98-1.71.23-.76.33-1.7.33-2.81,0-1.11-.11-2.04-.34-2.8-.23-.76-.55-1.33-.97-1.72s-.92-.57-1.5-.57-1.07.19-1.49.57c-.42.38-.75.96-.98,1.72-.23.76-.35,1.7-.35,2.8s.11,2.05.34,2.81c.23.76.56,1.33.98,1.71s.92.56,1.5.56,1.08-.19,1.5-.56Z"/></g><g id="section309"><path class="cls-3" d="M685.2,362.91h96.09c.44,0,.87.18,1.18.49l.09.09c.31.31.49.74.49,1.18v68.77c0,3.48-3.46,5.89-6.72,4.69l-92.31-33.93c-1.94-.71-4.04-2.65-4.08-4.72l.26-31.49c-.05-2.79,2.2-5.09,5-5.09Z"/><path class="cls-1" d="M712.92,399.81c-.85-.37-1.52-.89-2-1.56-.48-.67-.73-1.43-.75-2.28h3.11c.02.35.14.66.37.94s.53.5.91.66.81.24,1.27.24.92-.09,1.32-.26c.39-.17.7-.41.91-.72.21-.3.31-.65.31-1.04,0-.4-.1-.76-.33-1.08s-.55-.56-.98-.73c-.43-.17-.93-.26-1.5-.26h-1.38v-2.28h1.38c.49,0,.92-.08,1.3-.25.38-.17.68-.4.88-.7s.3-.64.3-1.03c0-.38-.08-.71-.26-1-.18-.29-.43-.51-.77-.67s-.72-.24-1.15-.24-.84.08-1.2.23c-.36.15-.66.37-.88.66-.22.28-.34.61-.36.99h-2.95c.03-.84.28-1.59.75-2.25s1.11-1.17,1.92-1.53c.81-.37,1.72-.55,2.72-.55s1.92.18,2.7.54,1.38.86,1.81,1.5.64,1.35.63,2.13c.01.54-.1,1.03-.33,1.48-.24.44-.57.81-.99,1.09-.43.28-.92.48-1.48.58v.11c.72.09,1.34.29,1.85.6.51.31.89.71,1.15,1.19s.38,1.04.37,1.66c.01.83-.23,1.57-.72,2.24-.49.67-1.18,1.19-2.05,1.56s-1.86.56-2.96.56-2.05-.18-2.9-.55Z"/><path class="cls-1" d="M726.31,399.47c-.89-.59-1.58-1.46-2.05-2.61-.48-1.14-.71-2.52-.71-4.13s.24-2.98.71-4.12c.47-1.14,1.16-2.01,2.06-2.61.9-.6,1.96-.9,3.19-.9s2.29.3,3.19.9c.9.6,1.58,1.47,2.06,2.61.48,1.15.72,2.52.72,4.12s-.24,2.99-.71,4.13c-.48,1.14-1.16,2.01-2.06,2.6s-1.96.89-3.2.89-2.3-.3-3.19-.89ZM731,397.26c.43-.38.75-.94.98-1.71.23-.76.33-1.7.33-2.81,0-1.11-.11-2.04-.34-2.8-.23-.76-.55-1.33-.97-1.72s-.92-.57-1.5-.57-1.07.19-1.49.57c-.42.38-.75.96-.98,1.72-.23.76-.35,1.7-.35,2.8s.11,2.05.34,2.81c.23.76.56,1.33.98,1.71s.92.56,1.5.56,1.07-.19,1.5-.56Z"/><path class="cls-1" d="M746.02,385.82c.9.47,1.62,1.25,2.17,2.34.55,1.08.83,2.48.83,4.19,0,1.66-.24,3.09-.74,4.3s-1.21,2.12-2.13,2.76c-.92.64-2,.96-3.25.96-.97,0-1.84-.19-2.61-.57s-1.39-.9-1.87-1.56c-.47-.66-.76-1.41-.86-2.24h3.04c.09.36.24.67.45.93.21.26.47.46.79.59.32.14.67.21,1.07.21.66,0,1.23-.19,1.69-.57s.82-.93,1.05-1.65c.24-.71.35-1.57.35-2.56h-.13c-.23.42-.54.79-.92,1.11s-.82.56-1.32.72c-.5.17-1.02.25-1.56.25-.88,0-1.67-.21-2.37-.62-.71-.41-1.26-.98-1.67-1.71-.4-.73-.61-1.54-.62-2.45,0-.99.23-1.88.7-2.66.47-.78,1.13-1.39,1.98-1.83.85-.44,1.83-.66,2.93-.65,1.1,0,2.1.24,2.99.71ZM741.69,387.88c-.4.24-.72.55-.94.95-.23.4-.34.84-.34,1.33,0,.49.12.93.35,1.32s.53.71.93.94c.39.23.83.35,1.32.35s.95-.12,1.36-.36c.41-.24.73-.56.97-.97.24-.41.36-.84.35-1.31,0-.47-.12-.91-.35-1.31-.23-.4-.55-.72-.94-.95-.4-.24-.85-.35-1.35-.35s-.94.12-1.34.35Z"/></g><g id="section308"><rect class="cls-3" x="680.2" y="266.41" width="78.76" height="87.27" rx="5" ry="5"/><path class="cls-1" d="M704.58,317.68c-.85-.37-1.52-.89-2-1.56-.48-.67-.73-1.43-.75-2.28h3.11c.02.35.14.66.37.94s.53.5.91.66.81.24,1.27.24.92-.09,1.32-.26c.39-.17.7-.41.91-.72s.31-.65.31-1.04c0-.4-.1-.76-.33-1.08s-.55-.56-.98-.73c-.43-.17-.93-.26-1.5-.26h-1.38v-2.28h1.38c.49,0,.92-.08,1.3-.25s.68-.4.88-.7.3-.64.3-1.03c0-.38-.08-.71-.26-1s-.43-.51-.77-.67-.72-.24-1.15-.24-.84.08-1.2.23c-.36.15-.66.37-.88.66-.22.28-.34.61-.36.99h-2.95c.03-.84.28-1.59.75-2.25s1.11-1.17,1.92-1.53c.81-.37,1.72-.55,2.72-.55s1.92.18,2.7.54,1.38.86,1.81,1.5.64,1.35.63,2.13c.01.54-.1,1.03-.33,1.48-.24.44-.57.81-.99,1.09-.43.28-.92.48-1.48.58v.11c.72.09,1.34.29,1.85.6.51.31.89.71,1.15,1.19s.38,1.04.37,1.66c.01.83-.23,1.57-.72,2.24-.49.67-1.18,1.19-2.05,1.56s-1.86.56-2.96.56-2.05-.18-2.9-.55Z"/><path class="cls-1" d="M717.97,317.34c-.89-.59-1.58-1.46-2.05-2.61-.48-1.14-.71-2.52-.71-4.13s.24-2.98.71-4.12c.47-1.14,1.16-2.01,2.06-2.61s1.96-.9,3.19-.9,2.29.3,3.19.9,1.58,1.47,2.06,2.61c.48,1.15.72,2.52.72,4.12s-.24,2.99-.71,4.13c-.48,1.14-1.16,2.01-2.06,2.6s-1.96.89-3.2.89-2.3-.3-3.19-.89ZM722.67,315.12c.43-.38.75-.94.98-1.71.23-.76.33-1.7.33-2.81,0-1.11-.11-2.04-.34-2.8-.23-.76-.55-1.33-.97-1.72s-.92-.57-1.5-.57-1.07.19-1.49.57c-.42.38-.75.96-.98,1.72-.23.76-.35,1.7-.35,2.8s.11,2.05.34,2.81c.23.76.56,1.33.98,1.71s.92.56,1.5.56,1.07-.19,1.5-.56Z"/><path class="cls-1" d="M731.85,317.69c-.89-.36-1.58-.86-2.08-1.51s-.75-1.36-.75-2.15c0-.61.14-1.18.43-1.71s.68-.97,1.17-1.31c.5-.34,1.05-.56,1.66-.65v-.11c-.52-.1-.98-.31-1.39-.62s-.73-.7-.96-1.16-.35-.96-.35-1.5c0-.76.23-1.44.69-2.06s1.09-1.09,1.89-1.43,1.7-.51,2.69-.51,1.9.17,2.7.51c.8.34,1.43.82,1.89,1.43.45.61.68,1.3.68,2.06,0,.53-.12,1.03-.35,1.5-.24.46-.56.85-.96,1.16-.41.31-.87.52-1.4.62v.11c.61.09,1.16.3,1.66.65.5.34.89.78,1.18,1.31s.44,1.1.44,1.71c0,.79-.25,1.51-.75,2.15-.5.64-1.2,1.15-2.08,1.51-.89.36-1.88.54-3,.54s-2.1-.18-2.99-.54ZM736.21,315.61c.4-.18.7-.44.92-.77s.33-.7.33-1.11c0-.43-.11-.82-.34-1.16s-.54-.61-.93-.8-.84-.29-1.34-.29-.94.1-1.33.29-.71.46-.93.8-.33.73-.33,1.16c0,.41.1.78.32,1.11s.53.58.92.77.85.28,1.35.28.97-.09,1.36-.28ZM736.01,309.04c.34-.17.61-.41.8-.72s.29-.65.29-1.03-.09-.73-.28-1.04c-.19-.3-.46-.53-.8-.7-.35-.17-.74-.25-1.17-.25s-.82.08-1.16.25c-.35.17-.61.4-.8.7-.19.3-.28.65-.28,1.04s.1.73.29,1.03c.19.3.46.54.8.72.34.17.72.26,1.15.26s.82-.09,1.16-.26Z"/></g><g id="section307"><rect class="cls-3" x="680.2" y="176.3" width="78.76" height="79.47" rx="5" ry="5"/><path class="cls-1" d="M705.43,221.49c-.85-.37-1.52-.89-2-1.56-.48-.67-.73-1.43-.75-2.28h3.11c.02.35.14.66.37.94s.53.5.91.66.81.24,1.27.24.92-.09,1.32-.26c.39-.17.7-.41.91-.72s.31-.65.31-1.04c0-.4-.1-.76-.33-1.08s-.55-.56-.98-.73c-.43-.17-.93-.26-1.5-.26h-1.38v-2.28h1.38c.49,0,.92-.08,1.3-.25s.68-.4.88-.7.3-.64.3-1.03c0-.38-.08-.71-.26-1s-.43-.51-.77-.67-.72-.24-1.15-.24-.84.08-1.2.23c-.36.15-.65.37-.88.66-.22.28-.34.61-.36.99h-2.95c.03-.84.28-1.59.75-2.25s1.11-1.17,1.92-1.53c.81-.37,1.72-.55,2.72-.55s1.92.18,2.7.54,1.38.86,1.82,1.5.64,1.35.62,2.13c.01.54-.1,1.03-.33,1.48-.24.44-.57.81-.99,1.09-.43.28-.92.48-1.48.58v.11c.72.09,1.34.29,1.85.6.51.31.89.71,1.15,1.19s.38,1.04.37,1.66c.01.83-.23,1.57-.72,2.24-.49.67-1.18,1.19-2.05,1.56s-1.86.56-2.96.56-2.05-.18-2.9-.55Z"/><path class="cls-1" d="M718.82,221.15c-.89-.59-1.58-1.46-2.05-2.61-.47-1.14-.71-2.52-.71-4.13s.24-2.98.71-4.12c.48-1.14,1.16-2.01,2.06-2.61s1.96-.9,3.19-.9,2.29.3,3.19.9,1.58,1.47,2.06,2.61c.48,1.15.72,2.52.72,4.12s-.24,2.99-.71,4.13c-.47,1.14-1.16,2.01-2.06,2.6s-1.96.89-3.2.89-2.3-.3-3.19-.89ZM723.51,218.94c.43-.38.75-.94.98-1.71.23-.76.33-1.7.33-2.81,0-1.11-.11-2.04-.34-2.8-.23-.76-.55-1.33-.97-1.72s-.92-.57-1.5-.57-1.07.19-1.49.57c-.42.38-.75.96-.98,1.72-.23.76-.35,1.7-.35,2.8s.11,2.05.34,2.81c.23.76.56,1.33.98,1.71s.92.56,1.5.56,1.08-.19,1.5-.56Z"/><path class="cls-1" d="M736.53,209.62v-.09h-7.28v-2.53h10.48v2.57l-6.26,12.27h-3.18l6.24-12.22Z"/></g><g id="section306"><rect class="cls-3" x="680.2" y="77.68" width="78.76" height="87.27" rx="5" ry="5"/><path class="cls-1" d="M704.45,125.07c-.85-.37-1.52-.89-2-1.56-.48-.67-.73-1.43-.75-2.28h3.11c.02.35.14.66.37.94s.53.5.91.66.81.24,1.27.24.92-.09,1.32-.26c.39-.17.7-.41.91-.72s.31-.65.31-1.04c0-.4-.1-.76-.33-1.08s-.55-.56-.98-.73c-.43-.17-.93-.26-1.5-.26h-1.38v-2.28h1.38c.49,0,.92-.08,1.3-.25s.68-.4.88-.7.3-.64.3-1.03c0-.38-.08-.71-.26-1s-.43-.51-.77-.67-.72-.24-1.15-.24-.84.08-1.2.23c-.36.15-.66.37-.88.66-.22.28-.34.61-.36.99h-2.95c.03-.84.28-1.59.75-2.25s1.11-1.17,1.92-1.53c.81-.37,1.72-.55,2.72-.55s1.92.18,2.7.54,1.38.86,1.81,1.5.64,1.35.63,2.13c.01.54-.1,1.03-.33,1.48-.24.44-.57.81-.99,1.09-.43.28-.92.48-1.48.58v.11c.72.09,1.34.29,1.85.6.51.31.89.71,1.15,1.19s.38,1.04.37,1.66c.01.83-.23,1.57-.72,2.24-.49.67-1.18,1.19-2.05,1.56s-1.86.56-2.96.56-2.05-.18-2.9-.55Z"/><path class="cls-1" d="M717.84,124.73c-.89-.59-1.58-1.46-2.05-2.61-.48-1.14-.71-2.52-.71-4.13s.24-2.98.71-4.12c.47-1.14,1.16-2.01,2.06-2.61s1.96-.9,3.19-.9,2.29.3,3.19.9,1.58,1.47,2.06,2.61c.48,1.15.72,2.52.72,4.12s-.24,2.99-.71,4.13c-.48,1.14-1.16,2.01-2.06,2.6s-1.96.89-3.2.89-2.3-.3-3.19-.89ZM722.53,122.52c.43-.38.75-.94.98-1.71.23-.76.33-1.7.33-2.81,0-1.11-.11-2.04-.34-2.8-.23-.76-.55-1.33-.97-1.72s-.92-.57-1.5-.57-1.07.19-1.49.57c-.42.38-.75.96-.98,1.72-.23.76-.35,1.7-.35,2.8s.11,2.05.34,2.81c.23.76.56,1.33.98,1.71s.92.56,1.5.56,1.07-.19,1.5-.56Z"/><path class="cls-1" d="M731.89,124.9c-.9-.48-1.62-1.26-2.17-2.35s-.83-2.49-.83-4.21.25-3.07.75-4.27c.5-1.2,1.21-2.12,2.13-2.75.92-.63,1.99-.95,3.22-.95.98,0,1.85.19,2.62.56.77.38,1.39.89,1.86,1.55s.76,1.39.86,2.21h-3.04c-.08-.35-.23-.65-.44-.91-.21-.26-.47-.45-.79-.58s-.67-.19-1.08-.19c-.66,0-1.22.19-1.68.57-.46.38-.8.92-1.04,1.62s-.36,1.55-.37,2.53h.12c.23-.44.54-.81.93-1.12.39-.31.83-.55,1.32-.72.5-.17,1.01-.25,1.55-.25.88,0,1.68.21,2.39.62s1.27.98,1.67,1.71c.4.73.6,1.55.6,2.48,0,1-.23,1.89-.7,2.68-.47.79-1.13,1.4-1.98,1.84-.85.44-1.83.66-2.93.66-1.1,0-2.1-.25-2.99-.73ZM736.21,122.84c.4-.24.71-.56.94-.96.23-.41.34-.85.34-1.34s-.11-.95-.34-1.35-.54-.72-.93-.94-.84-.34-1.34-.34-.94.12-1.34.35-.72.55-.95.95-.36.85-.37,1.34c0,.47.12.91.35,1.31.23.4.54.73.94.97.4.24.85.36,1.35.36s.95-.12,1.35-.35Z"/></g><g id="sectionF8"><path class="cls-5" d="M528.58,253.64h77.41c.44,0,.87.18,1.18.49l.09.09c.31.31.49.74.49,1.18v159.7c0,1.34-.54,2.62-1.49,3.56l-11.62,11.48c-.35.35-.75.64-1.18.87-.66.34-1.51.73-1.68.73h-63.2c-.44,0-.87-.18-1.18-.49l-.09-.09c-.31-.31-.49-.74-.49-1.18v-174.58c0-.44.18-.87.49-1.18l.09-.09c.31-.31.74-.49,1.18-.49Z"/><path class="cls-1" d="M557.99,334.33h9.78v2.54h-6.71v3.61h6.06v2.53h-6.06v6.16h-3.08v-14.85Z"/><path class="cls-1" d="M572.3,348.84c-.88-.36-1.58-.86-2.08-1.51s-.75-1.36-.75-2.15c0-.61.14-1.18.43-1.71s.68-.97,1.17-1.31c.5-.34,1.05-.56,1.66-.65v-.11c-.52-.1-.98-.31-1.39-.62s-.73-.7-.96-1.16c-.23-.46-.35-.96-.35-1.5,0-.76.23-1.44.69-2.06s1.09-1.09,1.89-1.43,1.7-.51,2.69-.51,1.9.17,2.7.51c.8.34,1.43.82,1.89,1.43.45.61.68,1.3.68,2.06,0,.53-.12,1.03-.35,1.5-.24.46-.56.85-.96,1.16-.41.31-.87.52-1.4.62v.11c.61.09,1.16.3,1.66.65.5.34.89.78,1.18,1.31s.44,1.1.44,1.71c0,.79-.25,1.51-.75,2.15-.5.64-1.2,1.15-2.08,1.51-.88.36-1.88.54-3,.54s-2.1-.18-2.99-.54ZM576.65,346.75c.4-.18.7-.44.92-.77s.33-.7.33-1.11c0-.43-.11-.82-.34-1.16s-.54-.61-.93-.8-.84-.29-1.34-.29-.94.1-1.33.29-.71.46-.93.8c-.22.34-.33.73-.33,1.16,0,.41.1.78.32,1.11s.53.58.92.77.85.28,1.35.28.97-.09,1.36-.28ZM576.45,340.19c.34-.17.61-.41.8-.72s.29-.65.29-1.03-.09-.73-.28-1.04c-.19-.3-.45-.53-.8-.7-.34-.17-.74-.25-1.17-.25s-.82.08-1.16.25c-.34.17-.61.4-.8.7-.19.3-.28.65-.28,1.04s.1.73.29,1.03c.19.3.46.54.8.72.34.17.72.26,1.15.26s.82-.09,1.16-.26Z"/></g><g id="sectionF7"><path class="cls-5" d="M438.12,253.64h73.83c2.76,0,5,2.24,5,5v168.09c0,2.76-2.24,5-5,5h-73.83c-2.76,0-5-2.24-5-5v-168.09c0-2.76,2.24-5,5-5Z"/><path class="cls-1" d="M465.44,334.05h9.78v2.54h-6.71v3.61h6.06v2.53h-6.06v6.16h-3.08v-14.85Z"/><path class="cls-1" d="M483.99,336.68v-.09h-7.28v-2.53h10.48v2.57l-6.27,12.27h-3.18l6.24-12.22Z"/></g><g id="sectionF6"><path class="cls-5" d="M342.93,253.64h73.83c2.76,0,5,2.24,5,5v168.09c0,2.76-2.24,5-5,5h-73.83c-2.76,0-5-2.24-5-5v-168.09c0-2.76,2.24-5,5-5Z"/><path class="cls-1" d="M368.8,333.99h9.78v2.54h-6.71v3.61h6.06v2.53h-6.06v6.16h-3.08v-14.85Z"/><path class="cls-1" d="M383.28,348.32c-.9-.48-1.62-1.26-2.17-2.35-.55-1.09-.83-2.49-.83-4.21s.25-3.07.75-4.27c.5-1.2,1.21-2.12,2.13-2.75.92-.63,1.99-.95,3.22-.95.98,0,1.85.19,2.62.56.77.38,1.39.89,1.86,1.55.47.66.76,1.39.86,2.21h-3.05c-.08-.35-.23-.65-.44-.91-.21-.26-.47-.45-.78-.58-.32-.13-.67-.19-1.08-.19-.66,0-1.22.19-1.68.57-.45.38-.8.92-1.04,1.62s-.36,1.55-.37,2.53h.12c.23-.44.54-.81.93-1.12.39-.31.83-.55,1.32-.72.5-.17,1.01-.25,1.55-.25.88,0,1.68.21,2.39.62s1.27.98,1.67,1.71c.4.73.6,1.55.6,2.48,0,1-.23,1.89-.7,2.68-.47.79-1.13,1.4-1.98,1.84-.85.44-1.83.66-2.93.66-1.1,0-2.1-.25-2.99-.73ZM387.6,346.26c.4-.24.71-.56.94-.96.23-.41.34-.85.34-1.34s-.11-.95-.34-1.35c-.22-.4-.54-.72-.93-.94s-.84-.34-1.34-.34-.94.12-1.34.35-.72.55-.95.95c-.23.4-.36.85-.37,1.34,0,.47.12.91.35,1.31.23.4.54.73.94.97.4.24.85.36,1.35.36s.95-.12,1.35-.35Z"/></g><g id="sectionF5"><path class="cls-5" d="M328.06,258.64v171.33c0,.44-.18.87-.49,1.18l-.09.09c-.31.31-.74.49-1.18.49h-63.2c-1.94,0-10.99-9.57-14.72-13.79-.81-.92-1.26-2.09-1.26-3.32v-159.23c0-.44.18-.87.49-1.18l.09-.09c.31-.31.74-.49,1.18-.49h74.17c2.76,0,5,2.24,5,5Z"/><path class="cls-1" d="M275.65,333.75h9.78v2.54h-6.71v3.61h6.06v2.53h-6.06v6.16h-3.08v-14.85Z"/><path class="cls-1" d="M290.07,348.24c-.82-.38-1.46-.9-1.93-1.57-.47-.67-.71-1.42-.73-2.26h2.98c.03.38.16.72.38,1.02.22.29.51.52.87.69.36.17.75.25,1.17.25.51,0,.96-.11,1.36-.34.4-.23.71-.54.94-.94.23-.4.34-.85.34-1.36s-.12-.99-.34-1.39c-.23-.4-.55-.71-.95-.94-.41-.23-.87-.34-1.39-.34-.55,0-1.02.09-1.4.3s-.69.52-.91.94h-2.8l.81-8.55h9.14v2.53h-6.59l-.41,3.74h.11c.29-.38.7-.68,1.23-.91s1.12-.35,1.75-.35c.89,0,1.71.21,2.43.62.73.41,1.3.99,1.7,1.74.41.75.61,1.59.6,2.53,0,.98-.23,1.87-.7,2.65-.47.78-1.14,1.39-1.98,1.84-.85.44-1.82.66-2.92.66-1.01,0-1.93-.19-2.75-.56Z"/></g><g id="sectionF4"><path class="cls-5" d="M541.75,101.8h61.01c2.76,0,5,2.24,5,5v126.25c0,2.76-2.24,5-5,5h-61.01c-2.76,0-5-2.24-5-5v-126.25c0-2.76,2.24-5,5-5Z"/><path class="cls-1" d="M561.94,161.35h9.78v2.54h-6.71v3.61h6.06v2.53h-6.06v6.16h-3.08v-14.85Z"/><path class="cls-1" d="M573.41,171.13l6.28-9.78h2.09v3.38h-1.25l-4,6.23v.12h8.91v2.48h-12.03v-2.44ZM580.62,172.82l.04-1.08v-10.4h2.9v14.85h-2.94v-3.37Z"/></g><g id="sectionF3"><path class="cls-5" d="M522.94,237.32h-27.01c-1.36,0-2.47-1.1-2.47-2.47v-95.82c0-1.36-1.1-2.47-2.47-2.47h-41.9s0,0,0,0c-1.09-.08-1.77-1.28-1.77-2.37v-30.03c0-1.09.68-2.29,1.77-2.37,0,0,0,0,0,0h74.5c.48,0,.94.19,1.28.53h0c.34.34.53.8.53,1.29v131.23c0,1.36-1.1,2.47-2.47,2.47Z"/><path class="cls-1" d="M471.3,111.14h9.78v2.54h-6.71v3.61h6.06v2.53h-6.06v6.16h-3.08v-14.85Z"/><path class="cls-1" d="M485.62,125.64c-.85-.37-1.52-.89-2-1.56-.48-.67-.73-1.43-.75-2.28h3.11c.02.35.14.66.37.94s.53.5.91.66c.38.16.81.24,1.27.24s.92-.09,1.32-.26c.39-.17.7-.41.91-.72s.31-.65.31-1.04c0-.4-.1-.76-.33-1.08s-.55-.56-.98-.73c-.43-.17-.93-.26-1.5-.26h-1.38v-2.28h1.38c.49,0,.92-.08,1.3-.25.38-.17.68-.4.88-.7s.3-.64.3-1.03c0-.38-.08-.71-.26-1s-.43-.51-.77-.67-.72-.24-1.15-.24-.84.08-1.2.23c-.36.15-.65.37-.88.66-.22.28-.34.61-.36.99h-2.95c.03-.84.28-1.59.75-2.25.47-.66,1.11-1.17,1.92-1.53.81-.37,1.72-.55,2.72-.55s1.92.18,2.7.54,1.38.86,1.82,1.5.64,1.35.63,2.13c.01.54-.1,1.03-.33,1.48-.24.44-.57.81-.99,1.09-.43.28-.92.48-1.48.58v.11c.72.09,1.34.29,1.85.6.51.31.89.71,1.15,1.19s.38,1.04.37,1.66c.01.83-.23,1.57-.72,2.24-.49.67-1.18,1.19-2.05,1.56s-1.86.56-2.96.56-2.05-.18-2.9-.55Z"/></g><g id="sectionF2"><path class="cls-5" d="M360.75,141.6l.61,90.78c.02,2.72-2.15,4.96-4.87,5.03l-25.21.66c-.59.03-1.79-.72-1.79-1.1V103.62c0-.48.19-.94.53-1.29h0c.34-.34.8-.53,1.28-.53h73.74c.48,0,.94.19,1.28.53h0c.34.34.53.8.53,1.29v31.13c0,.48-.19.94-.53,1.29h0c-.34.34-.8.53-1.28.53h-39.29c-2.77,0-5.02,2.26-5,5.03Z"/><path class="cls-1" d="M354.67,111.14h9.78v2.54h-6.71v3.61h6.06v2.53h-6.06v6.16h-3.08v-14.85Z"/><path class="cls-1" d="M366.37,123.76l5.34-4.91c.53-.51.94-.92,1.23-1.26s.52-.67.67-1c.15-.34.23-.7.23-1.08,0-.42-.1-.8-.31-1.12-.21-.32-.49-.57-.84-.74s-.76-.26-1.21-.26-.86.09-1.22.28c-.35.18-.62.45-.81.8-.19.35-.28.76-.28,1.23h-2.93c0-.95.22-1.79.66-2.51.44-.72,1.06-1.28,1.86-1.67.8-.39,1.71-.58,2.75-.58s1.97.18,2.77.55,1.42.89,1.86,1.55c.44.66.66,1.42.66,2.28,0,.58-.11,1.14-.33,1.68-.22.54-.61,1.14-1.17,1.79-.56.66-1.35,1.45-2.37,2.38l-2.27,2.18v.1h6.36v2.53h-10.64v-2.23Z"/></g><g id="sectionF1"><path class="cls-5" d="M318.19,106.8v126.25c0,2.76-2.24,5-5,5h-61.06c-2.76,0-5-2.24-5-5v-126.25c0-2.76,2.24-5,5-5h61.06c2.76,0,5,2.24,5,5Z"/><path class="cls-1" d="M274.46,161.67h9.78v2.54h-6.71v3.61h6.06v2.53h-6.06v6.16h-3.08v-14.85Z"/><path class="cls-1" d="M292.56,176.51h-3.1v-11.92h-.08l-3.39,2.15v-2.75l3.67-2.34h2.9v14.85Z"/></g></svg>