<?xml version="1.0" encoding="UTF-8"?><svg xmlns="http://www.w3.org/2000/svg" viewBox="0 0 787.22 553.32"><defs><style>.cls-1{fill:#cecece;}.cls-2{fill:#95d680;}.cls-3{fill:#88b789;}.cls-4{fill:#c6f6b8;}.cls-5{fill:#124c04;}</style></defs><g id="stage"><path class="cls-1" d="M537.88,5v36.57c0,2.76-2.24,5-5,5h-114.74c-2.76,0-5,2.24-5,5v102.68c0,2.76,2.24,5,5,5h45.61c2.76,0,5,2.24,5,5v57.61c0,2.76-2.24,5-5,5h-138.78c-2.76,0-5-2.24-5-5v-57.61c0-2.76,2.24-5,5-5h45.61c2.76,0,5-2.24,5-5V51.57c0-2.76-2.24-5-5-5h-117.74c-2.76,0-5-2.24-5-5V5c0-2.76,2.24-5,5-5h280.05c2.76,0,5,2.24,5,5Z"/><path class="cls-5" d="M363.4,19c-.21-.32-.51-.56-.91-.72-.4-.16-.9-.24-1.5-.24-.55,0-1,.07-1.37.21s-.65.33-.83.57c-.19.24-.28.52-.28.83-.02.5.19.9.63,1.2s1.13.57,2.09.79l1.65.33c2.11.46,3.65,1.19,4.64,2.19.99,1.01,1.49,2.29,1.51,3.85,0,1.29-.32,2.38-.96,3.27-.64.9-1.56,1.59-2.75,2.06s-2.62.72-4.29.72-3.22-.26-4.48-.78-2.24-1.31-2.93-2.36-1.04-2.37-1.07-3.96h4.98c.04.6.2,1.11.48,1.54s.67.74,1.18.96c.5.21,1.09.32,1.78.32.58,0,1.08-.08,1.49-.23.41-.15.72-.36.94-.63.21-.26.32-.57.32-.92,0-.33-.1-.61-.3-.85-.2-.24-.52-.45-.97-.64-.45-.19-1.03-.36-1.76-.51l-2-.45c-1.81-.38-3.2-1.03-4.16-1.93-.96-.91-1.44-2.11-1.44-3.62,0-1.23.34-2.32,1.01-3.26s1.61-1.68,2.81-2.2c1.2-.52,2.57-.79,4.11-.79s2.93.26,4.09.79c1.16.52,2.06,1.27,2.7,2.24.64.97.96,2.09.96,3.36h-4.99c-.04-.45-.16-.83-.37-1.15Z"/><path class="cls-5" d="M370.58,14.04h17.08v4.2h-5.97v15.6h-5.11v-15.6h-5.99v-4.2Z"/><path class="cls-5" d="M386.53,33.84l6.58-19.8h7.07l6.58,19.8h-5.62l-4.4-14.48h-.16l-4.42,14.48h-5.62ZM402.04,26.02v3.92h-10.87v-3.92h10.87Z"/><path class="cls-5" d="M420.04,19.33c-.3-.34-.67-.59-1.11-.77-.44-.17-.96-.26-1.55-.26-.91,0-1.69.22-2.34.66s-1.15,1.08-1.5,1.92c-.35.84-.53,1.85-.53,3.03s.17,2.21.5,3.06c.33.84.82,1.49,1.47,1.93.65.45,1.44.67,2.37.67.82,0,1.52-.12,2.09-.38.57-.25,1-.61,1.29-1.07s.42-1.01.42-1.64l.93.11h-4.62v-3.76h8.71v2.72c0,1.76-.38,3.28-1.13,4.57-.75,1.29-1.8,2.28-3.13,2.96s-2.86,1.03-4.59,1.03c-1.91,0-3.59-.41-5.04-1.23s-2.59-2-3.4-3.53-1.21-3.33-1.21-5.39.42-3.94,1.27-5.48c.85-1.54,2-2.71,3.45-3.51,1.45-.8,3.08-1.2,4.87-1.2,1.54,0,2.94.29,4.21.87,1.27.58,2.29,1.38,3.08,2.41.78,1.03,1.25,2.2,1.39,3.51h-5.28c-.12-.48-.33-.89-.62-1.23Z"/><path class="cls-5" d="M428.74,14.04h14.14v4.2h-8.94v3.6h8.22v4.2h-8.22v3.61h8.9v4.2h-14.1V14.04Z"/></g><g id="sectionA"><path class="cls-3" d="M368.06,65.09v77.14c0,2.76-2.24,5-5,5h-44.1c-2.76,0-5,2.24-5,5v39.58c0,2.76-2.24,5-5,5h-53.12c-2.76,0-5-2.24-5-5v-126.71c0-2.76,2.24-5,5-5h107.22c2.76,0,5,2.24,5,5Z"/><path class="cls-5" d="M297.84,120.14l5.86-16.97h4.52l5.87,16.97h-3.79l-4.28-13.14h-.14l-4.29,13.14h-3.76ZM310.47,113.47v2.75h-9.06v-2.75h9.06Z"/></g><g id="sectionB"><path class="cls-3" d="M536.38,65.09v126.71c0,2.76-2.24,5-5,5h-53.12c-2.76,0-5-2.24-5-5v-39.58c0-2.76-2.24-5-5-5h-44.1c-2.76,0-5-2.24-5-5v-77.14c0-2.76,2.24-5,5-5h107.22c2.76,0,5,2.24,5,5Z"/><path class="cls-5" d="M480.03,103.17h6.75c1.21,0,2.24.18,3.08.54s1.48.87,1.9,1.52.64,1.42.64,2.29c0,.64-.13,1.21-.39,1.71s-.62.91-1.08,1.24-.99.55-1.59.69v.16c.65.03,1.26.22,1.83.56s1.03.82,1.37,1.44.52,1.33.52,2.14c0,.91-.22,1.71-.67,2.41s-1.11,1.26-1.99,1.66-1.94.6-3.18.6h-7.2v-16.97ZM487.58,110.02c.39-.18.7-.43.93-.76s.33-.71.33-1.16c0-.42-.1-.79-.29-1.1s-.48-.55-.86-.71-.83-.25-1.37-.25h-2.78v4.25h2.71c.49,0,.94-.09,1.33-.27ZM488.15,116.98c.43-.18.75-.42.96-.74s.3-.69.3-1.13c0-.47-.11-.89-.34-1.27s-.55-.66-.98-.86-.92-.3-1.49-.3h-3.06v4.56h2.96c.66,0,1.21-.09,1.65-.26Z"/></g><g id="sectionC"><path class="cls-3" d="M310.95,212.32v18.54c0,2.76,2.24,5,5,5h59.13c2.76,0,5,2.24,5,5v60.61c0,2.76-2.24,5-5,5h-119.24c-2.76,0-5-2.24-5-5v-89.15c0-2.76,2.24-5,5-5h50.11c2.76,0,5,2.24,5,5Z"/><path class="cls-5" d="M309.49,256.09c-.33-.46-.76-.81-1.29-1.05s-1.12-.36-1.77-.36c-.88,0-1.65.22-2.31.66s-1.17,1.08-1.54,1.92-.55,1.85-.55,3.02.18,2.22.55,3.05.88,1.46,1.54,1.9,1.42.65,2.28.65c.65,0,1.23-.12,1.75-.35s.95-.57,1.29-1,.57-.95.68-1.55l3.57.04c-.13,1.06-.51,2.05-1.14,2.96s-1.47,1.65-2.54,2.2-2.29.83-3.67.83c-1.52,0-2.87-.35-4.07-1.04s-2.13-1.7-2.81-3.01-1.01-2.87-1.01-4.67.34-3.38,1.03-4.69,1.62-2.31,2.81-3,2.54-1.03,4.05-1.03c1.3,0,2.48.24,3.54.73s1.91,1.19,2.57,2.12,1.07,2.03,1.24,3.31h-3.57c-.09-.62-.29-1.17-.63-1.62Z"/></g><g id="sectionD"><path class="cls-3" d="M536.38,210.82v89.15c0,2.76-2.24,5-5,5h-119.24c-2.76,0-5-2.24-5-5v-60.61c0-2.76,2.24-5,5-5h59.13c2.76,0,5-2.24,5-5v-18.54c0-2.76,2.24-5,5-5h50.11c2.76,0,5,2.24,5,5Z"/><path class="cls-5" d="M481.98,268.77h-3.52v-16.97h3.52v16.97ZM480.04,268.77v-3.02h4.25c1.09,0,2-.2,2.73-.59s1.27-.99,1.64-1.8.55-1.84.55-3.09-.18-2.28-.54-3.09-.91-1.4-1.63-1.79-1.63-.57-2.72-.57h-4.36v-3.02h4.54c1.7,0,3.17.34,4.41,1.01s2.19,1.65,2.85,2.92.99,2.79.99,4.54-.33,3.27-1,4.55-1.62,2.25-2.87,2.93-2.72,1.02-4.44,1.02h-4.41Z"/></g><g id="section18"><path class="cls-2" d="M104.3,84.04l84.82,8.64c2.6.26,4.56,2.49,4.49,5.1l-1.82,73.77c-.06,2.43-1.86,4.46-4.26,4.82l-80.66,12c-2.97.44-5.66-1.82-5.73-4.82l-2.34-94.41c-.07-3.01,2.51-5.4,5.51-5.1Z"/><path class="cls-5" d="M138.56,143.92h-3.54v-13.62h-.09l-3.88,2.46v-3.14l4.2-2.67h3.32v16.97Z"/><path class="cls-5" d="M145.47,143.54c-1.01-.41-1.8-.99-2.37-1.72s-.86-1.55-.86-2.46c0-.7.16-1.35.49-1.95s.78-1.1,1.34-1.49,1.2-.64,1.89-.74v-.13c-.59-.12-1.12-.35-1.59-.71s-.84-.8-1.1-1.33-.4-1.1-.4-1.71c0-.87.26-1.65.79-2.35s1.24-1.24,2.16-1.63,1.94-.59,3.07-.59,2.17.2,3.09.59,1.64.94,2.16,1.63.78,1.48.78,2.35c0,.61-.13,1.18-.4,1.71s-.64.97-1.1,1.33-1,.59-1.6.71v.13c.7.1,1.33.35,1.89.74s1.02.89,1.35,1.49.5,1.26.5,1.95c0,.91-.29,1.73-.86,2.46s-1.37,1.31-2.38,1.72-2.15.62-3.43.62-2.4-.21-3.42-.62ZM150.45,141.16c.45-.21.8-.5,1.05-.88s.38-.8.38-1.27c0-.49-.13-.93-.39-1.32s-.61-.7-1.07-.91-.96-.33-1.54-.33-1.07.11-1.52.33-.81.52-1.07.91-.38.83-.38,1.32c0,.47.11.89.36,1.27s.6.67,1.05.88.97.32,1.55.32,1.11-.11,1.56-.32ZM150.22,133.65c.39-.2.7-.47.92-.82s.33-.74.33-1.18-.11-.84-.32-1.18-.52-.61-.91-.8-.84-.29-1.34-.29-.94.1-1.33.29-.7.46-.91.8-.32.74-.32,1.18.11.83.33,1.18.53.62.92.82.83.3,1.31.3.94-.1,1.33-.3Z"/></g><g id="section17"><path class="cls-2" d="M107.48,197.68l81.3-14.99c2.73-.5,5.35,1.31,5.83,4.05l9.89,56.13c.36,2.06-.6,4.14-2.41,5.19l-70.31,40.92c-2.87,1.67-6.54.13-7.36-3.09l-20.88-82.05c-.71-2.8,1.09-5.63,3.94-6.15Z"/><path class="cls-5" d="M147.31,237.8h-3.54v-13.62h-.09l-3.88,2.46v-3.14l4.2-2.67h3.32v16.97Z"/><path class="cls-5" d="M159.06,223.84v-.11h-8.32v-2.89h11.98v2.94l-7.16,14.03h-3.63l7.14-13.97Z"/></g><g id="section16"><path class="cls-2" d="M136.64,296.59l65.96-39.76c2.43-1.47,5.6-.61,6.97,1.88l29.69,54.22c.95,1.73.79,3.85-.4,5.42l-38.4,50.82c-1.91,2.53-5.66,2.66-7.75.28l-57.25-65.28c-2.05-2.34-1.49-5.97,1.18-7.58Z"/><path class="cls-5" d="M185.49,321.26h-3.54v-13.62h-.09l-3.88,2.46v-3.14l4.2-2.67h3.32v16.97Z"/><path class="cls-5" d="M192.59,320.67c-1.02-.55-1.85-1.44-2.48-2.68s-.95-2.85-.95-4.82.29-3.51.86-4.88,1.39-2.42,2.44-3.14,2.28-1.08,3.69-1.08c1.12,0,2.12.21,2.99.64s1.59,1.02,2.13,1.77.87,1.59.98,2.53h-3.48c-.09-.4-.26-.74-.5-1.04s-.54-.51-.9-.66-.77-.22-1.23-.22c-.76,0-1.4.22-1.92.65s-.92,1.05-1.19,1.86-.41,1.77-.42,2.89h.14c.27-.5.62-.93,1.06-1.28s.95-.63,1.51-.82,1.16-.29,1.78-.29c1.01,0,1.92.23,2.73.7s1.45,1.12,1.9,1.95.69,1.78.69,2.83c0,1.14-.27,2.16-.8,3.06s-1.29,1.6-2.26,2.1-2.09.76-3.35.76c-1.26,0-2.4-.29-3.42-.83ZM197.53,318.32c.46-.27.82-.64,1.08-1.1s.39-.97.39-1.53-.13-1.09-.39-1.55-.61-.82-1.07-1.08-.96-.39-1.54-.39-1.07.13-1.54.4-.82.63-1.09,1.09-.41.97-.42,1.54c0,.54.14,1.04.4,1.5s.62.83,1.08,1.11.97.42,1.54.42,1.08-.13,1.54-.4Z"/></g><g id="section15"><path class="cls-2" d="M249.95,325.66l51.27,41.72c1.48,1.21,2.15,3.16,1.71,5.02l-14.01,59.7c-.82,3.47-4.9,5-7.79,2.91l-72.79-52.52c-2.24-1.62-2.75-4.75-1.12-6.99l35.53-48.9c1.69-2.32,4.98-2.75,7.2-.94Z"/><path class="cls-5" d="M252.77,387.13h-3.54v-13.62h-.09l-3.88,2.46v-3.14l4.2-2.67h3.32v16.97Z"/><path class="cls-5" d="M259.81,386.72c-.94-.43-1.67-1.03-2.21-1.79s-.81-1.62-.84-2.58h3.41c.04.44.19.82.44,1.16s.59.6,1,.79.86.29,1.34.29c.58,0,1.1-.13,1.55-.39s.81-.62,1.07-1.07.39-.97.39-1.55-.13-1.13-.39-1.59-.62-.82-1.09-1.08-.99-.39-1.59-.39c-.63,0-1.17.11-1.61.34s-.79.59-1.04,1.08h-3.2l.93-9.77h10.44v2.89h-7.54l-.47,4.28h.13c.33-.43.8-.78,1.41-1.04s1.28-.4,2-.4c1.02,0,1.95.24,2.78.71s1.48,1.13,1.95,1.99.69,1.82.69,2.89c0,1.12-.26,2.13-.8,3.03s-1.3,1.59-2.27,2.1-2.08.76-3.34.76c-1.16,0-2.2-.21-3.14-.64Z"/></g><g id="section14"><path class="cls-2" d="M314.56,371.42l68.33,3.9c2.64.15,4.71,2.34,4.72,4.99l.06,66.62c0,3.01-2.64,5.34-5.62,4.97l-80.88-10.18c-2.89-.36-4.86-3.12-4.27-5.97l12.49-60.33c.5-2.43,2.71-4.12,5.18-3.98Z"/><path class="cls-5" d="M341.82,420.15h-3.54v-13.62h-.09l-3.88,2.46v-3.14l4.2-2.67h3.32v16.97Z"/><path class="cls-5" d="M345.49,414.36l7.17-11.18h2.39v3.87h-1.43l-4.57,7.12v.14h10.18v2.84h-13.75v-2.79ZM353.72,416.29l.05-1.23v-11.88h3.32v16.97h-3.36v-3.86Z"/></g><g id="section13"><path class="cls-2" d="M403.15,375.62l70.56.47c2.35.02,4.38,1.67,4.86,3.98l12.58,60.24c.62,2.95-1.5,5.77-4.51,6.01l-83.17,6.44c-2.91.22-5.39-2.07-5.39-4.99l.02-67.15c0-2.77,2.26-5.02,5.03-5Z"/><path class="cls-5" d="M436.35,422.09h-3.54v-13.62h-.09l-3.88,2.46v-3.14l4.2-2.67h3.32v16.97Z"/><path class="cls-5" d="M443.28,421.69c-.98-.42-1.74-1.02-2.29-1.78s-.84-1.63-.86-2.6h3.55c.02.4.16.76.42,1.08s.61.57,1.04.75.92.27,1.45.27,1.06-.1,1.51-.3.79-.47,1.04-.82.36-.74.35-1.19c0-.46-.12-.87-.38-1.23s-.63-.64-1.12-.84-1.06-.3-1.72-.3h-1.58v-2.6h1.58c.55,0,1.05-.1,1.49-.29s.77-.46,1.01-.8.35-.73.34-1.17c0-.43-.09-.81-.29-1.14s-.5-.59-.88-.77-.82-.27-1.31-.27-.96.09-1.37.26-.75.43-1,.75-.39.7-.42,1.13h-3.38c.03-.96.32-1.82.86-2.57s1.27-1.33,2.2-1.75,1.96-.63,3.11-.63,2.19.21,3.08.62,1.58.98,2.07,1.71.73,1.54.71,2.44c.02.62-.11,1.18-.38,1.69s-.65.92-1.14,1.25-1.05.54-1.69.66v.13c.83.1,1.53.33,2.12.69s1.02.81,1.32,1.37.44,1.19.42,1.9c.02.95-.26,1.8-.82,2.56s-1.34,1.36-2.34,1.79-2.13.64-3.39.64-2.34-.21-3.32-.63Z"/></g><g id="section12"><path class="cls-2" d="M487.9,372.16l50.15-44.29c2.2-1.94,5.6-1.58,7.34.79l35.77,48.66c1.62,2.2,1.17,5.29-1,6.94l-71.13,54.16c-2.85,2.17-7,.72-7.88-2.75l-14.79-58.53c-.46-1.81.13-3.73,1.54-4.97Z"/><path class="cls-5" d="M525.47,389.56h-3.54v-13.62h-.09l-3.88,2.46v-3.14l4.2-2.67h3.32v16.97Z"/><path class="cls-5" d="M529.4,387.02l6.11-5.61c.6-.58,1.07-1.06,1.41-1.44s.59-.76.77-1.15.26-.8.26-1.24c0-.48-.12-.91-.35-1.28s-.55-.65-.96-.85-.87-.29-1.38-.29-.99.11-1.39.32-.71.52-.93.92-.32.87-.32,1.4h-3.35c0-1.09.25-2.04.76-2.87s1.21-1.46,2.12-1.9,1.96-.67,3.15-.67,2.25.21,3.16.63,1.62,1.01,2.13,1.77.76,1.62.76,2.6c0,.66-.13,1.3-.38,1.92s-.7,1.3-1.34,2.05-1.54,1.66-2.71,2.72l-2.59,2.5v.12h7.27v2.89h-12.16v-2.54Z"/></g><g id="section11"><path class="cls-2" d="M580.27,257.51l-29.47,57.28c-.87,1.7-.7,3.75.44,5.28l35.31,47.26c1.97,2.64,5.91,2.68,7.94.09l52.58-67.15c1.82-2.32,1.24-5.7-1.24-7.29l-58.42-37.39c-2.48-1.59-5.79-.7-7.14,1.92Z"/><path class="cls-5" d="M596.81,321.45h-3.54v-13.62h-.09l-3.88,2.46v-3.14l4.2-2.67h3.32v16.97Z"/><path class="cls-5" d="M608.06,321.45h-3.54v-13.62h-.09l-3.88,2.46v-3.14l4.2-2.67h3.32v16.97Z"/></g><g id="section10"><path class="cls-2" d="M598.69,181.29l82.23,15.91c3.01.58,4.8,3.72,3.75,6.61l-28.42,78.68c-1.1,3.03-4.73,4.25-7.44,2.49l-61.06-39.85c-1.61-1.05-2.48-2.94-2.22-4.84l7.24-54.75c.38-2.85,3.08-4.8,5.91-4.25Z"/><path class="cls-5" d="M629.12,236.32h-3.54v-13.62h-.09l-3.88,2.46v-3.14l4.2-2.67h3.32v16.97Z"/><path class="cls-5" d="M636.01,235.54c-1.02-.68-1.8-1.67-2.34-2.98s-.81-2.88-.81-4.72.27-3.41.81-4.71,1.33-2.3,2.35-2.98,2.24-1.03,3.64-1.03,2.62.34,3.64,1.03,1.81,1.68,2.36,2.99.82,2.88.82,4.71-.27,3.42-.81,4.72-1.33,2.3-2.35,2.98-2.24,1.02-3.66,1.02-2.63-.34-3.65-1.02ZM641.38,233.01c.49-.43.86-1.08,1.12-1.95s.38-1.94.38-3.22c0-1.27-.13-2.33-.39-3.21s-.63-1.53-1.11-1.96-1.05-.66-1.71-.66-1.22.22-1.71.66-.85,1.09-1.12,1.96-.4,1.94-.4,3.21.13,2.35.39,3.22.63,1.52,1.12,1.95,1.05.64,1.71.64,1.23-.21,1.72-.64Z"/></g><g id="section9"><path class="cls-2" d="M598.04,91.23l83.62-7.57c2.93-.27,5.45,2.04,5.45,4.98v93.28c0,3.08-2.75,5.42-5.79,4.94l-83.62-13.41c-2.42-.39-4.21-2.48-4.21-4.94v-72.3c0-2.59,1.97-4.75,4.55-4.98Z"/><path class="cls-5" d="M645.27,127.54c1.02.54,1.85,1.43,2.48,2.67s.94,2.83.94,4.79c0,1.9-.27,3.54-.84,4.91s-1.38,2.43-2.43,3.16-2.29,1.1-3.71,1.1c-1.11,0-2.11-.22-2.99-.66s-1.59-1.03-2.13-1.79-.87-1.61-.98-2.56h3.47c.1.41.27.77.51,1.07s.54.52.9.68.77.23,1.22.23c.76,0,1.4-.22,1.93-.66s.93-1.06,1.2-1.88.4-1.79.4-2.92h-.15c-.27.48-.62.91-1.05,1.27s-.94.63-1.51.83-1.16.29-1.79.29c-1,0-1.9-.23-2.71-.7s-1.44-1.12-1.9-1.95-.7-1.76-.7-2.79c0-1.13.27-2.15.8-3.04s1.29-1.59,2.27-2.1,2.09-.75,3.35-.74c1.26,0,2.4.27,3.42.81ZM640.33,129.89c-.46.27-.82.63-1.08,1.09s-.39.96-.39,1.52c0,.55.14,1.06.4,1.51s.61.81,1.06,1.08.95.4,1.51.4,1.09-.14,1.55-.41.83-.64,1.11-1.11.41-.96.4-1.49c0-.54-.13-1.04-.4-1.49s-.62-.82-1.08-1.09-.97-.4-1.55-.4-1.07.13-1.54.4Z"/></g><g id="section36"><path class="cls-4" d="M8.28,77.2l72.9,7.88c2.51.27,4.42,2.37,4.46,4.9l1.44,96.52c.04,2.46-1.72,4.58-4.15,5l-77.08,13.29c-3.1.53-5.92-1.9-5.85-5.04l2.74-117.69c.07-2.93,2.63-5.17,5.54-4.85Z"/><path class="cls-5" d="M31.11,149.53c-.98-.42-1.74-1.02-2.29-1.78s-.84-1.63-.86-2.6h3.55c.02.4.16.76.42,1.08s.61.57,1.04.75.92.27,1.45.27,1.06-.1,1.51-.3.79-.47,1.04-.82.36-.74.35-1.19c0-.46-.12-.87-.38-1.23s-.63-.64-1.12-.84-1.06-.3-1.72-.3h-1.58v-2.6h1.58c.55,0,1.05-.1,1.49-.29s.77-.46,1.01-.8.35-.73.34-1.17c0-.43-.09-.81-.29-1.14s-.5-.59-.88-.77-.82-.27-1.31-.27-.96.09-1.37.26-.75.43-1,.75-.39.7-.42,1.13h-3.38c.03-.96.32-1.82.86-2.57s1.27-1.33,2.2-1.75,1.96-.63,3.11-.63,2.19.21,3.08.62,1.58.98,2.07,1.71.73,1.54.71,2.44c.02.62-.11,1.18-.38,1.69s-.65.92-1.14,1.25-1.05.54-1.69.66v.13c.83.1,1.53.33,2.12.69s1.02.81,1.32,1.37.44,1.19.42,1.9c.02.95-.26,1.8-.82,2.56s-1.34,1.36-2.34,1.79-2.13.64-3.39.64-2.34-.21-3.32-.63Z"/><path class="cls-5" d="M46.62,149.33c-1.02-.55-1.85-1.44-2.48-2.68s-.95-2.85-.95-4.82.29-3.51.86-4.88,1.39-2.42,2.44-3.14,2.28-1.08,3.69-1.08c1.12,0,2.12.21,2.99.64s1.59,1.02,2.13,1.77.87,1.59.98,2.53h-3.48c-.09-.4-.26-.74-.5-1.04s-.54-.51-.9-.66-.77-.22-1.23-.22c-.76,0-1.4.22-1.92.65s-.92,1.05-1.19,1.86-.41,1.77-.42,2.89h.14c.27-.5.62-.93,1.06-1.28s.95-.63,1.51-.82,1.16-.29,1.78-.29c1.01,0,1.92.23,2.73.7s1.45,1.12,1.9,1.95.69,1.78.69,2.83c0,1.14-.27,2.16-.8,3.06s-1.29,1.6-2.26,2.1-2.09.76-3.35.76c-1.26,0-2.4-.29-3.42-.83ZM51.56,146.98c.46-.27.82-.64,1.08-1.1s.39-.97.39-1.53-.13-1.09-.39-1.55-.61-.82-1.07-1.08-.96-.39-1.54-.39-1.07.13-1.54.4-.82.63-1.09,1.09-.41.97-.42,1.54c0,.54.14,1.04.4,1.5s.62.83,1.08,1.11.97.42,1.54.42,1.08-.13,1.54-.4Z"/></g><g id="section35"><path class="cls-4" d="M11.5,218.15l75.32-15.95c2.55-.54,5.09.97,5.83,3.47l26.11,87.84c.65,2.19-.26,4.53-2.22,5.71l-61.87,37.19c-2.7,1.62-6.2.38-7.28-2.58L7.83,224.75c-1.04-2.86.69-5.97,3.66-6.6Z"/><path class="cls-5" d="M56.59,272.95c-.98-.42-1.74-1.02-2.29-1.78s-.84-1.63-.86-2.6h3.55c.02.4.16.76.42,1.08s.61.57,1.04.75.92.27,1.45.27,1.06-.1,1.51-.3.79-.47,1.04-.82.36-.74.35-1.19c0-.46-.12-.87-.38-1.23s-.63-.64-1.12-.84-1.06-.3-1.72-.3h-1.58v-2.6h1.58c.55,0,1.05-.1,1.49-.29s.77-.46,1.01-.8.35-.73.34-1.17c0-.43-.09-.81-.29-1.14s-.5-.59-.88-.77-.82-.27-1.31-.27-.96.09-1.37.26-.75.43-1,.75-.39.7-.42,1.13h-3.38c.03-.96.32-1.82.86-2.57s1.27-1.33,2.2-1.75,1.96-.63,3.11-.63,2.19.21,3.08.62,1.58.98,2.07,1.71.73,1.54.71,2.44c.02.62-.11,1.18-.38,1.69s-.65.92-1.14,1.25-1.05.54-1.69.66v.13c.83.1,1.53.33,2.12.69s1.02.81,1.32,1.37.44,1.19.42,1.9c.02.95-.26,1.8-.82,2.56s-1.34,1.36-2.34,1.79-2.13.64-3.39.64-2.34-.21-3.32-.63Z"/><path class="cls-5" d="M72.05,272.94c-.94-.43-1.67-1.03-2.21-1.79s-.81-1.62-.84-2.58h3.41c.04.44.19.82.44,1.16s.59.6,1,.79.86.29,1.34.29c.58,0,1.1-.13,1.55-.39s.81-.62,1.07-1.07.39-.97.39-1.55-.13-1.13-.39-1.59-.62-.82-1.09-1.08-.99-.39-1.59-.39c-.63,0-1.17.11-1.61.34s-.79.59-1.04,1.08h-3.2l.93-9.77h10.44v2.89h-7.54l-.47,4.28h.13c.33-.43.8-.78,1.41-1.04s1.28-.4,2-.4c1.02,0,1.95.24,2.78.71s1.48,1.13,1.95,1.99.69,1.82.69,2.89c0,1.12-.26,2.13-.8,3.03s-1.3,1.59-2.27,2.1-2.08.76-3.34.76c-1.16,0-2.2-.21-3.14-.64Z"/></g><g id="section34"><path class="cls-4" d="M59.86,349.52l60.87-41.85c2.1-1.45,4.96-1.08,6.62.86l60.79,70.61c1.54,1.79,1.62,4.42.18,6.3l-45.01,58.89c-1.92,2.51-5.66,2.63-7.74.26l-76.66-87.66c-1.97-2.25-1.53-5.72.93-7.41Z"/><path class="cls-5" d="M114.94,381.45c-.98-.42-1.74-1.02-2.29-1.78s-.84-1.63-.86-2.6h3.55c.02.4.16.76.42,1.08s.61.57,1.04.75.92.27,1.45.27,1.06-.1,1.51-.3.79-.47,1.04-.82.36-.74.35-1.19c0-.46-.12-.87-.38-1.23s-.63-.64-1.12-.84-1.06-.3-1.72-.3h-1.58v-2.6h1.58c.55,0,1.05-.1,1.49-.29s.77-.46,1.01-.8.35-.73.34-1.17c0-.43-.09-.81-.29-1.14s-.5-.59-.88-.77-.82-.27-1.31-.27-.96.09-1.37.26-.75.43-1,.75-.39.7-.42,1.13h-3.38c.03-.96.32-1.82.86-2.57s1.27-1.33,2.2-1.75,1.96-.63,3.11-.63,2.19.21,3.08.62,1.58.98,2.07,1.71.73,1.54.71,2.44c.02.62-.11,1.18-.38,1.69s-.65.92-1.14,1.25-1.05.54-1.69.66v.13c.83.1,1.53.33,2.12.69s1.02.81,1.32,1.37.44,1.19.42,1.9c.02.95-.26,1.8-.82,2.56s-1.34,1.36-2.34,1.79-2.13.64-3.39.64-2.34-.21-3.32-.63Z"/><path class="cls-5" d="M127.02,376.06l7.17-11.18h2.39v3.87h-1.43l-4.57,7.12v.14h10.18v2.84h-13.75v-2.79ZM135.26,377.99l.05-1.23v-11.88h3.32v16.97h-3.36v-3.86Z"/></g><g id="section33"><path class="cls-4" d="M147.55,452.32l47.17-60.78c1.66-2.14,4.72-2.57,6.9-.97l78.81,57.68c1.68,1.23,2.43,3.38,1.86,5.39l-19.63,69.65c-.9,3.21-4.64,4.65-7.46,2.88l-106.36-66.55c-2.51-1.57-3.11-4.97-1.3-7.3Z"/><path class="cls-5" d="M205.85,463.2c-.98-.42-1.74-1.02-2.29-1.78s-.84-1.63-.86-2.6h3.55c.02.4.16.76.42,1.08s.61.57,1.04.75.92.27,1.45.27,1.06-.1,1.51-.3.79-.47,1.04-.82.36-.74.35-1.19c0-.46-.12-.87-.38-1.23s-.63-.64-1.12-.84-1.06-.3-1.72-.3h-1.58v-2.6h1.58c.55,0,1.05-.1,1.49-.29s.77-.46,1.01-.8.35-.73.34-1.17c0-.43-.09-.81-.29-1.14s-.5-.59-.88-.77-.82-.27-1.31-.27-.96.09-1.37.26-.75.43-1,.75-.39.7-.42,1.13h-3.38c.03-.96.32-1.82.86-2.57s1.27-1.33,2.2-1.75,1.96-.63,3.11-.63,2.19.21,3.08.62,1.58.98,2.07,1.71.73,1.54.71,2.44c.02.62-.11,1.18-.38,1.69s-.65.92-1.14,1.25-1.05.54-1.69.66v.13c.83.1,1.53.33,2.12.69s1.02.81,1.32,1.37.44,1.19.42,1.9c.02.95-.26,1.8-.82,2.56s-1.34,1.36-2.34,1.79-2.13.64-3.39.64-2.34-.21-3.32-.63Z"/><path class="cls-5" d="M221.19,463.2c-.98-.42-1.74-1.02-2.29-1.78s-.84-1.63-.86-2.6h3.55c.02.4.16.76.42,1.08s.61.57,1.04.75.92.27,1.45.27,1.06-.1,1.51-.3.79-.47,1.04-.82.36-.74.35-1.19c0-.46-.12-.87-.38-1.23s-.63-.64-1.12-.84-1.06-.3-1.72-.3h-1.58v-2.6h1.58c.55,0,1.05-.1,1.49-.29s.77-.46,1.01-.8.35-.73.34-1.17c0-.43-.09-.81-.29-1.14s-.5-.59-.88-.77-.82-.27-1.31-.27-.96.09-1.37.26-.75.43-1,.75-.39.7-.42,1.13h-3.38c.03-.96.32-1.82.86-2.57s1.27-1.33,2.2-1.75,1.96-.63,3.11-.63,2.19.21,3.08.62,1.58.98,2.07,1.71.73,1.54.71,2.44c.02.62-.11,1.18-.38,1.69s-.65.92-1.14,1.25-1.05.54-1.69.66v.13c.83.1,1.53.33,2.12.69s1.02.81,1.32,1.37.44,1.19.42,1.9c.02.95-.26,1.8-.82,2.56s-1.34,1.36-2.34,1.79-2.13.64-3.39.64-2.34-.21-3.32-.63Z"/></g><g id="section32"><path class="cls-4" d="M297.29,452.96l86.96,9.71c2.52.28,4.43,2.41,4.45,4.95l.38,80.68c.01,3.15-2.85,5.52-5.94,4.93l-106.9-20.4c-2.87-.55-4.67-3.44-3.88-6.26l19.56-69.99c.66-2.36,2.93-3.9,5.37-3.62Z"/><path class="cls-5" d="M323.95,506.61c-.98-.42-1.74-1.02-2.29-1.78s-.84-1.63-.86-2.6h3.55c.02.4.16.76.42,1.08s.61.57,1.04.75.92.27,1.45.27,1.06-.1,1.51-.3.79-.47,1.04-.82.36-.74.35-1.19c0-.46-.12-.87-.38-1.23s-.63-.64-1.12-.84-1.06-.3-1.72-.3h-1.58v-2.6h1.58c.55,0,1.05-.1,1.49-.29s.77-.46,1.01-.8.35-.73.34-1.17c0-.43-.09-.81-.29-1.14s-.5-.59-.88-.77-.82-.27-1.31-.27-.96.09-1.37.26-.75.43-1,.75-.39.7-.42,1.13h-3.38c.03-.96.32-1.82.86-2.57s1.27-1.33,2.2-1.75,1.96-.63,3.11-.63,2.19.21,3.08.62,1.58.98,2.07,1.71.73,1.54.71,2.44c.02.62-.11,1.18-.38,1.69s-.65.92-1.14,1.25-1.05.54-1.69.66v.13c.83.1,1.53.33,2.12.69s1.02.81,1.32,1.37.44,1.19.42,1.9c.02.95-.26,1.8-.82,2.56s-1.34,1.36-2.34,1.79-2.13.64-3.39.64-2.34-.21-3.32-.63Z"/><path class="cls-5" d="M336.29,504.46l6.11-5.61c.6-.58,1.07-1.06,1.41-1.44s.59-.76.77-1.15.26-.8.26-1.24c0-.48-.12-.91-.35-1.28s-.55-.65-.96-.85-.87-.29-1.38-.29-.99.11-1.39.32-.71.52-.93.92-.32.87-.32,1.4h-3.35c0-1.09.25-2.04.76-2.87s1.21-1.46,2.12-1.9,1.96-.67,3.15-.67,2.25.21,3.16.63,1.62,1.01,2.13,1.77.76,1.62.76,2.6c0,.66-.13,1.3-.38,1.92s-.7,1.3-1.34,2.05-1.54,1.66-2.71,2.72l-2.59,2.5v.12h7.27v2.89h-12.16v-2.54Z"/></g><g id="section31"><path class="cls-4" d="M403.48,462.07l87.14-8.5c2.35-.23,4.54,1.21,5.25,3.46l22.83,71.85c.92,2.91-.95,5.96-3.96,6.45l-109.98,17.84c-3.04.49-5.8-1.85-5.8-4.94v-81.19c0-2.57,1.95-4.73,4.51-4.98Z"/><path class="cls-5" d="M441.91,507.28c-.98-.42-1.74-1.02-2.29-1.78s-.84-1.63-.86-2.6h3.55c.02.4.16.76.42,1.08s.61.57,1.04.75.92.27,1.45.27,1.06-.1,1.51-.3.79-.47,1.04-.82.36-.74.35-1.19c0-.46-.12-.87-.38-1.23s-.63-.64-1.12-.84-1.06-.3-1.72-.3h-1.58v-2.6h1.58c.55,0,1.05-.1,1.49-.29s.77-.46,1.01-.8.35-.73.34-1.17c0-.43-.09-.81-.29-1.14s-.5-.59-.88-.77-.82-.27-1.31-.27-.96.09-1.37.26-.75.43-1,.75-.39.7-.42,1.13h-3.38c.03-.96.32-1.82.86-2.57s1.27-1.33,2.2-1.75,1.96-.63,3.11-.63,2.19.21,3.08.62,1.58.98,2.07,1.71.73,1.54.71,2.44c.02.62-.11,1.18-.38,1.69s-.65.92-1.14,1.25-1.05.54-1.69.66v.13c.83.1,1.53.33,2.12.69s1.02.81,1.32,1.37.44,1.19.42,1.9c.02.95-.26,1.8-.82,2.56s-1.34,1.36-2.34,1.79-2.13.64-3.39.64-2.34-.21-3.32-.63Z"/><path class="cls-5" d="M461.58,507.68h-3.54v-13.62h-.09l-3.88,2.46v-3.14l4.2-2.67h3.32v16.97Z"/></g><g id="section30"><path class="cls-4" d="M508.9,448.17l76.17-56.21c2.15-1.59,5.17-1.2,6.86.88l49.06,60.61c1.88,2.33,1.31,5.77-1.22,7.37l-101.63,64.23c-2.73,1.72-6.35.45-7.4-2.6l-23.6-68.63c-.71-2.07,0-4.35,1.76-5.65Z"/><path class="cls-5" d="M558.1,465.27c-.98-.42-1.74-1.02-2.29-1.78s-.84-1.63-.86-2.6h3.55c.02.4.16.76.42,1.08s.61.57,1.04.75.92.27,1.45.27,1.06-.1,1.51-.3.79-.47,1.04-.82.36-.74.35-1.19c0-.46-.12-.87-.38-1.23s-.63-.64-1.12-.84-1.06-.3-1.72-.3h-1.58v-2.6h1.58c.55,0,1.05-.1,1.49-.29s.77-.46,1.01-.8.35-.73.34-1.17c0-.43-.09-.81-.29-1.14s-.5-.59-.88-.77-.82-.27-1.31-.27-.96.09-1.37.26-.75.43-1,.75-.39.7-.42,1.13h-3.38c.03-.96.32-1.82.86-2.57s1.27-1.33,2.2-1.75,1.96-.63,3.11-.63,2.19.21,3.08.62,1.58.98,2.07,1.71.73,1.54.71,2.44c.02.62-.11,1.18-.38,1.69s-.65.92-1.14,1.25-1.05.54-1.69.66v.13c.83.1,1.53.33,2.12.69s1.02.81,1.32,1.37.44,1.19.42,1.9c.02.95-.26,1.8-.82,2.56s-1.34,1.36-2.34,1.79-2.13.64-3.39.64-2.34-.21-3.32-.63Z"/><path class="cls-5" d="M573.39,464.88c-1.02-.68-1.8-1.67-2.34-2.98s-.81-2.88-.81-4.72.27-3.41.81-4.71,1.33-2.3,2.35-2.98,2.24-1.03,3.64-1.03,2.62.34,3.64,1.03,1.81,1.68,2.36,2.99.82,2.88.82,4.71-.27,3.42-.81,4.72-1.33,2.3-2.35,2.98-2.24,1.02-3.66,1.02-2.63-.34-3.65-1.02ZM578.76,462.35c.49-.43.86-1.08,1.12-1.95s.38-1.94.38-3.22c0-1.27-.13-2.33-.39-3.21s-.63-1.53-1.11-1.96-1.05-.66-1.71-.66-1.22.22-1.71.66-.85,1.09-1.12,1.96-.4,1.94-.4,3.21.13,2.35.39,3.22.63,1.52,1.12,1.95,1.05.64,1.71.64,1.23-.21,1.72-.64Z"/></g><g id="section29"><path class="cls-4" d="M663.69,306.71l62.59,42.91c2.42,1.66,2.9,5.04,1.03,7.31l-71.84,87.04c-2.01,2.44-5.76,2.42-7.74-.04l-47.76-59.08c-1.48-1.83-1.48-4.44,0-6.28l57.01-70.87c1.64-2.04,4.57-2.47,6.72-.99Z"/><path class="cls-5" d="M649.06,381.5l6.11-5.61c.6-.58,1.07-1.06,1.41-1.44s.59-.76.77-1.15.26-.8.26-1.24c0-.48-.12-.91-.35-1.28s-.55-.65-.96-.85-.87-.29-1.38-.29-.99.11-1.39.32-.71.52-.93.92-.32.87-.32,1.4h-3.35c0-1.09.25-2.04.76-2.87s1.21-1.46,2.12-1.9,1.96-.67,3.15-.67,2.25.21,3.16.63,1.62,1.01,2.13,1.77.76,1.62.76,2.6c0,.66-.13,1.3-.38,1.92s-.7,1.3-1.34,2.05-1.54,1.66-2.71,2.72l-2.59,2.5v.12h7.27v2.89h-12.16v-2.54Z"/><path class="cls-5" d="M673.36,367.66c1.02.54,1.85,1.43,2.48,2.67s.94,2.83.94,4.79c0,1.9-.27,3.54-.84,4.91s-1.38,2.43-2.43,3.16-2.29,1.1-3.71,1.1c-1.11,0-2.11-.22-2.99-.66s-1.59-1.03-2.13-1.79-.87-1.61-.98-2.56h3.47c.1.41.27.77.51,1.07s.54.52.9.68.77.23,1.22.23c.76,0,1.4-.22,1.93-.66s.93-1.06,1.2-1.88.4-1.79.4-2.92h-.15c-.27.48-.62.91-1.05,1.27s-.94.63-1.51.83-1.16.29-1.79.29c-1,0-1.9-.23-2.71-.7s-1.44-1.12-1.9-1.95-.7-1.76-.7-2.79c0-1.13.27-2.15.8-3.04s1.29-1.59,2.27-2.1,2.09-.75,3.35-.74c1.26,0,2.4.27,3.42.81ZM668.42,370.01c-.46.27-.82.63-1.08,1.09s-.39.96-.39,1.52c0,.55.14,1.06.4,1.51s.61.81,1.06,1.08.95.4,1.51.4,1.09-.14,1.55-.41.83-.64,1.11-1.11.41-.96.4-1.49c0-.54-.13-1.04-.4-1.49s-.62-.82-1.08-1.09-.97-.4-1.55-.4-1.07.13-1.54.4Z"/></g><g id="section28"><path class="cls-4" d="M779.38,223.28l-40.66,112.54c-1.11,3.06-4.8,4.27-7.5,2.45l-62.16-41.96c-1.86-1.26-2.66-3.6-1.94-5.73l28.73-85.78c.8-2.4,3.27-3.82,5.75-3.31l74.09,15.2c2.99.61,4.73,3.73,3.7,6.6Z"/><path class="cls-5" d="M709.1,269.19l6.11-5.61c.6-.58,1.07-1.06,1.41-1.44s.59-.76.77-1.15.26-.8.26-1.24c0-.48-.12-.91-.35-1.28s-.55-.65-.96-.85-.87-.29-1.38-.29-.99.11-1.39.32-.71.52-.93.92-.32.87-.32,1.4h-3.35c0-1.09.25-2.04.76-2.87s1.21-1.46,2.12-1.9,1.96-.67,3.15-.67,2.25.21,3.16.63,1.62,1.01,2.13,1.77.76,1.62.76,2.6c0,.66-.13,1.3-.38,1.92s-.7,1.3-1.34,2.05-1.54,1.66-2.71,2.72l-2.59,2.5v.12h7.27v2.89h-12.16v-2.54Z"/><path class="cls-5" d="M726.75,271.35c-1.01-.41-1.8-.99-2.37-1.72s-.86-1.55-.86-2.46c0-.7.16-1.35.49-1.95s.78-1.1,1.34-1.49,1.2-.64,1.89-.74v-.13c-.59-.12-1.12-.35-1.59-.71s-.84-.8-1.1-1.33-.4-1.1-.4-1.71c0-.87.26-1.65.79-2.35s1.24-1.24,2.16-1.63,1.94-.59,3.07-.59,2.17.2,3.09.59,1.64.94,2.16,1.63.78,1.48.78,2.35c0,.61-.13,1.18-.4,1.71s-.64.97-1.1,1.33-1,.59-1.6.71v.13c.7.1,1.33.35,1.89.74s1.02.89,1.35,1.49.5,1.26.5,1.95c0,.91-.29,1.73-.86,2.46s-1.37,1.31-2.38,1.72-2.15.62-3.43.62-2.4-.21-3.42-.62ZM731.72,268.97c.45-.21.8-.5,1.05-.88s.38-.8.38-1.27c0-.49-.13-.93-.39-1.32s-.61-.7-1.07-.91-.96-.33-1.54-.33-1.07.11-1.52.33-.81.52-1.07.91-.38.83-.38,1.32c0,.47.11.89.36,1.27s.6.67,1.05.88.97.32,1.55.32,1.11-.11,1.56-.32ZM731.49,261.46c.39-.2.7-.47.92-.82s.33-.74.33-1.18-.11-.84-.32-1.18-.52-.61-.91-.8-.84-.29-1.34-.29-.94.1-1.33.29-.7.46-.91.8-.32.74-.32,1.18.11.83.33,1.18.53.62.92.82.83.3,1.31.3.94-.1,1.33-.3Z"/></g><g id="section27"><path class="cls-4" d="M703.96,82.32l75.07-6.73c2.88-.26,5.38,1.97,5.45,4.86l2.74,117.86c.07,3.12-2.71,5.55-5.79,5.05l-79.03-12.69c-2.45-.39-4.24-2.52-4.21-5l1.22-98.44c.03-2.56,2-4.69,4.55-4.92Z"/><path class="cls-5" d="M728.68,147.38l6.11-5.61c.6-.58,1.07-1.06,1.41-1.44s.59-.76.77-1.15.26-.8.26-1.24c0-.48-.12-.91-.35-1.28s-.55-.65-.96-.85-.87-.29-1.38-.29-.99.11-1.39.32-.71.52-.93.92-.32.87-.32,1.4h-3.35c0-1.09.25-2.04.76-2.87s1.21-1.46,2.12-1.9,1.96-.67,3.15-.67,2.25.21,3.16.63,1.62,1.01,2.13,1.77.76,1.62.76,2.6c0,.66-.13,1.3-.38,1.92s-.7,1.3-1.34,2.05-1.54,1.66-2.71,2.72l-2.59,2.5v.12h7.27v2.89h-12.16v-2.54Z"/><path class="cls-5" d="M751.17,135.96v-.11h-8.32v-2.89h11.98v2.94l-7.16,14.03h-3.63l7.14-13.97Z"/></g></svg>