<?xml version="1.0" encoding="UTF-8"?><svg xmlns="http://www.w3.org/2000/svg" viewBox="0 0 626.43 418.16"><defs><style>.cls-1{fill:#ffe0cc;}.cls-2{fill:#e6e6e6;}.cls-3{fill:#828282;}.cls-4{fill:#c2e8ff;}.cls-5{fill:#0068ff;}.cls-6{fill:#a7deff;}.cls-7{fill:#def4ff;}.cls-8{fill:#fcccff;}.cls-9{fill:#c0ffbd;}.cls-10{fill:#4986e8;}</style></defs><g id="second"><path class="cls-1" d="M41.21,31.15c8.96.05,15.55-6.41,15.61-15.28C56.87,7,50.27.1,41.63,0c-8.78-.1-16.04,7.01-16.01,15.7.02,8.74,6.75,15.4,15.59,15.45Z"/><path class="cls-3" d="M32.74,19.83l3.99-3.84c.44-.44.78-.8,1.02-1.07.24-.28.42-.56.55-.83s.19-.57.19-.88c0-.34-.09-.64-.26-.9s-.4-.46-.7-.61c-.29-.14-.62-.21-1-.21s-.71.08-1,.23c-.29.15-.52.37-.67.66s-.23.62-.23.99h-1.93c0-.7.16-1.32.49-1.86s.79-.95,1.37-1.24,1.25-.44,2-.44,1.43.14,2.02.42c.58.28,1.04.67,1.36,1.16.33.5.49,1.06.49,1.69,0,.44-.08.86-.25,1.27-.17.41-.45.85-.86,1.34-.4.49-.98,1.09-1.73,1.8l-2.02,2v.09h5.02v1.7h-7.85v-1.48Z"/><path class="cls-3" d="M42.5,10h7.24v1.71h-5.21v3.09h4.71v1.7h-4.71v4.81h-2.03v-11.31Z"/><path class="cls-1" d="M585.21,31.15c8.96.05,15.55-6.41,15.61-15.28.06-8.87-6.54-15.76-15.19-15.87-8.78-.1-16.04,7.01-16.01,15.7.02,8.74,6.75,15.4,15.59,15.45Z"/><path class="cls-3" d="M576.74,19.83l3.99-3.84c.44-.44.78-.8,1.02-1.07.24-.28.42-.56.55-.83s.19-.57.19-.88c0-.34-.09-.64-.26-.9s-.4-.46-.7-.61c-.29-.14-.62-.21-1-.21s-.71.08-1,.23c-.29.15-.52.37-.67.66s-.23.62-.23.99h-1.93c0-.7.16-1.32.49-1.86s.79-.95,1.37-1.24,1.25-.44,2-.44,1.43.14,2.02.42c.58.28,1.04.67,1.36,1.16.33.5.49,1.06.49,1.69,0,.44-.08.86-.25,1.27-.17.41-.45.85-.86,1.34-.4.49-.98,1.09-1.73,1.8l-2.02,2v.09h5.02v1.7h-7.85v-1.48Z"/><path class="cls-3" d="M586.5,10h7.24v1.71h-5.21v3.09h4.71v1.7h-4.71v4.81h-2.03v-11.31Z"/></g><g id="first"><path class="cls-8" d="M109.28,65.73c8.96.05,15.55-6.41,15.61-15.28.06-8.87-6.54-15.76-15.19-15.87-8.78-.1-16.04,7.01-16.01,15.7.02,8.74,6.75,15.4,15.59,15.45Z"/><path class="cls-3" d="M106.62,55.81h-2.05v-9.33h-.06l-2.65,1.7v-1.87l2.8-1.81h1.95v11.31Z"/><path class="cls-3" d="M109.48,44.5h7.24v1.71h-5.21v3.09h4.71v1.7h-4.71v4.81h-2.03v-11.31Z"/><path class="cls-8" d="M517.15,65.73c-8.96.05-15.55-6.41-15.61-15.28-.06-8.87,6.54-15.76,15.19-15.87,8.78-.1,16.04,7.01,16.01,15.7-.02,8.74-6.75,15.4-15.59,15.45Z"/><path class="cls-3" d="M514.46,55.81h-2.05v-9.33h-.06l-2.65,1.7v-1.87l2.8-1.81h1.95v11.31Z"/><path class="cls-3" d="M517.33,44.5h7.24v1.71h-5.21v3.09h4.71v1.7h-4.71v4.81h-2.03v-11.31Z"/></g><g id="floor"><path class="cls-2" d="M279.82,264.61c.08-5.99.08-11.98,0-17.96-.05-3.72,1.45-5.41,5.37-5.33,9.31.17,18.63.05,27.94.06,9.15,0,18.3.15,27.44-.07,4.23-.1,6.16,1.33,6.03,5.7-.17,5.82-.11,11.64-.02,17.46.06,3.91-1.6,5.88-5.62,5.87-18.46-.03-36.92-.04-55.38,0-3.94,0-5.81-1.73-5.76-5.73Z"/><path class="cls-3" d="M290.51,247.41h10.28v2.16h-7.77v5.03h7.02v2.15h-7.02v7.22h-2.52v-16.56Z"/><path class="cls-3" d="M304.67,263.97h-2.44v-16.56h2.44v16.56Z"/><path class="cls-3" d="M308.66,263.42c-.88-.53-1.56-1.29-2.04-2.25s-.72-2.09-.72-3.35.24-2.41.72-3.38,1.16-1.72,2.04-2.25c.88-.53,1.9-.8,3.06-.8s2.17.27,3.04.8c.88.53,1.55,1.29,2.02,2.25.47.97.71,2.09.71,3.38s-.24,2.38-.71,3.35c-.47.97-1.15,1.72-2.02,2.25-.88.53-1.89.8-3.04.8s-2.18-.27-3.06-.8ZM313.56,261.6c.5-.39.87-.92,1.11-1.58.24-.66.37-1.4.37-2.21s-.12-1.56-.37-2.22c-.24-.66-.61-1.19-1.11-1.58-.5-.39-1.11-.59-1.84-.59s-1.35.2-1.85.59c-.5.39-.88.92-1.13,1.58-.25.66-.38,1.4-.38,2.22s.13,1.55.38,2.21c.25.66.63,1.19,1.13,1.58.5.39,1.12.59,1.85.59s1.35-.2,1.84-.59Z"/><path class="cls-3" d="M320.96,263.42c-.88-.53-1.56-1.29-2.04-2.25s-.72-2.09-.72-3.35.24-2.41.72-3.38,1.16-1.72,2.04-2.25c.88-.53,1.9-.8,3.06-.8s2.17.27,3.04.8c.88.53,1.55,1.29,2.02,2.25.47.97.71,2.09.71,3.38s-.24,2.38-.71,3.35c-.47.97-1.15,1.72-2.02,2.25-.88.53-1.89.8-3.04.8s-2.18-.27-3.06-.8ZM325.86,261.6c.5-.39.87-.92,1.11-1.58.24-.66.37-1.4.37-2.21s-.12-1.56-.37-2.22c-.24-.66-.61-1.19-1.11-1.58-.5-.39-1.11-.59-1.84-.59s-1.35.2-1.85.59c-.5.39-.88.92-1.13,1.58-.25.66-.38,1.4-.38,2.22s.13,1.55.38,2.21c.25.66.63,1.19,1.13,1.58.5.39,1.12.59,1.85.59s1.35-.2,1.84-.59Z"/><path class="cls-3" d="M331.06,251.55h2.36v1.99h.14c.22-.69.62-1.22,1.19-1.61.57-.38,1.22-.58,1.93-.58.38,0,.73.02,1.05.07v2.33c-.1-.04-.28-.07-.54-.11s-.51-.05-.74-.05c-.55,0-1.05.12-1.5.36-.45.24-.8.57-1.06,1-.26.43-.39.91-.39,1.44v7.57h-2.44v-12.42Z"/></g><g id="stage"><path class="cls-9" d="M412.83,10.05h-199.23c-1.85,0-3.35,1.5-3.35,3.35v34.32c0,1.85,1.5,3.35,3.35,3.35h87.42c1.75,0,3.16,1.42,3.16,3.16v35.19c0,1.75-1.42,3.16-3.16,3.16h-23.12c-1.62,0-2.94,1.32-2.94,2.94v56.61c0,1.62,1.32,2.94,2.94,2.94h70.64c1.62,0,2.94-1.32,2.94-2.94v-56.61c0-1.62-1.32-2.94-2.94-2.94h-23.12c-1.75,0-3.16-1.42-3.16-3.16v-35.19c0-1.75,1.42-3.16,3.16-3.16h87.42c1.85,0,3.35-1.5,3.35-3.35V13.4c0-1.85-1.5-3.35-3.35-3.35Z"/><path class="cls-10" d="M275.45,23.49c-.37-.49-.88-.86-1.53-1.1-.65-.24-1.4-.37-2.26-.37s-1.63.13-2.27.39c-.65.26-1.15.62-1.5,1.09-.35.47-.53,1-.53,1.61,0,.89.37,1.58,1.12,2.07.74.49,1.72.89,2.92,1.19l2.2.55c2.1.49,3.77,1.27,5.03,2.33,1.26,1.06,1.89,2.55,1.91,4.45,0,1.38-.36,2.6-1.07,3.65-.71,1.05-1.74,1.87-3.08,2.46-1.34.59-2.95.88-4.81.88s-3.41-.28-4.77-.86-2.4-1.4-3.15-2.5c-.75-1.1-1.16-2.42-1.22-3.96h4.17c.06.8.32,1.48.77,2.03.44.55,1.03.96,1.74,1.24s1.53.42,2.43.42,1.76-.14,2.48-.42,1.27-.68,1.67-1.2.59-1.11.59-1.77c0-.59-.17-1.08-.51-1.49s-.81-.75-1.43-1.02-1.39-.53-2.32-.77l-2.69-.68c-2.02-.53-3.57-1.31-4.65-2.35-1.08-1.03-1.62-2.37-1.62-4.01,0-1.37.37-2.58,1.12-3.63.75-1.05,1.78-1.86,3.1-2.44s2.79-.87,4.43-.87,3.1.29,4.37.86c1.28.58,2.27,1.38,2.99,2.4.72,1.03,1.09,2.2,1.12,3.53h-4.11c-.07-.66-.29-1.24-.66-1.73Z"/><path class="cls-10" d="M283.01,18.75h18.82v3.57h-7.28v20.02h-4.22v-20.02h-7.31v-3.57Z"/><path class="cls-10" d="M300.77,42.34l8.31-23.59h5.23l8.31,23.59h-4.53l-6.3-18.77h-.2l-6.3,18.77h-4.51ZM317.89,33.09v3.4h-12.43v-3.4h12.43Z"/><path class="cls-10" d="M339.01,24.1c-.52-.6-1.15-1.06-1.89-1.38s-1.58-.48-2.52-.48c-1.28,0-2.42.32-3.41.97-.99.65-1.76,1.59-2.33,2.83-.57,1.24-.85,2.74-.85,4.49s.28,3.26.83,4.51c.55,1.25,1.33,2.2,2.34,2.84,1,.65,2.17.97,3.51.97,1.19,0,2.23-.23,3.12-.69.88-.46,1.57-1.12,2.04-1.99.48-.86.72-1.86.72-2.99l.96.15h-6.42v-3.34h9.56v2.84c0,1.98-.43,3.71-1.28,5.2-.85,1.49-2.03,2.63-3.54,3.44-1.51.8-3.24,1.21-5.18,1.21-2.16,0-4.07-.49-5.71-1.48-1.65-.98-2.92-2.39-3.84-4.21-.91-1.82-1.37-3.96-1.37-6.42s.47-4.64,1.4-6.47c.93-1.82,2.22-3.23,3.84-4.2,1.63-.98,3.47-1.47,5.52-1.47,1.73,0,3.3.33,4.72.99,1.42.66,2.59,1.59,3.51,2.77s1.5,2.55,1.74,4.09h-4.33c-.25-.85-.64-1.57-1.16-2.18Z"/><path class="cls-10" d="M348.54,18.75h15.33v3.57h-11.09v6.45h10.3v3.54h-10.3v6.47h11.16v3.57h-15.4v-23.59Z"/></g><g id="sectionE"><path class="cls-4" d="M365.08,138.46c19.16.11,38.31.08,57.47,0,2.81-.01,3.5,1.24,3.05,3.7-6.5,36.04-25.12,62.48-60.05,76.13-3.38,1.32-3.95.39-3.92-2.81.12-12.16.05-24.32.05-36.49h-.07c0-12,.02-23.99-.01-35.99,0-2.46-.14-4.58,3.47-4.56Z"/><path class="cls-5" d="M387.97,155.63h7.35v1.71h-5.32v3.09h4.94v1.7h-4.94v3.1h5.35v1.71h-7.38v-11.31Z"/></g><g id="sectionD"><path class="cls-4" d="M351.79,169.25c-.17,15.98-.19,31.97-.03,47.95.03,3.41-1.13,5.06-4.27,6.22-23.31,8.59-46.45,8.79-69.54-.85-2.35-.98-3.33-2.19-3.32-4.77.11-16.15.16-32.3.06-48.46-.02-3.47,1.16-4.68,4.64-4.63,11.32.16,22.64.06,33.96.06v-.02c11.32,0,22.64.11,33.96-.07,3.51-.06,4.57,1.08,4.53,4.57Z"/><path class="cls-5" d="M310.59,202.92h-2.03v-11.31h2.03v11.31ZM309.52,202.92v-1.77h2.77c.8,0,1.46-.15,1.98-.44s.92-.73,1.18-1.3.4-1.3.4-2.16-.13-1.58-.39-2.16c-.26-.58-.65-1.01-1.17-1.29-.52-.29-1.17-.43-1.94-.43h-2.89v-1.77h3c1.12,0,2.09.23,2.9.68s1.43,1.1,1.87,1.95c.43.85.65,1.86.65,3.02s-.22,2.18-.65,3.03c-.44.85-1.06,1.5-1.89,1.95-.82.45-1.8.68-2.95.68h-2.87Z"/></g><g id="sectionC"><path class="cls-4" d="M261.35,138.46c-19.16.11-38.31.08-57.47,0-2.81-.01-3.5,1.24-3.05,3.7,6.5,36.04,25.12,62.48,60.05,76.13,3.38,1.32,3.95.39,3.92-2.81-.12-12.16-.05-24.32-.05-36.49h.07c0-12-.02-23.99.01-35.99,0-2.46.14-4.58-3.47-4.56Z"/><path class="cls-5" d="M237.28,158.29c-.25-.32-.57-.57-.95-.74s-.8-.25-1.26-.25c-.62,0-1.17.16-1.64.46s-.85.76-1.12,1.36c-.27.6-.4,1.32-.4,2.16s.13,1.57.4,2.17c.27.6.64,1.05,1.12,1.36s1.02.46,1.64.46c.45,0,.87-.08,1.24-.25s.69-.4.95-.71.43-.68.52-1.12h2.05c-.1.73-.37,1.39-.79,1.98s-.98,1.06-1.66,1.41-1.47.52-2.34.52c-1,0-1.88-.23-2.67-.7-.78-.47-1.4-1.14-1.84-2.02-.44-.88-.66-1.91-.66-3.1s.22-2.23.67-3.11c.45-.88,1.06-1.54,1.84-2.01.78-.46,1.67-.7,2.66-.7.83,0,1.59.16,2.28.47.68.32,1.24.77,1.68,1.37.43.6.71,1.31.83,2.13h-2.05c-.07-.44-.24-.83-.49-1.15Z"/></g><g id="sectionB"><path class="cls-4" d="M422.01,132.56c-18.47-.18-36.95-.22-55.42,0-4.13.05-4.99-1.4-4.94-5.17.17-13.48-.05-26.97.09-40.45.04-3.41-.9-4.65-4.48-4.62-7.33.07-14.01.16-21.47.15-3.79,0-5.18-.85-5.08-4.49.1-3.39,0-8.42.22-11.94.27-4.28-.22-5.8,5.44-5.71,13.21.23,61.79-.26,75.05-.05,4.74.07,5.8,1.43,5.78,5.91-.02,6.57-.59,13.3,2.26,19.72,5.91,13.32,8.24,27.27,7.47,41.83-.19,3.63-1.18,4.85-4.92,4.82Z"/><path class="cls-5" d="M387.14,94.51h4.32c.8,0,1.48.12,2.02.37s.96.59,1.23,1.04.41.95.41,1.53c0,.44-.08.82-.25,1.15-.17.33-.4.6-.7.81s-.64.36-1.02.45v.11c.41.02.8.15,1.18.38.37.23.67.55.9.96.23.41.34.89.34,1.45,0,.59-.14,1.12-.43,1.59-.29.46-.72.83-1.3,1.09-.58.27-1.29.4-2.13.4h-4.57v-11.31ZM392.17,99.12c.29-.14.51-.32.67-.57.16-.24.24-.52.24-.85,0-.3-.07-.57-.2-.79-.14-.23-.34-.4-.62-.53-.28-.12-.61-.19-1.01-.19h-2.09v3.12h2.05c.35,0,.67-.07.96-.2ZM392.58,103.92c.31-.13.54-.31.69-.54s.22-.5.22-.81c0-.34-.08-.64-.25-.92s-.4-.49-.71-.64-.67-.23-1.09-.23h-2.28v3.33h2.22c.48,0,.88-.07,1.2-.2Z"/></g><g id="sectionA"><path class="cls-4" d="M204.42,132.56c18.47-.18,36.95-.22,55.42,0,4.13.05,4.99-1.4,4.94-5.17-.17-13.48.05-26.97-.09-40.45-.04-3.41.9-4.65,4.48-4.62,7.33.07,14.01.16,21.47.15,3.79,0,5.18-.85,5.08-4.49-.1-3.39,0-8.42-.22-11.94-.27-4.28.22-5.8-5.44-5.71-13.21.23-61.79-.26-75.05-.05-4.74.07-5.8,1.43-5.78,5.91.02,6.57.59,13.3-2.26,19.72-5.91,13.32-8.24,27.27-7.47,41.83.19,3.63,1.18,4.85,4.92,4.82Z"/><path class="cls-5" d="M229.57,105.82l3.98-11.31h2.51l3.98,11.31h-2.17l-3.02-9h-.09l-3.02,9h-2.16ZM237.78,101.38v1.63h-5.96v-1.63h5.96Z"/></g><g id="section15"><path class="cls-6" d="M76.38,113.68c6.62-.6,13.27-.71,19.9-1.22,9.93-.75,19.85-1.71,29.79-2.48,2.89-.22,3.91-1.43,3.84-4.41-.21-8.99-.21-17.98-.09-26.97.04-3-1.01-3.94-4-4.18-16.88-1.36-33.75-2.9-50.61-4.49-2.92-.28-3.43,1.18-3.42,3.5.02,6.16-.14,29.64-.14,35.46,0,3.66.85,5.13,4.72,4.78Z"/><path class="cls-5" d="M98.51,97.91h-2.05v-9.33h-.06l-2.65,1.7v-1.87l2.8-1.81h1.95v11.31Z"/><path class="cls-5" d="M103.27,97.64c-.6-.28-1.07-.66-1.42-1.15s-.53-1.04-.55-1.66h1.98c.03.3.14.57.32.81.18.24.42.43.72.56s.62.2.97.2c.42,0,.79-.09,1.12-.28s.59-.45.77-.77.28-.7.28-1.12-.1-.81-.29-1.14c-.19-.33-.45-.59-.79-.79-.34-.19-.72-.29-1.16-.29-.45,0-.83.07-1.14.23s-.56.4-.73.74h-1.88l.68-6.41h6.68v1.7h-5l-.34,3.01h.09c.23-.25.54-.46.93-.62.39-.16.82-.24,1.27-.24.69,0,1.32.16,1.88.48.56.32.99.77,1.31,1.34.31.57.47,1.21.47,1.93s-.18,1.41-.53,2c-.35.59-.85,1.05-1.47,1.38-.63.33-1.34.5-2.14.5-.74,0-1.41-.14-2.01-.42Z"/></g><g id="section14"><path class="cls-6" d="M125.99,112.5c-17.56,1.4-33.97,2.79-50.71,4-3.03.22-2.88,1.48-2.57,3.87,1.62,12.67,3.41,24.8,5.04,37.49.34,2.67,1.2,3.42,3.82,2.76,16.09-4.05,32.11-7.56,48.25-11.38,3.28-.78,4.36-2.17,3.93-5.45-1.13-8.73-2.32-17.47-2.94-26.25-.29-4.11-1.67-5.05-4.83-5.05Z"/><path class="cls-5" d="M99.22,139.57h-2.05v-9.33h-.06l-2.65,1.7v-1.87l2.8-1.81h1.95v11.31Z"/><path class="cls-5" d="M101.76,135.84l4.89-7.59h1.34v2.31h-.84l-3.31,5.13v.09h6.83v1.66h-8.91v-1.62ZM107.26,136.98l.02-.73v-7.98h1.92v11.31h-1.95v-2.59Z"/></g><g id="section13"><path class="cls-6" d="M132.11,151.11c-16.3,3.96-32.6,7.95-48.91,11.86-3.09.74-3.88,2.01-2.8,5.26,4.54,13.59,8.9,26.65,13.48,40.22.81,2.4,1.74,3.23,4.26,1.85,15.47-8.47,30.99-16.86,46.54-25.19,2.09-1.12,2.44-2.59,1.75-4.52-3.26-9.09-6.55-18.16-9.89-27.22-.49-1.32-.89-3.03-3.01-2.69-.46.14-.93.31-1.42.43Z"/><path class="cls-5" d="M109.15,182.92h-2.05v-9.33h-.06l-2.65,1.7v-1.87l2.8-1.81h1.95v11.31Z"/><path class="cls-5" d="M113.87,182.67c-.63-.27-1.12-.65-1.48-1.14-.36-.49-.55-1.05-.57-1.68h2.05c.02.29.12.55.31.78s.44.41.76.54c.32.13.67.19,1.05.19.41,0,.78-.07,1.11-.21.33-.14.59-.34.77-.59.18-.25.27-.54.27-.87,0-.35-.08-.66-.27-.92-.19-.26-.46-.47-.81-.62-.36-.15-.78-.22-1.26-.22h-1.01v-1.57h1.01c.4,0,.76-.07,1.07-.21.31-.14.55-.33.72-.58.17-.25.25-.54.25-.86s-.07-.6-.22-.84-.36-.43-.63-.56-.59-.2-.96-.2-.68.06-.99.19-.55.31-.73.54c-.19.23-.29.51-.3.82h-1.96c.03-.62.21-1.18.57-1.66s.83-.86,1.43-1.13c.6-.27,1.27-.41,2-.41s1.41.14,1.98.41,1.01.65,1.33,1.13c.31.48.47,1.01.46,1.59.01.41-.07.79-.24,1.13s-.42.62-.73.85c-.32.22-.68.38-1.09.47v.09c.53.07.98.22,1.36.46s.66.55.86.92c.2.37.29.8.28,1.28.01.62-.17,1.18-.54,1.68s-.87.9-1.52,1.18c-.64.29-1.37.43-2.18.43s-1.51-.14-2.14-.41Z"/></g><g id="section12"><path class="cls-6" d="M100.14,212.79c-2.77,1.45-2.41,3.13-1.02,5.23,9.04,13.58,17.37,26.03,26.77,40.04,1.51,2.25,2.62,2.44,4.63.6,13.26-12.1,24.9-22.36,37.65-34.06,1.71-1.57,2.26-2.86.83-5.09-6.31-9.8-12.3-20.89-18.49-30.76-.6-.96-2.11-2.6-4.27-1.47-15.64,8.15-30.48,17.31-46.1,25.52Z"/><path class="cls-5" d="M131.58,227.31h-2.05v-9.33h-.06l-2.65,1.7v-1.87l2.8-1.81h1.95v11.31Z"/><path class="cls-5" d="M134.33,225.83l3.99-3.84c.44-.44.78-.8,1.02-1.07.24-.28.42-.56.55-.83s.19-.57.19-.88c0-.34-.09-.64-.26-.9s-.4-.46-.7-.61c-.29-.14-.62-.21-1-.21s-.71.08-1,.23c-.29.15-.52.37-.67.66s-.23.62-.23.99h-1.93c0-.7.16-1.32.49-1.86s.79-.95,1.37-1.24,1.25-.44,2-.44,1.43.14,2.02.42c.58.28,1.04.67,1.36,1.16.33.5.49,1.06.49,1.69,0,.44-.08.86-.25,1.27-.17.41-.45.85-.86,1.34-.4.49-.98,1.09-1.73,1.8l-2.02,2v.09h5.02v1.7h-7.85v-1.48Z"/></g><g id="section11"><path class="cls-6" d="M131.98,261.37c-2.24,2.1-1.19,3.2.54,4.7,12.18,10.54,23.89,21.22,36.04,31.8.87.76,3.87,1.92,5.52-.5,9.81-14.42,18.72-28.12,28.42-42.61,1.3-1.94,1.39-3.37-.64-5.09-8.98-7.64-17.89-15.36-26.65-23.24-2.16-1.95-3.23-1.99-5.19-.18-12.7,11.7-25.16,23.03-38.03,35.13Z"/><path class="cls-5" d="M167.82,266.02h-2.05v-9.33h-.06l-2.65,1.7v-1.87l2.8-1.81h1.95v11.31Z"/><path class="cls-5" d="M175.17,266.02h-2.05v-9.33h-.06l-2.65,1.7v-1.87l2.8-1.81h1.95v11.31Z"/></g><g id="section10"><path class="cls-6" d="M177.9,304.44c14.11,7.11,27.75,14.39,41.81,21.61,1.03.53,2.1.99,2.91,1.37,1.85.15,2.25-1.08,2.63-2.13,5.73-15.79,11.43-31.6,17.14-47.4.84-2.32.55-4.1-1.89-5.42-10.51-5.73-21.01-11.5-31.41-17.42-2.04-1.16-3.1-1.09-4.4.88-9.54,14.43-18.76,28.83-28.4,43.19-1.73,2.58-1.15,3.94,1.6,5.33Z"/><path class="cls-5" d="M207.51,296.58h-2.05v-9.33h-.06l-2.65,1.7v-1.87l2.8-1.81h1.95v11.31Z"/><path class="cls-5" d="M212.1,296.05c-.65-.45-1.15-1.12-1.49-1.99-.35-.87-.52-1.92-.52-3.14s.17-2.27.52-3.14c.35-.87.84-1.53,1.5-1.99.65-.46,1.43-.68,2.33-.68s1.68.23,2.33.68c.65.46,1.15,1.12,1.5,1.99s.52,1.92.52,3.14-.17,2.28-.51,3.15c-.34.87-.84,1.53-1.49,1.98-.65.45-1.43.68-2.34.68s-1.68-.23-2.33-.68ZM215.66,294.56c.34-.31.61-.77.79-1.38.18-.61.27-1.36.27-2.25,0-.89-.09-1.64-.28-2.25-.19-.62-.45-1.08-.79-1.4-.34-.32-.75-.47-1.22-.47s-.88.16-1.22.47c-.34.32-.61.78-.79,1.4s-.28,1.37-.28,2.25.09,1.64.28,2.25c.18.61.45,1.07.79,1.38s.75.46,1.23.46.88-.16,1.23-.46Z"/></g><g id="section9"><path class="cls-6" d="M231.1,330.23c4.52,1.49,31.59,8.72,45.2,12.22,2.85.73,4.71.75,5.07-2.86.89-8.75,1.96-17.48,2.95-26.22.42-1.87-.09-3.17-2.18-3.66-13.73-3.26-27.45-6.56-41.17-9.89-2.37-.58-3.58.09-4.44,2.53-2.75,7.79-5.36,15.05-8.07,23.06-1.07,3.17-.08,3.93,2.64,4.83Z"/><path class="cls-5" d="M258.92,315.6c.66.35,1.19.94,1.6,1.75.41.81.61,1.88.61,3.19,0,1.28-.18,2.38-.54,3.31s-.89,1.63-1.58,2.12c-.69.49-1.49.73-2.41.73-.71,0-1.35-.14-1.91-.42-.57-.28-1.03-.66-1.38-1.15-.35-.49-.57-1.04-.65-1.66h2c.07.3.2.55.37.77.17.22.39.39.66.51s.57.18.91.18c.54,0,1-.15,1.39-.46s.67-.75.88-1.33c.2-.58.3-1.27.3-2.07h-.12c-.19.32-.44.59-.73.83-.29.23-.62.41-1,.54-.37.12-.76.19-1.18.19-.67,0-1.27-.16-1.82-.47s-.98-.75-1.3-1.31c-.32-.56-.48-1.19-.48-1.88,0-.74.17-1.41.52-2,.35-.59.84-1.05,1.47-1.39s1.36-.5,2.18-.5c.8,0,1.53.18,2.19.53ZM255.61,317c-.34.2-.6.46-.79.79-.19.33-.29.7-.29,1.1,0,.4.1.77.29,1.1s.45.59.77.79.7.29,1.11.29.79-.1,1.12-.3c.34-.2.61-.47.81-.81.2-.34.3-.69.29-1.07,0-.39-.1-.75-.29-1.08-.19-.33-.45-.59-.79-.79-.33-.2-.71-.3-1.13-.3s-.78.1-1.11.29Z"/></g><g id="section8"><path class="cls-6" d="M338.71,343.71c-10.49.4-40.75.21-50.85-.07-2.59-.07-4.11-.59-3.79-3.38,1.01-8.76,1.98-17.51,2.89-26.28.26-2.48,1.48-3.35,4.16-3.33,14.63.09,29.26.1,43.89,0,3.26-.02,4.33,1.36,4.66,4.13.99,8.33,1.92,16.85,2.64,25.32.28,3.33-.77,3.5-3.6,3.61Z"/><path class="cls-5" d="M310.36,333.63c-.65-.28-1.16-.66-1.53-1.14s-.55-1.03-.55-1.63c0-.47.11-.91.32-1.31s.5-.74.88-1.01c.37-.27.78-.43,1.23-.5v-.07c-.39-.09-.73-.25-1.03-.49-.3-.24-.54-.53-.71-.89-.17-.35-.25-.73-.25-1.14,0-.58.17-1.1.5-1.56s.8-.82,1.38-1.08,1.25-.39,1.98-.39,1.39.13,1.98.39c.59.26,1.05.62,1.39,1.08.33.46.5.98.5,1.56,0,.41-.09.79-.26,1.14s-.41.65-.71.89c-.3.24-.65.4-1.03.49v.07c.45.07.86.23,1.23.5.37.27.66.6.88,1.01.22.41.32.84.32,1.31,0,.6-.18,1.15-.55,1.63s-.88.86-1.53,1.14c-.65.28-1.39.41-2.21.41s-1.57-.14-2.22-.41ZM313.73,332.21c.33-.15.59-.36.77-.62.18-.27.27-.57.27-.91s-.09-.67-.28-.96-.45-.5-.79-.66-.71-.24-1.13-.24-.79.08-1.13.24c-.34.16-.6.38-.79.66s-.28.6-.27.96c0,.34.08.65.27.91.18.27.44.47.77.62.33.15.72.22,1.16.22s.82-.07,1.15-.22ZM313.54,327.1c.29-.14.51-.34.67-.59.16-.25.24-.54.24-.86s-.08-.6-.24-.85c-.16-.25-.38-.44-.67-.58-.29-.14-.61-.2-.98-.2s-.7.07-.98.2c-.29.14-.51.33-.66.58s-.23.53-.23.85.08.61.24.86c.16.25.38.45.67.59.28.14.61.21.97.21s.68-.07.97-.21Z"/></g><g id="section7"><path class="cls-6" d="M395.33,330.23c-4.52,1.49-31.59,8.72-45.2,12.22-2.85.73-4.71.75-5.07-2.86-.89-8.75-1.96-17.48-2.95-26.22-.42-1.87.09-3.17,2.18-3.66,13.73-3.26,27.45-6.56,41.17-9.89,2.37-.58,3.58.09,4.44,2.53,2.75,7.79,5.36,15.05,8.07,23.06,1.07,3.17.08,3.93-2.64,4.83Z"/><path class="cls-5" d="M369.65,316.99v-.07h-5.7v-1.7h7.8v1.74l-4.91,9.57h-2.11l4.91-9.54Z"/></g><g id="section6"><path class="cls-6" d="M448.53,304.44c-14.11,7.11-27.75,14.39-41.81,21.61-1.03.53-2.1.99-2.91,1.37-1.85.15-2.25-1.08-2.63-2.13-5.73-15.79-11.43-31.6-17.14-47.4-.84-2.32-.55-4.1,1.89-5.42,10.51-5.73,21.01-11.5,31.41-17.42,2.04-1.16,3.1-1.09,4.4.88,9.54,14.43,18.76,28.83,28.4,43.19,1.73,2.58,1.15,3.94-1.6,5.33Z"/><path class="cls-5" d="M412.99,296.19c-.66-.36-1.19-.94-1.61-1.76-.41-.82-.62-1.88-.62-3.19s.18-2.38.55-3.3c.37-.92.89-1.62,1.57-2.11s1.48-.72,2.4-.72c.71,0,1.35.14,1.91.41s1.02.65,1.37,1.14.57,1.04.65,1.66h-2.01c-.08-.3-.2-.55-.37-.77-.17-.22-.39-.38-.65-.5s-.57-.17-.91-.17c-.54,0-1,.15-1.38.46-.38.3-.67.74-.87,1.32-.2.57-.3,1.26-.3,2.06h.11c.19-.33.44-.61.73-.84.29-.23.63-.41,1-.54.37-.12.76-.18,1.17-.18.67,0,1.28.16,1.83.47.55.32.98.75,1.29,1.31s.47,1.19.47,1.9-.17,1.41-.52,2c-.35.59-.84,1.06-1.47,1.39s-1.36.5-2.18.5c-.8,0-1.53-.19-2.19-.54ZM416.29,294.79c.33-.2.6-.46.79-.8s.29-.71.29-1.11-.09-.78-.28-1.11-.45-.59-.78-.79c-.33-.19-.71-.29-1.13-.29s-.78.1-1.12.29c-.34.2-.61.46-.8.8-.2.34-.3.7-.31,1.1,0,.39.11.75.3,1.09s.46.6.79.8c.33.2.71.3,1.12.3s.78-.1,1.12-.29Z"/></g><g id="section5"><path class="cls-6" d="M494.45,261.37c2.24,2.1,1.19,3.2-.54,4.7-12.18,10.54-23.89,21.22-36.04,31.8-.87.76-3.87,1.92-5.52-.5-9.81-14.42-18.72-28.12-28.42-42.61-1.3-1.94-1.39-3.37.64-5.09,8.98-7.64,17.89-15.36,26.65-23.24,2.16-1.95,3.23-1.99,5.19-.18,12.7,11.7,25.16,23.03,38.03,35.13Z"/><path class="cls-5" d="M454.69,265.76c-.6-.28-1.07-.66-1.42-1.15s-.53-1.04-.55-1.66h1.98c.03.3.14.57.32.81.18.24.42.43.72.56s.62.2.97.2c.42,0,.79-.09,1.12-.28s.59-.45.77-.77.28-.7.28-1.12-.1-.81-.29-1.14c-.19-.33-.45-.59-.79-.79-.34-.19-.72-.29-1.16-.29-.45,0-.83.07-1.14.23s-.56.4-.73.74h-1.88l.68-6.41h6.68v1.7h-5l-.34,3.01h.09c.23-.25.54-.46.93-.62.39-.16.82-.24,1.27-.24.69,0,1.32.16,1.88.48.56.32.99.77,1.31,1.34.31.57.47,1.21.47,1.93s-.18,1.41-.53,2c-.35.59-.85,1.05-1.47,1.38-.63.33-1.34.5-2.14.5-.74,0-1.41-.14-2.01-.42Z"/></g><g id="section4"><path class="cls-6" d="M526.29,212.79c2.77,1.45,2.41,3.13,1.02,5.23-9.04,13.58-17.37,26.03-26.77,40.04-1.51,2.25-2.62,2.44-4.63.6-13.26-12.1-24.9-22.36-37.65-34.06-1.71-1.57-2.26-2.86-.83-5.09,6.31-9.8,12.3-20.89,18.49-30.76.6-.96,2.11-2.6,4.27-1.47,15.64,8.15,30.48,17.31,46.1,25.52Z"/><path class="cls-5" d="M485.77,223.58l4.89-7.59h1.34v2.31h-.84l-3.31,5.13v.09h6.83v1.66h-8.91v-1.62ZM491.26,224.72l.02-.73v-7.98h1.92v11.31h-1.95v-2.59Z"/></g><g id="section3"><path class="cls-6" d="M494.32,151.11c16.3,3.96,32.6,7.95,48.91,11.86,3.09.74,3.88,2.01,2.8,5.26-4.54,13.59-8.9,26.65-13.48,40.22-.81,2.4-1.74,3.23-4.26,1.85-15.47-8.47-30.99-16.86-46.54-25.19-2.09-1.12-2.44-2.59-1.75-4.52,3.26-9.09,6.55-18.16,9.89-27.22.49-1.32.89-3.03,3.01-2.69.46.14.93.31,1.42.43Z"/><path class="cls-5" d="M509.5,182.67c-.63-.27-1.12-.65-1.48-1.14-.36-.49-.55-1.05-.57-1.68h2.05c.02.29.12.55.31.78s.44.41.76.54c.32.13.67.19,1.05.19.41,0,.78-.07,1.11-.21.33-.14.59-.34.77-.59.18-.25.27-.54.27-.87,0-.35-.08-.66-.27-.92-.19-.26-.46-.47-.81-.62-.36-.15-.78-.22-1.26-.22h-1.01v-1.57h1.01c.4,0,.76-.07,1.07-.21.31-.14.55-.33.72-.58.17-.25.25-.54.25-.86s-.07-.6-.22-.84-.36-.43-.63-.56-.59-.2-.96-.2-.68.06-.99.19-.55.31-.73.54c-.19.23-.29.51-.3.82h-1.96c.03-.62.21-1.18.57-1.66s.83-.86,1.43-1.13c.6-.27,1.27-.41,2-.41s1.41.14,1.98.41,1.01.65,1.33,1.13c.31.48.47,1.01.46,1.59.01.41-.07.79-.24,1.13s-.42.62-.73.85c-.32.22-.68.38-1.09.47v.09c.53.07.98.22,1.36.46s.66.55.86.92c.2.37.29.8.28,1.28.01.62-.17,1.18-.54,1.68s-.87.9-1.52,1.18c-.64.29-1.37.43-2.18.43s-1.51-.14-2.14-.41Z"/></g><g id="section2"><path class="cls-6" d="M500.45,112.5c17.56,1.4,33.97,2.79,50.71,4,3.03.22,2.88,1.48,2.57,3.87-1.62,12.67-3.41,24.8-5.04,37.49-.34,2.67-1.2,3.42-3.82,2.76-16.09-4.05-32.11-7.56-48.25-11.38-3.28-.78-4.36-2.17-3.93-5.45,1.13-8.73,2.32-17.47,2.94-26.25.29-4.11,1.67-5.05,4.83-5.05Z"/><path class="cls-5" d="M518.07,138.09l3.99-3.84c.44-.44.78-.8,1.02-1.07.24-.28.42-.56.55-.83s.19-.57.19-.88c0-.34-.09-.64-.26-.9s-.4-.46-.7-.61c-.29-.14-.62-.21-1-.21s-.71.08-1,.23c-.29.15-.52.37-.67.66s-.23.62-.23.99h-1.93c0-.7.16-1.32.49-1.86s.79-.95,1.37-1.24,1.25-.44,2-.44,1.43.14,2.02.42c.58.28,1.04.67,1.36,1.16.33.5.49,1.06.49,1.69,0,.44-.08.86-.25,1.27-.17.41-.45.85-.86,1.34-.4.49-.98,1.09-1.73,1.8l-2.02,2v.09h5.02v1.7h-7.85v-1.48Z"/></g><g id="section1"><path class="cls-6" d="M550.05,113.68c-6.62-.6-13.27-.71-19.9-1.22-9.93-.75-19.85-1.71-29.79-2.48-2.89-.22-3.91-1.43-3.84-4.41.21-8.99.21-17.98.09-26.97-.04-3,1.01-3.94,4-4.18,16.88-1.36,33.75-2.9,50.61-4.49,2.92-.28,3.43,1.18,3.42,3.5-.02,6.16.14,29.64.14,35.46,0,3.66-.85,5.13-4.72,4.78Z"/><path class="cls-5" d="M527.71,97.91h-2.05v-9.33h-.06l-2.65,1.7v-1.87l2.8-1.81h1.95v11.31Z"/></g><g id="section24"><path class="cls-7" d="M619.09,80.4c-1.91.18-33.44,1.97-46.71,3.1-1.76.15-3.8.2-4-3.1-.72-11.85-1.36-23.66-2.06-35.1-.16-2.59,1.1-3.35,3.18-3.74,3.44-.64,6.87-1.56,10.34-2.34,12.02-2.7,25.94-5.62,38.67-8.51.84-.19,1.62.06,2.3.48,1.41.89,2.25,2.45,2.38,4.11.46,5.88,1.96,25.17,2.62,35.8.9,7.97.66,8.58-6.72,9.29Z"/><path class="cls-5" d="M586.9,63.87l3.99-3.84c.44-.44.78-.8,1.02-1.07.24-.28.42-.56.55-.83s.19-.57.19-.88c0-.34-.09-.64-.26-.9s-.4-.46-.7-.61c-.29-.14-.62-.21-1-.21s-.71.08-1,.23c-.29.15-.52.37-.67.66s-.23.62-.23.99h-1.93c0-.7.16-1.32.49-1.86s.79-.95,1.37-1.24,1.25-.44,2-.44,1.43.14,2.02.42c.58.28,1.04.67,1.36,1.16.33.5.49,1.06.49,1.69,0,.44-.08.86-.25,1.27-.17.41-.45.85-.86,1.34-.4.49-.98,1.09-1.73,1.8l-2.02,2v.09h5.02v1.7h-7.85v-1.48Z"/><path class="cls-5" d="M596.09,61.62l4.89-7.59h1.34v2.31h-.84l-3.31,5.13v.09h6.83v1.66h-8.91v-1.62ZM601.58,62.75l.02-.73v-7.98h1.92v11.31h-1.95v-2.59Z"/></g><g id="section25"><path class="cls-7" d="M618.27,127.44c-1.83,0-33.38-.8-47.33-1.04-1.89-.03-4.37.51-4.23-2.68.53-11.61,1.15-23.21,1.68-34.81.12-2.65,1.59-3.23,3.91-3.3,3.81-.11,7.61-.49,11.42-.73,12.92-.81,25.84-1.59,38.76-2.42,2.51-.16,3.98.21,3.96,3.4-.08,10.99-.49,22.92-.92,34.37q-.27,7.25-7.25,7.21Z"/><path class="cls-5" d="M588.19,110.11l3.99-3.84c.44-.44.78-.8,1.02-1.07.24-.28.42-.56.55-.83s.19-.57.19-.88c0-.34-.09-.64-.26-.9s-.4-.46-.7-.61c-.29-.14-.62-.21-1-.21s-.71.08-1,.23c-.29.15-.52.37-.67.66s-.23.62-.23.99h-1.93c0-.7.16-1.32.49-1.86s.79-.95,1.37-1.24,1.25-.44,2-.44,1.43.14,2.02.42c.58.28,1.04.67,1.36,1.16.33.5.49,1.06.49,1.69,0,.44-.08.86-.25,1.27-.17.41-.45.85-.86,1.34-.4.49-.98,1.09-1.73,1.8l-2.02,2v.09h5.02v1.7h-7.85v-1.48Z"/><path class="cls-5" d="M599.83,111.32c-.6-.28-1.07-.66-1.42-1.15s-.53-1.04-.55-1.66h1.98c.03.3.14.57.32.81.18.24.42.43.72.56s.62.2.97.2c.42,0,.79-.09,1.12-.28s.59-.45.77-.77.28-.7.28-1.12-.1-.81-.29-1.14c-.19-.33-.45-.59-.79-.79-.34-.19-.72-.29-1.16-.29-.45,0-.83.07-1.14.23s-.56.4-.73.74h-1.88l.68-6.41h6.68v1.7h-5l-.34,3.01h.09c.23-.25.54-.46.93-.62.39-.16.82-.24,1.27-.24.69,0,1.32.16,1.88.48.56.32.99.77,1.31,1.34.31.57.47,1.21.47,1.93s-.18,1.41-.53,2c-.35.59-.85,1.05-1.47,1.38-.63.33-1.34.5-2.14.5-.74,0-1.41-.14-2.01-.42Z"/></g><g id="section26"><path class="cls-7" d="M614.97,181.51c-17.27-3.36-34.56-6.68-51.88-9.77-3.16-.56-3.93-1.88-3.55-4.68,2.06-11.95,4.15-23.89,6.17-35.84.43-2.57,2.24-2.56,4.11-2.49,5.98.22,39.9.52,50.84,1.69,2.03.22,4.08-.13,3.76,3.08-1.47,14.71-2.96,29.41-4.15,44.14-.32,3.93-1.88,4.53-5.31,3.86Z"/><path class="cls-5" d="M582.88,156.75l3.99-3.84c.44-.44.78-.8,1.02-1.07.24-.28.42-.56.55-.83s.19-.57.19-.88c0-.34-.09-.64-.26-.9s-.4-.46-.7-.61c-.29-.14-.62-.21-1-.21s-.71.08-1,.23c-.29.15-.52.37-.67.66s-.23.62-.23.99h-1.93c0-.7.16-1.32.49-1.86s.79-.95,1.37-1.24,1.25-.44,2-.44,1.43.14,2.02.42c.58.28,1.04.67,1.36,1.16.33.5.49,1.06.49,1.69,0,.44-.08.86-.25,1.27-.17.41-.45.85-.86,1.34-.4.49-.98,1.09-1.73,1.8l-2.02,2v.09h5.02v1.7h-7.85v-1.48Z"/><path class="cls-5" d="M594.58,157.84c-.66-.36-1.19-.94-1.61-1.76-.41-.82-.62-1.88-.62-3.19s.18-2.38.55-3.3c.37-.92.89-1.62,1.57-2.11s1.48-.72,2.4-.72c.71,0,1.35.14,1.91.41s1.02.65,1.37,1.14.57,1.04.65,1.66h-2.01c-.08-.3-.2-.55-.37-.77-.17-.22-.39-.38-.65-.5s-.57-.17-.91-.17c-.54,0-1,.15-1.38.46-.38.3-.67.74-.87,1.32-.2.57-.3,1.26-.3,2.06h.11c.19-.33.44-.61.73-.84.29-.23.63-.41,1-.54.37-.12.76-.18,1.17-.18.67,0,1.28.16,1.83.47.55.32.98.75,1.29,1.31s.47,1.19.47,1.9-.17,1.41-.52,2c-.35.59-.84,1.06-1.47,1.39s-1.36.5-2.18.5c-.8,0-1.53-.19-2.19-.54ZM597.88,156.44c.33-.2.6-.46.79-.8s.29-.71.29-1.11-.09-.78-.28-1.11-.45-.59-.78-.79c-.33-.19-.71-.29-1.13-.29s-.78.1-1.12.29c-.34.2-.61.46-.8.8-.2.34-.3.7-.31,1.1,0,.39.11.75.3,1.09s.46.6.79.8c.33.2.71.3,1.12.3s.78-.1,1.12-.29Z"/></g><g id="section27"><path class="cls-7" d="M605.87,228.31c4.03-13.21,8.09-26.08,11.98-39.65.7-2.46,1.02-4.02-2.17-4.61-18.3-3.35-36.59-6.81-54.88-10.23-.16-.03-.33-.06-.9-.15-1.28-.25-1.98.68-2.41,2.14-3.22,11.02-6.46,22.03-9.72,33.03-.88,2.97.84,4.22,3.19,5.25,14.76,6.5,29.45,13.15,44.27,19.52,7.89,3.39,8.05,3.21,10.64-5.3Z"/><path class="cls-5" d="M572.64,205.91l3.99-3.84c.44-.44.78-.8,1.02-1.07.24-.28.42-.56.55-.83s.19-.57.19-.88c0-.34-.09-.64-.26-.9s-.4-.46-.7-.61c-.29-.14-.62-.21-1-.21s-.71.08-1,.23c-.29.15-.52.37-.67.66s-.23.62-.23.99h-1.93c0-.7.16-1.32.49-1.86s.79-.95,1.37-1.24,1.25-.44,2-.44,1.43.14,2.02.42c.58.28,1.04.67,1.36,1.16.33.5.49,1.06.49,1.69,0,.44-.08.86-.25,1.27-.17.41-.45.85-.86,1.34-.4.49-.98,1.09-1.73,1.8l-2.02,2v.09h5.02v1.7h-7.85v-1.48Z"/><path class="cls-5" d="M587.61,197.85v-.07h-5.7v-1.7h7.8v1.74l-4.91,9.57h-2.11l4.91-9.54Z"/></g><g id="section28"><path class="cls-7" d="M526.67,255.18c-.93-.67-2.04-1.22-2.02-3.03.33-.72.74-1.8,1.31-2.8,5.26-9.26,10.54-18.51,15.83-27.75,3.96-6.91,4.02-7,11.2-3.85,15.54,6.82,31.04,13.74,46.52,20.7,1.14.51,2.68,1.92,1.1,4.63-8.62,14.8-16.14,28.02-24.66,42.88-1.32,2.3-2.59,2.75-4.69,1.24-14.86-10.68-29.73-21.34-44.59-32.02Z"/><path class="cls-5" d="M551.33,253.13l3.99-3.84c.44-.44.78-.8,1.02-1.07.24-.28.42-.56.55-.83s.19-.57.19-.88c0-.34-.09-.64-.26-.9s-.4-.46-.7-.61c-.29-.14-.62-.21-1-.21s-.71.08-1,.23c-.29.15-.52.37-.67.66s-.23.62-.23.99h-1.93c0-.7.16-1.32.49-1.86s.79-.95,1.37-1.24,1.25-.44,2-.44,1.43.14,2.02.42c.58.28,1.04.67,1.36,1.16.33.5.49,1.06.49,1.69,0,.44-.08.86-.25,1.27-.17.41-.45.85-.86,1.34-.4.49-.98,1.09-1.73,1.8l-2.02,2v.09h5.02v1.7h-7.85v-1.48Z"/><path class="cls-5" d="M562.86,254.35c-.65-.28-1.16-.66-1.53-1.14s-.55-1.03-.55-1.63c0-.47.11-.91.32-1.31s.5-.74.88-1.01c.37-.27.78-.43,1.23-.5v-.07c-.39-.09-.73-.25-1.03-.49-.3-.24-.54-.53-.71-.89-.17-.35-.25-.73-.25-1.14,0-.58.17-1.1.5-1.56s.8-.82,1.38-1.08,1.25-.39,1.98-.39,1.39.13,1.98.39c.59.26,1.05.62,1.39,1.08.33.46.5.98.5,1.56,0,.41-.09.79-.26,1.14s-.41.65-.71.89c-.3.24-.65.4-1.03.49v.07c.45.07.86.23,1.23.5.37.27.66.6.88,1.01.22.41.32.84.32,1.31,0,.6-.18,1.15-.55,1.63s-.88.86-1.53,1.14c-.65.28-1.39.41-2.21.41s-1.57-.14-2.22-.41ZM566.23,252.93c.33-.15.59-.36.77-.62.18-.27.27-.57.27-.91s-.09-.67-.28-.96-.45-.5-.79-.66-.71-.24-1.13-.24-.79.08-1.13.24c-.34.16-.6.38-.79.66s-.28.6-.27.96c0,.34.08.65.27.91.18.27.44.47.77.62.33.15.72.22,1.16.22s.82-.07,1.15-.22ZM566.04,247.82c.29-.14.51-.34.67-.59.16-.25.24-.54.24-.86s-.08-.6-.24-.85c-.16-.25-.38-.44-.67-.58-.29-.14-.61-.2-.98-.2s-.7.07-.98.2c-.29.14-.51.33-.66.58s-.23.53-.23.85.08.61.24.86c.16.25.38.45.67.59.28.14.61.21.97.21s.68-.07.97-.21Z"/></g><g id="section29"><path class="cls-7" d="M494.31,287.76c8.73-9.83,17.46-19.64,26.13-29.52,1.64-1.87,3.02-2.02,5.07-.53,14.67,10.66,29.45,21.17,44.13,31.83,2.52,1.83,1.09,4.44.5,5.11-11.99,13.6-24.02,27.16-35.97,40.79-1.89,2.16-3.25,2.25-5.1-.03-11.54-14.2-23.12-28.37-34.8-42.47-1.63-1.97-1.51-3.44.04-5.19Z"/><path class="cls-5" d="M520.26,296.57l3.99-3.84c.44-.44.78-.8,1.02-1.07.24-.28.42-.56.55-.83s.19-.57.19-.88c0-.34-.09-.64-.26-.9s-.4-.46-.7-.61c-.29-.14-.62-.21-1-.21s-.71.08-1,.23c-.29.15-.52.37-.67.66s-.23.62-.23.99h-1.93c0-.7.16-1.32.49-1.86s.79-.95,1.37-1.24,1.25-.44,2-.44,1.43.14,2.02.42c.58.28,1.04.67,1.36,1.16.33.5.49,1.06.49,1.69,0,.44-.08.86-.25,1.27-.17.41-.45.85-.86,1.34-.4.49-.98,1.09-1.73,1.8l-2.02,2v.09h5.02v1.7h-7.85v-1.48Z"/><path class="cls-5" d="M536.12,287.11c.66.35,1.19.94,1.6,1.75.41.81.61,1.88.61,3.19,0,1.28-.18,2.38-.54,3.31s-.89,1.63-1.58,2.12c-.69.49-1.49.73-2.41.73-.71,0-1.35-.14-1.91-.42-.57-.28-1.03-.66-1.38-1.15-.35-.49-.57-1.04-.65-1.66h2c.07.3.2.55.37.77.17.22.39.39.66.51s.57.18.91.18c.54,0,1-.15,1.39-.46s.67-.75.88-1.33c.2-.58.3-1.27.3-2.07h-.12c-.19.32-.44.59-.73.83-.29.23-.62.41-1,.54-.37.12-.76.19-1.18.19-.67,0-1.27-.16-1.82-.47s-.98-.75-1.3-1.31c-.32-.56-.48-1.19-.48-1.88,0-.74.17-1.41.52-2,.35-.59.84-1.05,1.47-1.39s1.36-.5,2.18-.5c.8,0,1.53.18,2.19.53ZM532.81,288.51c-.34.2-.6.46-.79.79-.19.33-.29.7-.29,1.1,0,.4.1.77.29,1.1s.45.59.77.79.7.29,1.11.29.79-.1,1.12-.3c.34-.2.61-.47.81-.81.2-.34.3-.69.29-1.07,0-.39-.1-.75-.29-1.08-.19-.33-.45-.59-.79-.79-.33-.2-.71-.3-1.13-.3s-.78.1-1.11.29Z"/></g><g id="section30"><path class="cls-7" d="M455.94,318.12c10.32-7.86,20.59-15.78,30.89-23.66.38-.29.77-.56,1.22-.86,1.31-.87,3.07-.55,3.99.73.24.33.49.66.75.98,11.32,13.94,22.61,27.9,34.03,41.75,1.75,2.12,2.09,3.49-.33,5.2-13.58,9.59-27.15,19.22-40.65,28.93-2.03,1.46-3.03,1.18-4.23-.93-8.91-15.6-17.88-31.17-26.93-46.68-1.43-2.45-.76-3.91,1.26-5.45Z"/><path class="cls-5" d="M480.82,336.94c-.63-.27-1.12-.65-1.48-1.14s-.55-1.05-.57-1.68h2.05c.02.29.12.55.31.78s.44.41.76.54.67.19,1.05.19c.41,0,.78-.07,1.11-.21s.59-.34.77-.59.27-.54.27-.87c0-.35-.08-.66-.27-.92s-.46-.47-.81-.62-.78-.22-1.26-.22h-1.01v-1.57h1.01c.4,0,.76-.07,1.07-.21s.55-.33.72-.58.25-.54.25-.86-.07-.6-.22-.84-.36-.43-.63-.56-.59-.2-.96-.2-.68.06-.99.19-.55.31-.73.54-.29.51-.3.82h-1.96c.03-.62.21-1.18.57-1.66s.83-.86,1.43-1.13,1.27-.41,2-.41,1.41.14,1.98.41,1.01.65,1.33,1.13.47,1.01.46,1.59c.01.41-.07.79-.24,1.13s-.42.62-.73.85-.68.38-1.09.47v.09c.53.07.98.22,1.36.46s.66.55.86.92.29.8.28,1.28c.01.62-.17,1.18-.54,1.68s-.87.9-1.52,1.18-1.37.43-2.18.43-1.51-.14-2.14-.41Z"/><path class="cls-5" d="M490.8,336.66c-.65-.45-1.15-1.12-1.49-1.99s-.52-1.92-.52-3.14.17-2.27.52-3.14.84-1.53,1.5-1.99,1.43-.68,2.33-.68,1.68.23,2.33.68,1.15,1.12,1.5,1.99.52,1.92.52,3.14-.17,2.28-.51,3.15-.84,1.53-1.49,1.98-1.43.68-2.34.68-1.68-.23-2.33-.68ZM494.36,335.17c.34-.31.61-.77.79-1.38s.27-1.36.27-2.25c0-.89-.09-1.64-.28-2.25s-.45-1.08-.79-1.4-.75-.47-1.22-.47-.88.16-1.22.47-.61.78-.79,1.4-.28,1.37-.28,2.25.09,1.64.28,2.25.45,1.07.79,1.38.75.46,1.23.46.88-.16,1.23-.46Z"/></g><g id="section31"><path class="cls-7" d="M410.66,345.1c-.32-2.53,1.31-3.19,2.79-3.95,11.24-5.81,22.52-11.57,33.71-17.47,2.53-1.34,3.96-1.29,5.52,1.49,8.8,15.67,17.78,31.24,26.76,46.81,1.2,2.08.9,2.91-1.37,4.01-14.23,6.92-28.43,13.91-42.47,21.19-3.94,2.04-5.39,1.2-6.85-2.72-4.55-12.22-9.18-25-13.78-37.49-1.5-4.06-2.95-8.13-4.3-11.87Z"/><path class="cls-5" d="M436.82,364.77c-.63-.27-1.12-.65-1.48-1.14-.36-.49-.55-1.05-.57-1.68h2.05c.02.29.12.55.31.78s.44.41.76.54c.32.13.67.19,1.05.19.41,0,.78-.07,1.11-.21.33-.14.59-.34.77-.59.18-.25.27-.54.27-.87,0-.35-.08-.66-.27-.92-.19-.26-.46-.47-.81-.62-.36-.15-.78-.22-1.26-.22h-1.01v-1.57h1.01c.4,0,.76-.07,1.07-.21.31-.14.55-.33.72-.58.17-.25.25-.54.25-.86s-.07-.6-.22-.84-.36-.43-.63-.56-.59-.2-.96-.2-.68.06-.99.19-.55.31-.73.54c-.19.23-.29.51-.3.82h-1.96c.03-.62.21-1.18.57-1.66s.83-.86,1.43-1.13c.6-.27,1.27-.41,2-.41s1.41.14,1.98.41,1.01.65,1.33,1.13c.31.48.47,1.01.46,1.59.01.41-.07.79-.24,1.13s-.42.62-.73.85c-.32.22-.68.38-1.09.47v.09c.53.07.98.22,1.36.46s.66.55.86.92c.2.37.29.8.28,1.28.01.62-.17,1.18-.54,1.68s-.87.9-1.52,1.18c-.64.29-1.37.43-2.18.43s-1.51-.14-2.14-.41Z"/><path class="cls-5" d="M449.55,365.02h-2.05v-9.33h-.06l-2.65,1.7v-1.87l2.8-1.81h1.95v11.31Z"/></g><g id="section32"><path class="cls-7" d="M363.97,359.03c-.77-3.24,1.41-3.62,3.34-4.17,11.68-3.32,23.38-6.58,35.04-9.96,3.76-1.09,5.46,0,6.92,3.84,5.7,14.99,11.37,30.6,15.78,43.67,2.78,8.26,2.97,7.97-5.44,10.18-14.29,3.75-25.93,6.94-42.54,10.81-2.46.57-4.39-1.33-4.65-2.81-1.15-6.7-2.11-12.21-3.21-18.92-1.79-10.99-3.53-21.99-5.24-32.64Z"/><path class="cls-5" d="M385.76,384.9c-.63-.27-1.12-.65-1.48-1.14-.36-.49-.55-1.05-.57-1.68h2.05c.02.29.12.55.31.78.19.23.44.41.76.54.32.13.67.19,1.05.19.41,0,.78-.07,1.11-.21.33-.14.59-.34.77-.59.18-.25.27-.54.27-.87,0-.35-.08-.65-.27-.92-.19-.26-.46-.47-.81-.62-.36-.15-.78-.22-1.26-.22h-1.01v-1.57h1.01c.4,0,.76-.07,1.07-.21.31-.14.55-.33.72-.58.17-.25.25-.54.25-.86s-.07-.6-.22-.84-.36-.43-.63-.56-.59-.2-.96-.2-.68.06-.99.19c-.3.13-.55.31-.73.54-.19.23-.29.51-.3.82h-1.96c.03-.62.21-1.18.57-1.66s.83-.86,1.43-1.13c.6-.27,1.27-.41,2-.41s1.41.14,1.98.41c.57.28,1.01.65,1.33,1.13.31.48.47,1.01.46,1.59.01.41-.07.79-.24,1.13-.17.34-.42.62-.73.85-.32.22-.68.38-1.09.47v.09c.53.07.98.22,1.36.46s.66.55.86.92c.2.37.29.8.28,1.28.01.62-.17,1.18-.54,1.68-.37.5-.87.9-1.52,1.18-.64.29-1.37.43-2.18.43s-1.51-.13-2.14-.41Z"/><path class="cls-5" d="M393.9,383.67l3.99-3.84c.44-.44.78-.79,1.02-1.07.24-.28.42-.55.55-.83.12-.28.19-.57.19-.88,0-.34-.09-.64-.26-.9-.17-.26-.4-.46-.7-.61-.29-.14-.62-.21-1-.21s-.71.08-1,.23c-.29.15-.52.38-.67.66-.16.29-.23.62-.23.99h-1.93c0-.7.16-1.32.49-1.86.33-.53.79-.95,1.37-1.24.59-.29,1.25-.44,2-.44s1.43.14,2.02.42c.58.28,1.04.67,1.36,1.16.33.5.49,1.06.49,1.69,0,.44-.08.86-.25,1.27-.17.41-.45.86-.86,1.34-.4.49-.98,1.09-1.73,1.8l-2.02,2v.09h5.02v1.7h-7.85v-1.48Z"/></g><g id="section33"><path class="cls-7" d="M314.57,389.1s.03,0,.04,0c0-8.48.1-16.96-.05-25.44-.06-3.25,1.38-3.91,4.53-4.06,13.26-.62,26.36-1.75,39.6-2.71,2.14-.15,2.66,1.29,2.98,3.19,1.16,6.97,5.93,38.16,8,50.87.38,2.33-.68,3.56-2.71,3.74-16.41,1.44-30.84,2.45-47.56,3.44-4.25.25-5.01-1.35-4.9-5.09.23-7.98.07-15.96.07-23.95Z"/><path class="cls-5" d="M333.09,393.03c-.63-.27-1.12-.65-1.48-1.14-.36-.49-.55-1.05-.57-1.68h2.05c.02.29.12.55.31.78s.44.41.76.54c.32.13.67.19,1.05.19.41,0,.78-.07,1.11-.21.33-.14.59-.34.77-.59.18-.25.27-.54.27-.87,0-.35-.08-.66-.27-.92-.19-.26-.46-.47-.81-.62-.36-.15-.78-.22-1.26-.22h-1.01v-1.57h1.01c.4,0,.76-.07,1.07-.21.31-.14.55-.33.72-.58.17-.25.25-.54.25-.86s-.07-.6-.22-.84-.36-.43-.63-.56-.59-.2-.96-.2-.68.06-.99.19-.55.31-.73.54c-.19.23-.29.51-.3.82h-1.96c.03-.62.21-1.18.57-1.66s.83-.86,1.43-1.13c.6-.27,1.27-.41,2-.41s1.41.14,1.98.41,1.01.65,1.33,1.13c.31.48.47,1.01.46,1.59.01.41-.07.79-.24,1.13s-.42.62-.73.85c-.32.22-.68.38-1.09.47v.09c.53.07.98.22,1.36.46s.66.55.86.92c.2.37.29.8.28,1.28.01.62-.17,1.18-.54,1.68s-.87.9-1.52,1.18c-.64.29-1.37.43-2.18.43s-1.51-.14-2.14-.41Z"/><path class="cls-5" d="M343.19,393.03c-.63-.27-1.12-.65-1.48-1.14-.36-.49-.55-1.05-.57-1.68h2.05c.02.29.12.55.31.78s.44.41.76.54c.32.13.67.19,1.05.19.41,0,.78-.07,1.11-.21.33-.14.59-.34.77-.59.18-.25.27-.54.27-.87,0-.35-.08-.66-.27-.92-.19-.26-.46-.47-.81-.62-.36-.15-.78-.22-1.26-.22h-1.01v-1.57h1.01c.4,0,.76-.07,1.07-.21.31-.14.55-.33.72-.58.17-.25.25-.54.25-.86s-.07-.6-.22-.84-.36-.43-.63-.56-.59-.2-.96-.2-.68.06-.99.19-.55.31-.73.54c-.19.23-.29.51-.3.82h-1.96c.03-.62.21-1.18.57-1.66s.83-.86,1.43-1.13c.6-.27,1.27-.41,2-.41s1.41.14,1.98.41,1.01.65,1.33,1.13c.31.48.47,1.01.46,1.59.01.41-.07.79-.24,1.13s-.42.62-.73.85c-.32.22-.68.38-1.09.47v.09c.53.07.98.22,1.36.46s.66.55.86.92c.2.37.29.8.28,1.28.01.62-.17,1.18-.54,1.68s-.87.9-1.52,1.18c-.64.29-1.37.43-2.18.43s-1.51-.14-2.14-.41Z"/></g><g id="section34"><path class="cls-7" d="M311.86,389.1s-.03,0-.04,0c0-8.48-.1-16.96.05-25.44.06-3.25-1.38-3.91-4.53-4.06-13.26-.62-26.36-1.75-39.6-2.71-2.14-.15-2.66,1.29-2.98,3.19-1.16,6.97-5.93,38.16-8,50.87-.38,2.33.68,3.56,2.71,3.74,16.41,1.44,30.84,2.45,47.56,3.44,4.25.25,5.01-1.35,4.9-5.09-.23-7.98-.07-15.96-.07-23.95Z"/><path class="cls-5" d="M278.98,393.03c-.63-.27-1.12-.65-1.48-1.14-.36-.49-.55-1.05-.57-1.68h2.05c.02.29.12.55.31.78s.44.41.76.54c.32.13.67.19,1.05.19.41,0,.78-.07,1.11-.21.33-.14.59-.34.77-.59.18-.25.27-.54.27-.87,0-.35-.08-.66-.27-.92-.19-.26-.46-.47-.81-.62-.36-.15-.78-.22-1.26-.22h-1.01v-1.57h1.01c.4,0,.76-.07,1.07-.21.31-.14.55-.33.72-.58.17-.25.25-.54.25-.86s-.07-.6-.22-.84-.36-.43-.63-.56-.59-.2-.96-.2-.68.06-.99.19-.55.31-.73.54c-.19.23-.29.51-.3.82h-1.96c.03-.62.21-1.18.57-1.66s.83-.86,1.43-1.13c.6-.27,1.27-.41,2-.41s1.41.14,1.98.41,1.01.65,1.33,1.13c.31.48.47,1.01.46,1.59.01.41-.07.79-.24,1.13s-.42.62-.73.85c-.32.22-.68.38-1.09.47v.09c.53.07.98.22,1.36.46s.66.55.86.92c.2.37.29.8.28,1.28.01.62-.17,1.18-.54,1.68s-.87.9-1.52,1.18c-.64.29-1.37.43-2.18.43s-1.51-.14-2.14-.41Z"/><path class="cls-5" d="M286.91,389.55l4.89-7.59h1.34v2.31h-.84l-3.31,5.13v.09h6.83v1.66h-8.91v-1.62ZM292.4,390.68l.02-.73v-7.98h1.92v11.31h-1.95v-2.59Z"/></g><g id="section35"><path class="cls-7" d="M262.46,359.03c.77-3.24-1.41-3.62-3.34-4.17-11.68-3.32-23.38-6.58-35.04-9.96-3.76-1.09-5.46,0-6.92,3.84-5.7,14.99-11.37,30.6-15.78,43.67-2.78,8.26-2.97,7.97,5.44,10.18,14.29,3.75,25.93,6.94,42.54,10.81,2.46.57,4.39-1.33,4.65-2.81,1.15-6.7,2.11-12.21,3.21-18.92,1.79-10.99,3.53-21.99,5.24-32.64Z"/><path class="cls-5" d="M226.55,384.9c-.63-.27-1.12-.65-1.48-1.14-.36-.49-.55-1.05-.57-1.68h2.05c.02.29.12.55.31.78.19.23.44.41.76.54.32.13.67.19,1.05.19.41,0,.78-.07,1.11-.21.33-.14.59-.34.77-.59.18-.25.27-.54.27-.87,0-.35-.08-.65-.27-.92-.19-.26-.46-.47-.81-.62-.36-.15-.78-.22-1.26-.22h-1.01v-1.57h1.01c.4,0,.76-.07,1.07-.21.31-.14.55-.33.72-.58.17-.25.25-.54.25-.86s-.07-.6-.22-.84-.36-.43-.63-.56-.59-.2-.96-.2-.68.06-.99.19c-.3.13-.55.31-.73.54-.19.23-.29.51-.3.82h-1.96c.03-.62.21-1.18.57-1.66s.83-.86,1.43-1.13c.6-.27,1.27-.41,2-.41s1.41.14,1.98.41c.57.28,1.01.65,1.33,1.13.31.48.47,1.01.46,1.59.01.41-.07.79-.24,1.13-.17.34-.42.62-.73.85-.32.22-.68.38-1.09.47v.09c.53.07.98.22,1.36.46s.66.55.86.92c.2.37.29.8.28,1.28.01.62-.17,1.18-.54,1.68-.37.5-.87.9-1.52,1.18-.64.29-1.37.43-2.18.43s-1.51-.13-2.14-.41Z"/><path class="cls-5" d="M236.69,384.89c-.6-.28-1.07-.66-1.42-1.15-.34-.49-.53-1.04-.55-1.66h1.98c.03.3.14.57.32.81.18.24.42.43.72.56.3.14.62.2.97.2.42,0,.79-.09,1.12-.28s.59-.45.77-.77.28-.7.28-1.12-.1-.81-.29-1.14c-.19-.33-.45-.59-.79-.79-.34-.19-.72-.29-1.16-.29-.45,0-.83.07-1.14.23s-.56.4-.73.74h-1.88l.68-6.41h6.68v1.7h-5l-.34,3.01h.09c.23-.25.54-.46.93-.62.39-.16.82-.24,1.27-.24.69,0,1.32.16,1.88.48.56.32.99.77,1.31,1.34.31.57.47,1.21.47,1.93s-.18,1.41-.53,2c-.35.59-.85,1.05-1.47,1.38-.63.33-1.34.5-2.14.5-.74,0-1.41-.14-2.01-.42Z"/></g><g id="section36"><path class="cls-7" d="M215.77,345.1c.32-2.53-1.31-3.19-2.79-3.95-11.24-5.81-22.52-11.57-33.71-17.47-2.53-1.34-3.96-1.29-5.52,1.49-8.8,15.67-17.78,31.24-26.76,46.81-1.2,2.08-.9,2.91,1.37,4.01,14.23,6.92,28.43,13.91,42.47,21.19,3.94,2.04,5.39,1.2,6.85-2.72,4.55-12.22,9.18-25,13.78-37.49,1.5-4.06,2.95-8.13,4.3-11.87Z"/><path class="cls-5" d="M176.49,364.77c-.63-.27-1.12-.65-1.48-1.14-.36-.49-.55-1.05-.57-1.68h2.05c.02.29.12.55.31.78s.44.41.76.54c.32.13.67.19,1.05.19.41,0,.78-.07,1.11-.21.33-.14.59-.34.77-.59.18-.25.27-.54.27-.87,0-.35-.08-.66-.27-.92-.19-.26-.46-.47-.81-.62-.36-.15-.78-.22-1.26-.22h-1.01v-1.57h1.01c.4,0,.76-.07,1.07-.21.31-.14.55-.33.72-.58.17-.25.25-.54.25-.86s-.07-.6-.22-.84-.36-.43-.63-.56-.59-.2-.96-.2-.68.06-.99.19-.55.31-.73.54c-.19.23-.29.51-.3.82h-1.96c.03-.62.21-1.18.57-1.66s.83-.86,1.43-1.13c.6-.27,1.27-.41,2-.41s1.41.14,1.98.41,1.01.65,1.33,1.13c.31.48.47,1.01.46,1.59.01.41-.07.79-.24,1.13s-.42.62-.73.85c-.32.22-.68.38-1.09.47v.09c.53.07.98.22,1.36.46s.66.55.86.92c.2.37.29.8.28,1.28.01.62-.17,1.18-.54,1.68s-.87.9-1.52,1.18c-.64.29-1.37.43-2.18.43s-1.51-.14-2.14-.41Z"/><path class="cls-5" d="M186.68,364.63c-.66-.36-1.19-.94-1.61-1.76-.41-.82-.62-1.88-.62-3.19s.18-2.38.55-3.3c.37-.92.89-1.62,1.57-2.11s1.48-.72,2.4-.72c.71,0,1.35.14,1.91.41s1.02.65,1.37,1.14.57,1.04.65,1.66h-2.01c-.08-.3-.2-.55-.37-.77-.17-.22-.39-.38-.65-.5s-.57-.17-.91-.17c-.54,0-1,.15-1.38.46-.38.3-.67.74-.87,1.32-.2.57-.3,1.26-.3,2.06h.11c.19-.33.44-.61.73-.84.29-.23.63-.41,1-.54.37-.12.76-.18,1.17-.18.67,0,1.28.16,1.83.47.55.32.98.75,1.29,1.31s.47,1.19.47,1.9-.17,1.41-.52,2c-.35.59-.84,1.06-1.47,1.39s-1.36.5-2.18.5c-.8,0-1.53-.19-2.19-.54ZM189.98,363.23c.33-.2.6-.46.79-.8s.29-.71.29-1.11-.09-.78-.28-1.11-.45-.59-.78-.79c-.33-.19-.71-.29-1.13-.29s-.78.1-1.12.29c-.34.2-.61.46-.8.8-.2.34-.3.7-.31,1.1,0,.39.11.75.3,1.09s.46.6.79.8c.33.2.71.3,1.12.3s.78-.1,1.12-.29Z"/></g><g id="section37"><path class="cls-7" d="M170.49,318.12c-10.32-7.86-20.59-15.78-30.89-23.66-.38-.29-.77-.56-1.22-.86-1.31-.87-3.07-.55-3.99.73-.24.33-.49.66-.75.98-11.32,13.94-22.61,27.9-34.03,41.75-1.75,2.12-2.09,3.49.33,5.2,13.58,9.59,27.15,19.22,40.65,28.93,2.03,1.46,3.03,1.18,4.23-.93,8.91-15.6,17.88-31.17,26.93-46.68,1.43-2.45.76-3.91-1.26-5.45Z"/><path class="cls-5" d="M130.22,336.94c-.63-.27-1.12-.65-1.48-1.14-.36-.49-.55-1.05-.57-1.68h2.05c.02.29.12.55.31.78s.44.41.76.54c.32.13.67.19,1.05.19.41,0,.78-.07,1.11-.21.33-.14.59-.34.77-.59.18-.25.27-.54.27-.87,0-.35-.08-.66-.27-.92-.19-.26-.46-.47-.81-.62-.36-.15-.78-.22-1.26-.22h-1.01v-1.57h1.01c.4,0,.76-.07,1.07-.21.31-.14.55-.33.72-.58.17-.25.25-.54.25-.86s-.07-.6-.22-.84-.36-.43-.63-.56-.59-.2-.96-.2-.68.06-.99.19-.55.31-.73.54c-.19.23-.29.51-.3.82h-1.96c.03-.62.21-1.18.57-1.66s.83-.86,1.43-1.13c.6-.27,1.27-.41,2-.41s1.41.14,1.98.41,1.01.65,1.33,1.13c.31.48.47,1.01.46,1.59.01.41-.07.79-.24,1.13s-.42.62-.73.85c-.32.22-.68.38-1.09.47v.09c.53.07.98.22,1.36.46s.66.55.86.92c.2.37.29.8.28,1.28.01.62-.17,1.18-.54,1.68s-.87.9-1.52,1.18c-.64.29-1.37.43-2.18.43s-1.51-.14-2.14-.41Z"/><path class="cls-5" d="M143.69,327.65v-.07h-5.7v-1.7h7.8v1.74l-4.91,9.57h-2.11l4.91-9.54Z"/></g><g id="section38"><path class="cls-7" d="M132.12,287.76c-8.73-9.83-17.46-19.64-26.13-29.52-1.64-1.87-3.02-2.02-5.07-.53-14.67,10.66-29.45,21.17-44.13,31.83-2.52,1.83-1.09,4.44-.5,5.11,11.99,13.6,24.02,27.16,35.97,40.79,1.89,2.16,3.25,2.25,5.1-.03,11.54-14.2,23.12-28.37,34.8-42.47,1.63-1.97,1.51-3.44-.04-5.19Z"/><path class="cls-5" d="M89.25,297.8c-.63-.27-1.12-.65-1.48-1.14-.36-.49-.55-1.05-.57-1.68h2.05c.02.29.12.55.31.78s.44.41.76.54c.32.13.67.19,1.05.19.41,0,.78-.07,1.11-.21.33-.14.59-.34.77-.59.18-.25.27-.54.27-.87,0-.35-.08-.66-.27-.92-.19-.26-.46-.47-.81-.62-.36-.15-.78-.22-1.26-.22h-1.01v-1.57h1.01c.4,0,.76-.07,1.07-.21.31-.14.55-.33.72-.58.17-.25.25-.54.25-.86s-.07-.6-.22-.84-.36-.43-.63-.56-.59-.2-.96-.2-.68.06-.99.19-.55.31-.73.54c-.19.23-.29.51-.3.82h-1.96c.03-.62.21-1.18.57-1.66s.83-.86,1.43-1.13c.6-.27,1.27-.41,2-.41s1.41.14,1.98.41,1.01.65,1.33,1.13c.31.48.47,1.01.46,1.59.01.41-.07.79-.24,1.13s-.42.62-.73.85c-.32.22-.68.38-1.09.47v.09c.53.07.98.22,1.36.46s.66.55.86.92c.2.37.29.8.28,1.28.01.62-.17,1.18-.54,1.68s-.87.9-1.52,1.18c-.64.29-1.37.43-2.18.43s-1.51-.14-2.14-.41Z"/><path class="cls-5" d="M99.29,297.79c-.65-.28-1.16-.66-1.53-1.14s-.55-1.03-.55-1.63c0-.47.11-.91.32-1.31s.5-.74.88-1.01c.37-.27.78-.43,1.23-.5v-.07c-.39-.09-.73-.25-1.03-.49-.3-.24-.54-.53-.71-.89-.17-.35-.25-.73-.25-1.14,0-.58.17-1.1.5-1.56s.8-.82,1.38-1.08,1.25-.39,1.98-.39,1.39.13,1.98.39c.59.26,1.05.62,1.39,1.08.33.46.5.98.5,1.56,0,.41-.09.79-.26,1.14s-.41.65-.71.89c-.3.24-.65.4-1.03.49v.07c.45.07.86.23,1.23.5.37.27.66.6.88,1.01.22.41.32.84.32,1.31,0,.6-.18,1.15-.55,1.63s-.88.86-1.53,1.14c-.65.28-1.39.41-2.21.41s-1.57-.14-2.22-.41ZM102.66,296.37c.33-.15.59-.36.77-.62.18-.27.27-.57.27-.91s-.09-.67-.28-.96-.45-.5-.79-.66-.71-.24-1.13-.24-.79.08-1.13.24c-.34.16-.6.38-.79.66s-.28.6-.27.96c0,.34.08.65.27.91.18.27.44.47.77.62.33.15.72.22,1.16.22s.82-.07,1.15-.22ZM102.47,291.26c.29-.14.51-.34.67-.59.16-.25.24-.54.24-.86s-.08-.6-.24-.85c-.16-.25-.38-.44-.67-.58-.29-.14-.61-.2-.98-.2s-.7.07-.98.2c-.29.14-.51.33-.66.58s-.23.53-.23.85.08.61.24.86c.16.25.38.45.67.59.28.14.61.21.97.21s.68-.07.97-.21Z"/></g><g id="section39"><path class="cls-7" d="M99.76,255.18c.93-.67,2.04-1.22,2.02-3.03-.33-.72-.74-1.8-1.31-2.8-5.26-9.26-10.54-18.51-15.83-27.75-3.96-6.91-4.02-7-11.2-3.85-15.54,6.82-31.04,13.74-46.52,20.7-1.14.51-2.68,1.92-1.1,4.63,8.62,14.8,16.14,28.02,24.66,42.88,1.32,2.3,2.59,2.75,4.69,1.24,14.86-10.68,29.73-21.34,44.59-32.02Z"/><path class="cls-5" d="M56.18,254.36c-.63-.27-1.12-.65-1.48-1.14-.36-.49-.55-1.05-.57-1.68h2.05c.02.29.12.55.31.78s.44.41.76.54c.32.13.67.19,1.05.19.41,0,.78-.07,1.11-.21.33-.14.59-.34.77-.59.18-.25.27-.54.27-.87,0-.35-.08-.66-.27-.92-.19-.26-.46-.47-.81-.62-.36-.15-.78-.22-1.26-.22h-1.01v-1.57h1.01c.4,0,.76-.07,1.07-.21.31-.14.55-.33.72-.58.17-.25.25-.54.25-.86s-.07-.6-.22-.84-.36-.43-.63-.56-.59-.2-.96-.2-.68.06-.99.19-.55.31-.73.54c-.19.23-.29.51-.3.82h-1.96c.03-.62.21-1.18.57-1.66s.83-.86,1.43-1.13c.6-.27,1.27-.41,2-.41s1.41.14,1.98.41,1.01.65,1.33,1.13c.31.48.47,1.01.46,1.59.01.41-.07.79-.24,1.13s-.42.62-.73.85c-.32.22-.68.38-1.09.47v.09c.53.07.98.22,1.36.46s.66.55.86.92c.2.37.29.8.28,1.28.01.62-.17,1.18-.54,1.68s-.87.9-1.52,1.18c-.64.29-1.37.43-2.18.43s-1.51-.14-2.14-.41Z"/><path class="cls-5" d="M70.53,243.67c.66.35,1.19.94,1.6,1.75.41.81.61,1.88.61,3.19,0,1.28-.18,2.38-.54,3.31s-.89,1.63-1.58,2.12c-.69.49-1.49.73-2.41.73-.71,0-1.35-.14-1.91-.42-.57-.28-1.03-.66-1.38-1.15-.35-.49-.57-1.04-.65-1.66h2c.07.3.2.55.37.77.17.22.39.39.66.51s.57.18.91.18c.54,0,1-.15,1.39-.46s.67-.75.88-1.33c.2-.58.3-1.27.3-2.07h-.12c-.19.32-.44.59-.73.83-.29.23-.62.41-1,.54-.37.12-.76.19-1.18.19-.67,0-1.27-.16-1.82-.47s-.98-.75-1.3-1.31c-.32-.56-.48-1.19-.48-1.88,0-.74.17-1.41.52-2,.35-.59.84-1.05,1.47-1.39s1.36-.5,2.18-.5c.8,0,1.53.18,2.19.53ZM67.23,245.07c-.34.2-.6.46-.79.79-.19.33-.29.7-.29,1.1,0,.4.1.77.29,1.1s.45.59.77.79.7.29,1.11.29.79-.1,1.12-.3c.34-.2.61-.47.81-.81.2-.34.3-.69.29-1.07,0-.39-.1-.75-.29-1.08-.19-.33-.45-.59-.79-.79-.33-.2-.71-.3-1.13-.3s-.78.1-1.11.29Z"/></g><g id="section40"><path class="cls-7" d="M31.2,233.62c14.81-6.37,29.51-13.02,44.27-19.52,2.35-1.03,4.07-2.28,3.19-5.25-3.26-11.01-6.5-22.02-9.72-33.03-.43-1.47-1.13-2.4-2.41-2.14-.58.1-.74.12-.9.15-18.29,3.42-36.57,6.88-54.88,10.23-3.19.58-2.87,2.15-2.17,4.61,3.88,13.58,7.94,26.45,11.98,39.65,2.6,8.51,2.75,8.7,10.64,5.3Z"/><path class="cls-5" d="M33.97,203.66l4.89-7.59h1.34v2.31h-.84l-3.31,5.13v.09h6.83v1.66h-8.91v-1.62ZM39.47,204.8l.02-.73v-7.98h1.92v11.31h-1.95v-2.59Z"/><path class="cls-5" d="M46.36,206.87c-.65-.45-1.15-1.12-1.49-1.99-.35-.87-.52-1.92-.52-3.14s.17-2.27.52-3.14c.35-.87.84-1.53,1.5-1.99.65-.46,1.43-.68,2.33-.68s1.68.23,2.33.68c.65.46,1.15,1.12,1.5,1.99s.52,1.92.52,3.14-.17,2.28-.51,3.15c-.34.87-.84,1.53-1.49,1.98-.65.45-1.43.68-2.34.68s-1.68-.23-2.33-.68ZM49.92,205.37c.34-.31.61-.77.79-1.38.18-.61.27-1.36.27-2.25,0-.89-.09-1.64-.28-2.25-.19-.62-.45-1.08-.79-1.4-.34-.32-.75-.47-1.22-.47s-.88.16-1.22.47c-.34.32-.61.78-.79,1.4s-.28,1.37-.28,2.25.09,1.64.28,2.25c.18.61.45,1.07.79,1.38s.75.46,1.23.46.88-.16,1.23-.46Z"/></g><g id="section41"><path class="cls-7" d="M11.46,181.51c17.27-3.36,34.56-6.68,51.88-9.77,3.16-.56,3.93-1.88,3.55-4.68-2.06-11.95-4.15-23.89-6.17-35.84-.43-2.57-2.24-2.56-4.11-2.49-5.98.22-39.9.52-50.84,1.69-2.03.22-4.08-.13-3.76,3.08,1.47,14.71,2.96,29.41,4.15,44.14.32,3.93,1.88,4.53,5.31,3.86Z"/><path class="cls-5" d="M25.04,154.5l4.89-7.59h1.34v2.31h-.84l-3.31,5.13v.09h6.83v1.66h-8.91v-1.62ZM30.53,155.64l.02-.73v-7.98h1.92v11.31h-1.95v-2.59Z"/><path class="cls-5" d="M40.02,158.23h-2.05v-9.33h-.06l-2.65,1.7v-1.87l2.8-1.81h1.95v11.31Z"/></g><g id="section42"><path class="cls-7" d="M8.17,127.44c1.83,0,33.38-.8,47.33-1.04,1.89-.03,4.37.51,4.23-2.68-.53-11.61-1.15-23.21-1.68-34.81-.12-2.65-1.59-3.23-3.91-3.3-3.81-.11-7.61-.49-11.42-.73-12.92-.81-25.84-1.59-38.76-2.42-2.51-.16-3.98.21-3.96,3.4.08,10.99.49,22.92.92,34.37q.27,7.25,7.25,7.21Z"/><path class="cls-5" d="M19.55,107.86l4.89-7.59h1.34v2.31h-.84l-3.31,5.13v.09h6.83v1.66h-8.91v-1.62ZM25.05,108.99l.02-.73v-7.98h1.92v11.31h-1.95v-2.59Z"/><path class="cls-5" d="M30.1,110.11l3.99-3.84c.44-.44.78-.8,1.02-1.07.24-.28.42-.56.55-.83s.19-.57.19-.88c0-.34-.09-.64-.26-.9s-.4-.46-.7-.61c-.29-.14-.62-.21-1-.21s-.71.08-1,.23c-.29.15-.52.37-.67.66s-.23.62-.23.99h-1.93c0-.7.16-1.32.49-1.86s.79-.95,1.37-1.24,1.25-.44,2-.44,1.43.14,2.02.42c.58.28,1.04.67,1.36,1.16.33.5.49,1.06.49,1.69,0,.44-.08.86-.25,1.27-.17.41-.45.85-.86,1.34-.4.49-.98,1.09-1.73,1.8l-2.02,2v.09h5.02v1.7h-7.85v-1.48Z"/></g><g id="section43"><path class="cls-7" d="M7.34,80.4c1.91.18,33.44,1.97,46.71,3.1,1.76.15,3.8.2,4-3.1.72-11.85,1.36-23.66,2.06-35.1.16-2.59-1.1-3.35-3.18-3.74-3.44-.64-6.87-1.56-10.34-2.34-12.02-2.7-25.94-5.62-38.67-8.51-.84-.19-1.62.06-2.3.48-1.41.89-2.25,2.45-2.38,4.11-.46,5.88-1.96,25.17-2.62,35.8-.9,7.97-.66,8.58,6.72,9.29Z"/><path class="cls-5" d="M20.19,61.46l4.89-7.59h1.34v2.31h-.84l-3.31,5.13v.09h6.83v1.66h-8.91v-1.62ZM25.68,62.6l.02-.73v-7.98h1.92v11.31h-1.95v-2.59Z"/><path class="cls-5" d="M32.7,64.94c-.63-.27-1.12-.65-1.48-1.14-.36-.49-.55-1.05-.57-1.68h2.05c.02.29.12.55.31.78s.44.41.76.54c.32.13.67.19,1.05.19.41,0,.78-.07,1.11-.21.33-.14.59-.34.77-.59.18-.25.27-.54.27-.87,0-.35-.08-.66-.27-.92-.19-.26-.46-.47-.81-.62-.36-.15-.78-.22-1.26-.22h-1.01v-1.57h1.01c.4,0,.76-.07,1.07-.21.31-.14.55-.33.72-.58.17-.25.25-.54.25-.86s-.07-.6-.22-.84-.36-.43-.63-.56-.59-.2-.96-.2-.68.06-.99.19-.55.31-.73.54c-.19.23-.29.51-.3.82h-1.96c.03-.62.21-1.18.57-1.66s.83-.86,1.43-1.13c.6-.27,1.27-.41,2-.41s1.41.14,1.98.41,1.01.65,1.33,1.13c.31.48.47,1.01.46,1.59.01.41-.07.79-.24,1.13s-.42.62-.73.85c-.32.22-.68.38-1.09.47v.09c.53.07.98.22,1.36.46s.66.55.86.92c.2.37.29.8.28,1.28.01.62-.17,1.18-.54,1.68s-.87.9-1.52,1.18c-.64.29-1.37.43-2.18.43s-1.51-.14-2.14-.41Z"/></g></svg>